%TF.GenerationSoftware,KiCad,Pcbnew,9.0.7*%
%TF.CreationDate,2026-03-15T12:30:39+05:30*%
%TF.ProjectId,Pill_Dispenser_V3,50696c6c-5f44-4697-9370-656e7365725f,rev?*%
%TF.SameCoordinates,Original*%
%TF.FileFunction,Soldermask,Top*%
%TF.FilePolarity,Negative*%
%FSLAX46Y46*%
G04 Gerber Fmt 4.6, Leading zero omitted, Abs format (unit mm)*
G04 Created by KiCad (PCBNEW 9.0.7) date 2026-03-15 12:30:39*
%MOMM*%
%LPD*%
G01*
G04 APERTURE LIST*
G04 Aperture macros list*
%AMRoundRect*
0 Rectangle with rounded corners*
0 $1 Rounding radius*
0 $2 $3 $4 $5 $6 $7 $8 $9 X,Y pos of 4 corners*
0 Add a 4 corners polygon primitive as box body*
4,1,4,$2,$3,$4,$5,$6,$7,$8,$9,$2,$3,0*
0 Add four circle primitives for the rounded corners*
1,1,$1+$1,$2,$3*
1,1,$1+$1,$4,$5*
1,1,$1+$1,$6,$7*
1,1,$1+$1,$8,$9*
0 Add four rect primitives between the rounded corners*
20,1,$1+$1,$2,$3,$4,$5,0*
20,1,$1+$1,$4,$5,$6,$7,0*
20,1,$1+$1,$6,$7,$8,$9,0*
20,1,$1+$1,$8,$9,$2,$3,0*%
G04 Aperture macros list end*
%ADD10R,1.600000X1.600000*%
%ADD11C,1.600000*%
%ADD12RoundRect,0.250000X-0.350000X-0.625000X0.350000X-0.625000X0.350000X0.625000X-0.350000X0.625000X0*%
%ADD13O,1.200000X1.750000*%
%ADD14R,1.700000X1.700000*%
%ADD15C,1.700000*%
%ADD16RoundRect,0.250000X-1.000000X-0.650000X1.000000X-0.650000X1.000000X0.650000X-1.000000X0.650000X0*%
%ADD17RoundRect,0.225000X-0.225000X-0.250000X0.225000X-0.250000X0.225000X0.250000X-0.225000X0.250000X0*%
%ADD18RoundRect,0.218750X-0.218750X-0.256250X0.218750X-0.256250X0.218750X0.256250X-0.218750X0.256250X0*%
%ADD19RoundRect,0.200000X-0.200000X-0.275000X0.200000X-0.275000X0.200000X0.275000X-0.200000X0.275000X0*%
%ADD20RoundRect,0.150000X-0.512500X-0.150000X0.512500X-0.150000X0.512500X0.150000X-0.512500X0.150000X0*%
%ADD21R,2.750000X1.000000*%
%ADD22RoundRect,0.150000X-0.825000X-0.150000X0.825000X-0.150000X0.825000X0.150000X-0.825000X0.150000X0*%
%ADD23R,2.410000X3.300000*%
%ADD24RoundRect,0.150000X-0.587500X-0.150000X0.587500X-0.150000X0.587500X0.150000X-0.587500X0.150000X0*%
%ADD25RoundRect,0.250000X-1.500000X-0.550000X1.500000X-0.550000X1.500000X0.550000X-1.500000X0.550000X0*%
%ADD26R,1.500000X0.900000*%
%ADD27R,0.900000X1.500000*%
%ADD28C,0.600000*%
%ADD29R,3.900000X3.900000*%
%ADD30C,2.000000*%
G04 APERTURE END LIST*
D10*
%TO.C,BZ1*%
X28000000Y-38000000D03*
D11*
X31200000Y-38000000D03*
%TD*%
D12*
%TO.C,J4*%
X6000000Y-48000000D03*
D13*
X8000000Y-48000000D03*
%TD*%
D14*
%TO.C,J2*%
X16000000Y-8000000D03*
D15*
X16000000Y-10540000D03*
X16000000Y-13080000D03*
%TD*%
D16*
%TO.C,D3*%
X14000000Y-48000000D03*
X18000000Y-48000000D03*
%TD*%
D17*
%TO.C,C6*%
X39225000Y-24000000D03*
X40775000Y-24000000D03*
%TD*%
%TO.C,C9*%
X39225000Y-42000000D03*
X40775000Y-42000000D03*
%TD*%
%TO.C,C5*%
X39225000Y-18000000D03*
X40775000Y-18000000D03*
%TD*%
D18*
%TO.C,D1*%
X33212500Y-10000000D03*
X34787500Y-10000000D03*
%TD*%
D19*
%TO.C,R2*%
X33175000Y-34000000D03*
X34825000Y-34000000D03*
%TD*%
%TO.C,R10*%
X45175000Y-36000000D03*
X46825000Y-36000000D03*
%TD*%
%TO.C,R4*%
X33175000Y-44000000D03*
X34825000Y-44000000D03*
%TD*%
D20*
%TO.C,U4*%
X4862500Y-34050000D03*
X4862500Y-35000000D03*
X4862500Y-35950000D03*
X7137500Y-35950000D03*
X7137500Y-34050000D03*
%TD*%
D17*
%TO.C,C7*%
X39225000Y-30000000D03*
X40775000Y-30000000D03*
%TD*%
D21*
%TO.C,SW3*%
X52120000Y-52000000D03*
X57880000Y-52000000D03*
X52120000Y-56000000D03*
X57880000Y-56000000D03*
%TD*%
D22*
%TO.C,U3*%
X3525000Y-20095000D03*
X3525000Y-21365000D03*
X3525000Y-22635000D03*
X3525000Y-23905000D03*
X8475000Y-23905000D03*
X8475000Y-22635000D03*
X8475000Y-21365000D03*
X8475000Y-20095000D03*
D23*
X6000000Y-22000000D03*
%TD*%
D19*
%TO.C,R12*%
X21175000Y-28000000D03*
X22825000Y-28000000D03*
%TD*%
D24*
%TO.C,Q1*%
X27062500Y-43050000D03*
X27062500Y-44950000D03*
X28937500Y-44000000D03*
%TD*%
D25*
%TO.C,C10*%
X13200000Y-35000000D03*
X18800000Y-35000000D03*
%TD*%
D19*
%TO.C,R13*%
X33175000Y-38000000D03*
X34825000Y-38000000D03*
%TD*%
%TO.C,R14*%
X33175000Y-42000000D03*
X34825000Y-42000000D03*
%TD*%
%TO.C,R11*%
X21175000Y-22000000D03*
X22825000Y-22000000D03*
%TD*%
D18*
%TO.C,D5*%
X33212500Y-22000000D03*
X34787500Y-22000000D03*
%TD*%
%TO.C,D4*%
X33212500Y-16000000D03*
X34787500Y-16000000D03*
%TD*%
D17*
%TO.C,C2*%
X21225000Y-16000000D03*
X22775000Y-16000000D03*
%TD*%
D19*
%TO.C,R7*%
X45175000Y-24000000D03*
X46825000Y-24000000D03*
%TD*%
%TO.C,R5*%
X15175000Y-22000000D03*
X16825000Y-22000000D03*
%TD*%
%TO.C,R6*%
X45175000Y-18000000D03*
X46825000Y-18000000D03*
%TD*%
%TO.C,R9*%
X45175000Y-30000000D03*
X46825000Y-30000000D03*
%TD*%
D17*
%TO.C,C1*%
X21225000Y-10000000D03*
X22775000Y-10000000D03*
%TD*%
D21*
%TO.C,SW1*%
X61120000Y-52000000D03*
X66880000Y-52000000D03*
X61120000Y-56000000D03*
X66880000Y-56000000D03*
%TD*%
D19*
%TO.C,R8*%
X39175000Y-48000000D03*
X40825000Y-48000000D03*
%TD*%
%TO.C,R15*%
X27175000Y-22000000D03*
X28825000Y-22000000D03*
%TD*%
D26*
%TO.C,U1*%
X46250000Y-24740000D03*
X46250000Y-26010000D03*
X46250000Y-27280000D03*
X46250000Y-28550000D03*
X46250000Y-29820000D03*
X46250000Y-31090000D03*
X46250000Y-32360000D03*
X46250000Y-33630000D03*
X46250000Y-34900000D03*
X46250000Y-36170000D03*
X46250000Y-37440000D03*
X46250000Y-38710000D03*
X46250000Y-39980000D03*
X46250000Y-41250000D03*
D27*
X48015000Y-42500000D03*
X49285000Y-42500000D03*
X50555000Y-42500000D03*
X51825000Y-42500000D03*
X53095000Y-42500000D03*
X54365000Y-42500000D03*
X55635000Y-42500000D03*
X56905000Y-42500000D03*
X58175000Y-42500000D03*
X59445000Y-42500000D03*
X60715000Y-42500000D03*
X61985000Y-42500000D03*
D26*
X63750000Y-41250000D03*
X63750000Y-39980000D03*
X63750000Y-38710000D03*
X63750000Y-37440000D03*
X63750000Y-36170000D03*
X63750000Y-34900000D03*
X63750000Y-33630000D03*
X63750000Y-32360000D03*
X63750000Y-31090000D03*
X63750000Y-29820000D03*
X63750000Y-28550000D03*
X63750000Y-27280000D03*
X63750000Y-26010000D03*
X63750000Y-24740000D03*
D28*
X52100000Y-31760000D03*
X52100000Y-33160000D03*
X52800000Y-31060000D03*
X52800000Y-32460000D03*
X52800000Y-33860000D03*
X53500000Y-31760000D03*
D29*
X53500000Y-32460000D03*
D28*
X53500000Y-33160000D03*
X54200000Y-31060000D03*
X54200000Y-32460000D03*
X54200000Y-33860000D03*
X54900000Y-31760000D03*
X54900000Y-33160000D03*
%TD*%
D17*
%TO.C,C8*%
X39225000Y-36000000D03*
X40775000Y-36000000D03*
%TD*%
D21*
%TO.C,SW2*%
X43120000Y-52000000D03*
X48880000Y-52000000D03*
X43120000Y-56000000D03*
X48880000Y-56000000D03*
%TD*%
D19*
%TO.C,R1*%
X33175000Y-28000000D03*
X34825000Y-28000000D03*
%TD*%
D14*
%TO.C,J3*%
X28000000Y-54000000D03*
D15*
X28000000Y-56540000D03*
X28000000Y-59080000D03*
X28000000Y-61620000D03*
%TD*%
D19*
%TO.C,R17*%
X45175000Y-48000000D03*
X46825000Y-48000000D03*
%TD*%
D30*
%TO.C,SW4*%
X14000000Y-53250000D03*
X14000000Y-59250000D03*
X26000000Y-53250000D03*
X26000000Y-59250000D03*
D15*
X16000000Y-55000000D03*
X20000000Y-55000000D03*
X24000000Y-55000000D03*
%TD*%
D19*
%TO.C,R16*%
X27175000Y-28000000D03*
X28825000Y-28000000D03*
%TD*%
M02*
