%TF.GenerationSoftware,KiCad,Pcbnew,9.0.7*%
%TF.CreationDate,2026-03-15T12:30:39+05:30*%
%TF.ProjectId,Pill_Dispenser_V3,50696c6c-5f44-4697-9370-656e7365725f,rev?*%
%TF.SameCoordinates,Original*%
%TF.FileFunction,Copper,L2,Bot*%
%TF.FilePolarity,Positive*%
%FSLAX46Y46*%
G04 Gerber Fmt 4.6, Leading zero omitted, Abs format (unit mm)*
G04 Created by KiCad (PCBNEW 9.0.7) date 2026-03-15 12:30:39*
%MOMM*%
%LPD*%
G01*
G04 APERTURE LIST*
G04 Aperture macros list*
%AMRoundRect*
0 Rectangle with rounded corners*
0 $1 Rounding radius*
0 $2 $3 $4 $5 $6 $7 $8 $9 X,Y pos of 4 corners*
0 Add a 4 corners polygon primitive as box body*
4,1,4,$2,$3,$4,$5,$6,$7,$8,$9,$2,$3,0*
0 Add four circle primitives for the rounded corners*
1,1,$1+$1,$2,$3*
1,1,$1+$1,$4,$5*
1,1,$1+$1,$6,$7*
1,1,$1+$1,$8,$9*
0 Add four rect primitives between the rounded corners*
20,1,$1+$1,$2,$3,$4,$5,0*
20,1,$1+$1,$4,$5,$6,$7,0*
20,1,$1+$1,$6,$7,$8,$9,0*
20,1,$1+$1,$8,$9,$2,$3,0*%
G04 Aperture macros list end*
%TA.AperFunction,ComponentPad*%
%ADD10R,1.600000X1.600000*%
%TD*%
%TA.AperFunction,ComponentPad*%
%ADD11C,1.600000*%
%TD*%
%TA.AperFunction,ComponentPad*%
%ADD12RoundRect,0.250000X-0.350000X-0.625000X0.350000X-0.625000X0.350000X0.625000X-0.350000X0.625000X0*%
%TD*%
%TA.AperFunction,ComponentPad*%
%ADD13O,1.200000X1.750000*%
%TD*%
%TA.AperFunction,ComponentPad*%
%ADD14R,1.700000X1.700000*%
%TD*%
%TA.AperFunction,ComponentPad*%
%ADD15C,1.700000*%
%TD*%
%TA.AperFunction,HeatsinkPad*%
%ADD16C,0.500000*%
%TD*%
%TA.AperFunction,HeatsinkPad*%
%ADD17R,1.900000X2.900000*%
%TD*%
%TA.AperFunction,HeatsinkPad*%
%ADD18C,0.600000*%
%TD*%
%TA.AperFunction,HeatsinkPad*%
%ADD19O,2.100000X1.000000*%
%TD*%
%TA.AperFunction,HeatsinkPad*%
%ADD20O,1.600000X1.000000*%
%TD*%
%TA.AperFunction,ComponentPad*%
%ADD21C,2.000000*%
%TD*%
G04 APERTURE END LIST*
D10*
%TO.P,BZ1,1*%
%TO.N,N/C*%
X28000000Y-38000000D03*
D11*
%TO.P,BZ1,2*%
X31200000Y-38000000D03*
%TD*%
D12*
%TO.P,J4,1*%
%TO.N,N/C*%
X6000000Y-48000000D03*
D13*
%TO.P,J4,2*%
X8000000Y-48000000D03*
%TD*%
D14*
%TO.P,J2,1*%
%TO.N,N/C*%
X16000000Y-8000000D03*
D15*
%TO.P,J2,2*%
X16000000Y-10540000D03*
%TO.P,J2,3*%
X16000000Y-13080000D03*
%TD*%
D16*
%TO.P,U3,9*%
%TO.N,N/C*%
X5300000Y-20800000D03*
X5300000Y-22000000D03*
X5300000Y-23200000D03*
D17*
X6000000Y-22000000D03*
D16*
X6700000Y-20800000D03*
X6700000Y-22000000D03*
X6700000Y-23200000D03*
%TD*%
D18*
%TO.P,U1,41*%
%TO.N,N/C*%
X52100000Y-31760000D03*
X52100000Y-33160000D03*
X52800000Y-31060000D03*
X52800000Y-32460000D03*
X52800000Y-33860000D03*
X53500000Y-31760000D03*
X53500000Y-33160000D03*
X54200000Y-31060000D03*
X54200000Y-32460000D03*
X54200000Y-33860000D03*
X54900000Y-31760000D03*
X54900000Y-33160000D03*
%TD*%
D14*
%TO.P,J3,1*%
%TO.N,N/C*%
X28000000Y-54000000D03*
D15*
%TO.P,J3,2*%
X28000000Y-56540000D03*
%TO.P,J3,3*%
X28000000Y-59080000D03*
%TO.P,J3,4*%
X28000000Y-61620000D03*
%TD*%
D19*
%TO.P,J1,S1*%
%TO.N,N/C*%
X9130000Y-3680000D03*
D20*
X4950000Y-3680000D03*
D19*
X9130000Y-12320000D03*
D20*
X4950000Y-12320000D03*
%TD*%
D21*
%TO.P,SW4,*%
%TO.N,*%
X14000000Y-53250000D03*
X14000000Y-59250000D03*
X26000000Y-53250000D03*
X26000000Y-59250000D03*
D15*
%TO.P,SW4,1*%
%TO.N,N/C*%
X16000000Y-55000000D03*
%TO.P,SW4,2*%
X20000000Y-55000000D03*
%TO.P,SW4,3*%
X24000000Y-55000000D03*
%TD*%
M02*
