%TF.GenerationSoftware,KiCad,Pcbnew,9.0.7*%
%TF.CreationDate,2026-03-23T21:33:52+05:30*%
%TF.ProjectId,Pill_Dispenser_V4,50696c6c-5f44-4697-9370-656e7365725f,rev?*%
%TF.SameCoordinates,Original*%
%TF.FileFunction,AssemblyDrawing,Top*%
%FSLAX46Y46*%
G04 Gerber Fmt 4.6, Leading zero omitted, Abs format (unit mm)*
G04 Created by KiCad (PCBNEW 9.0.7) date 2026-03-23 21:33:52*
%MOMM*%
%LPD*%
G01*
G04 APERTURE LIST*
%ADD10C,0.087500*%
%ADD11C,0.060000*%
%ADD12C,0.110000*%
%ADD13C,0.100000*%
G04 APERTURE END LIST*
D10*
X65175000Y-85424033D02*
X65175000Y-85657366D01*
X65091667Y-85290700D02*
X65008333Y-85540700D01*
X65008333Y-85540700D02*
X65225000Y-85540700D01*
X65358333Y-85624033D02*
X65375000Y-85640700D01*
X65375000Y-85640700D02*
X65358333Y-85657366D01*
X65358333Y-85657366D02*
X65341666Y-85640700D01*
X65341666Y-85640700D02*
X65358333Y-85624033D01*
X65358333Y-85624033D02*
X65358333Y-85657366D01*
X65491667Y-85307366D02*
X65725000Y-85307366D01*
X65725000Y-85307366D02*
X65575000Y-85657366D01*
X65858333Y-85657366D02*
X65858333Y-85307366D01*
X65891666Y-85524033D02*
X65991666Y-85657366D01*
X65991666Y-85424033D02*
X65858333Y-85557366D01*
D11*
X65681927Y-83741666D02*
X65491451Y-83874999D01*
X65681927Y-83970237D02*
X65281927Y-83970237D01*
X65281927Y-83970237D02*
X65281927Y-83817856D01*
X65281927Y-83817856D02*
X65300975Y-83779761D01*
X65300975Y-83779761D02*
X65320022Y-83760714D01*
X65320022Y-83760714D02*
X65358118Y-83741666D01*
X65358118Y-83741666D02*
X65415260Y-83741666D01*
X65415260Y-83741666D02*
X65453356Y-83760714D01*
X65453356Y-83760714D02*
X65472403Y-83779761D01*
X65472403Y-83779761D02*
X65491451Y-83817856D01*
X65491451Y-83817856D02*
X65491451Y-83970237D01*
X65281927Y-83398809D02*
X65281927Y-83474999D01*
X65281927Y-83474999D02*
X65300975Y-83513095D01*
X65300975Y-83513095D02*
X65320022Y-83532142D01*
X65320022Y-83532142D02*
X65377165Y-83570237D01*
X65377165Y-83570237D02*
X65453356Y-83589285D01*
X65453356Y-83589285D02*
X65605737Y-83589285D01*
X65605737Y-83589285D02*
X65643832Y-83570237D01*
X65643832Y-83570237D02*
X65662880Y-83551190D01*
X65662880Y-83551190D02*
X65681927Y-83513095D01*
X65681927Y-83513095D02*
X65681927Y-83436904D01*
X65681927Y-83436904D02*
X65662880Y-83398809D01*
X65662880Y-83398809D02*
X65643832Y-83379761D01*
X65643832Y-83379761D02*
X65605737Y-83360714D01*
X65605737Y-83360714D02*
X65510499Y-83360714D01*
X65510499Y-83360714D02*
X65472403Y-83379761D01*
X65472403Y-83379761D02*
X65453356Y-83398809D01*
X65453356Y-83398809D02*
X65434308Y-83436904D01*
X65434308Y-83436904D02*
X65434308Y-83513095D01*
X65434308Y-83513095D02*
X65453356Y-83551190D01*
X65453356Y-83551190D02*
X65472403Y-83570237D01*
X65472403Y-83570237D02*
X65510499Y-83589285D01*
D10*
X91974033Y-83975000D02*
X91990700Y-83925000D01*
X91990700Y-83925000D02*
X92007366Y-83908333D01*
X92007366Y-83908333D02*
X92040700Y-83891666D01*
X92040700Y-83891666D02*
X92090700Y-83891666D01*
X92090700Y-83891666D02*
X92124033Y-83908333D01*
X92124033Y-83908333D02*
X92140700Y-83925000D01*
X92140700Y-83925000D02*
X92157366Y-83958333D01*
X92157366Y-83958333D02*
X92157366Y-84091666D01*
X92157366Y-84091666D02*
X91807366Y-84091666D01*
X91807366Y-84091666D02*
X91807366Y-83975000D01*
X91807366Y-83975000D02*
X91824033Y-83941666D01*
X91824033Y-83941666D02*
X91840700Y-83925000D01*
X91840700Y-83925000D02*
X91874033Y-83908333D01*
X91874033Y-83908333D02*
X91907366Y-83908333D01*
X91907366Y-83908333D02*
X91940700Y-83925000D01*
X91940700Y-83925000D02*
X91957366Y-83941666D01*
X91957366Y-83941666D02*
X91974033Y-83975000D01*
X91974033Y-83975000D02*
X91974033Y-84091666D01*
X91807366Y-83675000D02*
X91807366Y-83608333D01*
X91807366Y-83608333D02*
X91824033Y-83575000D01*
X91824033Y-83575000D02*
X91857366Y-83541666D01*
X91857366Y-83541666D02*
X91924033Y-83525000D01*
X91924033Y-83525000D02*
X92040700Y-83525000D01*
X92040700Y-83525000D02*
X92107366Y-83541666D01*
X92107366Y-83541666D02*
X92140700Y-83575000D01*
X92140700Y-83575000D02*
X92157366Y-83608333D01*
X92157366Y-83608333D02*
X92157366Y-83675000D01*
X92157366Y-83675000D02*
X92140700Y-83708333D01*
X92140700Y-83708333D02*
X92107366Y-83741666D01*
X92107366Y-83741666D02*
X92040700Y-83758333D01*
X92040700Y-83758333D02*
X91924033Y-83758333D01*
X91924033Y-83758333D02*
X91857366Y-83741666D01*
X91857366Y-83741666D02*
X91824033Y-83708333D01*
X91824033Y-83708333D02*
X91807366Y-83675000D01*
X91807366Y-83308333D02*
X91807366Y-83241666D01*
X91807366Y-83241666D02*
X91824033Y-83208333D01*
X91824033Y-83208333D02*
X91857366Y-83174999D01*
X91857366Y-83174999D02*
X91924033Y-83158333D01*
X91924033Y-83158333D02*
X92040700Y-83158333D01*
X92040700Y-83158333D02*
X92107366Y-83174999D01*
X92107366Y-83174999D02*
X92140700Y-83208333D01*
X92140700Y-83208333D02*
X92157366Y-83241666D01*
X92157366Y-83241666D02*
X92157366Y-83308333D01*
X92157366Y-83308333D02*
X92140700Y-83341666D01*
X92140700Y-83341666D02*
X92107366Y-83374999D01*
X92107366Y-83374999D02*
X92040700Y-83391666D01*
X92040700Y-83391666D02*
X91924033Y-83391666D01*
X91924033Y-83391666D02*
X91857366Y-83374999D01*
X91857366Y-83374999D02*
X91824033Y-83341666D01*
X91824033Y-83341666D02*
X91807366Y-83308333D01*
X91807366Y-83058332D02*
X91807366Y-82858332D01*
X92157366Y-82958332D02*
X91807366Y-82958332D01*
X97033333Y-82640700D02*
X97083333Y-82657366D01*
X97083333Y-82657366D02*
X97166667Y-82657366D01*
X97166667Y-82657366D02*
X97200000Y-82640700D01*
X97200000Y-82640700D02*
X97216667Y-82624033D01*
X97216667Y-82624033D02*
X97233333Y-82590700D01*
X97233333Y-82590700D02*
X97233333Y-82557366D01*
X97233333Y-82557366D02*
X97216667Y-82524033D01*
X97216667Y-82524033D02*
X97200000Y-82507366D01*
X97200000Y-82507366D02*
X97166667Y-82490700D01*
X97166667Y-82490700D02*
X97100000Y-82474033D01*
X97100000Y-82474033D02*
X97066667Y-82457366D01*
X97066667Y-82457366D02*
X97050000Y-82440700D01*
X97050000Y-82440700D02*
X97033333Y-82407366D01*
X97033333Y-82407366D02*
X97033333Y-82374033D01*
X97033333Y-82374033D02*
X97050000Y-82340700D01*
X97050000Y-82340700D02*
X97066667Y-82324033D01*
X97066667Y-82324033D02*
X97100000Y-82307366D01*
X97100000Y-82307366D02*
X97183333Y-82307366D01*
X97183333Y-82307366D02*
X97233333Y-82324033D01*
X97350000Y-82307366D02*
X97433333Y-82657366D01*
X97433333Y-82657366D02*
X97500000Y-82407366D01*
X97500000Y-82407366D02*
X97566666Y-82657366D01*
X97566666Y-82657366D02*
X97650000Y-82307366D01*
X97766666Y-82340700D02*
X97783333Y-82324033D01*
X97783333Y-82324033D02*
X97816666Y-82307366D01*
X97816666Y-82307366D02*
X97900000Y-82307366D01*
X97900000Y-82307366D02*
X97933333Y-82324033D01*
X97933333Y-82324033D02*
X97950000Y-82340700D01*
X97950000Y-82340700D02*
X97966666Y-82374033D01*
X97966666Y-82374033D02*
X97966666Y-82407366D01*
X97966666Y-82407366D02*
X97950000Y-82457366D01*
X97950000Y-82457366D02*
X97750000Y-82657366D01*
X97750000Y-82657366D02*
X97966666Y-82657366D01*
X99233333Y-64060700D02*
X99283333Y-64077366D01*
X99283333Y-64077366D02*
X99366667Y-64077366D01*
X99366667Y-64077366D02*
X99400000Y-64060700D01*
X99400000Y-64060700D02*
X99416667Y-64044033D01*
X99416667Y-64044033D02*
X99433333Y-64010700D01*
X99433333Y-64010700D02*
X99433333Y-63977366D01*
X99433333Y-63977366D02*
X99416667Y-63944033D01*
X99416667Y-63944033D02*
X99400000Y-63927366D01*
X99400000Y-63927366D02*
X99366667Y-63910700D01*
X99366667Y-63910700D02*
X99300000Y-63894033D01*
X99300000Y-63894033D02*
X99266667Y-63877366D01*
X99266667Y-63877366D02*
X99250000Y-63860700D01*
X99250000Y-63860700D02*
X99233333Y-63827366D01*
X99233333Y-63827366D02*
X99233333Y-63794033D01*
X99233333Y-63794033D02*
X99250000Y-63760700D01*
X99250000Y-63760700D02*
X99266667Y-63744033D01*
X99266667Y-63744033D02*
X99300000Y-63727366D01*
X99300000Y-63727366D02*
X99383333Y-63727366D01*
X99383333Y-63727366D02*
X99433333Y-63744033D01*
X99583333Y-63894033D02*
X99700000Y-63894033D01*
X99750000Y-64077366D02*
X99583333Y-64077366D01*
X99583333Y-64077366D02*
X99583333Y-63727366D01*
X99583333Y-63727366D02*
X99750000Y-63727366D01*
X100100000Y-64077366D02*
X99983333Y-63910700D01*
X99900000Y-64077366D02*
X99900000Y-63727366D01*
X99900000Y-63727366D02*
X100033333Y-63727366D01*
X100033333Y-63727366D02*
X100066667Y-63744033D01*
X100066667Y-63744033D02*
X100083333Y-63760700D01*
X100083333Y-63760700D02*
X100100000Y-63794033D01*
X100100000Y-63794033D02*
X100100000Y-63844033D01*
X100100000Y-63844033D02*
X100083333Y-63877366D01*
X100083333Y-63877366D02*
X100066667Y-63894033D01*
X100066667Y-63894033D02*
X100033333Y-63910700D01*
X100033333Y-63910700D02*
X99900000Y-63910700D01*
X100200000Y-63727366D02*
X100316667Y-64077366D01*
X100316667Y-64077366D02*
X100433333Y-63727366D01*
X100616667Y-63727366D02*
X100683333Y-63727366D01*
X100683333Y-63727366D02*
X100716667Y-63744033D01*
X100716667Y-63744033D02*
X100750000Y-63777366D01*
X100750000Y-63777366D02*
X100766667Y-63844033D01*
X100766667Y-63844033D02*
X100766667Y-63960700D01*
X100766667Y-63960700D02*
X100750000Y-64027366D01*
X100750000Y-64027366D02*
X100716667Y-64060700D01*
X100716667Y-64060700D02*
X100683333Y-64077366D01*
X100683333Y-64077366D02*
X100616667Y-64077366D01*
X100616667Y-64077366D02*
X100583333Y-64060700D01*
X100583333Y-64060700D02*
X100550000Y-64027366D01*
X100550000Y-64027366D02*
X100533333Y-63960700D01*
X100533333Y-63960700D02*
X100533333Y-63844033D01*
X100533333Y-63844033D02*
X100550000Y-63777366D01*
X100550000Y-63777366D02*
X100583333Y-63744033D01*
X100583333Y-63744033D02*
X100616667Y-63727366D01*
X99807366Y-59116666D02*
X100057366Y-59116666D01*
X100057366Y-59116666D02*
X100107366Y-59133333D01*
X100107366Y-59133333D02*
X100140700Y-59166666D01*
X100140700Y-59166666D02*
X100157366Y-59216666D01*
X100157366Y-59216666D02*
X100157366Y-59250000D01*
X99840700Y-58966666D02*
X99824033Y-58949999D01*
X99824033Y-58949999D02*
X99807366Y-58916666D01*
X99807366Y-58916666D02*
X99807366Y-58833333D01*
X99807366Y-58833333D02*
X99824033Y-58799999D01*
X99824033Y-58799999D02*
X99840700Y-58783333D01*
X99840700Y-58783333D02*
X99874033Y-58766666D01*
X99874033Y-58766666D02*
X99907366Y-58766666D01*
X99907366Y-58766666D02*
X99957366Y-58783333D01*
X99957366Y-58783333D02*
X100157366Y-58983333D01*
X100157366Y-58983333D02*
X100157366Y-58766666D01*
X79050001Y-85807366D02*
X79266667Y-85807366D01*
X79266667Y-85807366D02*
X79150001Y-85940700D01*
X79150001Y-85940700D02*
X79200001Y-85940700D01*
X79200001Y-85940700D02*
X79233334Y-85957366D01*
X79233334Y-85957366D02*
X79250001Y-85974033D01*
X79250001Y-85974033D02*
X79266667Y-86007366D01*
X79266667Y-86007366D02*
X79266667Y-86090700D01*
X79266667Y-86090700D02*
X79250001Y-86124033D01*
X79250001Y-86124033D02*
X79233334Y-86140700D01*
X79233334Y-86140700D02*
X79200001Y-86157366D01*
X79200001Y-86157366D02*
X79100001Y-86157366D01*
X79100001Y-86157366D02*
X79066667Y-86140700D01*
X79066667Y-86140700D02*
X79050001Y-86124033D01*
X79383334Y-85807366D02*
X79600000Y-85807366D01*
X79600000Y-85807366D02*
X79483334Y-85940700D01*
X79483334Y-85940700D02*
X79533334Y-85940700D01*
X79533334Y-85940700D02*
X79566667Y-85957366D01*
X79566667Y-85957366D02*
X79583334Y-85974033D01*
X79583334Y-85974033D02*
X79600000Y-86007366D01*
X79600000Y-86007366D02*
X79600000Y-86090700D01*
X79600000Y-86090700D02*
X79583334Y-86124033D01*
X79583334Y-86124033D02*
X79566667Y-86140700D01*
X79566667Y-86140700D02*
X79533334Y-86157366D01*
X79533334Y-86157366D02*
X79433334Y-86157366D01*
X79433334Y-86157366D02*
X79400000Y-86140700D01*
X79400000Y-86140700D02*
X79383334Y-86124033D01*
X79816667Y-85807366D02*
X79850000Y-85807366D01*
X79850000Y-85807366D02*
X79883333Y-85824033D01*
X79883333Y-85824033D02*
X79900000Y-85840700D01*
X79900000Y-85840700D02*
X79916667Y-85874033D01*
X79916667Y-85874033D02*
X79933333Y-85940700D01*
X79933333Y-85940700D02*
X79933333Y-86024033D01*
X79933333Y-86024033D02*
X79916667Y-86090700D01*
X79916667Y-86090700D02*
X79900000Y-86124033D01*
X79900000Y-86124033D02*
X79883333Y-86140700D01*
X79883333Y-86140700D02*
X79850000Y-86157366D01*
X79850000Y-86157366D02*
X79816667Y-86157366D01*
X79816667Y-86157366D02*
X79783333Y-86140700D01*
X79783333Y-86140700D02*
X79766667Y-86124033D01*
X79766667Y-86124033D02*
X79750000Y-86090700D01*
X79750000Y-86090700D02*
X79733333Y-86024033D01*
X79733333Y-86024033D02*
X79733333Y-85940700D01*
X79733333Y-85940700D02*
X79750000Y-85874033D01*
X79750000Y-85874033D02*
X79766667Y-85840700D01*
X79766667Y-85840700D02*
X79783333Y-85824033D01*
X79783333Y-85824033D02*
X79816667Y-85807366D01*
D11*
X79681927Y-83891666D02*
X79491451Y-84024999D01*
X79681927Y-84120237D02*
X79281927Y-84120237D01*
X79281927Y-84120237D02*
X79281927Y-83967856D01*
X79281927Y-83967856D02*
X79300975Y-83929761D01*
X79300975Y-83929761D02*
X79320022Y-83910714D01*
X79320022Y-83910714D02*
X79358118Y-83891666D01*
X79358118Y-83891666D02*
X79415260Y-83891666D01*
X79415260Y-83891666D02*
X79453356Y-83910714D01*
X79453356Y-83910714D02*
X79472403Y-83929761D01*
X79472403Y-83929761D02*
X79491451Y-83967856D01*
X79491451Y-83967856D02*
X79491451Y-84120237D01*
X79320022Y-83739285D02*
X79300975Y-83720237D01*
X79300975Y-83720237D02*
X79281927Y-83682142D01*
X79281927Y-83682142D02*
X79281927Y-83586904D01*
X79281927Y-83586904D02*
X79300975Y-83548809D01*
X79300975Y-83548809D02*
X79320022Y-83529761D01*
X79320022Y-83529761D02*
X79358118Y-83510714D01*
X79358118Y-83510714D02*
X79396213Y-83510714D01*
X79396213Y-83510714D02*
X79453356Y-83529761D01*
X79453356Y-83529761D02*
X79681927Y-83758333D01*
X79681927Y-83758333D02*
X79681927Y-83510714D01*
D10*
X63258333Y-85340700D02*
X63275000Y-85324033D01*
X63275000Y-85324033D02*
X63308333Y-85307366D01*
X63308333Y-85307366D02*
X63391667Y-85307366D01*
X63391667Y-85307366D02*
X63425000Y-85324033D01*
X63425000Y-85324033D02*
X63441667Y-85340700D01*
X63441667Y-85340700D02*
X63458333Y-85374033D01*
X63458333Y-85374033D02*
X63458333Y-85407366D01*
X63458333Y-85407366D02*
X63441667Y-85457366D01*
X63441667Y-85457366D02*
X63241667Y-85657366D01*
X63241667Y-85657366D02*
X63458333Y-85657366D01*
X63608333Y-85657366D02*
X63608333Y-85307366D01*
X63641666Y-85524033D02*
X63741666Y-85657366D01*
X63741666Y-85424033D02*
X63608333Y-85557366D01*
D11*
X63681927Y-83741666D02*
X63491451Y-83874999D01*
X63681927Y-83970237D02*
X63281927Y-83970237D01*
X63281927Y-83970237D02*
X63281927Y-83817856D01*
X63281927Y-83817856D02*
X63300975Y-83779761D01*
X63300975Y-83779761D02*
X63320022Y-83760714D01*
X63320022Y-83760714D02*
X63358118Y-83741666D01*
X63358118Y-83741666D02*
X63415260Y-83741666D01*
X63415260Y-83741666D02*
X63453356Y-83760714D01*
X63453356Y-83760714D02*
X63472403Y-83779761D01*
X63472403Y-83779761D02*
X63491451Y-83817856D01*
X63491451Y-83817856D02*
X63491451Y-83970237D01*
X63281927Y-83379761D02*
X63281927Y-83570237D01*
X63281927Y-83570237D02*
X63472403Y-83589285D01*
X63472403Y-83589285D02*
X63453356Y-83570237D01*
X63453356Y-83570237D02*
X63434308Y-83532142D01*
X63434308Y-83532142D02*
X63434308Y-83436904D01*
X63434308Y-83436904D02*
X63453356Y-83398809D01*
X63453356Y-83398809D02*
X63472403Y-83379761D01*
X63472403Y-83379761D02*
X63510499Y-83360714D01*
X63510499Y-83360714D02*
X63605737Y-83360714D01*
X63605737Y-83360714D02*
X63643832Y-83379761D01*
X63643832Y-83379761D02*
X63662880Y-83398809D01*
X63662880Y-83398809D02*
X63681927Y-83436904D01*
X63681927Y-83436904D02*
X63681927Y-83532142D01*
X63681927Y-83532142D02*
X63662880Y-83570237D01*
X63662880Y-83570237D02*
X63643832Y-83589285D01*
D10*
X73920833Y-74140700D02*
X73970833Y-74157366D01*
X73970833Y-74157366D02*
X74054167Y-74157366D01*
X74054167Y-74157366D02*
X74087500Y-74140700D01*
X74087500Y-74140700D02*
X74104167Y-74124033D01*
X74104167Y-74124033D02*
X74120833Y-74090700D01*
X74120833Y-74090700D02*
X74120833Y-74057366D01*
X74120833Y-74057366D02*
X74104167Y-74024033D01*
X74104167Y-74024033D02*
X74087500Y-74007366D01*
X74087500Y-74007366D02*
X74054167Y-73990700D01*
X74054167Y-73990700D02*
X73987500Y-73974033D01*
X73987500Y-73974033D02*
X73954167Y-73957366D01*
X73954167Y-73957366D02*
X73937500Y-73940700D01*
X73937500Y-73940700D02*
X73920833Y-73907366D01*
X73920833Y-73907366D02*
X73920833Y-73874033D01*
X73920833Y-73874033D02*
X73937500Y-73840700D01*
X73937500Y-73840700D02*
X73954167Y-73824033D01*
X73954167Y-73824033D02*
X73987500Y-73807366D01*
X73987500Y-73807366D02*
X74070833Y-73807366D01*
X74070833Y-73807366D02*
X74120833Y-73824033D01*
X74220833Y-73807366D02*
X74420833Y-73807366D01*
X74320833Y-74157366D02*
X74320833Y-73807366D01*
X74520833Y-74057366D02*
X74687500Y-74057366D01*
X74487500Y-74157366D02*
X74604167Y-73807366D01*
X74604167Y-73807366D02*
X74720833Y-74157366D01*
X74787500Y-73807366D02*
X74987500Y-73807366D01*
X74887500Y-74157366D02*
X74887500Y-73807366D01*
X75104167Y-73807366D02*
X75104167Y-74090700D01*
X75104167Y-74090700D02*
X75120834Y-74124033D01*
X75120834Y-74124033D02*
X75137500Y-74140700D01*
X75137500Y-74140700D02*
X75170834Y-74157366D01*
X75170834Y-74157366D02*
X75237500Y-74157366D01*
X75237500Y-74157366D02*
X75270834Y-74140700D01*
X75270834Y-74140700D02*
X75287500Y-74124033D01*
X75287500Y-74124033D02*
X75304167Y-74090700D01*
X75304167Y-74090700D02*
X75304167Y-73807366D01*
X75454167Y-74140700D02*
X75504167Y-74157366D01*
X75504167Y-74157366D02*
X75587501Y-74157366D01*
X75587501Y-74157366D02*
X75620834Y-74140700D01*
X75620834Y-74140700D02*
X75637501Y-74124033D01*
X75637501Y-74124033D02*
X75654167Y-74090700D01*
X75654167Y-74090700D02*
X75654167Y-74057366D01*
X75654167Y-74057366D02*
X75637501Y-74024033D01*
X75637501Y-74024033D02*
X75620834Y-74007366D01*
X75620834Y-74007366D02*
X75587501Y-73990700D01*
X75587501Y-73990700D02*
X75520834Y-73974033D01*
X75520834Y-73974033D02*
X75487501Y-73957366D01*
X75487501Y-73957366D02*
X75470834Y-73940700D01*
X75470834Y-73940700D02*
X75454167Y-73907366D01*
X75454167Y-73907366D02*
X75454167Y-73874033D01*
X75454167Y-73874033D02*
X75470834Y-73840700D01*
X75470834Y-73840700D02*
X75487501Y-73824033D01*
X75487501Y-73824033D02*
X75520834Y-73807366D01*
X75520834Y-73807366D02*
X75604167Y-73807366D01*
X75604167Y-73807366D02*
X75654167Y-73824033D01*
D11*
X74492262Y-73001927D02*
X74492262Y-72601927D01*
X74492262Y-72601927D02*
X74587500Y-72601927D01*
X74587500Y-72601927D02*
X74644643Y-72620975D01*
X74644643Y-72620975D02*
X74682738Y-72659070D01*
X74682738Y-72659070D02*
X74701785Y-72697165D01*
X74701785Y-72697165D02*
X74720833Y-72773356D01*
X74720833Y-72773356D02*
X74720833Y-72830499D01*
X74720833Y-72830499D02*
X74701785Y-72906689D01*
X74701785Y-72906689D02*
X74682738Y-72944784D01*
X74682738Y-72944784D02*
X74644643Y-72982880D01*
X74644643Y-72982880D02*
X74587500Y-73001927D01*
X74587500Y-73001927D02*
X74492262Y-73001927D01*
X75101785Y-73001927D02*
X74873214Y-73001927D01*
X74987500Y-73001927D02*
X74987500Y-72601927D01*
X74987500Y-72601927D02*
X74949404Y-72659070D01*
X74949404Y-72659070D02*
X74911309Y-72697165D01*
X74911309Y-72697165D02*
X74873214Y-72716213D01*
D10*
X69291667Y-85657366D02*
X69091667Y-85657366D01*
X69191667Y-85657366D02*
X69191667Y-85307366D01*
X69191667Y-85307366D02*
X69158334Y-85357366D01*
X69158334Y-85357366D02*
X69125001Y-85390700D01*
X69125001Y-85390700D02*
X69091667Y-85407366D01*
X69508334Y-85307366D02*
X69541667Y-85307366D01*
X69541667Y-85307366D02*
X69575000Y-85324033D01*
X69575000Y-85324033D02*
X69591667Y-85340700D01*
X69591667Y-85340700D02*
X69608334Y-85374033D01*
X69608334Y-85374033D02*
X69625000Y-85440700D01*
X69625000Y-85440700D02*
X69625000Y-85524033D01*
X69625000Y-85524033D02*
X69608334Y-85590700D01*
X69608334Y-85590700D02*
X69591667Y-85624033D01*
X69591667Y-85624033D02*
X69575000Y-85640700D01*
X69575000Y-85640700D02*
X69541667Y-85657366D01*
X69541667Y-85657366D02*
X69508334Y-85657366D01*
X69508334Y-85657366D02*
X69475000Y-85640700D01*
X69475000Y-85640700D02*
X69458334Y-85624033D01*
X69458334Y-85624033D02*
X69441667Y-85590700D01*
X69441667Y-85590700D02*
X69425000Y-85524033D01*
X69425000Y-85524033D02*
X69425000Y-85440700D01*
X69425000Y-85440700D02*
X69441667Y-85374033D01*
X69441667Y-85374033D02*
X69458334Y-85340700D01*
X69458334Y-85340700D02*
X69475000Y-85324033D01*
X69475000Y-85324033D02*
X69508334Y-85307366D01*
X69775000Y-85657366D02*
X69775000Y-85307366D01*
X69808333Y-85524033D02*
X69908333Y-85657366D01*
X69908333Y-85424033D02*
X69775000Y-85557366D01*
D11*
X69681927Y-83741666D02*
X69491451Y-83874999D01*
X69681927Y-83970237D02*
X69281927Y-83970237D01*
X69281927Y-83970237D02*
X69281927Y-83817856D01*
X69281927Y-83817856D02*
X69300975Y-83779761D01*
X69300975Y-83779761D02*
X69320022Y-83760714D01*
X69320022Y-83760714D02*
X69358118Y-83741666D01*
X69358118Y-83741666D02*
X69415260Y-83741666D01*
X69415260Y-83741666D02*
X69453356Y-83760714D01*
X69453356Y-83760714D02*
X69472403Y-83779761D01*
X69472403Y-83779761D02*
X69491451Y-83817856D01*
X69491451Y-83817856D02*
X69491451Y-83970237D01*
X69453356Y-83513095D02*
X69434308Y-83551190D01*
X69434308Y-83551190D02*
X69415260Y-83570237D01*
X69415260Y-83570237D02*
X69377165Y-83589285D01*
X69377165Y-83589285D02*
X69358118Y-83589285D01*
X69358118Y-83589285D02*
X69320022Y-83570237D01*
X69320022Y-83570237D02*
X69300975Y-83551190D01*
X69300975Y-83551190D02*
X69281927Y-83513095D01*
X69281927Y-83513095D02*
X69281927Y-83436904D01*
X69281927Y-83436904D02*
X69300975Y-83398809D01*
X69300975Y-83398809D02*
X69320022Y-83379761D01*
X69320022Y-83379761D02*
X69358118Y-83360714D01*
X69358118Y-83360714D02*
X69377165Y-83360714D01*
X69377165Y-83360714D02*
X69415260Y-83379761D01*
X69415260Y-83379761D02*
X69434308Y-83398809D01*
X69434308Y-83398809D02*
X69453356Y-83436904D01*
X69453356Y-83436904D02*
X69453356Y-83513095D01*
X69453356Y-83513095D02*
X69472403Y-83551190D01*
X69472403Y-83551190D02*
X69491451Y-83570237D01*
X69491451Y-83570237D02*
X69529546Y-83589285D01*
X69529546Y-83589285D02*
X69605737Y-83589285D01*
X69605737Y-83589285D02*
X69643832Y-83570237D01*
X69643832Y-83570237D02*
X69662880Y-83551190D01*
X69662880Y-83551190D02*
X69681927Y-83513095D01*
X69681927Y-83513095D02*
X69681927Y-83436904D01*
X69681927Y-83436904D02*
X69662880Y-83398809D01*
X69662880Y-83398809D02*
X69643832Y-83379761D01*
X69643832Y-83379761D02*
X69605737Y-83360714D01*
X69605737Y-83360714D02*
X69529546Y-83360714D01*
X69529546Y-83360714D02*
X69491451Y-83379761D01*
X69491451Y-83379761D02*
X69472403Y-83398809D01*
X69472403Y-83398809D02*
X69453356Y-83436904D01*
D10*
X82410000Y-73087366D02*
X82210000Y-73087366D01*
X82310000Y-73087366D02*
X82310000Y-72737366D01*
X82310000Y-72737366D02*
X82276667Y-72787366D01*
X82276667Y-72787366D02*
X82243334Y-72820700D01*
X82243334Y-72820700D02*
X82210000Y-72837366D01*
X82626667Y-72737366D02*
X82660000Y-72737366D01*
X82660000Y-72737366D02*
X82693333Y-72754033D01*
X82693333Y-72754033D02*
X82710000Y-72770700D01*
X82710000Y-72770700D02*
X82726667Y-72804033D01*
X82726667Y-72804033D02*
X82743333Y-72870700D01*
X82743333Y-72870700D02*
X82743333Y-72954033D01*
X82743333Y-72954033D02*
X82726667Y-73020700D01*
X82726667Y-73020700D02*
X82710000Y-73054033D01*
X82710000Y-73054033D02*
X82693333Y-73070700D01*
X82693333Y-73070700D02*
X82660000Y-73087366D01*
X82660000Y-73087366D02*
X82626667Y-73087366D01*
X82626667Y-73087366D02*
X82593333Y-73070700D01*
X82593333Y-73070700D02*
X82576667Y-73054033D01*
X82576667Y-73054033D02*
X82560000Y-73020700D01*
X82560000Y-73020700D02*
X82543333Y-72954033D01*
X82543333Y-72954033D02*
X82543333Y-72870700D01*
X82543333Y-72870700D02*
X82560000Y-72804033D01*
X82560000Y-72804033D02*
X82576667Y-72770700D01*
X82576667Y-72770700D02*
X82593333Y-72754033D01*
X82593333Y-72754033D02*
X82626667Y-72737366D01*
X83043333Y-72854033D02*
X83043333Y-73087366D01*
X82893333Y-72854033D02*
X82893333Y-73037366D01*
X82893333Y-73037366D02*
X82910000Y-73070700D01*
X82910000Y-73070700D02*
X82943333Y-73087366D01*
X82943333Y-73087366D02*
X82993333Y-73087366D01*
X82993333Y-73087366D02*
X83026666Y-73070700D01*
X83026666Y-73070700D02*
X83043333Y-73054033D01*
X83326667Y-72904033D02*
X83210000Y-72904033D01*
X83210000Y-73087366D02*
X83210000Y-72737366D01*
X83210000Y-72737366D02*
X83376667Y-72737366D01*
D11*
X82718333Y-71643832D02*
X82699285Y-71662880D01*
X82699285Y-71662880D02*
X82642143Y-71681927D01*
X82642143Y-71681927D02*
X82604047Y-71681927D01*
X82604047Y-71681927D02*
X82546904Y-71662880D01*
X82546904Y-71662880D02*
X82508809Y-71624784D01*
X82508809Y-71624784D02*
X82489762Y-71586689D01*
X82489762Y-71586689D02*
X82470714Y-71510499D01*
X82470714Y-71510499D02*
X82470714Y-71453356D01*
X82470714Y-71453356D02*
X82489762Y-71377165D01*
X82489762Y-71377165D02*
X82508809Y-71339070D01*
X82508809Y-71339070D02*
X82546904Y-71300975D01*
X82546904Y-71300975D02*
X82604047Y-71281927D01*
X82604047Y-71281927D02*
X82642143Y-71281927D01*
X82642143Y-71281927D02*
X82699285Y-71300975D01*
X82699285Y-71300975D02*
X82718333Y-71320022D01*
X82908809Y-71681927D02*
X82985000Y-71681927D01*
X82985000Y-71681927D02*
X83023095Y-71662880D01*
X83023095Y-71662880D02*
X83042143Y-71643832D01*
X83042143Y-71643832D02*
X83080238Y-71586689D01*
X83080238Y-71586689D02*
X83099285Y-71510499D01*
X83099285Y-71510499D02*
X83099285Y-71358118D01*
X83099285Y-71358118D02*
X83080238Y-71320022D01*
X83080238Y-71320022D02*
X83061190Y-71300975D01*
X83061190Y-71300975D02*
X83023095Y-71281927D01*
X83023095Y-71281927D02*
X82946904Y-71281927D01*
X82946904Y-71281927D02*
X82908809Y-71300975D01*
X82908809Y-71300975D02*
X82889762Y-71320022D01*
X82889762Y-71320022D02*
X82870714Y-71358118D01*
X82870714Y-71358118D02*
X82870714Y-71453356D01*
X82870714Y-71453356D02*
X82889762Y-71491451D01*
X82889762Y-71491451D02*
X82908809Y-71510499D01*
X82908809Y-71510499D02*
X82946904Y-71529546D01*
X82946904Y-71529546D02*
X83023095Y-71529546D01*
X83023095Y-71529546D02*
X83061190Y-71510499D01*
X83061190Y-71510499D02*
X83080238Y-71491451D01*
X83080238Y-71491451D02*
X83099285Y-71453356D01*
D10*
X75474033Y-92875000D02*
X75490700Y-92825000D01*
X75490700Y-92825000D02*
X75507366Y-92808333D01*
X75507366Y-92808333D02*
X75540700Y-92791666D01*
X75540700Y-92791666D02*
X75590700Y-92791666D01*
X75590700Y-92791666D02*
X75624033Y-92808333D01*
X75624033Y-92808333D02*
X75640700Y-92825000D01*
X75640700Y-92825000D02*
X75657366Y-92858333D01*
X75657366Y-92858333D02*
X75657366Y-92991666D01*
X75657366Y-92991666D02*
X75307366Y-92991666D01*
X75307366Y-92991666D02*
X75307366Y-92875000D01*
X75307366Y-92875000D02*
X75324033Y-92841666D01*
X75324033Y-92841666D02*
X75340700Y-92825000D01*
X75340700Y-92825000D02*
X75374033Y-92808333D01*
X75374033Y-92808333D02*
X75407366Y-92808333D01*
X75407366Y-92808333D02*
X75440700Y-92825000D01*
X75440700Y-92825000D02*
X75457366Y-92841666D01*
X75457366Y-92841666D02*
X75474033Y-92875000D01*
X75474033Y-92875000D02*
X75474033Y-92991666D01*
X75557366Y-92658333D02*
X75557366Y-92491666D01*
X75657366Y-92691666D02*
X75307366Y-92575000D01*
X75307366Y-92575000D02*
X75657366Y-92458333D01*
X75307366Y-92391666D02*
X75307366Y-92191666D01*
X75657366Y-92291666D02*
X75307366Y-92291666D01*
X75307366Y-92124999D02*
X75307366Y-91924999D01*
X75657366Y-92024999D02*
X75307366Y-92024999D01*
X75474033Y-91808332D02*
X75474033Y-91691666D01*
X75657366Y-91641666D02*
X75657366Y-91808332D01*
X75657366Y-91808332D02*
X75307366Y-91808332D01*
X75307366Y-91808332D02*
X75307366Y-91641666D01*
X75657366Y-91291665D02*
X75490700Y-91408332D01*
X75657366Y-91491665D02*
X75307366Y-91491665D01*
X75307366Y-91491665D02*
X75307366Y-91358332D01*
X75307366Y-91358332D02*
X75324033Y-91324999D01*
X75324033Y-91324999D02*
X75340700Y-91308332D01*
X75340700Y-91308332D02*
X75374033Y-91291665D01*
X75374033Y-91291665D02*
X75424033Y-91291665D01*
X75424033Y-91291665D02*
X75457366Y-91308332D01*
X75457366Y-91308332D02*
X75474033Y-91324999D01*
X75474033Y-91324999D02*
X75490700Y-91358332D01*
X75490700Y-91358332D02*
X75490700Y-91491665D01*
X75490700Y-91074999D02*
X75657366Y-91074999D01*
X75307366Y-91191665D02*
X75490700Y-91074999D01*
X75490700Y-91074999D02*
X75307366Y-90958332D01*
X70883333Y-91807366D02*
X70883333Y-92057366D01*
X70883333Y-92057366D02*
X70866666Y-92107366D01*
X70866666Y-92107366D02*
X70833333Y-92140700D01*
X70833333Y-92140700D02*
X70783333Y-92157366D01*
X70783333Y-92157366D02*
X70750000Y-92157366D01*
X71200000Y-91924033D02*
X71200000Y-92157366D01*
X71116667Y-91790700D02*
X71033333Y-92040700D01*
X71033333Y-92040700D02*
X71250000Y-92040700D01*
X78400000Y-75597366D02*
X78200000Y-75597366D01*
X78300000Y-75597366D02*
X78300000Y-75247366D01*
X78300000Y-75247366D02*
X78266667Y-75297366D01*
X78266667Y-75297366D02*
X78233334Y-75330700D01*
X78233334Y-75330700D02*
X78200000Y-75347366D01*
X78616667Y-75247366D02*
X78650000Y-75247366D01*
X78650000Y-75247366D02*
X78683333Y-75264033D01*
X78683333Y-75264033D02*
X78700000Y-75280700D01*
X78700000Y-75280700D02*
X78716667Y-75314033D01*
X78716667Y-75314033D02*
X78733333Y-75380700D01*
X78733333Y-75380700D02*
X78733333Y-75464033D01*
X78733333Y-75464033D02*
X78716667Y-75530700D01*
X78716667Y-75530700D02*
X78700000Y-75564033D01*
X78700000Y-75564033D02*
X78683333Y-75580700D01*
X78683333Y-75580700D02*
X78650000Y-75597366D01*
X78650000Y-75597366D02*
X78616667Y-75597366D01*
X78616667Y-75597366D02*
X78583333Y-75580700D01*
X78583333Y-75580700D02*
X78566667Y-75564033D01*
X78566667Y-75564033D02*
X78550000Y-75530700D01*
X78550000Y-75530700D02*
X78533333Y-75464033D01*
X78533333Y-75464033D02*
X78533333Y-75380700D01*
X78533333Y-75380700D02*
X78550000Y-75314033D01*
X78550000Y-75314033D02*
X78566667Y-75280700D01*
X78566667Y-75280700D02*
X78583333Y-75264033D01*
X78583333Y-75264033D02*
X78616667Y-75247366D01*
X79033333Y-75364033D02*
X79033333Y-75597366D01*
X78883333Y-75364033D02*
X78883333Y-75547366D01*
X78883333Y-75547366D02*
X78900000Y-75580700D01*
X78900000Y-75580700D02*
X78933333Y-75597366D01*
X78933333Y-75597366D02*
X78983333Y-75597366D01*
X78983333Y-75597366D02*
X79016666Y-75580700D01*
X79016666Y-75580700D02*
X79033333Y-75564033D01*
X79316667Y-75414033D02*
X79200000Y-75414033D01*
X79200000Y-75597366D02*
X79200000Y-75247366D01*
X79200000Y-75247366D02*
X79366667Y-75247366D01*
D11*
X78708333Y-74153832D02*
X78689285Y-74172880D01*
X78689285Y-74172880D02*
X78632143Y-74191927D01*
X78632143Y-74191927D02*
X78594047Y-74191927D01*
X78594047Y-74191927D02*
X78536904Y-74172880D01*
X78536904Y-74172880D02*
X78498809Y-74134784D01*
X78498809Y-74134784D02*
X78479762Y-74096689D01*
X78479762Y-74096689D02*
X78460714Y-74020499D01*
X78460714Y-74020499D02*
X78460714Y-73963356D01*
X78460714Y-73963356D02*
X78479762Y-73887165D01*
X78479762Y-73887165D02*
X78498809Y-73849070D01*
X78498809Y-73849070D02*
X78536904Y-73810975D01*
X78536904Y-73810975D02*
X78594047Y-73791927D01*
X78594047Y-73791927D02*
X78632143Y-73791927D01*
X78632143Y-73791927D02*
X78689285Y-73810975D01*
X78689285Y-73810975D02*
X78708333Y-73830022D01*
X78860714Y-73830022D02*
X78879762Y-73810975D01*
X78879762Y-73810975D02*
X78917857Y-73791927D01*
X78917857Y-73791927D02*
X79013095Y-73791927D01*
X79013095Y-73791927D02*
X79051190Y-73810975D01*
X79051190Y-73810975D02*
X79070238Y-73830022D01*
X79070238Y-73830022D02*
X79089285Y-73868118D01*
X79089285Y-73868118D02*
X79089285Y-73906213D01*
X79089285Y-73906213D02*
X79070238Y-73963356D01*
X79070238Y-73963356D02*
X78841666Y-74191927D01*
X78841666Y-74191927D02*
X79089285Y-74191927D01*
D10*
X82458333Y-77657366D02*
X82258333Y-77657366D01*
X82358333Y-77657366D02*
X82358333Y-77307366D01*
X82358333Y-77307366D02*
X82325000Y-77357366D01*
X82325000Y-77357366D02*
X82291667Y-77390700D01*
X82291667Y-77390700D02*
X82258333Y-77407366D01*
X82675000Y-77307366D02*
X82708333Y-77307366D01*
X82708333Y-77307366D02*
X82741666Y-77324033D01*
X82741666Y-77324033D02*
X82758333Y-77340700D01*
X82758333Y-77340700D02*
X82775000Y-77374033D01*
X82775000Y-77374033D02*
X82791666Y-77440700D01*
X82791666Y-77440700D02*
X82791666Y-77524033D01*
X82791666Y-77524033D02*
X82775000Y-77590700D01*
X82775000Y-77590700D02*
X82758333Y-77624033D01*
X82758333Y-77624033D02*
X82741666Y-77640700D01*
X82741666Y-77640700D02*
X82708333Y-77657366D01*
X82708333Y-77657366D02*
X82675000Y-77657366D01*
X82675000Y-77657366D02*
X82641666Y-77640700D01*
X82641666Y-77640700D02*
X82625000Y-77624033D01*
X82625000Y-77624033D02*
X82608333Y-77590700D01*
X82608333Y-77590700D02*
X82591666Y-77524033D01*
X82591666Y-77524033D02*
X82591666Y-77440700D01*
X82591666Y-77440700D02*
X82608333Y-77374033D01*
X82608333Y-77374033D02*
X82625000Y-77340700D01*
X82625000Y-77340700D02*
X82641666Y-77324033D01*
X82641666Y-77324033D02*
X82675000Y-77307366D01*
X83008333Y-77307366D02*
X83041666Y-77307366D01*
X83041666Y-77307366D02*
X83074999Y-77324033D01*
X83074999Y-77324033D02*
X83091666Y-77340700D01*
X83091666Y-77340700D02*
X83108333Y-77374033D01*
X83108333Y-77374033D02*
X83124999Y-77440700D01*
X83124999Y-77440700D02*
X83124999Y-77524033D01*
X83124999Y-77524033D02*
X83108333Y-77590700D01*
X83108333Y-77590700D02*
X83091666Y-77624033D01*
X83091666Y-77624033D02*
X83074999Y-77640700D01*
X83074999Y-77640700D02*
X83041666Y-77657366D01*
X83041666Y-77657366D02*
X83008333Y-77657366D01*
X83008333Y-77657366D02*
X82974999Y-77640700D01*
X82974999Y-77640700D02*
X82958333Y-77624033D01*
X82958333Y-77624033D02*
X82941666Y-77590700D01*
X82941666Y-77590700D02*
X82924999Y-77524033D01*
X82924999Y-77524033D02*
X82924999Y-77440700D01*
X82924999Y-77440700D02*
X82941666Y-77374033D01*
X82941666Y-77374033D02*
X82958333Y-77340700D01*
X82958333Y-77340700D02*
X82974999Y-77324033D01*
X82974999Y-77324033D02*
X83008333Y-77307366D01*
X83274999Y-77424033D02*
X83274999Y-77657366D01*
X83274999Y-77457366D02*
X83291666Y-77440700D01*
X83291666Y-77440700D02*
X83324999Y-77424033D01*
X83324999Y-77424033D02*
X83374999Y-77424033D01*
X83374999Y-77424033D02*
X83408332Y-77440700D01*
X83408332Y-77440700D02*
X83424999Y-77474033D01*
X83424999Y-77474033D02*
X83424999Y-77657366D01*
X83708333Y-77474033D02*
X83591666Y-77474033D01*
X83591666Y-77657366D02*
X83591666Y-77307366D01*
X83591666Y-77307366D02*
X83758333Y-77307366D01*
D11*
X82933333Y-76643832D02*
X82914285Y-76662880D01*
X82914285Y-76662880D02*
X82857143Y-76681927D01*
X82857143Y-76681927D02*
X82819047Y-76681927D01*
X82819047Y-76681927D02*
X82761904Y-76662880D01*
X82761904Y-76662880D02*
X82723809Y-76624784D01*
X82723809Y-76624784D02*
X82704762Y-76586689D01*
X82704762Y-76586689D02*
X82685714Y-76510499D01*
X82685714Y-76510499D02*
X82685714Y-76453356D01*
X82685714Y-76453356D02*
X82704762Y-76377165D01*
X82704762Y-76377165D02*
X82723809Y-76339070D01*
X82723809Y-76339070D02*
X82761904Y-76300975D01*
X82761904Y-76300975D02*
X82819047Y-76281927D01*
X82819047Y-76281927D02*
X82857143Y-76281927D01*
X82857143Y-76281927D02*
X82914285Y-76300975D01*
X82914285Y-76300975D02*
X82933333Y-76320022D01*
X83066666Y-76281927D02*
X83333333Y-76281927D01*
X83333333Y-76281927D02*
X83161904Y-76681927D01*
D10*
X76241668Y-68907366D02*
X76441668Y-68907366D01*
X76341668Y-69257366D02*
X76341668Y-68907366D01*
X76558335Y-69257366D02*
X76558335Y-68907366D01*
X76558335Y-68907366D02*
X76691668Y-68907366D01*
X76691668Y-68907366D02*
X76725002Y-68924033D01*
X76725002Y-68924033D02*
X76741668Y-68940700D01*
X76741668Y-68940700D02*
X76758335Y-68974033D01*
X76758335Y-68974033D02*
X76758335Y-69024033D01*
X76758335Y-69024033D02*
X76741668Y-69057366D01*
X76741668Y-69057366D02*
X76725002Y-69074033D01*
X76725002Y-69074033D02*
X76691668Y-69090700D01*
X76691668Y-69090700D02*
X76558335Y-69090700D01*
X77058335Y-69024033D02*
X77058335Y-69257366D01*
X76975002Y-68890700D02*
X76891668Y-69140700D01*
X76891668Y-69140700D02*
X77108335Y-69140700D01*
X77308335Y-68907366D02*
X77341668Y-68907366D01*
X77341668Y-68907366D02*
X77375001Y-68924033D01*
X77375001Y-68924033D02*
X77391668Y-68940700D01*
X77391668Y-68940700D02*
X77408335Y-68974033D01*
X77408335Y-68974033D02*
X77425001Y-69040700D01*
X77425001Y-69040700D02*
X77425001Y-69124033D01*
X77425001Y-69124033D02*
X77408335Y-69190700D01*
X77408335Y-69190700D02*
X77391668Y-69224033D01*
X77391668Y-69224033D02*
X77375001Y-69240700D01*
X77375001Y-69240700D02*
X77341668Y-69257366D01*
X77341668Y-69257366D02*
X77308335Y-69257366D01*
X77308335Y-69257366D02*
X77275001Y-69240700D01*
X77275001Y-69240700D02*
X77258335Y-69224033D01*
X77258335Y-69224033D02*
X77241668Y-69190700D01*
X77241668Y-69190700D02*
X77225001Y-69124033D01*
X77225001Y-69124033D02*
X77225001Y-69040700D01*
X77225001Y-69040700D02*
X77241668Y-68974033D01*
X77241668Y-68974033D02*
X77258335Y-68940700D01*
X77258335Y-68940700D02*
X77275001Y-68924033D01*
X77275001Y-68924033D02*
X77308335Y-68907366D01*
X77741668Y-68907366D02*
X77575001Y-68907366D01*
X77575001Y-68907366D02*
X77558334Y-69074033D01*
X77558334Y-69074033D02*
X77575001Y-69057366D01*
X77575001Y-69057366D02*
X77608334Y-69040700D01*
X77608334Y-69040700D02*
X77691668Y-69040700D01*
X77691668Y-69040700D02*
X77725001Y-69057366D01*
X77725001Y-69057366D02*
X77741668Y-69074033D01*
X77741668Y-69074033D02*
X77758334Y-69107366D01*
X77758334Y-69107366D02*
X77758334Y-69190700D01*
X77758334Y-69190700D02*
X77741668Y-69224033D01*
X77741668Y-69224033D02*
X77725001Y-69240700D01*
X77725001Y-69240700D02*
X77691668Y-69257366D01*
X77691668Y-69257366D02*
X77608334Y-69257366D01*
X77608334Y-69257366D02*
X77575001Y-69240700D01*
X77575001Y-69240700D02*
X77558334Y-69224033D01*
X78058334Y-68907366D02*
X77991667Y-68907366D01*
X77991667Y-68907366D02*
X77958334Y-68924033D01*
X77958334Y-68924033D02*
X77941667Y-68940700D01*
X77941667Y-68940700D02*
X77908334Y-68990700D01*
X77908334Y-68990700D02*
X77891667Y-69057366D01*
X77891667Y-69057366D02*
X77891667Y-69190700D01*
X77891667Y-69190700D02*
X77908334Y-69224033D01*
X77908334Y-69224033D02*
X77925001Y-69240700D01*
X77925001Y-69240700D02*
X77958334Y-69257366D01*
X77958334Y-69257366D02*
X78025001Y-69257366D01*
X78025001Y-69257366D02*
X78058334Y-69240700D01*
X78058334Y-69240700D02*
X78075001Y-69224033D01*
X78075001Y-69224033D02*
X78091667Y-69190700D01*
X78091667Y-69190700D02*
X78091667Y-69107366D01*
X78091667Y-69107366D02*
X78075001Y-69074033D01*
X78075001Y-69074033D02*
X78058334Y-69057366D01*
X78058334Y-69057366D02*
X78025001Y-69040700D01*
X78025001Y-69040700D02*
X77958334Y-69040700D01*
X77958334Y-69040700D02*
X77925001Y-69057366D01*
X77925001Y-69057366D02*
X77908334Y-69074033D01*
X77908334Y-69074033D02*
X77891667Y-69107366D01*
X78241667Y-69124033D02*
X78508334Y-69124033D01*
X78825000Y-69024033D02*
X78825000Y-69257366D01*
X78741667Y-68890700D02*
X78658333Y-69140700D01*
X78658333Y-69140700D02*
X78875000Y-69140700D01*
X78991666Y-68940700D02*
X79008333Y-68924033D01*
X79008333Y-68924033D02*
X79041666Y-68907366D01*
X79041666Y-68907366D02*
X79125000Y-68907366D01*
X79125000Y-68907366D02*
X79158333Y-68924033D01*
X79158333Y-68924033D02*
X79175000Y-68940700D01*
X79175000Y-68940700D02*
X79191666Y-68974033D01*
X79191666Y-68974033D02*
X79191666Y-69007366D01*
X79191666Y-69007366D02*
X79175000Y-69057366D01*
X79175000Y-69057366D02*
X78975000Y-69257366D01*
X78975000Y-69257366D02*
X79191666Y-69257366D01*
X79341666Y-69124033D02*
X79608333Y-69124033D01*
X79774999Y-69074033D02*
X79891666Y-69074033D01*
X79941666Y-69257366D02*
X79774999Y-69257366D01*
X79774999Y-69257366D02*
X79774999Y-68907366D01*
X79774999Y-68907366D02*
X79941666Y-68907366D01*
X80074999Y-69240700D02*
X80124999Y-69257366D01*
X80124999Y-69257366D02*
X80208333Y-69257366D01*
X80208333Y-69257366D02*
X80241666Y-69240700D01*
X80241666Y-69240700D02*
X80258333Y-69224033D01*
X80258333Y-69224033D02*
X80274999Y-69190700D01*
X80274999Y-69190700D02*
X80274999Y-69157366D01*
X80274999Y-69157366D02*
X80258333Y-69124033D01*
X80258333Y-69124033D02*
X80241666Y-69107366D01*
X80241666Y-69107366D02*
X80208333Y-69090700D01*
X80208333Y-69090700D02*
X80141666Y-69074033D01*
X80141666Y-69074033D02*
X80108333Y-69057366D01*
X80108333Y-69057366D02*
X80091666Y-69040700D01*
X80091666Y-69040700D02*
X80074999Y-69007366D01*
X80074999Y-69007366D02*
X80074999Y-68974033D01*
X80074999Y-68974033D02*
X80091666Y-68940700D01*
X80091666Y-68940700D02*
X80108333Y-68924033D01*
X80108333Y-68924033D02*
X80141666Y-68907366D01*
X80141666Y-68907366D02*
X80224999Y-68907366D01*
X80224999Y-68907366D02*
X80274999Y-68924033D01*
X80491666Y-68907366D02*
X80558332Y-68907366D01*
X80558332Y-68907366D02*
X80591666Y-68924033D01*
X80591666Y-68924033D02*
X80624999Y-68957366D01*
X80624999Y-68957366D02*
X80641666Y-69024033D01*
X80641666Y-69024033D02*
X80641666Y-69140700D01*
X80641666Y-69140700D02*
X80624999Y-69207366D01*
X80624999Y-69207366D02*
X80591666Y-69240700D01*
X80591666Y-69240700D02*
X80558332Y-69257366D01*
X80558332Y-69257366D02*
X80491666Y-69257366D01*
X80491666Y-69257366D02*
X80458332Y-69240700D01*
X80458332Y-69240700D02*
X80424999Y-69207366D01*
X80424999Y-69207366D02*
X80408332Y-69140700D01*
X80408332Y-69140700D02*
X80408332Y-69024033D01*
X80408332Y-69024033D02*
X80424999Y-68957366D01*
X80424999Y-68957366D02*
X80458332Y-68924033D01*
X80458332Y-68924033D02*
X80491666Y-68907366D01*
X80791666Y-69257366D02*
X80791666Y-68907366D01*
X80791666Y-68907366D02*
X80924999Y-68907366D01*
X80924999Y-68907366D02*
X80958333Y-68924033D01*
X80958333Y-68924033D02*
X80974999Y-68940700D01*
X80974999Y-68940700D02*
X80991666Y-68974033D01*
X80991666Y-68974033D02*
X80991666Y-69024033D01*
X80991666Y-69024033D02*
X80974999Y-69057366D01*
X80974999Y-69057366D02*
X80958333Y-69074033D01*
X80958333Y-69074033D02*
X80924999Y-69090700D01*
X80924999Y-69090700D02*
X80791666Y-69090700D01*
X81191666Y-69057366D02*
X81158333Y-69040700D01*
X81158333Y-69040700D02*
X81141666Y-69024033D01*
X81141666Y-69024033D02*
X81124999Y-68990700D01*
X81124999Y-68990700D02*
X81124999Y-68974033D01*
X81124999Y-68974033D02*
X81141666Y-68940700D01*
X81141666Y-68940700D02*
X81158333Y-68924033D01*
X81158333Y-68924033D02*
X81191666Y-68907366D01*
X81191666Y-68907366D02*
X81258333Y-68907366D01*
X81258333Y-68907366D02*
X81291666Y-68924033D01*
X81291666Y-68924033D02*
X81308333Y-68940700D01*
X81308333Y-68940700D02*
X81324999Y-68974033D01*
X81324999Y-68974033D02*
X81324999Y-68990700D01*
X81324999Y-68990700D02*
X81308333Y-69024033D01*
X81308333Y-69024033D02*
X81291666Y-69040700D01*
X81291666Y-69040700D02*
X81258333Y-69057366D01*
X81258333Y-69057366D02*
X81191666Y-69057366D01*
X81191666Y-69057366D02*
X81158333Y-69074033D01*
X81158333Y-69074033D02*
X81141666Y-69090700D01*
X81141666Y-69090700D02*
X81124999Y-69124033D01*
X81124999Y-69124033D02*
X81124999Y-69190700D01*
X81124999Y-69190700D02*
X81141666Y-69224033D01*
X81141666Y-69224033D02*
X81158333Y-69240700D01*
X81158333Y-69240700D02*
X81191666Y-69257366D01*
X81191666Y-69257366D02*
X81258333Y-69257366D01*
X81258333Y-69257366D02*
X81291666Y-69240700D01*
X81291666Y-69240700D02*
X81308333Y-69224033D01*
X81308333Y-69224033D02*
X81324999Y-69190700D01*
X81324999Y-69190700D02*
X81324999Y-69124033D01*
X81324999Y-69124033D02*
X81308333Y-69090700D01*
X81308333Y-69090700D02*
X81291666Y-69074033D01*
X81291666Y-69074033D02*
X81258333Y-69057366D01*
X78607366Y-65966666D02*
X78890700Y-65966666D01*
X78890700Y-65966666D02*
X78924033Y-65950000D01*
X78924033Y-65950000D02*
X78940700Y-65933333D01*
X78940700Y-65933333D02*
X78957366Y-65900000D01*
X78957366Y-65900000D02*
X78957366Y-65833333D01*
X78957366Y-65833333D02*
X78940700Y-65800000D01*
X78940700Y-65800000D02*
X78924033Y-65783333D01*
X78924033Y-65783333D02*
X78890700Y-65766666D01*
X78890700Y-65766666D02*
X78607366Y-65766666D01*
X78607366Y-65633333D02*
X78607366Y-65416666D01*
X78607366Y-65416666D02*
X78740700Y-65533333D01*
X78740700Y-65533333D02*
X78740700Y-65483333D01*
X78740700Y-65483333D02*
X78757366Y-65449999D01*
X78757366Y-65449999D02*
X78774033Y-65433333D01*
X78774033Y-65433333D02*
X78807366Y-65416666D01*
X78807366Y-65416666D02*
X78890700Y-65416666D01*
X78890700Y-65416666D02*
X78924033Y-65433333D01*
X78924033Y-65433333D02*
X78940700Y-65449999D01*
X78940700Y-65449999D02*
X78957366Y-65483333D01*
X78957366Y-65483333D02*
X78957366Y-65583333D01*
X78957366Y-65583333D02*
X78940700Y-65616666D01*
X78940700Y-65616666D02*
X78924033Y-65633333D01*
X76657366Y-80708332D02*
X76657366Y-80908332D01*
X76657366Y-80808332D02*
X76307366Y-80808332D01*
X76307366Y-80808332D02*
X76357366Y-80841665D01*
X76357366Y-80841665D02*
X76390700Y-80874999D01*
X76390700Y-80874999D02*
X76407366Y-80908332D01*
X76307366Y-80491666D02*
X76307366Y-80458332D01*
X76307366Y-80458332D02*
X76324033Y-80424999D01*
X76324033Y-80424999D02*
X76340700Y-80408332D01*
X76340700Y-80408332D02*
X76374033Y-80391666D01*
X76374033Y-80391666D02*
X76440700Y-80374999D01*
X76440700Y-80374999D02*
X76524033Y-80374999D01*
X76524033Y-80374999D02*
X76590700Y-80391666D01*
X76590700Y-80391666D02*
X76624033Y-80408332D01*
X76624033Y-80408332D02*
X76640700Y-80424999D01*
X76640700Y-80424999D02*
X76657366Y-80458332D01*
X76657366Y-80458332D02*
X76657366Y-80491666D01*
X76657366Y-80491666D02*
X76640700Y-80524999D01*
X76640700Y-80524999D02*
X76624033Y-80541666D01*
X76624033Y-80541666D02*
X76590700Y-80558332D01*
X76590700Y-80558332D02*
X76524033Y-80574999D01*
X76524033Y-80574999D02*
X76440700Y-80574999D01*
X76440700Y-80574999D02*
X76374033Y-80558332D01*
X76374033Y-80558332D02*
X76340700Y-80541666D01*
X76340700Y-80541666D02*
X76324033Y-80524999D01*
X76324033Y-80524999D02*
X76307366Y-80491666D01*
X76657366Y-80224999D02*
X76307366Y-80224999D01*
X76524033Y-80191666D02*
X76657366Y-80091666D01*
X76424033Y-80091666D02*
X76557366Y-80224999D01*
D11*
X74417857Y-80681927D02*
X74284524Y-80491451D01*
X74189286Y-80681927D02*
X74189286Y-80281927D01*
X74189286Y-80281927D02*
X74341667Y-80281927D01*
X74341667Y-80281927D02*
X74379762Y-80300975D01*
X74379762Y-80300975D02*
X74398809Y-80320022D01*
X74398809Y-80320022D02*
X74417857Y-80358118D01*
X74417857Y-80358118D02*
X74417857Y-80415260D01*
X74417857Y-80415260D02*
X74398809Y-80453356D01*
X74398809Y-80453356D02*
X74379762Y-80472403D01*
X74379762Y-80472403D02*
X74341667Y-80491451D01*
X74341667Y-80491451D02*
X74189286Y-80491451D01*
X74798809Y-80681927D02*
X74570238Y-80681927D01*
X74684524Y-80681927D02*
X74684524Y-80281927D01*
X74684524Y-80281927D02*
X74646428Y-80339070D01*
X74646428Y-80339070D02*
X74608333Y-80377165D01*
X74608333Y-80377165D02*
X74570238Y-80396213D01*
X74932142Y-80281927D02*
X75198809Y-80281927D01*
X75198809Y-80281927D02*
X75027380Y-80681927D01*
D10*
X59233333Y-85340700D02*
X59250000Y-85324033D01*
X59250000Y-85324033D02*
X59283333Y-85307366D01*
X59283333Y-85307366D02*
X59366667Y-85307366D01*
X59366667Y-85307366D02*
X59400000Y-85324033D01*
X59400000Y-85324033D02*
X59416667Y-85340700D01*
X59416667Y-85340700D02*
X59433333Y-85374033D01*
X59433333Y-85374033D02*
X59433333Y-85407366D01*
X59433333Y-85407366D02*
X59416667Y-85457366D01*
X59416667Y-85457366D02*
X59216667Y-85657366D01*
X59216667Y-85657366D02*
X59433333Y-85657366D01*
X59566666Y-85340700D02*
X59583333Y-85324033D01*
X59583333Y-85324033D02*
X59616666Y-85307366D01*
X59616666Y-85307366D02*
X59700000Y-85307366D01*
X59700000Y-85307366D02*
X59733333Y-85324033D01*
X59733333Y-85324033D02*
X59750000Y-85340700D01*
X59750000Y-85340700D02*
X59766666Y-85374033D01*
X59766666Y-85374033D02*
X59766666Y-85407366D01*
X59766666Y-85407366D02*
X59750000Y-85457366D01*
X59750000Y-85457366D02*
X59550000Y-85657366D01*
X59550000Y-85657366D02*
X59766666Y-85657366D01*
D11*
X59681927Y-83932142D02*
X59491451Y-84065475D01*
X59681927Y-84160713D02*
X59281927Y-84160713D01*
X59281927Y-84160713D02*
X59281927Y-84008332D01*
X59281927Y-84008332D02*
X59300975Y-83970237D01*
X59300975Y-83970237D02*
X59320022Y-83951190D01*
X59320022Y-83951190D02*
X59358118Y-83932142D01*
X59358118Y-83932142D02*
X59415260Y-83932142D01*
X59415260Y-83932142D02*
X59453356Y-83951190D01*
X59453356Y-83951190D02*
X59472403Y-83970237D01*
X59472403Y-83970237D02*
X59491451Y-84008332D01*
X59491451Y-84008332D02*
X59491451Y-84160713D01*
X59681927Y-83551190D02*
X59681927Y-83779761D01*
X59681927Y-83665475D02*
X59281927Y-83665475D01*
X59281927Y-83665475D02*
X59339070Y-83703571D01*
X59339070Y-83703571D02*
X59377165Y-83741666D01*
X59377165Y-83741666D02*
X59396213Y-83779761D01*
X59281927Y-83189285D02*
X59281927Y-83379761D01*
X59281927Y-83379761D02*
X59472403Y-83398809D01*
X59472403Y-83398809D02*
X59453356Y-83379761D01*
X59453356Y-83379761D02*
X59434308Y-83341666D01*
X59434308Y-83341666D02*
X59434308Y-83246428D01*
X59434308Y-83246428D02*
X59453356Y-83208333D01*
X59453356Y-83208333D02*
X59472403Y-83189285D01*
X59472403Y-83189285D02*
X59510499Y-83170238D01*
X59510499Y-83170238D02*
X59605737Y-83170238D01*
X59605737Y-83170238D02*
X59643832Y-83189285D01*
X59643832Y-83189285D02*
X59662880Y-83208333D01*
X59662880Y-83208333D02*
X59681927Y-83246428D01*
X59681927Y-83246428D02*
X59681927Y-83341666D01*
X59681927Y-83341666D02*
X59662880Y-83379761D01*
X59662880Y-83379761D02*
X59643832Y-83398809D01*
D10*
X92657366Y-91508333D02*
X92490700Y-91625000D01*
X92657366Y-91708333D02*
X92307366Y-91708333D01*
X92307366Y-91708333D02*
X92307366Y-91575000D01*
X92307366Y-91575000D02*
X92324033Y-91541667D01*
X92324033Y-91541667D02*
X92340700Y-91525000D01*
X92340700Y-91525000D02*
X92374033Y-91508333D01*
X92374033Y-91508333D02*
X92424033Y-91508333D01*
X92424033Y-91508333D02*
X92457366Y-91525000D01*
X92457366Y-91525000D02*
X92474033Y-91541667D01*
X92474033Y-91541667D02*
X92490700Y-91575000D01*
X92490700Y-91575000D02*
X92490700Y-91708333D01*
X92474033Y-91358333D02*
X92474033Y-91241667D01*
X92657366Y-91191667D02*
X92657366Y-91358333D01*
X92657366Y-91358333D02*
X92307366Y-91358333D01*
X92307366Y-91358333D02*
X92307366Y-91191667D01*
X92640700Y-91058333D02*
X92657366Y-91008333D01*
X92657366Y-91008333D02*
X92657366Y-90925000D01*
X92657366Y-90925000D02*
X92640700Y-90891666D01*
X92640700Y-90891666D02*
X92624033Y-90875000D01*
X92624033Y-90875000D02*
X92590700Y-90858333D01*
X92590700Y-90858333D02*
X92557366Y-90858333D01*
X92557366Y-90858333D02*
X92524033Y-90875000D01*
X92524033Y-90875000D02*
X92507366Y-90891666D01*
X92507366Y-90891666D02*
X92490700Y-90925000D01*
X92490700Y-90925000D02*
X92474033Y-90991666D01*
X92474033Y-90991666D02*
X92457366Y-91025000D01*
X92457366Y-91025000D02*
X92440700Y-91041666D01*
X92440700Y-91041666D02*
X92407366Y-91058333D01*
X92407366Y-91058333D02*
X92374033Y-91058333D01*
X92374033Y-91058333D02*
X92340700Y-91041666D01*
X92340700Y-91041666D02*
X92324033Y-91025000D01*
X92324033Y-91025000D02*
X92307366Y-90991666D01*
X92307366Y-90991666D02*
X92307366Y-90908333D01*
X92307366Y-90908333D02*
X92324033Y-90858333D01*
X92474033Y-90708333D02*
X92474033Y-90591667D01*
X92657366Y-90541667D02*
X92657366Y-90708333D01*
X92657366Y-90708333D02*
X92307366Y-90708333D01*
X92307366Y-90708333D02*
X92307366Y-90541667D01*
X92307366Y-90441666D02*
X92307366Y-90241666D01*
X92657366Y-90341666D02*
X92307366Y-90341666D01*
X97033333Y-90640700D02*
X97083333Y-90657366D01*
X97083333Y-90657366D02*
X97166667Y-90657366D01*
X97166667Y-90657366D02*
X97200000Y-90640700D01*
X97200000Y-90640700D02*
X97216667Y-90624033D01*
X97216667Y-90624033D02*
X97233333Y-90590700D01*
X97233333Y-90590700D02*
X97233333Y-90557366D01*
X97233333Y-90557366D02*
X97216667Y-90524033D01*
X97216667Y-90524033D02*
X97200000Y-90507366D01*
X97200000Y-90507366D02*
X97166667Y-90490700D01*
X97166667Y-90490700D02*
X97100000Y-90474033D01*
X97100000Y-90474033D02*
X97066667Y-90457366D01*
X97066667Y-90457366D02*
X97050000Y-90440700D01*
X97050000Y-90440700D02*
X97033333Y-90407366D01*
X97033333Y-90407366D02*
X97033333Y-90374033D01*
X97033333Y-90374033D02*
X97050000Y-90340700D01*
X97050000Y-90340700D02*
X97066667Y-90324033D01*
X97066667Y-90324033D02*
X97100000Y-90307366D01*
X97100000Y-90307366D02*
X97183333Y-90307366D01*
X97183333Y-90307366D02*
X97233333Y-90324033D01*
X97350000Y-90307366D02*
X97433333Y-90657366D01*
X97433333Y-90657366D02*
X97500000Y-90407366D01*
X97500000Y-90407366D02*
X97566666Y-90657366D01*
X97566666Y-90657366D02*
X97650000Y-90307366D01*
X97750000Y-90307366D02*
X97966666Y-90307366D01*
X97966666Y-90307366D02*
X97850000Y-90440700D01*
X97850000Y-90440700D02*
X97900000Y-90440700D01*
X97900000Y-90440700D02*
X97933333Y-90457366D01*
X97933333Y-90457366D02*
X97950000Y-90474033D01*
X97950000Y-90474033D02*
X97966666Y-90507366D01*
X97966666Y-90507366D02*
X97966666Y-90590700D01*
X97966666Y-90590700D02*
X97950000Y-90624033D01*
X97950000Y-90624033D02*
X97933333Y-90640700D01*
X97933333Y-90640700D02*
X97900000Y-90657366D01*
X97900000Y-90657366D02*
X97800000Y-90657366D01*
X97800000Y-90657366D02*
X97766666Y-90640700D01*
X97766666Y-90640700D02*
X97750000Y-90624033D01*
X87058334Y-86557366D02*
X87058334Y-86207366D01*
X87058334Y-86207366D02*
X87175001Y-86457366D01*
X87175001Y-86457366D02*
X87291667Y-86207366D01*
X87291667Y-86207366D02*
X87291667Y-86557366D01*
X87458334Y-86557366D02*
X87458334Y-86207366D01*
X87458334Y-86207366D02*
X87575001Y-86457366D01*
X87575001Y-86457366D02*
X87691667Y-86207366D01*
X87691667Y-86207366D02*
X87691667Y-86557366D01*
X87975001Y-86374033D02*
X88025001Y-86390700D01*
X88025001Y-86390700D02*
X88041667Y-86407366D01*
X88041667Y-86407366D02*
X88058334Y-86440700D01*
X88058334Y-86440700D02*
X88058334Y-86490700D01*
X88058334Y-86490700D02*
X88041667Y-86524033D01*
X88041667Y-86524033D02*
X88025001Y-86540700D01*
X88025001Y-86540700D02*
X87991667Y-86557366D01*
X87991667Y-86557366D02*
X87858334Y-86557366D01*
X87858334Y-86557366D02*
X87858334Y-86207366D01*
X87858334Y-86207366D02*
X87975001Y-86207366D01*
X87975001Y-86207366D02*
X88008334Y-86224033D01*
X88008334Y-86224033D02*
X88025001Y-86240700D01*
X88025001Y-86240700D02*
X88041667Y-86274033D01*
X88041667Y-86274033D02*
X88041667Y-86307366D01*
X88041667Y-86307366D02*
X88025001Y-86340700D01*
X88025001Y-86340700D02*
X88008334Y-86357366D01*
X88008334Y-86357366D02*
X87975001Y-86374033D01*
X87975001Y-86374033D02*
X87858334Y-86374033D01*
X88158334Y-86207366D02*
X88358334Y-86207366D01*
X88258334Y-86557366D02*
X88258334Y-86207366D01*
X88458334Y-86240700D02*
X88475001Y-86224033D01*
X88475001Y-86224033D02*
X88508334Y-86207366D01*
X88508334Y-86207366D02*
X88591668Y-86207366D01*
X88591668Y-86207366D02*
X88625001Y-86224033D01*
X88625001Y-86224033D02*
X88641668Y-86240700D01*
X88641668Y-86240700D02*
X88658334Y-86274033D01*
X88658334Y-86274033D02*
X88658334Y-86307366D01*
X88658334Y-86307366D02*
X88641668Y-86357366D01*
X88641668Y-86357366D02*
X88441668Y-86557366D01*
X88441668Y-86557366D02*
X88658334Y-86557366D01*
X88791667Y-86240700D02*
X88808334Y-86224033D01*
X88808334Y-86224033D02*
X88841667Y-86207366D01*
X88841667Y-86207366D02*
X88925001Y-86207366D01*
X88925001Y-86207366D02*
X88958334Y-86224033D01*
X88958334Y-86224033D02*
X88975001Y-86240700D01*
X88975001Y-86240700D02*
X88991667Y-86274033D01*
X88991667Y-86274033D02*
X88991667Y-86307366D01*
X88991667Y-86307366D02*
X88975001Y-86357366D01*
X88975001Y-86357366D02*
X88775001Y-86557366D01*
X88775001Y-86557366D02*
X88991667Y-86557366D01*
X89125000Y-86240700D02*
X89141667Y-86224033D01*
X89141667Y-86224033D02*
X89175000Y-86207366D01*
X89175000Y-86207366D02*
X89258334Y-86207366D01*
X89258334Y-86207366D02*
X89291667Y-86224033D01*
X89291667Y-86224033D02*
X89308334Y-86240700D01*
X89308334Y-86240700D02*
X89325000Y-86274033D01*
X89325000Y-86274033D02*
X89325000Y-86307366D01*
X89325000Y-86307366D02*
X89308334Y-86357366D01*
X89308334Y-86357366D02*
X89108334Y-86557366D01*
X89108334Y-86557366D02*
X89325000Y-86557366D01*
X89458333Y-86240700D02*
X89475000Y-86224033D01*
X89475000Y-86224033D02*
X89508333Y-86207366D01*
X89508333Y-86207366D02*
X89591667Y-86207366D01*
X89591667Y-86207366D02*
X89625000Y-86224033D01*
X89625000Y-86224033D02*
X89641667Y-86240700D01*
X89641667Y-86240700D02*
X89658333Y-86274033D01*
X89658333Y-86274033D02*
X89658333Y-86307366D01*
X89658333Y-86307366D02*
X89641667Y-86357366D01*
X89641667Y-86357366D02*
X89441667Y-86557366D01*
X89441667Y-86557366D02*
X89658333Y-86557366D01*
X89791666Y-86457366D02*
X89958333Y-86457366D01*
X89758333Y-86557366D02*
X89875000Y-86207366D01*
X89875000Y-86207366D02*
X89991666Y-86557366D01*
D12*
X88895937Y-84068571D02*
X88861651Y-84137142D01*
X88861651Y-84137142D02*
X88793080Y-84205714D01*
X88793080Y-84205714D02*
X88690222Y-84308571D01*
X88690222Y-84308571D02*
X88655937Y-84377142D01*
X88655937Y-84377142D02*
X88655937Y-84445714D01*
X88827365Y-84411428D02*
X88793080Y-84480000D01*
X88793080Y-84480000D02*
X88724508Y-84548571D01*
X88724508Y-84548571D02*
X88587365Y-84582857D01*
X88587365Y-84582857D02*
X88347365Y-84582857D01*
X88347365Y-84582857D02*
X88210222Y-84548571D01*
X88210222Y-84548571D02*
X88141651Y-84480000D01*
X88141651Y-84480000D02*
X88107365Y-84411428D01*
X88107365Y-84411428D02*
X88107365Y-84274285D01*
X88107365Y-84274285D02*
X88141651Y-84205714D01*
X88141651Y-84205714D02*
X88210222Y-84137142D01*
X88210222Y-84137142D02*
X88347365Y-84102857D01*
X88347365Y-84102857D02*
X88587365Y-84102857D01*
X88587365Y-84102857D02*
X88724508Y-84137142D01*
X88724508Y-84137142D02*
X88793080Y-84205714D01*
X88793080Y-84205714D02*
X88827365Y-84274285D01*
X88827365Y-84274285D02*
X88827365Y-84411428D01*
X88827365Y-83417142D02*
X88827365Y-83828571D01*
X88827365Y-83622856D02*
X88107365Y-83622856D01*
X88107365Y-83622856D02*
X88210222Y-83691428D01*
X88210222Y-83691428D02*
X88278794Y-83759999D01*
X88278794Y-83759999D02*
X88313080Y-83828571D01*
D10*
X78233333Y-80617366D02*
X78033333Y-80617366D01*
X78133333Y-80617366D02*
X78133333Y-80267366D01*
X78133333Y-80267366D02*
X78100000Y-80317366D01*
X78100000Y-80317366D02*
X78066667Y-80350700D01*
X78066667Y-80350700D02*
X78033333Y-80367366D01*
X78450000Y-80267366D02*
X78483333Y-80267366D01*
X78483333Y-80267366D02*
X78516666Y-80284033D01*
X78516666Y-80284033D02*
X78533333Y-80300700D01*
X78533333Y-80300700D02*
X78550000Y-80334033D01*
X78550000Y-80334033D02*
X78566666Y-80400700D01*
X78566666Y-80400700D02*
X78566666Y-80484033D01*
X78566666Y-80484033D02*
X78550000Y-80550700D01*
X78550000Y-80550700D02*
X78533333Y-80584033D01*
X78533333Y-80584033D02*
X78516666Y-80600700D01*
X78516666Y-80600700D02*
X78483333Y-80617366D01*
X78483333Y-80617366D02*
X78450000Y-80617366D01*
X78450000Y-80617366D02*
X78416666Y-80600700D01*
X78416666Y-80600700D02*
X78400000Y-80584033D01*
X78400000Y-80584033D02*
X78383333Y-80550700D01*
X78383333Y-80550700D02*
X78366666Y-80484033D01*
X78366666Y-80484033D02*
X78366666Y-80400700D01*
X78366666Y-80400700D02*
X78383333Y-80334033D01*
X78383333Y-80334033D02*
X78400000Y-80300700D01*
X78400000Y-80300700D02*
X78416666Y-80284033D01*
X78416666Y-80284033D02*
X78450000Y-80267366D01*
X78783333Y-80267366D02*
X78816666Y-80267366D01*
X78816666Y-80267366D02*
X78849999Y-80284033D01*
X78849999Y-80284033D02*
X78866666Y-80300700D01*
X78866666Y-80300700D02*
X78883333Y-80334033D01*
X78883333Y-80334033D02*
X78899999Y-80400700D01*
X78899999Y-80400700D02*
X78899999Y-80484033D01*
X78899999Y-80484033D02*
X78883333Y-80550700D01*
X78883333Y-80550700D02*
X78866666Y-80584033D01*
X78866666Y-80584033D02*
X78849999Y-80600700D01*
X78849999Y-80600700D02*
X78816666Y-80617366D01*
X78816666Y-80617366D02*
X78783333Y-80617366D01*
X78783333Y-80617366D02*
X78749999Y-80600700D01*
X78749999Y-80600700D02*
X78733333Y-80584033D01*
X78733333Y-80584033D02*
X78716666Y-80550700D01*
X78716666Y-80550700D02*
X78699999Y-80484033D01*
X78699999Y-80484033D02*
X78699999Y-80400700D01*
X78699999Y-80400700D02*
X78716666Y-80334033D01*
X78716666Y-80334033D02*
X78733333Y-80300700D01*
X78733333Y-80300700D02*
X78749999Y-80284033D01*
X78749999Y-80284033D02*
X78783333Y-80267366D01*
X79049999Y-80384033D02*
X79049999Y-80617366D01*
X79049999Y-80417366D02*
X79066666Y-80400700D01*
X79066666Y-80400700D02*
X79099999Y-80384033D01*
X79099999Y-80384033D02*
X79149999Y-80384033D01*
X79149999Y-80384033D02*
X79183332Y-80400700D01*
X79183332Y-80400700D02*
X79199999Y-80434033D01*
X79199999Y-80434033D02*
X79199999Y-80617366D01*
X79483333Y-80434033D02*
X79366666Y-80434033D01*
X79366666Y-80617366D02*
X79366666Y-80267366D01*
X79366666Y-80267366D02*
X79533333Y-80267366D01*
D11*
X78708333Y-79173832D02*
X78689285Y-79192880D01*
X78689285Y-79192880D02*
X78632143Y-79211927D01*
X78632143Y-79211927D02*
X78594047Y-79211927D01*
X78594047Y-79211927D02*
X78536904Y-79192880D01*
X78536904Y-79192880D02*
X78498809Y-79154784D01*
X78498809Y-79154784D02*
X78479762Y-79116689D01*
X78479762Y-79116689D02*
X78460714Y-79040499D01*
X78460714Y-79040499D02*
X78460714Y-78983356D01*
X78460714Y-78983356D02*
X78479762Y-78907165D01*
X78479762Y-78907165D02*
X78498809Y-78869070D01*
X78498809Y-78869070D02*
X78536904Y-78830975D01*
X78536904Y-78830975D02*
X78594047Y-78811927D01*
X78594047Y-78811927D02*
X78632143Y-78811927D01*
X78632143Y-78811927D02*
X78689285Y-78830975D01*
X78689285Y-78830975D02*
X78708333Y-78850022D01*
X79051190Y-78811927D02*
X78975000Y-78811927D01*
X78975000Y-78811927D02*
X78936904Y-78830975D01*
X78936904Y-78830975D02*
X78917857Y-78850022D01*
X78917857Y-78850022D02*
X78879762Y-78907165D01*
X78879762Y-78907165D02*
X78860714Y-78983356D01*
X78860714Y-78983356D02*
X78860714Y-79135737D01*
X78860714Y-79135737D02*
X78879762Y-79173832D01*
X78879762Y-79173832D02*
X78898809Y-79192880D01*
X78898809Y-79192880D02*
X78936904Y-79211927D01*
X78936904Y-79211927D02*
X79013095Y-79211927D01*
X79013095Y-79211927D02*
X79051190Y-79192880D01*
X79051190Y-79192880D02*
X79070238Y-79173832D01*
X79070238Y-79173832D02*
X79089285Y-79135737D01*
X79089285Y-79135737D02*
X79089285Y-79040499D01*
X79089285Y-79040499D02*
X79070238Y-79002403D01*
X79070238Y-79002403D02*
X79051190Y-78983356D01*
X79051190Y-78983356D02*
X79013095Y-78964308D01*
X79013095Y-78964308D02*
X78936904Y-78964308D01*
X78936904Y-78964308D02*
X78898809Y-78983356D01*
X78898809Y-78983356D02*
X78879762Y-79002403D01*
X78879762Y-79002403D02*
X78860714Y-79040499D01*
D10*
X91225000Y-63874033D02*
X91275000Y-63890700D01*
X91275000Y-63890700D02*
X91291666Y-63907366D01*
X91291666Y-63907366D02*
X91308333Y-63940700D01*
X91308333Y-63940700D02*
X91308333Y-63990700D01*
X91308333Y-63990700D02*
X91291666Y-64024033D01*
X91291666Y-64024033D02*
X91275000Y-64040700D01*
X91275000Y-64040700D02*
X91241666Y-64057366D01*
X91241666Y-64057366D02*
X91108333Y-64057366D01*
X91108333Y-64057366D02*
X91108333Y-63707366D01*
X91108333Y-63707366D02*
X91225000Y-63707366D01*
X91225000Y-63707366D02*
X91258333Y-63724033D01*
X91258333Y-63724033D02*
X91275000Y-63740700D01*
X91275000Y-63740700D02*
X91291666Y-63774033D01*
X91291666Y-63774033D02*
X91291666Y-63807366D01*
X91291666Y-63807366D02*
X91275000Y-63840700D01*
X91275000Y-63840700D02*
X91258333Y-63857366D01*
X91258333Y-63857366D02*
X91225000Y-63874033D01*
X91225000Y-63874033D02*
X91108333Y-63874033D01*
X91608333Y-63824033D02*
X91608333Y-64057366D01*
X91458333Y-63824033D02*
X91458333Y-64007366D01*
X91458333Y-64007366D02*
X91475000Y-64040700D01*
X91475000Y-64040700D02*
X91508333Y-64057366D01*
X91508333Y-64057366D02*
X91558333Y-64057366D01*
X91558333Y-64057366D02*
X91591666Y-64040700D01*
X91591666Y-64040700D02*
X91608333Y-64024033D01*
X91741667Y-63824033D02*
X91925000Y-63824033D01*
X91925000Y-63824033D02*
X91741667Y-64057366D01*
X91741667Y-64057366D02*
X91925000Y-64057366D01*
X92025000Y-63824033D02*
X92208333Y-63824033D01*
X92208333Y-63824033D02*
X92025000Y-64057366D01*
X92025000Y-64057366D02*
X92208333Y-64057366D01*
X92474999Y-64040700D02*
X92441666Y-64057366D01*
X92441666Y-64057366D02*
X92374999Y-64057366D01*
X92374999Y-64057366D02*
X92341666Y-64040700D01*
X92341666Y-64040700D02*
X92324999Y-64007366D01*
X92324999Y-64007366D02*
X92324999Y-63874033D01*
X92324999Y-63874033D02*
X92341666Y-63840700D01*
X92341666Y-63840700D02*
X92374999Y-63824033D01*
X92374999Y-63824033D02*
X92441666Y-63824033D01*
X92441666Y-63824033D02*
X92474999Y-63840700D01*
X92474999Y-63840700D02*
X92491666Y-63874033D01*
X92491666Y-63874033D02*
X92491666Y-63907366D01*
X92491666Y-63907366D02*
X92324999Y-63940700D01*
X92641666Y-64057366D02*
X92641666Y-63824033D01*
X92641666Y-63890700D02*
X92658333Y-63857366D01*
X92658333Y-63857366D02*
X92674999Y-63840700D01*
X92674999Y-63840700D02*
X92708333Y-63824033D01*
X92708333Y-63824033D02*
X92741666Y-63824033D01*
X91591667Y-55274033D02*
X91641667Y-55290700D01*
X91641667Y-55290700D02*
X91658333Y-55307366D01*
X91658333Y-55307366D02*
X91675000Y-55340700D01*
X91675000Y-55340700D02*
X91675000Y-55390700D01*
X91675000Y-55390700D02*
X91658333Y-55424033D01*
X91658333Y-55424033D02*
X91641667Y-55440700D01*
X91641667Y-55440700D02*
X91608333Y-55457366D01*
X91608333Y-55457366D02*
X91475000Y-55457366D01*
X91475000Y-55457366D02*
X91475000Y-55107366D01*
X91475000Y-55107366D02*
X91591667Y-55107366D01*
X91591667Y-55107366D02*
X91625000Y-55124033D01*
X91625000Y-55124033D02*
X91641667Y-55140700D01*
X91641667Y-55140700D02*
X91658333Y-55174033D01*
X91658333Y-55174033D02*
X91658333Y-55207366D01*
X91658333Y-55207366D02*
X91641667Y-55240700D01*
X91641667Y-55240700D02*
X91625000Y-55257366D01*
X91625000Y-55257366D02*
X91591667Y-55274033D01*
X91591667Y-55274033D02*
X91475000Y-55274033D01*
X91791667Y-55107366D02*
X92025000Y-55107366D01*
X92025000Y-55107366D02*
X91791667Y-55457366D01*
X91791667Y-55457366D02*
X92025000Y-55457366D01*
X92341666Y-55457366D02*
X92141666Y-55457366D01*
X92241666Y-55457366D02*
X92241666Y-55107366D01*
X92241666Y-55107366D02*
X92208333Y-55157366D01*
X92208333Y-55157366D02*
X92175000Y-55190700D01*
X92175000Y-55190700D02*
X92141666Y-55207366D01*
X90166667Y-57924033D02*
X90433334Y-57924033D01*
X90300000Y-58057366D02*
X90300000Y-57790700D01*
X78233333Y-78107366D02*
X78033333Y-78107366D01*
X78133333Y-78107366D02*
X78133333Y-77757366D01*
X78133333Y-77757366D02*
X78100000Y-77807366D01*
X78100000Y-77807366D02*
X78066667Y-77840700D01*
X78066667Y-77840700D02*
X78033333Y-77857366D01*
X78450000Y-77757366D02*
X78483333Y-77757366D01*
X78483333Y-77757366D02*
X78516666Y-77774033D01*
X78516666Y-77774033D02*
X78533333Y-77790700D01*
X78533333Y-77790700D02*
X78550000Y-77824033D01*
X78550000Y-77824033D02*
X78566666Y-77890700D01*
X78566666Y-77890700D02*
X78566666Y-77974033D01*
X78566666Y-77974033D02*
X78550000Y-78040700D01*
X78550000Y-78040700D02*
X78533333Y-78074033D01*
X78533333Y-78074033D02*
X78516666Y-78090700D01*
X78516666Y-78090700D02*
X78483333Y-78107366D01*
X78483333Y-78107366D02*
X78450000Y-78107366D01*
X78450000Y-78107366D02*
X78416666Y-78090700D01*
X78416666Y-78090700D02*
X78400000Y-78074033D01*
X78400000Y-78074033D02*
X78383333Y-78040700D01*
X78383333Y-78040700D02*
X78366666Y-77974033D01*
X78366666Y-77974033D02*
X78366666Y-77890700D01*
X78366666Y-77890700D02*
X78383333Y-77824033D01*
X78383333Y-77824033D02*
X78400000Y-77790700D01*
X78400000Y-77790700D02*
X78416666Y-77774033D01*
X78416666Y-77774033D02*
X78450000Y-77757366D01*
X78783333Y-77757366D02*
X78816666Y-77757366D01*
X78816666Y-77757366D02*
X78849999Y-77774033D01*
X78849999Y-77774033D02*
X78866666Y-77790700D01*
X78866666Y-77790700D02*
X78883333Y-77824033D01*
X78883333Y-77824033D02*
X78899999Y-77890700D01*
X78899999Y-77890700D02*
X78899999Y-77974033D01*
X78899999Y-77974033D02*
X78883333Y-78040700D01*
X78883333Y-78040700D02*
X78866666Y-78074033D01*
X78866666Y-78074033D02*
X78849999Y-78090700D01*
X78849999Y-78090700D02*
X78816666Y-78107366D01*
X78816666Y-78107366D02*
X78783333Y-78107366D01*
X78783333Y-78107366D02*
X78749999Y-78090700D01*
X78749999Y-78090700D02*
X78733333Y-78074033D01*
X78733333Y-78074033D02*
X78716666Y-78040700D01*
X78716666Y-78040700D02*
X78699999Y-77974033D01*
X78699999Y-77974033D02*
X78699999Y-77890700D01*
X78699999Y-77890700D02*
X78716666Y-77824033D01*
X78716666Y-77824033D02*
X78733333Y-77790700D01*
X78733333Y-77790700D02*
X78749999Y-77774033D01*
X78749999Y-77774033D02*
X78783333Y-77757366D01*
X79049999Y-77874033D02*
X79049999Y-78107366D01*
X79049999Y-77907366D02*
X79066666Y-77890700D01*
X79066666Y-77890700D02*
X79099999Y-77874033D01*
X79099999Y-77874033D02*
X79149999Y-77874033D01*
X79149999Y-77874033D02*
X79183332Y-77890700D01*
X79183332Y-77890700D02*
X79199999Y-77924033D01*
X79199999Y-77924033D02*
X79199999Y-78107366D01*
X79483333Y-77924033D02*
X79366666Y-77924033D01*
X79366666Y-78107366D02*
X79366666Y-77757366D01*
X79366666Y-77757366D02*
X79533333Y-77757366D01*
D11*
X78708333Y-76663832D02*
X78689285Y-76682880D01*
X78689285Y-76682880D02*
X78632143Y-76701927D01*
X78632143Y-76701927D02*
X78594047Y-76701927D01*
X78594047Y-76701927D02*
X78536904Y-76682880D01*
X78536904Y-76682880D02*
X78498809Y-76644784D01*
X78498809Y-76644784D02*
X78479762Y-76606689D01*
X78479762Y-76606689D02*
X78460714Y-76530499D01*
X78460714Y-76530499D02*
X78460714Y-76473356D01*
X78460714Y-76473356D02*
X78479762Y-76397165D01*
X78479762Y-76397165D02*
X78498809Y-76359070D01*
X78498809Y-76359070D02*
X78536904Y-76320975D01*
X78536904Y-76320975D02*
X78594047Y-76301927D01*
X78594047Y-76301927D02*
X78632143Y-76301927D01*
X78632143Y-76301927D02*
X78689285Y-76320975D01*
X78689285Y-76320975D02*
X78708333Y-76340022D01*
X79070238Y-76301927D02*
X78879762Y-76301927D01*
X78879762Y-76301927D02*
X78860714Y-76492403D01*
X78860714Y-76492403D02*
X78879762Y-76473356D01*
X78879762Y-76473356D02*
X78917857Y-76454308D01*
X78917857Y-76454308D02*
X79013095Y-76454308D01*
X79013095Y-76454308D02*
X79051190Y-76473356D01*
X79051190Y-76473356D02*
X79070238Y-76492403D01*
X79070238Y-76492403D02*
X79089285Y-76530499D01*
X79089285Y-76530499D02*
X79089285Y-76625737D01*
X79089285Y-76625737D02*
X79070238Y-76663832D01*
X79070238Y-76663832D02*
X79051190Y-76682880D01*
X79051190Y-76682880D02*
X79013095Y-76701927D01*
X79013095Y-76701927D02*
X78917857Y-76701927D01*
X78917857Y-76701927D02*
X78879762Y-76682880D01*
X78879762Y-76682880D02*
X78860714Y-76663832D01*
D10*
X67175000Y-85424033D02*
X67175000Y-85657366D01*
X67091667Y-85290700D02*
X67008333Y-85540700D01*
X67008333Y-85540700D02*
X67225000Y-85540700D01*
X67358333Y-85624033D02*
X67375000Y-85640700D01*
X67375000Y-85640700D02*
X67358333Y-85657366D01*
X67358333Y-85657366D02*
X67341666Y-85640700D01*
X67341666Y-85640700D02*
X67358333Y-85624033D01*
X67358333Y-85624033D02*
X67358333Y-85657366D01*
X67491667Y-85307366D02*
X67725000Y-85307366D01*
X67725000Y-85307366D02*
X67575000Y-85657366D01*
X67858333Y-85657366D02*
X67858333Y-85307366D01*
X67891666Y-85524033D02*
X67991666Y-85657366D01*
X67991666Y-85424033D02*
X67858333Y-85557366D01*
D11*
X67681927Y-83741666D02*
X67491451Y-83874999D01*
X67681927Y-83970237D02*
X67281927Y-83970237D01*
X67281927Y-83970237D02*
X67281927Y-83817856D01*
X67281927Y-83817856D02*
X67300975Y-83779761D01*
X67300975Y-83779761D02*
X67320022Y-83760714D01*
X67320022Y-83760714D02*
X67358118Y-83741666D01*
X67358118Y-83741666D02*
X67415260Y-83741666D01*
X67415260Y-83741666D02*
X67453356Y-83760714D01*
X67453356Y-83760714D02*
X67472403Y-83779761D01*
X67472403Y-83779761D02*
X67491451Y-83817856D01*
X67491451Y-83817856D02*
X67491451Y-83970237D01*
X67281927Y-83608333D02*
X67281927Y-83341666D01*
X67281927Y-83341666D02*
X67681927Y-83513095D01*
D10*
X78400000Y-73087366D02*
X78200000Y-73087366D01*
X78300000Y-73087366D02*
X78300000Y-72737366D01*
X78300000Y-72737366D02*
X78266667Y-72787366D01*
X78266667Y-72787366D02*
X78233334Y-72820700D01*
X78233334Y-72820700D02*
X78200000Y-72837366D01*
X78616667Y-72737366D02*
X78650000Y-72737366D01*
X78650000Y-72737366D02*
X78683333Y-72754033D01*
X78683333Y-72754033D02*
X78700000Y-72770700D01*
X78700000Y-72770700D02*
X78716667Y-72804033D01*
X78716667Y-72804033D02*
X78733333Y-72870700D01*
X78733333Y-72870700D02*
X78733333Y-72954033D01*
X78733333Y-72954033D02*
X78716667Y-73020700D01*
X78716667Y-73020700D02*
X78700000Y-73054033D01*
X78700000Y-73054033D02*
X78683333Y-73070700D01*
X78683333Y-73070700D02*
X78650000Y-73087366D01*
X78650000Y-73087366D02*
X78616667Y-73087366D01*
X78616667Y-73087366D02*
X78583333Y-73070700D01*
X78583333Y-73070700D02*
X78566667Y-73054033D01*
X78566667Y-73054033D02*
X78550000Y-73020700D01*
X78550000Y-73020700D02*
X78533333Y-72954033D01*
X78533333Y-72954033D02*
X78533333Y-72870700D01*
X78533333Y-72870700D02*
X78550000Y-72804033D01*
X78550000Y-72804033D02*
X78566667Y-72770700D01*
X78566667Y-72770700D02*
X78583333Y-72754033D01*
X78583333Y-72754033D02*
X78616667Y-72737366D01*
X79033333Y-72854033D02*
X79033333Y-73087366D01*
X78883333Y-72854033D02*
X78883333Y-73037366D01*
X78883333Y-73037366D02*
X78900000Y-73070700D01*
X78900000Y-73070700D02*
X78933333Y-73087366D01*
X78933333Y-73087366D02*
X78983333Y-73087366D01*
X78983333Y-73087366D02*
X79016666Y-73070700D01*
X79016666Y-73070700D02*
X79033333Y-73054033D01*
X79316667Y-72904033D02*
X79200000Y-72904033D01*
X79200000Y-73087366D02*
X79200000Y-72737366D01*
X79200000Y-72737366D02*
X79366667Y-72737366D01*
D11*
X78708333Y-71643832D02*
X78689285Y-71662880D01*
X78689285Y-71662880D02*
X78632143Y-71681927D01*
X78632143Y-71681927D02*
X78594047Y-71681927D01*
X78594047Y-71681927D02*
X78536904Y-71662880D01*
X78536904Y-71662880D02*
X78498809Y-71624784D01*
X78498809Y-71624784D02*
X78479762Y-71586689D01*
X78479762Y-71586689D02*
X78460714Y-71510499D01*
X78460714Y-71510499D02*
X78460714Y-71453356D01*
X78460714Y-71453356D02*
X78479762Y-71377165D01*
X78479762Y-71377165D02*
X78498809Y-71339070D01*
X78498809Y-71339070D02*
X78536904Y-71300975D01*
X78536904Y-71300975D02*
X78594047Y-71281927D01*
X78594047Y-71281927D02*
X78632143Y-71281927D01*
X78632143Y-71281927D02*
X78689285Y-71300975D01*
X78689285Y-71300975D02*
X78708333Y-71320022D01*
X79089285Y-71681927D02*
X78860714Y-71681927D01*
X78975000Y-71681927D02*
X78975000Y-71281927D01*
X78975000Y-71281927D02*
X78936904Y-71339070D01*
X78936904Y-71339070D02*
X78898809Y-71377165D01*
X78898809Y-71377165D02*
X78860714Y-71396213D01*
D10*
X81291667Y-86157366D02*
X81091667Y-86157366D01*
X81191667Y-86157366D02*
X81191667Y-85807366D01*
X81191667Y-85807366D02*
X81158334Y-85857366D01*
X81158334Y-85857366D02*
X81125001Y-85890700D01*
X81125001Y-85890700D02*
X81091667Y-85907366D01*
X81508334Y-85807366D02*
X81541667Y-85807366D01*
X81541667Y-85807366D02*
X81575000Y-85824033D01*
X81575000Y-85824033D02*
X81591667Y-85840700D01*
X81591667Y-85840700D02*
X81608334Y-85874033D01*
X81608334Y-85874033D02*
X81625000Y-85940700D01*
X81625000Y-85940700D02*
X81625000Y-86024033D01*
X81625000Y-86024033D02*
X81608334Y-86090700D01*
X81608334Y-86090700D02*
X81591667Y-86124033D01*
X81591667Y-86124033D02*
X81575000Y-86140700D01*
X81575000Y-86140700D02*
X81541667Y-86157366D01*
X81541667Y-86157366D02*
X81508334Y-86157366D01*
X81508334Y-86157366D02*
X81475000Y-86140700D01*
X81475000Y-86140700D02*
X81458334Y-86124033D01*
X81458334Y-86124033D02*
X81441667Y-86090700D01*
X81441667Y-86090700D02*
X81425000Y-86024033D01*
X81425000Y-86024033D02*
X81425000Y-85940700D01*
X81425000Y-85940700D02*
X81441667Y-85874033D01*
X81441667Y-85874033D02*
X81458334Y-85840700D01*
X81458334Y-85840700D02*
X81475000Y-85824033D01*
X81475000Y-85824033D02*
X81508334Y-85807366D01*
X81775000Y-86157366D02*
X81775000Y-85807366D01*
X81808333Y-86024033D02*
X81908333Y-86157366D01*
X81908333Y-85924033D02*
X81775000Y-86057366D01*
D11*
X81681927Y-83891666D02*
X81491451Y-84024999D01*
X81681927Y-84120237D02*
X81281927Y-84120237D01*
X81281927Y-84120237D02*
X81281927Y-83967856D01*
X81281927Y-83967856D02*
X81300975Y-83929761D01*
X81300975Y-83929761D02*
X81320022Y-83910714D01*
X81320022Y-83910714D02*
X81358118Y-83891666D01*
X81358118Y-83891666D02*
X81415260Y-83891666D01*
X81415260Y-83891666D02*
X81453356Y-83910714D01*
X81453356Y-83910714D02*
X81472403Y-83929761D01*
X81472403Y-83929761D02*
X81491451Y-83967856D01*
X81491451Y-83967856D02*
X81491451Y-84120237D01*
X81281927Y-83758333D02*
X81281927Y-83510714D01*
X81281927Y-83510714D02*
X81434308Y-83644047D01*
X81434308Y-83644047D02*
X81434308Y-83586904D01*
X81434308Y-83586904D02*
X81453356Y-83548809D01*
X81453356Y-83548809D02*
X81472403Y-83529761D01*
X81472403Y-83529761D02*
X81510499Y-83510714D01*
X81510499Y-83510714D02*
X81605737Y-83510714D01*
X81605737Y-83510714D02*
X81643832Y-83529761D01*
X81643832Y-83529761D02*
X81662880Y-83548809D01*
X81662880Y-83548809D02*
X81681927Y-83586904D01*
X81681927Y-83586904D02*
X81681927Y-83701190D01*
X81681927Y-83701190D02*
X81662880Y-83739285D01*
X81662880Y-83739285D02*
X81643832Y-83758333D01*
D10*
X79491667Y-89807366D02*
X79558333Y-89807366D01*
X79558333Y-89807366D02*
X79591667Y-89824033D01*
X79591667Y-89824033D02*
X79625000Y-89857366D01*
X79625000Y-89857366D02*
X79641667Y-89924033D01*
X79641667Y-89924033D02*
X79641667Y-90040700D01*
X79641667Y-90040700D02*
X79625000Y-90107366D01*
X79625000Y-90107366D02*
X79591667Y-90140700D01*
X79591667Y-90140700D02*
X79558333Y-90157366D01*
X79558333Y-90157366D02*
X79491667Y-90157366D01*
X79491667Y-90157366D02*
X79458333Y-90140700D01*
X79458333Y-90140700D02*
X79425000Y-90107366D01*
X79425000Y-90107366D02*
X79408333Y-90040700D01*
X79408333Y-90040700D02*
X79408333Y-89924033D01*
X79408333Y-89924033D02*
X79425000Y-89857366D01*
X79425000Y-89857366D02*
X79458333Y-89824033D01*
X79458333Y-89824033D02*
X79491667Y-89807366D01*
X79958334Y-90157366D02*
X79791667Y-90157366D01*
X79791667Y-90157366D02*
X79791667Y-89807366D01*
X80075000Y-89974033D02*
X80191667Y-89974033D01*
X80241667Y-90157366D02*
X80075000Y-90157366D01*
X80075000Y-90157366D02*
X80075000Y-89807366D01*
X80075000Y-89807366D02*
X80241667Y-89807366D01*
X80391667Y-90157366D02*
X80391667Y-89807366D01*
X80391667Y-89807366D02*
X80475000Y-89807366D01*
X80475000Y-89807366D02*
X80525000Y-89824033D01*
X80525000Y-89824033D02*
X80558334Y-89857366D01*
X80558334Y-89857366D02*
X80575000Y-89890700D01*
X80575000Y-89890700D02*
X80591667Y-89957366D01*
X80591667Y-89957366D02*
X80591667Y-90007366D01*
X80591667Y-90007366D02*
X80575000Y-90074033D01*
X80575000Y-90074033D02*
X80558334Y-90107366D01*
X80558334Y-90107366D02*
X80525000Y-90140700D01*
X80525000Y-90140700D02*
X80475000Y-90157366D01*
X80475000Y-90157366D02*
X80391667Y-90157366D01*
X83573333Y-91807366D02*
X83573333Y-92057366D01*
X83573333Y-92057366D02*
X83556666Y-92107366D01*
X83556666Y-92107366D02*
X83523333Y-92140700D01*
X83523333Y-92140700D02*
X83473333Y-92157366D01*
X83473333Y-92157366D02*
X83440000Y-92157366D01*
X83706667Y-91807366D02*
X83923333Y-91807366D01*
X83923333Y-91807366D02*
X83806667Y-91940700D01*
X83806667Y-91940700D02*
X83856667Y-91940700D01*
X83856667Y-91940700D02*
X83890000Y-91957366D01*
X83890000Y-91957366D02*
X83906667Y-91974033D01*
X83906667Y-91974033D02*
X83923333Y-92007366D01*
X83923333Y-92007366D02*
X83923333Y-92090700D01*
X83923333Y-92090700D02*
X83906667Y-92124033D01*
X83906667Y-92124033D02*
X83890000Y-92140700D01*
X83890000Y-92140700D02*
X83856667Y-92157366D01*
X83856667Y-92157366D02*
X83756667Y-92157366D01*
X83756667Y-92157366D02*
X83723333Y-92140700D01*
X83723333Y-92140700D02*
X83706667Y-92124033D01*
X53221667Y-85307366D02*
X53055000Y-85307366D01*
X53055000Y-85307366D02*
X53038333Y-85474033D01*
X53038333Y-85474033D02*
X53055000Y-85457366D01*
X53055000Y-85457366D02*
X53088333Y-85440700D01*
X53088333Y-85440700D02*
X53171667Y-85440700D01*
X53171667Y-85440700D02*
X53205000Y-85457366D01*
X53205000Y-85457366D02*
X53221667Y-85474033D01*
X53221667Y-85474033D02*
X53238333Y-85507366D01*
X53238333Y-85507366D02*
X53238333Y-85590700D01*
X53238333Y-85590700D02*
X53221667Y-85624033D01*
X53221667Y-85624033D02*
X53205000Y-85640700D01*
X53205000Y-85640700D02*
X53171667Y-85657366D01*
X53171667Y-85657366D02*
X53088333Y-85657366D01*
X53088333Y-85657366D02*
X53055000Y-85640700D01*
X53055000Y-85640700D02*
X53038333Y-85624033D01*
X53388333Y-85624033D02*
X53405000Y-85640700D01*
X53405000Y-85640700D02*
X53388333Y-85657366D01*
X53388333Y-85657366D02*
X53371666Y-85640700D01*
X53371666Y-85640700D02*
X53388333Y-85624033D01*
X53388333Y-85624033D02*
X53388333Y-85657366D01*
X53738333Y-85657366D02*
X53538333Y-85657366D01*
X53638333Y-85657366D02*
X53638333Y-85307366D01*
X53638333Y-85307366D02*
X53605000Y-85357366D01*
X53605000Y-85357366D02*
X53571667Y-85390700D01*
X53571667Y-85390700D02*
X53538333Y-85407366D01*
X53888333Y-85657366D02*
X53888333Y-85307366D01*
X53921666Y-85524033D02*
X54021666Y-85657366D01*
X54021666Y-85424033D02*
X53888333Y-85557366D01*
D11*
X53681927Y-83932142D02*
X53491451Y-84065475D01*
X53681927Y-84160713D02*
X53281927Y-84160713D01*
X53281927Y-84160713D02*
X53281927Y-84008332D01*
X53281927Y-84008332D02*
X53300975Y-83970237D01*
X53300975Y-83970237D02*
X53320022Y-83951190D01*
X53320022Y-83951190D02*
X53358118Y-83932142D01*
X53358118Y-83932142D02*
X53415260Y-83932142D01*
X53415260Y-83932142D02*
X53453356Y-83951190D01*
X53453356Y-83951190D02*
X53472403Y-83970237D01*
X53472403Y-83970237D02*
X53491451Y-84008332D01*
X53491451Y-84008332D02*
X53491451Y-84160713D01*
X53681927Y-83551190D02*
X53681927Y-83779761D01*
X53681927Y-83665475D02*
X53281927Y-83665475D01*
X53281927Y-83665475D02*
X53339070Y-83703571D01*
X53339070Y-83703571D02*
X53377165Y-83741666D01*
X53377165Y-83741666D02*
X53396213Y-83779761D01*
X53681927Y-83170238D02*
X53681927Y-83398809D01*
X53681927Y-83284523D02*
X53281927Y-83284523D01*
X53281927Y-83284523D02*
X53339070Y-83322619D01*
X53339070Y-83322619D02*
X53377165Y-83360714D01*
X53377165Y-83360714D02*
X53396213Y-83398809D01*
D10*
X77050001Y-85807366D02*
X77266667Y-85807366D01*
X77266667Y-85807366D02*
X77150001Y-85940700D01*
X77150001Y-85940700D02*
X77200001Y-85940700D01*
X77200001Y-85940700D02*
X77233334Y-85957366D01*
X77233334Y-85957366D02*
X77250001Y-85974033D01*
X77250001Y-85974033D02*
X77266667Y-86007366D01*
X77266667Y-86007366D02*
X77266667Y-86090700D01*
X77266667Y-86090700D02*
X77250001Y-86124033D01*
X77250001Y-86124033D02*
X77233334Y-86140700D01*
X77233334Y-86140700D02*
X77200001Y-86157366D01*
X77200001Y-86157366D02*
X77100001Y-86157366D01*
X77100001Y-86157366D02*
X77066667Y-86140700D01*
X77066667Y-86140700D02*
X77050001Y-86124033D01*
X77383334Y-85807366D02*
X77600000Y-85807366D01*
X77600000Y-85807366D02*
X77483334Y-85940700D01*
X77483334Y-85940700D02*
X77533334Y-85940700D01*
X77533334Y-85940700D02*
X77566667Y-85957366D01*
X77566667Y-85957366D02*
X77583334Y-85974033D01*
X77583334Y-85974033D02*
X77600000Y-86007366D01*
X77600000Y-86007366D02*
X77600000Y-86090700D01*
X77600000Y-86090700D02*
X77583334Y-86124033D01*
X77583334Y-86124033D02*
X77566667Y-86140700D01*
X77566667Y-86140700D02*
X77533334Y-86157366D01*
X77533334Y-86157366D02*
X77433334Y-86157366D01*
X77433334Y-86157366D02*
X77400000Y-86140700D01*
X77400000Y-86140700D02*
X77383334Y-86124033D01*
X77816667Y-85807366D02*
X77850000Y-85807366D01*
X77850000Y-85807366D02*
X77883333Y-85824033D01*
X77883333Y-85824033D02*
X77900000Y-85840700D01*
X77900000Y-85840700D02*
X77916667Y-85874033D01*
X77916667Y-85874033D02*
X77933333Y-85940700D01*
X77933333Y-85940700D02*
X77933333Y-86024033D01*
X77933333Y-86024033D02*
X77916667Y-86090700D01*
X77916667Y-86090700D02*
X77900000Y-86124033D01*
X77900000Y-86124033D02*
X77883333Y-86140700D01*
X77883333Y-86140700D02*
X77850000Y-86157366D01*
X77850000Y-86157366D02*
X77816667Y-86157366D01*
X77816667Y-86157366D02*
X77783333Y-86140700D01*
X77783333Y-86140700D02*
X77766667Y-86124033D01*
X77766667Y-86124033D02*
X77750000Y-86090700D01*
X77750000Y-86090700D02*
X77733333Y-86024033D01*
X77733333Y-86024033D02*
X77733333Y-85940700D01*
X77733333Y-85940700D02*
X77750000Y-85874033D01*
X77750000Y-85874033D02*
X77766667Y-85840700D01*
X77766667Y-85840700D02*
X77783333Y-85824033D01*
X77783333Y-85824033D02*
X77816667Y-85807366D01*
D11*
X77681927Y-83891666D02*
X77491451Y-84024999D01*
X77681927Y-84120237D02*
X77281927Y-84120237D01*
X77281927Y-84120237D02*
X77281927Y-83967856D01*
X77281927Y-83967856D02*
X77300975Y-83929761D01*
X77300975Y-83929761D02*
X77320022Y-83910714D01*
X77320022Y-83910714D02*
X77358118Y-83891666D01*
X77358118Y-83891666D02*
X77415260Y-83891666D01*
X77415260Y-83891666D02*
X77453356Y-83910714D01*
X77453356Y-83910714D02*
X77472403Y-83929761D01*
X77472403Y-83929761D02*
X77491451Y-83967856D01*
X77491451Y-83967856D02*
X77491451Y-84120237D01*
X77681927Y-83510714D02*
X77681927Y-83739285D01*
X77681927Y-83624999D02*
X77281927Y-83624999D01*
X77281927Y-83624999D02*
X77339070Y-83663095D01*
X77339070Y-83663095D02*
X77377165Y-83701190D01*
X77377165Y-83701190D02*
X77396213Y-83739285D01*
D10*
X64666667Y-93307366D02*
X64666667Y-93590700D01*
X64666667Y-93590700D02*
X64683334Y-93624033D01*
X64683334Y-93624033D02*
X64700000Y-93640700D01*
X64700000Y-93640700D02*
X64733334Y-93657366D01*
X64733334Y-93657366D02*
X64800000Y-93657366D01*
X64800000Y-93657366D02*
X64833334Y-93640700D01*
X64833334Y-93640700D02*
X64850000Y-93624033D01*
X64850000Y-93624033D02*
X64866667Y-93590700D01*
X64866667Y-93590700D02*
X64866667Y-93307366D01*
X65016667Y-93640700D02*
X65066667Y-93657366D01*
X65066667Y-93657366D02*
X65150001Y-93657366D01*
X65150001Y-93657366D02*
X65183334Y-93640700D01*
X65183334Y-93640700D02*
X65200001Y-93624033D01*
X65200001Y-93624033D02*
X65216667Y-93590700D01*
X65216667Y-93590700D02*
X65216667Y-93557366D01*
X65216667Y-93557366D02*
X65200001Y-93524033D01*
X65200001Y-93524033D02*
X65183334Y-93507366D01*
X65183334Y-93507366D02*
X65150001Y-93490700D01*
X65150001Y-93490700D02*
X65083334Y-93474033D01*
X65083334Y-93474033D02*
X65050001Y-93457366D01*
X65050001Y-93457366D02*
X65033334Y-93440700D01*
X65033334Y-93440700D02*
X65016667Y-93407366D01*
X65016667Y-93407366D02*
X65016667Y-93374033D01*
X65016667Y-93374033D02*
X65033334Y-93340700D01*
X65033334Y-93340700D02*
X65050001Y-93324033D01*
X65050001Y-93324033D02*
X65083334Y-93307366D01*
X65083334Y-93307366D02*
X65166667Y-93307366D01*
X65166667Y-93307366D02*
X65216667Y-93324033D01*
X65483334Y-93474033D02*
X65533334Y-93490700D01*
X65533334Y-93490700D02*
X65550000Y-93507366D01*
X65550000Y-93507366D02*
X65566667Y-93540700D01*
X65566667Y-93540700D02*
X65566667Y-93590700D01*
X65566667Y-93590700D02*
X65550000Y-93624033D01*
X65550000Y-93624033D02*
X65533334Y-93640700D01*
X65533334Y-93640700D02*
X65500000Y-93657366D01*
X65500000Y-93657366D02*
X65366667Y-93657366D01*
X65366667Y-93657366D02*
X65366667Y-93307366D01*
X65366667Y-93307366D02*
X65483334Y-93307366D01*
X65483334Y-93307366D02*
X65516667Y-93324033D01*
X65516667Y-93324033D02*
X65533334Y-93340700D01*
X65533334Y-93340700D02*
X65550000Y-93374033D01*
X65550000Y-93374033D02*
X65550000Y-93407366D01*
X65550000Y-93407366D02*
X65533334Y-93440700D01*
X65533334Y-93440700D02*
X65516667Y-93457366D01*
X65516667Y-93457366D02*
X65483334Y-93474033D01*
X65483334Y-93474033D02*
X65366667Y-93474033D01*
X65716667Y-93524033D02*
X65983334Y-93524033D01*
X66350000Y-93624033D02*
X66333333Y-93640700D01*
X66333333Y-93640700D02*
X66283333Y-93657366D01*
X66283333Y-93657366D02*
X66250000Y-93657366D01*
X66250000Y-93657366D02*
X66200000Y-93640700D01*
X66200000Y-93640700D02*
X66166667Y-93607366D01*
X66166667Y-93607366D02*
X66150000Y-93574033D01*
X66150000Y-93574033D02*
X66133333Y-93507366D01*
X66133333Y-93507366D02*
X66133333Y-93457366D01*
X66133333Y-93457366D02*
X66150000Y-93390700D01*
X66150000Y-93390700D02*
X66166667Y-93357366D01*
X66166667Y-93357366D02*
X66200000Y-93324033D01*
X66200000Y-93324033D02*
X66250000Y-93307366D01*
X66250000Y-93307366D02*
X66283333Y-93307366D01*
X66283333Y-93307366D02*
X66333333Y-93324033D01*
X66333333Y-93324033D02*
X66350000Y-93340700D01*
X53383333Y-93307366D02*
X53383333Y-93557366D01*
X53383333Y-93557366D02*
X53366666Y-93607366D01*
X53366666Y-93607366D02*
X53333333Y-93640700D01*
X53333333Y-93640700D02*
X53283333Y-93657366D01*
X53283333Y-93657366D02*
X53250000Y-93657366D01*
X53733333Y-93657366D02*
X53533333Y-93657366D01*
X53633333Y-93657366D02*
X53633333Y-93307366D01*
X53633333Y-93307366D02*
X53600000Y-93357366D01*
X53600000Y-93357366D02*
X53566667Y-93390700D01*
X53566667Y-93390700D02*
X53533333Y-93407366D01*
X55191667Y-85307366D02*
X55025000Y-85307366D01*
X55025000Y-85307366D02*
X55008333Y-85474033D01*
X55008333Y-85474033D02*
X55025000Y-85457366D01*
X55025000Y-85457366D02*
X55058333Y-85440700D01*
X55058333Y-85440700D02*
X55141667Y-85440700D01*
X55141667Y-85440700D02*
X55175000Y-85457366D01*
X55175000Y-85457366D02*
X55191667Y-85474033D01*
X55191667Y-85474033D02*
X55208333Y-85507366D01*
X55208333Y-85507366D02*
X55208333Y-85590700D01*
X55208333Y-85590700D02*
X55191667Y-85624033D01*
X55191667Y-85624033D02*
X55175000Y-85640700D01*
X55175000Y-85640700D02*
X55141667Y-85657366D01*
X55141667Y-85657366D02*
X55058333Y-85657366D01*
X55058333Y-85657366D02*
X55025000Y-85640700D01*
X55025000Y-85640700D02*
X55008333Y-85624033D01*
X55358333Y-85624033D02*
X55375000Y-85640700D01*
X55375000Y-85640700D02*
X55358333Y-85657366D01*
X55358333Y-85657366D02*
X55341666Y-85640700D01*
X55341666Y-85640700D02*
X55358333Y-85624033D01*
X55358333Y-85624033D02*
X55358333Y-85657366D01*
X55708333Y-85657366D02*
X55508333Y-85657366D01*
X55608333Y-85657366D02*
X55608333Y-85307366D01*
X55608333Y-85307366D02*
X55575000Y-85357366D01*
X55575000Y-85357366D02*
X55541667Y-85390700D01*
X55541667Y-85390700D02*
X55508333Y-85407366D01*
X55858333Y-85657366D02*
X55858333Y-85307366D01*
X55891666Y-85524033D02*
X55991666Y-85657366D01*
X55991666Y-85424033D02*
X55858333Y-85557366D01*
D11*
X55681927Y-83932142D02*
X55491451Y-84065475D01*
X55681927Y-84160713D02*
X55281927Y-84160713D01*
X55281927Y-84160713D02*
X55281927Y-84008332D01*
X55281927Y-84008332D02*
X55300975Y-83970237D01*
X55300975Y-83970237D02*
X55320022Y-83951190D01*
X55320022Y-83951190D02*
X55358118Y-83932142D01*
X55358118Y-83932142D02*
X55415260Y-83932142D01*
X55415260Y-83932142D02*
X55453356Y-83951190D01*
X55453356Y-83951190D02*
X55472403Y-83970237D01*
X55472403Y-83970237D02*
X55491451Y-84008332D01*
X55491451Y-84008332D02*
X55491451Y-84160713D01*
X55681927Y-83551190D02*
X55681927Y-83779761D01*
X55681927Y-83665475D02*
X55281927Y-83665475D01*
X55281927Y-83665475D02*
X55339070Y-83703571D01*
X55339070Y-83703571D02*
X55377165Y-83741666D01*
X55377165Y-83741666D02*
X55396213Y-83779761D01*
X55320022Y-83398809D02*
X55300975Y-83379761D01*
X55300975Y-83379761D02*
X55281927Y-83341666D01*
X55281927Y-83341666D02*
X55281927Y-83246428D01*
X55281927Y-83246428D02*
X55300975Y-83208333D01*
X55300975Y-83208333D02*
X55320022Y-83189285D01*
X55320022Y-83189285D02*
X55358118Y-83170238D01*
X55358118Y-83170238D02*
X55396213Y-83170238D01*
X55396213Y-83170238D02*
X55453356Y-83189285D01*
X55453356Y-83189285D02*
X55681927Y-83417857D01*
X55681927Y-83417857D02*
X55681927Y-83170238D01*
D10*
X86629167Y-79007366D02*
X86795834Y-79007366D01*
X86595834Y-79107366D02*
X86712501Y-78757366D01*
X86712501Y-78757366D02*
X86829167Y-79107366D01*
X86945834Y-79107366D02*
X86945834Y-78757366D01*
X86945834Y-78757366D02*
X87079167Y-78757366D01*
X87079167Y-78757366D02*
X87112501Y-78774033D01*
X87112501Y-78774033D02*
X87129167Y-78790700D01*
X87129167Y-78790700D02*
X87145834Y-78824033D01*
X87145834Y-78824033D02*
X87145834Y-78874033D01*
X87145834Y-78874033D02*
X87129167Y-78907366D01*
X87129167Y-78907366D02*
X87112501Y-78924033D01*
X87112501Y-78924033D02*
X87079167Y-78940700D01*
X87079167Y-78940700D02*
X86945834Y-78940700D01*
X87279167Y-78790700D02*
X87295834Y-78774033D01*
X87295834Y-78774033D02*
X87329167Y-78757366D01*
X87329167Y-78757366D02*
X87412501Y-78757366D01*
X87412501Y-78757366D02*
X87445834Y-78774033D01*
X87445834Y-78774033D02*
X87462501Y-78790700D01*
X87462501Y-78790700D02*
X87479167Y-78824033D01*
X87479167Y-78824033D02*
X87479167Y-78857366D01*
X87479167Y-78857366D02*
X87462501Y-78907366D01*
X87462501Y-78907366D02*
X87262501Y-79107366D01*
X87262501Y-79107366D02*
X87479167Y-79107366D01*
X87812500Y-79107366D02*
X87612500Y-79107366D01*
X87712500Y-79107366D02*
X87712500Y-78757366D01*
X87712500Y-78757366D02*
X87679167Y-78807366D01*
X87679167Y-78807366D02*
X87645834Y-78840700D01*
X87645834Y-78840700D02*
X87612500Y-78857366D01*
X88145833Y-79107366D02*
X87945833Y-79107366D01*
X88045833Y-79107366D02*
X88045833Y-78757366D01*
X88045833Y-78757366D02*
X88012500Y-78807366D01*
X88012500Y-78807366D02*
X87979167Y-78840700D01*
X87979167Y-78840700D02*
X87945833Y-78857366D01*
X88279166Y-78790700D02*
X88295833Y-78774033D01*
X88295833Y-78774033D02*
X88329166Y-78757366D01*
X88329166Y-78757366D02*
X88412500Y-78757366D01*
X88412500Y-78757366D02*
X88445833Y-78774033D01*
X88445833Y-78774033D02*
X88462500Y-78790700D01*
X88462500Y-78790700D02*
X88479166Y-78824033D01*
X88479166Y-78824033D02*
X88479166Y-78857366D01*
X88479166Y-78857366D02*
X88462500Y-78907366D01*
X88462500Y-78907366D02*
X88262500Y-79107366D01*
X88262500Y-79107366D02*
X88479166Y-79107366D01*
X88629166Y-79107366D02*
X88629166Y-78757366D01*
X88829166Y-79107366D02*
X88679166Y-78907366D01*
X88829166Y-78757366D02*
X88629166Y-78957366D01*
X88979166Y-78974033D02*
X89245833Y-78974033D01*
X89379166Y-78757366D02*
X89595832Y-78757366D01*
X89595832Y-78757366D02*
X89479166Y-78890700D01*
X89479166Y-78890700D02*
X89529166Y-78890700D01*
X89529166Y-78890700D02*
X89562499Y-78907366D01*
X89562499Y-78907366D02*
X89579166Y-78924033D01*
X89579166Y-78924033D02*
X89595832Y-78957366D01*
X89595832Y-78957366D02*
X89595832Y-79040700D01*
X89595832Y-79040700D02*
X89579166Y-79074033D01*
X89579166Y-79074033D02*
X89562499Y-79090700D01*
X89562499Y-79090700D02*
X89529166Y-79107366D01*
X89529166Y-79107366D02*
X89429166Y-79107366D01*
X89429166Y-79107366D02*
X89395832Y-79090700D01*
X89395832Y-79090700D02*
X89379166Y-79074033D01*
X89745832Y-79074033D02*
X89762499Y-79090700D01*
X89762499Y-79090700D02*
X89745832Y-79107366D01*
X89745832Y-79107366D02*
X89729165Y-79090700D01*
X89729165Y-79090700D02*
X89745832Y-79074033D01*
X89745832Y-79074033D02*
X89745832Y-79107366D01*
X89879166Y-78757366D02*
X90095832Y-78757366D01*
X90095832Y-78757366D02*
X89979166Y-78890700D01*
X89979166Y-78890700D02*
X90029166Y-78890700D01*
X90029166Y-78890700D02*
X90062499Y-78907366D01*
X90062499Y-78907366D02*
X90079166Y-78924033D01*
X90079166Y-78924033D02*
X90095832Y-78957366D01*
X90095832Y-78957366D02*
X90095832Y-79040700D01*
X90095832Y-79040700D02*
X90079166Y-79074033D01*
X90079166Y-79074033D02*
X90062499Y-79090700D01*
X90062499Y-79090700D02*
X90029166Y-79107366D01*
X90029166Y-79107366D02*
X89929166Y-79107366D01*
X89929166Y-79107366D02*
X89895832Y-79090700D01*
X89895832Y-79090700D02*
X89879166Y-79074033D01*
D12*
X87969865Y-77098571D02*
X88552722Y-77098571D01*
X88552722Y-77098571D02*
X88621294Y-77064285D01*
X88621294Y-77064285D02*
X88655580Y-77030000D01*
X88655580Y-77030000D02*
X88689865Y-76961428D01*
X88689865Y-76961428D02*
X88689865Y-76824285D01*
X88689865Y-76824285D02*
X88655580Y-76755714D01*
X88655580Y-76755714D02*
X88621294Y-76721428D01*
X88621294Y-76721428D02*
X88552722Y-76687142D01*
X88552722Y-76687142D02*
X87969865Y-76687142D01*
X88209865Y-76035714D02*
X88689865Y-76035714D01*
X87935580Y-76207142D02*
X88449865Y-76378571D01*
X88449865Y-76378571D02*
X88449865Y-75932856D01*
D10*
X75458333Y-85657366D02*
X75258333Y-85657366D01*
X75358333Y-85657366D02*
X75358333Y-85307366D01*
X75358333Y-85307366D02*
X75325000Y-85357366D01*
X75325000Y-85357366D02*
X75291667Y-85390700D01*
X75291667Y-85390700D02*
X75258333Y-85407366D01*
X75608333Y-85657366D02*
X75608333Y-85307366D01*
X75641666Y-85524033D02*
X75741666Y-85657366D01*
X75741666Y-85424033D02*
X75608333Y-85557366D01*
D11*
X75681927Y-83741666D02*
X75491451Y-83874999D01*
X75681927Y-83970237D02*
X75281927Y-83970237D01*
X75281927Y-83970237D02*
X75281927Y-83817856D01*
X75281927Y-83817856D02*
X75300975Y-83779761D01*
X75300975Y-83779761D02*
X75320022Y-83760714D01*
X75320022Y-83760714D02*
X75358118Y-83741666D01*
X75358118Y-83741666D02*
X75415260Y-83741666D01*
X75415260Y-83741666D02*
X75453356Y-83760714D01*
X75453356Y-83760714D02*
X75472403Y-83779761D01*
X75472403Y-83779761D02*
X75491451Y-83817856D01*
X75491451Y-83817856D02*
X75491451Y-83970237D01*
X75415260Y-83398809D02*
X75681927Y-83398809D01*
X75262880Y-83494047D02*
X75548594Y-83589285D01*
X75548594Y-83589285D02*
X75548594Y-83341666D01*
D10*
X61233333Y-85340700D02*
X61250000Y-85324033D01*
X61250000Y-85324033D02*
X61283333Y-85307366D01*
X61283333Y-85307366D02*
X61366667Y-85307366D01*
X61366667Y-85307366D02*
X61400000Y-85324033D01*
X61400000Y-85324033D02*
X61416667Y-85340700D01*
X61416667Y-85340700D02*
X61433333Y-85374033D01*
X61433333Y-85374033D02*
X61433333Y-85407366D01*
X61433333Y-85407366D02*
X61416667Y-85457366D01*
X61416667Y-85457366D02*
X61216667Y-85657366D01*
X61216667Y-85657366D02*
X61433333Y-85657366D01*
X61566666Y-85340700D02*
X61583333Y-85324033D01*
X61583333Y-85324033D02*
X61616666Y-85307366D01*
X61616666Y-85307366D02*
X61700000Y-85307366D01*
X61700000Y-85307366D02*
X61733333Y-85324033D01*
X61733333Y-85324033D02*
X61750000Y-85340700D01*
X61750000Y-85340700D02*
X61766666Y-85374033D01*
X61766666Y-85374033D02*
X61766666Y-85407366D01*
X61766666Y-85407366D02*
X61750000Y-85457366D01*
X61750000Y-85457366D02*
X61550000Y-85657366D01*
X61550000Y-85657366D02*
X61766666Y-85657366D01*
D11*
X61681927Y-83932142D02*
X61491451Y-84065475D01*
X61681927Y-84160713D02*
X61281927Y-84160713D01*
X61281927Y-84160713D02*
X61281927Y-84008332D01*
X61281927Y-84008332D02*
X61300975Y-83970237D01*
X61300975Y-83970237D02*
X61320022Y-83951190D01*
X61320022Y-83951190D02*
X61358118Y-83932142D01*
X61358118Y-83932142D02*
X61415260Y-83932142D01*
X61415260Y-83932142D02*
X61453356Y-83951190D01*
X61453356Y-83951190D02*
X61472403Y-83970237D01*
X61472403Y-83970237D02*
X61491451Y-84008332D01*
X61491451Y-84008332D02*
X61491451Y-84160713D01*
X61681927Y-83551190D02*
X61681927Y-83779761D01*
X61681927Y-83665475D02*
X61281927Y-83665475D01*
X61281927Y-83665475D02*
X61339070Y-83703571D01*
X61339070Y-83703571D02*
X61377165Y-83741666D01*
X61377165Y-83741666D02*
X61396213Y-83779761D01*
X61281927Y-83208333D02*
X61281927Y-83284523D01*
X61281927Y-83284523D02*
X61300975Y-83322619D01*
X61300975Y-83322619D02*
X61320022Y-83341666D01*
X61320022Y-83341666D02*
X61377165Y-83379761D01*
X61377165Y-83379761D02*
X61453356Y-83398809D01*
X61453356Y-83398809D02*
X61605737Y-83398809D01*
X61605737Y-83398809D02*
X61643832Y-83379761D01*
X61643832Y-83379761D02*
X61662880Y-83360714D01*
X61662880Y-83360714D02*
X61681927Y-83322619D01*
X61681927Y-83322619D02*
X61681927Y-83246428D01*
X61681927Y-83246428D02*
X61662880Y-83208333D01*
X61662880Y-83208333D02*
X61643832Y-83189285D01*
X61643832Y-83189285D02*
X61605737Y-83170238D01*
X61605737Y-83170238D02*
X61510499Y-83170238D01*
X61510499Y-83170238D02*
X61472403Y-83189285D01*
X61472403Y-83189285D02*
X61453356Y-83208333D01*
X61453356Y-83208333D02*
X61434308Y-83246428D01*
X61434308Y-83246428D02*
X61434308Y-83322619D01*
X61434308Y-83322619D02*
X61453356Y-83360714D01*
X61453356Y-83360714D02*
X61472403Y-83379761D01*
X61472403Y-83379761D02*
X61510499Y-83398809D01*
D10*
X96658333Y-72507366D02*
X96458333Y-72507366D01*
X96558333Y-72507366D02*
X96558333Y-72157366D01*
X96558333Y-72157366D02*
X96525000Y-72207366D01*
X96525000Y-72207366D02*
X96491667Y-72240700D01*
X96491667Y-72240700D02*
X96458333Y-72257366D01*
X96875000Y-72157366D02*
X96908333Y-72157366D01*
X96908333Y-72157366D02*
X96941666Y-72174033D01*
X96941666Y-72174033D02*
X96958333Y-72190700D01*
X96958333Y-72190700D02*
X96975000Y-72224033D01*
X96975000Y-72224033D02*
X96991666Y-72290700D01*
X96991666Y-72290700D02*
X96991666Y-72374033D01*
X96991666Y-72374033D02*
X96975000Y-72440700D01*
X96975000Y-72440700D02*
X96958333Y-72474033D01*
X96958333Y-72474033D02*
X96941666Y-72490700D01*
X96941666Y-72490700D02*
X96908333Y-72507366D01*
X96908333Y-72507366D02*
X96875000Y-72507366D01*
X96875000Y-72507366D02*
X96841666Y-72490700D01*
X96841666Y-72490700D02*
X96825000Y-72474033D01*
X96825000Y-72474033D02*
X96808333Y-72440700D01*
X96808333Y-72440700D02*
X96791666Y-72374033D01*
X96791666Y-72374033D02*
X96791666Y-72290700D01*
X96791666Y-72290700D02*
X96808333Y-72224033D01*
X96808333Y-72224033D02*
X96825000Y-72190700D01*
X96825000Y-72190700D02*
X96841666Y-72174033D01*
X96841666Y-72174033D02*
X96875000Y-72157366D01*
X97208333Y-72157366D02*
X97241666Y-72157366D01*
X97241666Y-72157366D02*
X97274999Y-72174033D01*
X97274999Y-72174033D02*
X97291666Y-72190700D01*
X97291666Y-72190700D02*
X97308333Y-72224033D01*
X97308333Y-72224033D02*
X97324999Y-72290700D01*
X97324999Y-72290700D02*
X97324999Y-72374033D01*
X97324999Y-72374033D02*
X97308333Y-72440700D01*
X97308333Y-72440700D02*
X97291666Y-72474033D01*
X97291666Y-72474033D02*
X97274999Y-72490700D01*
X97274999Y-72490700D02*
X97241666Y-72507366D01*
X97241666Y-72507366D02*
X97208333Y-72507366D01*
X97208333Y-72507366D02*
X97174999Y-72490700D01*
X97174999Y-72490700D02*
X97158333Y-72474033D01*
X97158333Y-72474033D02*
X97141666Y-72440700D01*
X97141666Y-72440700D02*
X97124999Y-72374033D01*
X97124999Y-72374033D02*
X97124999Y-72290700D01*
X97124999Y-72290700D02*
X97141666Y-72224033D01*
X97141666Y-72224033D02*
X97158333Y-72190700D01*
X97158333Y-72190700D02*
X97174999Y-72174033D01*
X97174999Y-72174033D02*
X97208333Y-72157366D01*
X97624999Y-72274033D02*
X97624999Y-72507366D01*
X97474999Y-72274033D02*
X97474999Y-72457366D01*
X97474999Y-72457366D02*
X97491666Y-72490700D01*
X97491666Y-72490700D02*
X97524999Y-72507366D01*
X97524999Y-72507366D02*
X97574999Y-72507366D01*
X97574999Y-72507366D02*
X97608332Y-72490700D01*
X97608332Y-72490700D02*
X97624999Y-72474033D01*
X97908333Y-72324033D02*
X97791666Y-72324033D01*
X97791666Y-72507366D02*
X97791666Y-72157366D01*
X97791666Y-72157366D02*
X97958333Y-72157366D01*
X96975000Y-68124033D02*
X96958333Y-68140700D01*
X96958333Y-68140700D02*
X96908333Y-68157366D01*
X96908333Y-68157366D02*
X96875000Y-68157366D01*
X96875000Y-68157366D02*
X96825000Y-68140700D01*
X96825000Y-68140700D02*
X96791667Y-68107366D01*
X96791667Y-68107366D02*
X96775000Y-68074033D01*
X96775000Y-68074033D02*
X96758333Y-68007366D01*
X96758333Y-68007366D02*
X96758333Y-67957366D01*
X96758333Y-67957366D02*
X96775000Y-67890700D01*
X96775000Y-67890700D02*
X96791667Y-67857366D01*
X96791667Y-67857366D02*
X96825000Y-67824033D01*
X96825000Y-67824033D02*
X96875000Y-67807366D01*
X96875000Y-67807366D02*
X96908333Y-67807366D01*
X96908333Y-67807366D02*
X96958333Y-67824033D01*
X96958333Y-67824033D02*
X96975000Y-67840700D01*
X97308333Y-68157366D02*
X97108333Y-68157366D01*
X97208333Y-68157366D02*
X97208333Y-67807366D01*
X97208333Y-67807366D02*
X97175000Y-67857366D01*
X97175000Y-67857366D02*
X97141667Y-67890700D01*
X97141667Y-67890700D02*
X97108333Y-67907366D01*
X97525000Y-67807366D02*
X97558333Y-67807366D01*
X97558333Y-67807366D02*
X97591666Y-67824033D01*
X97591666Y-67824033D02*
X97608333Y-67840700D01*
X97608333Y-67840700D02*
X97625000Y-67874033D01*
X97625000Y-67874033D02*
X97641666Y-67940700D01*
X97641666Y-67940700D02*
X97641666Y-68024033D01*
X97641666Y-68024033D02*
X97625000Y-68090700D01*
X97625000Y-68090700D02*
X97608333Y-68124033D01*
X97608333Y-68124033D02*
X97591666Y-68140700D01*
X97591666Y-68140700D02*
X97558333Y-68157366D01*
X97558333Y-68157366D02*
X97525000Y-68157366D01*
X97525000Y-68157366D02*
X97491666Y-68140700D01*
X97491666Y-68140700D02*
X97475000Y-68124033D01*
X97475000Y-68124033D02*
X97458333Y-68090700D01*
X97458333Y-68090700D02*
X97441666Y-68024033D01*
X97441666Y-68024033D02*
X97441666Y-67940700D01*
X97441666Y-67940700D02*
X97458333Y-67874033D01*
X97458333Y-67874033D02*
X97475000Y-67840700D01*
X97475000Y-67840700D02*
X97491666Y-67824033D01*
X97491666Y-67824033D02*
X97525000Y-67807366D01*
X82458333Y-80597366D02*
X82258333Y-80597366D01*
X82358333Y-80597366D02*
X82358333Y-80247366D01*
X82358333Y-80247366D02*
X82325000Y-80297366D01*
X82325000Y-80297366D02*
X82291667Y-80330700D01*
X82291667Y-80330700D02*
X82258333Y-80347366D01*
X82675000Y-80247366D02*
X82708333Y-80247366D01*
X82708333Y-80247366D02*
X82741666Y-80264033D01*
X82741666Y-80264033D02*
X82758333Y-80280700D01*
X82758333Y-80280700D02*
X82775000Y-80314033D01*
X82775000Y-80314033D02*
X82791666Y-80380700D01*
X82791666Y-80380700D02*
X82791666Y-80464033D01*
X82791666Y-80464033D02*
X82775000Y-80530700D01*
X82775000Y-80530700D02*
X82758333Y-80564033D01*
X82758333Y-80564033D02*
X82741666Y-80580700D01*
X82741666Y-80580700D02*
X82708333Y-80597366D01*
X82708333Y-80597366D02*
X82675000Y-80597366D01*
X82675000Y-80597366D02*
X82641666Y-80580700D01*
X82641666Y-80580700D02*
X82625000Y-80564033D01*
X82625000Y-80564033D02*
X82608333Y-80530700D01*
X82608333Y-80530700D02*
X82591666Y-80464033D01*
X82591666Y-80464033D02*
X82591666Y-80380700D01*
X82591666Y-80380700D02*
X82608333Y-80314033D01*
X82608333Y-80314033D02*
X82625000Y-80280700D01*
X82625000Y-80280700D02*
X82641666Y-80264033D01*
X82641666Y-80264033D02*
X82675000Y-80247366D01*
X83008333Y-80247366D02*
X83041666Y-80247366D01*
X83041666Y-80247366D02*
X83074999Y-80264033D01*
X83074999Y-80264033D02*
X83091666Y-80280700D01*
X83091666Y-80280700D02*
X83108333Y-80314033D01*
X83108333Y-80314033D02*
X83124999Y-80380700D01*
X83124999Y-80380700D02*
X83124999Y-80464033D01*
X83124999Y-80464033D02*
X83108333Y-80530700D01*
X83108333Y-80530700D02*
X83091666Y-80564033D01*
X83091666Y-80564033D02*
X83074999Y-80580700D01*
X83074999Y-80580700D02*
X83041666Y-80597366D01*
X83041666Y-80597366D02*
X83008333Y-80597366D01*
X83008333Y-80597366D02*
X82974999Y-80580700D01*
X82974999Y-80580700D02*
X82958333Y-80564033D01*
X82958333Y-80564033D02*
X82941666Y-80530700D01*
X82941666Y-80530700D02*
X82924999Y-80464033D01*
X82924999Y-80464033D02*
X82924999Y-80380700D01*
X82924999Y-80380700D02*
X82941666Y-80314033D01*
X82941666Y-80314033D02*
X82958333Y-80280700D01*
X82958333Y-80280700D02*
X82974999Y-80264033D01*
X82974999Y-80264033D02*
X83008333Y-80247366D01*
X83274999Y-80364033D02*
X83274999Y-80597366D01*
X83274999Y-80397366D02*
X83291666Y-80380700D01*
X83291666Y-80380700D02*
X83324999Y-80364033D01*
X83324999Y-80364033D02*
X83374999Y-80364033D01*
X83374999Y-80364033D02*
X83408332Y-80380700D01*
X83408332Y-80380700D02*
X83424999Y-80414033D01*
X83424999Y-80414033D02*
X83424999Y-80597366D01*
X83708333Y-80414033D02*
X83591666Y-80414033D01*
X83591666Y-80597366D02*
X83591666Y-80247366D01*
X83591666Y-80247366D02*
X83758333Y-80247366D01*
D11*
X82933333Y-79153832D02*
X82914285Y-79172880D01*
X82914285Y-79172880D02*
X82857143Y-79191927D01*
X82857143Y-79191927D02*
X82819047Y-79191927D01*
X82819047Y-79191927D02*
X82761904Y-79172880D01*
X82761904Y-79172880D02*
X82723809Y-79134784D01*
X82723809Y-79134784D02*
X82704762Y-79096689D01*
X82704762Y-79096689D02*
X82685714Y-79020499D01*
X82685714Y-79020499D02*
X82685714Y-78963356D01*
X82685714Y-78963356D02*
X82704762Y-78887165D01*
X82704762Y-78887165D02*
X82723809Y-78849070D01*
X82723809Y-78849070D02*
X82761904Y-78810975D01*
X82761904Y-78810975D02*
X82819047Y-78791927D01*
X82819047Y-78791927D02*
X82857143Y-78791927D01*
X82857143Y-78791927D02*
X82914285Y-78810975D01*
X82914285Y-78810975D02*
X82933333Y-78830022D01*
X83161904Y-78963356D02*
X83123809Y-78944308D01*
X83123809Y-78944308D02*
X83104762Y-78925260D01*
X83104762Y-78925260D02*
X83085714Y-78887165D01*
X83085714Y-78887165D02*
X83085714Y-78868118D01*
X83085714Y-78868118D02*
X83104762Y-78830022D01*
X83104762Y-78830022D02*
X83123809Y-78810975D01*
X83123809Y-78810975D02*
X83161904Y-78791927D01*
X83161904Y-78791927D02*
X83238095Y-78791927D01*
X83238095Y-78791927D02*
X83276190Y-78810975D01*
X83276190Y-78810975D02*
X83295238Y-78830022D01*
X83295238Y-78830022D02*
X83314285Y-78868118D01*
X83314285Y-78868118D02*
X83314285Y-78887165D01*
X83314285Y-78887165D02*
X83295238Y-78925260D01*
X83295238Y-78925260D02*
X83276190Y-78944308D01*
X83276190Y-78944308D02*
X83238095Y-78963356D01*
X83238095Y-78963356D02*
X83161904Y-78963356D01*
X83161904Y-78963356D02*
X83123809Y-78982403D01*
X83123809Y-78982403D02*
X83104762Y-79001451D01*
X83104762Y-79001451D02*
X83085714Y-79039546D01*
X83085714Y-79039546D02*
X83085714Y-79115737D01*
X83085714Y-79115737D02*
X83104762Y-79153832D01*
X83104762Y-79153832D02*
X83123809Y-79172880D01*
X83123809Y-79172880D02*
X83161904Y-79191927D01*
X83161904Y-79191927D02*
X83238095Y-79191927D01*
X83238095Y-79191927D02*
X83276190Y-79172880D01*
X83276190Y-79172880D02*
X83295238Y-79153832D01*
X83295238Y-79153832D02*
X83314285Y-79115737D01*
X83314285Y-79115737D02*
X83314285Y-79039546D01*
X83314285Y-79039546D02*
X83295238Y-79001451D01*
X83295238Y-79001451D02*
X83276190Y-78982403D01*
X83276190Y-78982403D02*
X83238095Y-78963356D01*
D10*
X74362500Y-76624033D02*
X74345833Y-76640700D01*
X74345833Y-76640700D02*
X74295833Y-76657366D01*
X74295833Y-76657366D02*
X74262500Y-76657366D01*
X74262500Y-76657366D02*
X74212500Y-76640700D01*
X74212500Y-76640700D02*
X74179167Y-76607366D01*
X74179167Y-76607366D02*
X74162500Y-76574033D01*
X74162500Y-76574033D02*
X74145833Y-76507366D01*
X74145833Y-76507366D02*
X74145833Y-76457366D01*
X74145833Y-76457366D02*
X74162500Y-76390700D01*
X74162500Y-76390700D02*
X74179167Y-76357366D01*
X74179167Y-76357366D02*
X74212500Y-76324033D01*
X74212500Y-76324033D02*
X74262500Y-76307366D01*
X74262500Y-76307366D02*
X74295833Y-76307366D01*
X74295833Y-76307366D02*
X74345833Y-76324033D01*
X74345833Y-76324033D02*
X74362500Y-76340700D01*
X74512500Y-76657366D02*
X74512500Y-76307366D01*
X74512500Y-76474033D02*
X74712500Y-76474033D01*
X74712500Y-76657366D02*
X74712500Y-76307366D01*
X75079167Y-76657366D02*
X74962500Y-76490700D01*
X74879167Y-76657366D02*
X74879167Y-76307366D01*
X74879167Y-76307366D02*
X75012500Y-76307366D01*
X75012500Y-76307366D02*
X75045834Y-76324033D01*
X75045834Y-76324033D02*
X75062500Y-76340700D01*
X75062500Y-76340700D02*
X75079167Y-76374033D01*
X75079167Y-76374033D02*
X75079167Y-76424033D01*
X75079167Y-76424033D02*
X75062500Y-76457366D01*
X75062500Y-76457366D02*
X75045834Y-76474033D01*
X75045834Y-76474033D02*
X75012500Y-76490700D01*
X75012500Y-76490700D02*
X74879167Y-76490700D01*
X75412500Y-76324033D02*
X75379167Y-76307366D01*
X75379167Y-76307366D02*
X75329167Y-76307366D01*
X75329167Y-76307366D02*
X75279167Y-76324033D01*
X75279167Y-76324033D02*
X75245834Y-76357366D01*
X75245834Y-76357366D02*
X75229167Y-76390700D01*
X75229167Y-76390700D02*
X75212500Y-76457366D01*
X75212500Y-76457366D02*
X75212500Y-76507366D01*
X75212500Y-76507366D02*
X75229167Y-76574033D01*
X75229167Y-76574033D02*
X75245834Y-76607366D01*
X75245834Y-76607366D02*
X75279167Y-76640700D01*
X75279167Y-76640700D02*
X75329167Y-76657366D01*
X75329167Y-76657366D02*
X75362500Y-76657366D01*
X75362500Y-76657366D02*
X75412500Y-76640700D01*
X75412500Y-76640700D02*
X75429167Y-76624033D01*
X75429167Y-76624033D02*
X75429167Y-76507366D01*
X75429167Y-76507366D02*
X75362500Y-76507366D01*
D11*
X74492262Y-75591927D02*
X74492262Y-75191927D01*
X74492262Y-75191927D02*
X74587500Y-75191927D01*
X74587500Y-75191927D02*
X74644643Y-75210975D01*
X74644643Y-75210975D02*
X74682738Y-75249070D01*
X74682738Y-75249070D02*
X74701785Y-75287165D01*
X74701785Y-75287165D02*
X74720833Y-75363356D01*
X74720833Y-75363356D02*
X74720833Y-75420499D01*
X74720833Y-75420499D02*
X74701785Y-75496689D01*
X74701785Y-75496689D02*
X74682738Y-75534784D01*
X74682738Y-75534784D02*
X74644643Y-75572880D01*
X74644643Y-75572880D02*
X74587500Y-75591927D01*
X74587500Y-75591927D02*
X74492262Y-75591927D01*
X75063690Y-75325260D02*
X75063690Y-75591927D01*
X74968452Y-75172880D02*
X74873214Y-75458594D01*
X74873214Y-75458594D02*
X75120833Y-75458594D01*
D10*
X57050001Y-85307366D02*
X57266667Y-85307366D01*
X57266667Y-85307366D02*
X57150001Y-85440700D01*
X57150001Y-85440700D02*
X57200001Y-85440700D01*
X57200001Y-85440700D02*
X57233334Y-85457366D01*
X57233334Y-85457366D02*
X57250001Y-85474033D01*
X57250001Y-85474033D02*
X57266667Y-85507366D01*
X57266667Y-85507366D02*
X57266667Y-85590700D01*
X57266667Y-85590700D02*
X57250001Y-85624033D01*
X57250001Y-85624033D02*
X57233334Y-85640700D01*
X57233334Y-85640700D02*
X57200001Y-85657366D01*
X57200001Y-85657366D02*
X57100001Y-85657366D01*
X57100001Y-85657366D02*
X57066667Y-85640700D01*
X57066667Y-85640700D02*
X57050001Y-85624033D01*
X57383334Y-85307366D02*
X57600000Y-85307366D01*
X57600000Y-85307366D02*
X57483334Y-85440700D01*
X57483334Y-85440700D02*
X57533334Y-85440700D01*
X57533334Y-85440700D02*
X57566667Y-85457366D01*
X57566667Y-85457366D02*
X57583334Y-85474033D01*
X57583334Y-85474033D02*
X57600000Y-85507366D01*
X57600000Y-85507366D02*
X57600000Y-85590700D01*
X57600000Y-85590700D02*
X57583334Y-85624033D01*
X57583334Y-85624033D02*
X57566667Y-85640700D01*
X57566667Y-85640700D02*
X57533334Y-85657366D01*
X57533334Y-85657366D02*
X57433334Y-85657366D01*
X57433334Y-85657366D02*
X57400000Y-85640700D01*
X57400000Y-85640700D02*
X57383334Y-85624033D01*
X57816667Y-85307366D02*
X57850000Y-85307366D01*
X57850000Y-85307366D02*
X57883333Y-85324033D01*
X57883333Y-85324033D02*
X57900000Y-85340700D01*
X57900000Y-85340700D02*
X57916667Y-85374033D01*
X57916667Y-85374033D02*
X57933333Y-85440700D01*
X57933333Y-85440700D02*
X57933333Y-85524033D01*
X57933333Y-85524033D02*
X57916667Y-85590700D01*
X57916667Y-85590700D02*
X57900000Y-85624033D01*
X57900000Y-85624033D02*
X57883333Y-85640700D01*
X57883333Y-85640700D02*
X57850000Y-85657366D01*
X57850000Y-85657366D02*
X57816667Y-85657366D01*
X57816667Y-85657366D02*
X57783333Y-85640700D01*
X57783333Y-85640700D02*
X57766667Y-85624033D01*
X57766667Y-85624033D02*
X57750000Y-85590700D01*
X57750000Y-85590700D02*
X57733333Y-85524033D01*
X57733333Y-85524033D02*
X57733333Y-85440700D01*
X57733333Y-85440700D02*
X57750000Y-85374033D01*
X57750000Y-85374033D02*
X57766667Y-85340700D01*
X57766667Y-85340700D02*
X57783333Y-85324033D01*
X57783333Y-85324033D02*
X57816667Y-85307366D01*
D11*
X57681927Y-83932142D02*
X57491451Y-84065475D01*
X57681927Y-84160713D02*
X57281927Y-84160713D01*
X57281927Y-84160713D02*
X57281927Y-84008332D01*
X57281927Y-84008332D02*
X57300975Y-83970237D01*
X57300975Y-83970237D02*
X57320022Y-83951190D01*
X57320022Y-83951190D02*
X57358118Y-83932142D01*
X57358118Y-83932142D02*
X57415260Y-83932142D01*
X57415260Y-83932142D02*
X57453356Y-83951190D01*
X57453356Y-83951190D02*
X57472403Y-83970237D01*
X57472403Y-83970237D02*
X57491451Y-84008332D01*
X57491451Y-84008332D02*
X57491451Y-84160713D01*
X57681927Y-83551190D02*
X57681927Y-83779761D01*
X57681927Y-83665475D02*
X57281927Y-83665475D01*
X57281927Y-83665475D02*
X57339070Y-83703571D01*
X57339070Y-83703571D02*
X57377165Y-83741666D01*
X57377165Y-83741666D02*
X57396213Y-83779761D01*
X57281927Y-83417857D02*
X57281927Y-83170238D01*
X57281927Y-83170238D02*
X57434308Y-83303571D01*
X57434308Y-83303571D02*
X57434308Y-83246428D01*
X57434308Y-83246428D02*
X57453356Y-83208333D01*
X57453356Y-83208333D02*
X57472403Y-83189285D01*
X57472403Y-83189285D02*
X57510499Y-83170238D01*
X57510499Y-83170238D02*
X57605737Y-83170238D01*
X57605737Y-83170238D02*
X57643832Y-83189285D01*
X57643832Y-83189285D02*
X57662880Y-83208333D01*
X57662880Y-83208333D02*
X57681927Y-83246428D01*
X57681927Y-83246428D02*
X57681927Y-83360714D01*
X57681927Y-83360714D02*
X57662880Y-83398809D01*
X57662880Y-83398809D02*
X57643832Y-83417857D01*
D10*
X72974033Y-69841665D02*
X72974033Y-69724999D01*
X73157366Y-69674999D02*
X73157366Y-69841665D01*
X73157366Y-69841665D02*
X72807366Y-69841665D01*
X72807366Y-69841665D02*
X72807366Y-69674999D01*
X73140700Y-69541665D02*
X73157366Y-69491665D01*
X73157366Y-69491665D02*
X73157366Y-69408332D01*
X73157366Y-69408332D02*
X73140700Y-69374998D01*
X73140700Y-69374998D02*
X73124033Y-69358332D01*
X73124033Y-69358332D02*
X73090700Y-69341665D01*
X73090700Y-69341665D02*
X73057366Y-69341665D01*
X73057366Y-69341665D02*
X73024033Y-69358332D01*
X73024033Y-69358332D02*
X73007366Y-69374998D01*
X73007366Y-69374998D02*
X72990700Y-69408332D01*
X72990700Y-69408332D02*
X72974033Y-69474998D01*
X72974033Y-69474998D02*
X72957366Y-69508332D01*
X72957366Y-69508332D02*
X72940700Y-69524998D01*
X72940700Y-69524998D02*
X72907366Y-69541665D01*
X72907366Y-69541665D02*
X72874033Y-69541665D01*
X72874033Y-69541665D02*
X72840700Y-69524998D01*
X72840700Y-69524998D02*
X72824033Y-69508332D01*
X72824033Y-69508332D02*
X72807366Y-69474998D01*
X72807366Y-69474998D02*
X72807366Y-69391665D01*
X72807366Y-69391665D02*
X72824033Y-69341665D01*
X73157366Y-69191665D02*
X72807366Y-69191665D01*
X72807366Y-69191665D02*
X72807366Y-69058332D01*
X72807366Y-69058332D02*
X72824033Y-69024999D01*
X72824033Y-69024999D02*
X72840700Y-69008332D01*
X72840700Y-69008332D02*
X72874033Y-68991665D01*
X72874033Y-68991665D02*
X72924033Y-68991665D01*
X72924033Y-68991665D02*
X72957366Y-69008332D01*
X72957366Y-69008332D02*
X72974033Y-69024999D01*
X72974033Y-69024999D02*
X72990700Y-69058332D01*
X72990700Y-69058332D02*
X72990700Y-69191665D01*
X72807366Y-68874999D02*
X72807366Y-68658332D01*
X72807366Y-68658332D02*
X72940700Y-68774999D01*
X72940700Y-68774999D02*
X72940700Y-68724999D01*
X72940700Y-68724999D02*
X72957366Y-68691665D01*
X72957366Y-68691665D02*
X72974033Y-68674999D01*
X72974033Y-68674999D02*
X73007366Y-68658332D01*
X73007366Y-68658332D02*
X73090700Y-68658332D01*
X73090700Y-68658332D02*
X73124033Y-68674999D01*
X73124033Y-68674999D02*
X73140700Y-68691665D01*
X73140700Y-68691665D02*
X73157366Y-68724999D01*
X73157366Y-68724999D02*
X73157366Y-68824999D01*
X73157366Y-68824999D02*
X73140700Y-68858332D01*
X73140700Y-68858332D02*
X73124033Y-68874999D01*
X72840700Y-68524999D02*
X72824033Y-68508332D01*
X72824033Y-68508332D02*
X72807366Y-68474999D01*
X72807366Y-68474999D02*
X72807366Y-68391666D01*
X72807366Y-68391666D02*
X72824033Y-68358332D01*
X72824033Y-68358332D02*
X72840700Y-68341666D01*
X72840700Y-68341666D02*
X72874033Y-68324999D01*
X72874033Y-68324999D02*
X72907366Y-68324999D01*
X72907366Y-68324999D02*
X72957366Y-68341666D01*
X72957366Y-68341666D02*
X73157366Y-68541666D01*
X73157366Y-68541666D02*
X73157366Y-68324999D01*
X73024033Y-68174999D02*
X73024033Y-67908333D01*
X73140700Y-67758333D02*
X73157366Y-67708333D01*
X73157366Y-67708333D02*
X73157366Y-67625000D01*
X73157366Y-67625000D02*
X73140700Y-67591666D01*
X73140700Y-67591666D02*
X73124033Y-67575000D01*
X73124033Y-67575000D02*
X73090700Y-67558333D01*
X73090700Y-67558333D02*
X73057366Y-67558333D01*
X73057366Y-67558333D02*
X73024033Y-67575000D01*
X73024033Y-67575000D02*
X73007366Y-67591666D01*
X73007366Y-67591666D02*
X72990700Y-67625000D01*
X72990700Y-67625000D02*
X72974033Y-67691666D01*
X72974033Y-67691666D02*
X72957366Y-67725000D01*
X72957366Y-67725000D02*
X72940700Y-67741666D01*
X72940700Y-67741666D02*
X72907366Y-67758333D01*
X72907366Y-67758333D02*
X72874033Y-67758333D01*
X72874033Y-67758333D02*
X72840700Y-67741666D01*
X72840700Y-67741666D02*
X72824033Y-67725000D01*
X72824033Y-67725000D02*
X72807366Y-67691666D01*
X72807366Y-67691666D02*
X72807366Y-67608333D01*
X72807366Y-67608333D02*
X72824033Y-67558333D01*
X72807366Y-67441667D02*
X72807366Y-67225000D01*
X72807366Y-67225000D02*
X72940700Y-67341667D01*
X72940700Y-67341667D02*
X72940700Y-67291667D01*
X72940700Y-67291667D02*
X72957366Y-67258333D01*
X72957366Y-67258333D02*
X72974033Y-67241667D01*
X72974033Y-67241667D02*
X73007366Y-67225000D01*
X73007366Y-67225000D02*
X73090700Y-67225000D01*
X73090700Y-67225000D02*
X73124033Y-67241667D01*
X73124033Y-67241667D02*
X73140700Y-67258333D01*
X73140700Y-67258333D02*
X73157366Y-67291667D01*
X73157366Y-67291667D02*
X73157366Y-67391667D01*
X73157366Y-67391667D02*
X73140700Y-67425000D01*
X73140700Y-67425000D02*
X73124033Y-67441667D01*
X73024033Y-67075000D02*
X73024033Y-66808334D01*
X72807366Y-66675001D02*
X73157366Y-66591667D01*
X73157366Y-66591667D02*
X72907366Y-66525001D01*
X72907366Y-66525001D02*
X73157366Y-66458334D01*
X73157366Y-66458334D02*
X72807366Y-66375001D01*
X73157366Y-66041667D02*
X72990700Y-66158334D01*
X73157366Y-66241667D02*
X72807366Y-66241667D01*
X72807366Y-66241667D02*
X72807366Y-66108334D01*
X72807366Y-66108334D02*
X72824033Y-66075001D01*
X72824033Y-66075001D02*
X72840700Y-66058334D01*
X72840700Y-66058334D02*
X72874033Y-66041667D01*
X72874033Y-66041667D02*
X72924033Y-66041667D01*
X72924033Y-66041667D02*
X72957366Y-66058334D01*
X72957366Y-66058334D02*
X72974033Y-66075001D01*
X72974033Y-66075001D02*
X72990700Y-66108334D01*
X72990700Y-66108334D02*
X72990700Y-66241667D01*
X72807366Y-65825001D02*
X72807366Y-65758334D01*
X72807366Y-65758334D02*
X72824033Y-65725001D01*
X72824033Y-65725001D02*
X72857366Y-65691667D01*
X72857366Y-65691667D02*
X72924033Y-65675001D01*
X72924033Y-65675001D02*
X73040700Y-65675001D01*
X73040700Y-65675001D02*
X73107366Y-65691667D01*
X73107366Y-65691667D02*
X73140700Y-65725001D01*
X73140700Y-65725001D02*
X73157366Y-65758334D01*
X73157366Y-65758334D02*
X73157366Y-65825001D01*
X73157366Y-65825001D02*
X73140700Y-65858334D01*
X73140700Y-65858334D02*
X73107366Y-65891667D01*
X73107366Y-65891667D02*
X73040700Y-65908334D01*
X73040700Y-65908334D02*
X72924033Y-65908334D01*
X72924033Y-65908334D02*
X72857366Y-65891667D01*
X72857366Y-65891667D02*
X72824033Y-65858334D01*
X72824033Y-65858334D02*
X72807366Y-65825001D01*
X72807366Y-65458334D02*
X72807366Y-65391667D01*
X72807366Y-65391667D02*
X72824033Y-65358334D01*
X72824033Y-65358334D02*
X72857366Y-65325000D01*
X72857366Y-65325000D02*
X72924033Y-65308334D01*
X72924033Y-65308334D02*
X73040700Y-65308334D01*
X73040700Y-65308334D02*
X73107366Y-65325000D01*
X73107366Y-65325000D02*
X73140700Y-65358334D01*
X73140700Y-65358334D02*
X73157366Y-65391667D01*
X73157366Y-65391667D02*
X73157366Y-65458334D01*
X73157366Y-65458334D02*
X73140700Y-65491667D01*
X73140700Y-65491667D02*
X73107366Y-65525000D01*
X73107366Y-65525000D02*
X73040700Y-65541667D01*
X73040700Y-65541667D02*
X72924033Y-65541667D01*
X72924033Y-65541667D02*
X72857366Y-65525000D01*
X72857366Y-65525000D02*
X72824033Y-65491667D01*
X72824033Y-65491667D02*
X72807366Y-65458334D01*
X73157366Y-65158333D02*
X72807366Y-65158333D01*
X72807366Y-65158333D02*
X73057366Y-65041667D01*
X73057366Y-65041667D02*
X72807366Y-64925000D01*
X72807366Y-64925000D02*
X73157366Y-64925000D01*
X73024033Y-64758333D02*
X73024033Y-64491667D01*
X73157366Y-64141667D02*
X73157366Y-64341667D01*
X73157366Y-64241667D02*
X72807366Y-64241667D01*
X72807366Y-64241667D02*
X72857366Y-64275000D01*
X72857366Y-64275000D02*
X72890700Y-64308334D01*
X72890700Y-64308334D02*
X72907366Y-64341667D01*
X62333333Y-66957366D02*
X62333333Y-67240700D01*
X62333333Y-67240700D02*
X62350000Y-67274033D01*
X62350000Y-67274033D02*
X62366666Y-67290700D01*
X62366666Y-67290700D02*
X62400000Y-67307366D01*
X62400000Y-67307366D02*
X62466666Y-67307366D01*
X62466666Y-67307366D02*
X62500000Y-67290700D01*
X62500000Y-67290700D02*
X62516666Y-67274033D01*
X62516666Y-67274033D02*
X62533333Y-67240700D01*
X62533333Y-67240700D02*
X62533333Y-66957366D01*
X62883333Y-67307366D02*
X62683333Y-67307366D01*
X62783333Y-67307366D02*
X62783333Y-66957366D01*
X62783333Y-66957366D02*
X62750000Y-67007366D01*
X62750000Y-67007366D02*
X62716667Y-67040700D01*
X62716667Y-67040700D02*
X62683333Y-67057366D01*
X86157366Y-69749999D02*
X86157366Y-69949999D01*
X86157366Y-69849999D02*
X85807366Y-69849999D01*
X85807366Y-69849999D02*
X85857366Y-69883332D01*
X85857366Y-69883332D02*
X85890700Y-69916666D01*
X85890700Y-69916666D02*
X85907366Y-69949999D01*
X86157366Y-69599999D02*
X85807366Y-69599999D01*
X85807366Y-69599999D02*
X86157366Y-69399999D01*
X86157366Y-69399999D02*
X85807366Y-69399999D01*
X85807366Y-69066666D02*
X85807366Y-69233332D01*
X85807366Y-69233332D02*
X85974033Y-69249999D01*
X85974033Y-69249999D02*
X85957366Y-69233332D01*
X85957366Y-69233332D02*
X85940700Y-69199999D01*
X85940700Y-69199999D02*
X85940700Y-69116666D01*
X85940700Y-69116666D02*
X85957366Y-69083332D01*
X85957366Y-69083332D02*
X85974033Y-69066666D01*
X85974033Y-69066666D02*
X86007366Y-69049999D01*
X86007366Y-69049999D02*
X86090700Y-69049999D01*
X86090700Y-69049999D02*
X86124033Y-69066666D01*
X86124033Y-69066666D02*
X86140700Y-69083332D01*
X86140700Y-69083332D02*
X86157366Y-69116666D01*
X86157366Y-69116666D02*
X86157366Y-69199999D01*
X86157366Y-69199999D02*
X86140700Y-69233332D01*
X86140700Y-69233332D02*
X86124033Y-69249999D01*
X85957366Y-68849999D02*
X85940700Y-68883333D01*
X85940700Y-68883333D02*
X85924033Y-68899999D01*
X85924033Y-68899999D02*
X85890700Y-68916666D01*
X85890700Y-68916666D02*
X85874033Y-68916666D01*
X85874033Y-68916666D02*
X85840700Y-68899999D01*
X85840700Y-68899999D02*
X85824033Y-68883333D01*
X85824033Y-68883333D02*
X85807366Y-68849999D01*
X85807366Y-68849999D02*
X85807366Y-68783333D01*
X85807366Y-68783333D02*
X85824033Y-68749999D01*
X85824033Y-68749999D02*
X85840700Y-68733333D01*
X85840700Y-68733333D02*
X85874033Y-68716666D01*
X85874033Y-68716666D02*
X85890700Y-68716666D01*
X85890700Y-68716666D02*
X85924033Y-68733333D01*
X85924033Y-68733333D02*
X85940700Y-68749999D01*
X85940700Y-68749999D02*
X85957366Y-68783333D01*
X85957366Y-68783333D02*
X85957366Y-68849999D01*
X85957366Y-68849999D02*
X85974033Y-68883333D01*
X85974033Y-68883333D02*
X85990700Y-68899999D01*
X85990700Y-68899999D02*
X86024033Y-68916666D01*
X86024033Y-68916666D02*
X86090700Y-68916666D01*
X86090700Y-68916666D02*
X86124033Y-68899999D01*
X86124033Y-68899999D02*
X86140700Y-68883333D01*
X86140700Y-68883333D02*
X86157366Y-68849999D01*
X86157366Y-68849999D02*
X86157366Y-68783333D01*
X86157366Y-68783333D02*
X86140700Y-68749999D01*
X86140700Y-68749999D02*
X86124033Y-68733333D01*
X86124033Y-68733333D02*
X86090700Y-68716666D01*
X86090700Y-68716666D02*
X86024033Y-68716666D01*
X86024033Y-68716666D02*
X85990700Y-68733333D01*
X85990700Y-68733333D02*
X85974033Y-68749999D01*
X85974033Y-68749999D02*
X85957366Y-68783333D01*
X86157366Y-68383333D02*
X86157366Y-68583333D01*
X86157366Y-68483333D02*
X85807366Y-68483333D01*
X85807366Y-68483333D02*
X85857366Y-68516666D01*
X85857366Y-68516666D02*
X85890700Y-68550000D01*
X85890700Y-68550000D02*
X85907366Y-68583333D01*
X86157366Y-68216667D02*
X86157366Y-68150000D01*
X86157366Y-68150000D02*
X86140700Y-68116667D01*
X86140700Y-68116667D02*
X86124033Y-68100000D01*
X86124033Y-68100000D02*
X86074033Y-68066667D01*
X86074033Y-68066667D02*
X86007366Y-68050000D01*
X86007366Y-68050000D02*
X85874033Y-68050000D01*
X85874033Y-68050000D02*
X85840700Y-68066667D01*
X85840700Y-68066667D02*
X85824033Y-68083333D01*
X85824033Y-68083333D02*
X85807366Y-68116667D01*
X85807366Y-68116667D02*
X85807366Y-68183333D01*
X85807366Y-68183333D02*
X85824033Y-68216667D01*
X85824033Y-68216667D02*
X85840700Y-68233333D01*
X85840700Y-68233333D02*
X85874033Y-68250000D01*
X85874033Y-68250000D02*
X85957366Y-68250000D01*
X85957366Y-68250000D02*
X85990700Y-68233333D01*
X85990700Y-68233333D02*
X86007366Y-68216667D01*
X86007366Y-68216667D02*
X86024033Y-68183333D01*
X86024033Y-68183333D02*
X86024033Y-68116667D01*
X86024033Y-68116667D02*
X86007366Y-68083333D01*
X86007366Y-68083333D02*
X85990700Y-68066667D01*
X85990700Y-68066667D02*
X85957366Y-68050000D01*
X88657366Y-65258332D02*
X88307366Y-65258332D01*
X88307366Y-65258332D02*
X88307366Y-65174999D01*
X88307366Y-65174999D02*
X88324033Y-65124999D01*
X88324033Y-65124999D02*
X88357366Y-65091666D01*
X88357366Y-65091666D02*
X88390700Y-65074999D01*
X88390700Y-65074999D02*
X88457366Y-65058332D01*
X88457366Y-65058332D02*
X88507366Y-65058332D01*
X88507366Y-65058332D02*
X88574033Y-65074999D01*
X88574033Y-65074999D02*
X88607366Y-65091666D01*
X88607366Y-65091666D02*
X88640700Y-65124999D01*
X88640700Y-65124999D02*
X88657366Y-65174999D01*
X88657366Y-65174999D02*
X88657366Y-65258332D01*
X88307366Y-64941666D02*
X88307366Y-64724999D01*
X88307366Y-64724999D02*
X88440700Y-64841666D01*
X88440700Y-64841666D02*
X88440700Y-64791666D01*
X88440700Y-64791666D02*
X88457366Y-64758332D01*
X88457366Y-64758332D02*
X88474033Y-64741666D01*
X88474033Y-64741666D02*
X88507366Y-64724999D01*
X88507366Y-64724999D02*
X88590700Y-64724999D01*
X88590700Y-64724999D02*
X88624033Y-64741666D01*
X88624033Y-64741666D02*
X88640700Y-64758332D01*
X88640700Y-64758332D02*
X88657366Y-64791666D01*
X88657366Y-64791666D02*
X88657366Y-64891666D01*
X88657366Y-64891666D02*
X88640700Y-64924999D01*
X88640700Y-64924999D02*
X88624033Y-64941666D01*
X74054166Y-79140700D02*
X74104166Y-79157366D01*
X74104166Y-79157366D02*
X74187500Y-79157366D01*
X74187500Y-79157366D02*
X74220833Y-79140700D01*
X74220833Y-79140700D02*
X74237500Y-79124033D01*
X74237500Y-79124033D02*
X74254166Y-79090700D01*
X74254166Y-79090700D02*
X74254166Y-79057366D01*
X74254166Y-79057366D02*
X74237500Y-79024033D01*
X74237500Y-79024033D02*
X74220833Y-79007366D01*
X74220833Y-79007366D02*
X74187500Y-78990700D01*
X74187500Y-78990700D02*
X74120833Y-78974033D01*
X74120833Y-78974033D02*
X74087500Y-78957366D01*
X74087500Y-78957366D02*
X74070833Y-78940700D01*
X74070833Y-78940700D02*
X74054166Y-78907366D01*
X74054166Y-78907366D02*
X74054166Y-78874033D01*
X74054166Y-78874033D02*
X74070833Y-78840700D01*
X74070833Y-78840700D02*
X74087500Y-78824033D01*
X74087500Y-78824033D02*
X74120833Y-78807366D01*
X74120833Y-78807366D02*
X74204166Y-78807366D01*
X74204166Y-78807366D02*
X74254166Y-78824033D01*
X74354166Y-78807366D02*
X74554166Y-78807366D01*
X74454166Y-79157366D02*
X74454166Y-78807366D01*
X74670833Y-79157366D02*
X74670833Y-78807366D01*
X74670833Y-78807366D02*
X74754166Y-78807366D01*
X74754166Y-78807366D02*
X74804166Y-78824033D01*
X74804166Y-78824033D02*
X74837500Y-78857366D01*
X74837500Y-78857366D02*
X74854166Y-78890700D01*
X74854166Y-78890700D02*
X74870833Y-78957366D01*
X74870833Y-78957366D02*
X74870833Y-79007366D01*
X74870833Y-79007366D02*
X74854166Y-79074033D01*
X74854166Y-79074033D02*
X74837500Y-79107366D01*
X74837500Y-79107366D02*
X74804166Y-79140700D01*
X74804166Y-79140700D02*
X74754166Y-79157366D01*
X74754166Y-79157366D02*
X74670833Y-79157366D01*
X75137500Y-78974033D02*
X75187500Y-78990700D01*
X75187500Y-78990700D02*
X75204166Y-79007366D01*
X75204166Y-79007366D02*
X75220833Y-79040700D01*
X75220833Y-79040700D02*
X75220833Y-79090700D01*
X75220833Y-79090700D02*
X75204166Y-79124033D01*
X75204166Y-79124033D02*
X75187500Y-79140700D01*
X75187500Y-79140700D02*
X75154166Y-79157366D01*
X75154166Y-79157366D02*
X75020833Y-79157366D01*
X75020833Y-79157366D02*
X75020833Y-78807366D01*
X75020833Y-78807366D02*
X75137500Y-78807366D01*
X75137500Y-78807366D02*
X75170833Y-78824033D01*
X75170833Y-78824033D02*
X75187500Y-78840700D01*
X75187500Y-78840700D02*
X75204166Y-78874033D01*
X75204166Y-78874033D02*
X75204166Y-78907366D01*
X75204166Y-78907366D02*
X75187500Y-78940700D01*
X75187500Y-78940700D02*
X75170833Y-78957366D01*
X75170833Y-78957366D02*
X75137500Y-78974033D01*
X75137500Y-78974033D02*
X75020833Y-78974033D01*
X75437500Y-78990700D02*
X75437500Y-79157366D01*
X75320833Y-78807366D02*
X75437500Y-78990700D01*
X75437500Y-78990700D02*
X75554166Y-78807366D01*
D11*
X74492262Y-78181927D02*
X74492262Y-77781927D01*
X74492262Y-77781927D02*
X74587500Y-77781927D01*
X74587500Y-77781927D02*
X74644643Y-77800975D01*
X74644643Y-77800975D02*
X74682738Y-77839070D01*
X74682738Y-77839070D02*
X74701785Y-77877165D01*
X74701785Y-77877165D02*
X74720833Y-77953356D01*
X74720833Y-77953356D02*
X74720833Y-78010499D01*
X74720833Y-78010499D02*
X74701785Y-78086689D01*
X74701785Y-78086689D02*
X74682738Y-78124784D01*
X74682738Y-78124784D02*
X74644643Y-78162880D01*
X74644643Y-78162880D02*
X74587500Y-78181927D01*
X74587500Y-78181927D02*
X74492262Y-78181927D01*
X75082738Y-77781927D02*
X74892262Y-77781927D01*
X74892262Y-77781927D02*
X74873214Y-77972403D01*
X74873214Y-77972403D02*
X74892262Y-77953356D01*
X74892262Y-77953356D02*
X74930357Y-77934308D01*
X74930357Y-77934308D02*
X75025595Y-77934308D01*
X75025595Y-77934308D02*
X75063690Y-77953356D01*
X75063690Y-77953356D02*
X75082738Y-77972403D01*
X75082738Y-77972403D02*
X75101785Y-78010499D01*
X75101785Y-78010499D02*
X75101785Y-78105737D01*
X75101785Y-78105737D02*
X75082738Y-78143832D01*
X75082738Y-78143832D02*
X75063690Y-78162880D01*
X75063690Y-78162880D02*
X75025595Y-78181927D01*
X75025595Y-78181927D02*
X74930357Y-78181927D01*
X74930357Y-78181927D02*
X74892262Y-78162880D01*
X74892262Y-78162880D02*
X74873214Y-78143832D01*
D10*
X71125000Y-85657366D02*
X70925000Y-85657366D01*
X71025000Y-85657366D02*
X71025000Y-85307366D01*
X71025000Y-85307366D02*
X70991667Y-85357366D01*
X70991667Y-85357366D02*
X70958334Y-85390700D01*
X70958334Y-85390700D02*
X70925000Y-85407366D01*
X71341667Y-85307366D02*
X71375000Y-85307366D01*
X71375000Y-85307366D02*
X71408333Y-85324033D01*
X71408333Y-85324033D02*
X71425000Y-85340700D01*
X71425000Y-85340700D02*
X71441667Y-85374033D01*
X71441667Y-85374033D02*
X71458333Y-85440700D01*
X71458333Y-85440700D02*
X71458333Y-85524033D01*
X71458333Y-85524033D02*
X71441667Y-85590700D01*
X71441667Y-85590700D02*
X71425000Y-85624033D01*
X71425000Y-85624033D02*
X71408333Y-85640700D01*
X71408333Y-85640700D02*
X71375000Y-85657366D01*
X71375000Y-85657366D02*
X71341667Y-85657366D01*
X71341667Y-85657366D02*
X71308333Y-85640700D01*
X71308333Y-85640700D02*
X71291667Y-85624033D01*
X71291667Y-85624033D02*
X71275000Y-85590700D01*
X71275000Y-85590700D02*
X71258333Y-85524033D01*
X71258333Y-85524033D02*
X71258333Y-85440700D01*
X71258333Y-85440700D02*
X71275000Y-85374033D01*
X71275000Y-85374033D02*
X71291667Y-85340700D01*
X71291667Y-85340700D02*
X71308333Y-85324033D01*
X71308333Y-85324033D02*
X71341667Y-85307366D01*
X71675000Y-85307366D02*
X71708333Y-85307366D01*
X71708333Y-85307366D02*
X71741666Y-85324033D01*
X71741666Y-85324033D02*
X71758333Y-85340700D01*
X71758333Y-85340700D02*
X71775000Y-85374033D01*
X71775000Y-85374033D02*
X71791666Y-85440700D01*
X71791666Y-85440700D02*
X71791666Y-85524033D01*
X71791666Y-85524033D02*
X71775000Y-85590700D01*
X71775000Y-85590700D02*
X71758333Y-85624033D01*
X71758333Y-85624033D02*
X71741666Y-85640700D01*
X71741666Y-85640700D02*
X71708333Y-85657366D01*
X71708333Y-85657366D02*
X71675000Y-85657366D01*
X71675000Y-85657366D02*
X71641666Y-85640700D01*
X71641666Y-85640700D02*
X71625000Y-85624033D01*
X71625000Y-85624033D02*
X71608333Y-85590700D01*
X71608333Y-85590700D02*
X71591666Y-85524033D01*
X71591666Y-85524033D02*
X71591666Y-85440700D01*
X71591666Y-85440700D02*
X71608333Y-85374033D01*
X71608333Y-85374033D02*
X71625000Y-85340700D01*
X71625000Y-85340700D02*
X71641666Y-85324033D01*
X71641666Y-85324033D02*
X71675000Y-85307366D01*
X71941666Y-85657366D02*
X71941666Y-85307366D01*
X71974999Y-85524033D02*
X72074999Y-85657366D01*
X72074999Y-85424033D02*
X71941666Y-85557366D01*
D11*
X71681927Y-83741666D02*
X71491451Y-83874999D01*
X71681927Y-83970237D02*
X71281927Y-83970237D01*
X71281927Y-83970237D02*
X71281927Y-83817856D01*
X71281927Y-83817856D02*
X71300975Y-83779761D01*
X71300975Y-83779761D02*
X71320022Y-83760714D01*
X71320022Y-83760714D02*
X71358118Y-83741666D01*
X71358118Y-83741666D02*
X71415260Y-83741666D01*
X71415260Y-83741666D02*
X71453356Y-83760714D01*
X71453356Y-83760714D02*
X71472403Y-83779761D01*
X71472403Y-83779761D02*
X71491451Y-83817856D01*
X71491451Y-83817856D02*
X71491451Y-83970237D01*
X71681927Y-83551190D02*
X71681927Y-83474999D01*
X71681927Y-83474999D02*
X71662880Y-83436904D01*
X71662880Y-83436904D02*
X71643832Y-83417856D01*
X71643832Y-83417856D02*
X71586689Y-83379761D01*
X71586689Y-83379761D02*
X71510499Y-83360714D01*
X71510499Y-83360714D02*
X71358118Y-83360714D01*
X71358118Y-83360714D02*
X71320022Y-83379761D01*
X71320022Y-83379761D02*
X71300975Y-83398809D01*
X71300975Y-83398809D02*
X71281927Y-83436904D01*
X71281927Y-83436904D02*
X71281927Y-83513095D01*
X71281927Y-83513095D02*
X71300975Y-83551190D01*
X71300975Y-83551190D02*
X71320022Y-83570237D01*
X71320022Y-83570237D02*
X71358118Y-83589285D01*
X71358118Y-83589285D02*
X71453356Y-83589285D01*
X71453356Y-83589285D02*
X71491451Y-83570237D01*
X71491451Y-83570237D02*
X71510499Y-83551190D01*
X71510499Y-83551190D02*
X71529546Y-83513095D01*
X71529546Y-83513095D02*
X71529546Y-83436904D01*
X71529546Y-83436904D02*
X71510499Y-83398809D01*
X71510499Y-83398809D02*
X71491451Y-83379761D01*
X71491451Y-83379761D02*
X71453356Y-83360714D01*
D10*
X82243333Y-75157366D02*
X82043333Y-75157366D01*
X82143333Y-75157366D02*
X82143333Y-74807366D01*
X82143333Y-74807366D02*
X82110000Y-74857366D01*
X82110000Y-74857366D02*
X82076667Y-74890700D01*
X82076667Y-74890700D02*
X82043333Y-74907366D01*
X82460000Y-74807366D02*
X82493333Y-74807366D01*
X82493333Y-74807366D02*
X82526666Y-74824033D01*
X82526666Y-74824033D02*
X82543333Y-74840700D01*
X82543333Y-74840700D02*
X82560000Y-74874033D01*
X82560000Y-74874033D02*
X82576666Y-74940700D01*
X82576666Y-74940700D02*
X82576666Y-75024033D01*
X82576666Y-75024033D02*
X82560000Y-75090700D01*
X82560000Y-75090700D02*
X82543333Y-75124033D01*
X82543333Y-75124033D02*
X82526666Y-75140700D01*
X82526666Y-75140700D02*
X82493333Y-75157366D01*
X82493333Y-75157366D02*
X82460000Y-75157366D01*
X82460000Y-75157366D02*
X82426666Y-75140700D01*
X82426666Y-75140700D02*
X82410000Y-75124033D01*
X82410000Y-75124033D02*
X82393333Y-75090700D01*
X82393333Y-75090700D02*
X82376666Y-75024033D01*
X82376666Y-75024033D02*
X82376666Y-74940700D01*
X82376666Y-74940700D02*
X82393333Y-74874033D01*
X82393333Y-74874033D02*
X82410000Y-74840700D01*
X82410000Y-74840700D02*
X82426666Y-74824033D01*
X82426666Y-74824033D02*
X82460000Y-74807366D01*
X82793333Y-74807366D02*
X82826666Y-74807366D01*
X82826666Y-74807366D02*
X82859999Y-74824033D01*
X82859999Y-74824033D02*
X82876666Y-74840700D01*
X82876666Y-74840700D02*
X82893333Y-74874033D01*
X82893333Y-74874033D02*
X82909999Y-74940700D01*
X82909999Y-74940700D02*
X82909999Y-75024033D01*
X82909999Y-75024033D02*
X82893333Y-75090700D01*
X82893333Y-75090700D02*
X82876666Y-75124033D01*
X82876666Y-75124033D02*
X82859999Y-75140700D01*
X82859999Y-75140700D02*
X82826666Y-75157366D01*
X82826666Y-75157366D02*
X82793333Y-75157366D01*
X82793333Y-75157366D02*
X82759999Y-75140700D01*
X82759999Y-75140700D02*
X82743333Y-75124033D01*
X82743333Y-75124033D02*
X82726666Y-75090700D01*
X82726666Y-75090700D02*
X82709999Y-75024033D01*
X82709999Y-75024033D02*
X82709999Y-74940700D01*
X82709999Y-74940700D02*
X82726666Y-74874033D01*
X82726666Y-74874033D02*
X82743333Y-74840700D01*
X82743333Y-74840700D02*
X82759999Y-74824033D01*
X82759999Y-74824033D02*
X82793333Y-74807366D01*
X83059999Y-74924033D02*
X83059999Y-75157366D01*
X83059999Y-74957366D02*
X83076666Y-74940700D01*
X83076666Y-74940700D02*
X83109999Y-74924033D01*
X83109999Y-74924033D02*
X83159999Y-74924033D01*
X83159999Y-74924033D02*
X83193332Y-74940700D01*
X83193332Y-74940700D02*
X83209999Y-74974033D01*
X83209999Y-74974033D02*
X83209999Y-75157366D01*
X83493333Y-74974033D02*
X83376666Y-74974033D01*
X83376666Y-75157366D02*
X83376666Y-74807366D01*
X83376666Y-74807366D02*
X83543333Y-74807366D01*
D11*
X82527857Y-74153832D02*
X82508809Y-74172880D01*
X82508809Y-74172880D02*
X82451667Y-74191927D01*
X82451667Y-74191927D02*
X82413571Y-74191927D01*
X82413571Y-74191927D02*
X82356428Y-74172880D01*
X82356428Y-74172880D02*
X82318333Y-74134784D01*
X82318333Y-74134784D02*
X82299286Y-74096689D01*
X82299286Y-74096689D02*
X82280238Y-74020499D01*
X82280238Y-74020499D02*
X82280238Y-73963356D01*
X82280238Y-73963356D02*
X82299286Y-73887165D01*
X82299286Y-73887165D02*
X82318333Y-73849070D01*
X82318333Y-73849070D02*
X82356428Y-73810975D01*
X82356428Y-73810975D02*
X82413571Y-73791927D01*
X82413571Y-73791927D02*
X82451667Y-73791927D01*
X82451667Y-73791927D02*
X82508809Y-73810975D01*
X82508809Y-73810975D02*
X82527857Y-73830022D01*
X82908809Y-74191927D02*
X82680238Y-74191927D01*
X82794524Y-74191927D02*
X82794524Y-73791927D01*
X82794524Y-73791927D02*
X82756428Y-73849070D01*
X82756428Y-73849070D02*
X82718333Y-73887165D01*
X82718333Y-73887165D02*
X82680238Y-73906213D01*
X83289761Y-74191927D02*
X83061190Y-74191927D01*
X83175476Y-74191927D02*
X83175476Y-73791927D01*
X83175476Y-73791927D02*
X83137380Y-73849070D01*
X83137380Y-73849070D02*
X83099285Y-73887165D01*
X83099285Y-73887165D02*
X83061190Y-73906213D01*
D10*
X73125000Y-85657366D02*
X72925000Y-85657366D01*
X73025000Y-85657366D02*
X73025000Y-85307366D01*
X73025000Y-85307366D02*
X72991667Y-85357366D01*
X72991667Y-85357366D02*
X72958334Y-85390700D01*
X72958334Y-85390700D02*
X72925000Y-85407366D01*
X73341667Y-85307366D02*
X73375000Y-85307366D01*
X73375000Y-85307366D02*
X73408333Y-85324033D01*
X73408333Y-85324033D02*
X73425000Y-85340700D01*
X73425000Y-85340700D02*
X73441667Y-85374033D01*
X73441667Y-85374033D02*
X73458333Y-85440700D01*
X73458333Y-85440700D02*
X73458333Y-85524033D01*
X73458333Y-85524033D02*
X73441667Y-85590700D01*
X73441667Y-85590700D02*
X73425000Y-85624033D01*
X73425000Y-85624033D02*
X73408333Y-85640700D01*
X73408333Y-85640700D02*
X73375000Y-85657366D01*
X73375000Y-85657366D02*
X73341667Y-85657366D01*
X73341667Y-85657366D02*
X73308333Y-85640700D01*
X73308333Y-85640700D02*
X73291667Y-85624033D01*
X73291667Y-85624033D02*
X73275000Y-85590700D01*
X73275000Y-85590700D02*
X73258333Y-85524033D01*
X73258333Y-85524033D02*
X73258333Y-85440700D01*
X73258333Y-85440700D02*
X73275000Y-85374033D01*
X73275000Y-85374033D02*
X73291667Y-85340700D01*
X73291667Y-85340700D02*
X73308333Y-85324033D01*
X73308333Y-85324033D02*
X73341667Y-85307366D01*
X73675000Y-85307366D02*
X73708333Y-85307366D01*
X73708333Y-85307366D02*
X73741666Y-85324033D01*
X73741666Y-85324033D02*
X73758333Y-85340700D01*
X73758333Y-85340700D02*
X73775000Y-85374033D01*
X73775000Y-85374033D02*
X73791666Y-85440700D01*
X73791666Y-85440700D02*
X73791666Y-85524033D01*
X73791666Y-85524033D02*
X73775000Y-85590700D01*
X73775000Y-85590700D02*
X73758333Y-85624033D01*
X73758333Y-85624033D02*
X73741666Y-85640700D01*
X73741666Y-85640700D02*
X73708333Y-85657366D01*
X73708333Y-85657366D02*
X73675000Y-85657366D01*
X73675000Y-85657366D02*
X73641666Y-85640700D01*
X73641666Y-85640700D02*
X73625000Y-85624033D01*
X73625000Y-85624033D02*
X73608333Y-85590700D01*
X73608333Y-85590700D02*
X73591666Y-85524033D01*
X73591666Y-85524033D02*
X73591666Y-85440700D01*
X73591666Y-85440700D02*
X73608333Y-85374033D01*
X73608333Y-85374033D02*
X73625000Y-85340700D01*
X73625000Y-85340700D02*
X73641666Y-85324033D01*
X73641666Y-85324033D02*
X73675000Y-85307366D01*
X73941666Y-85657366D02*
X73941666Y-85307366D01*
X73974999Y-85524033D02*
X74074999Y-85657366D01*
X74074999Y-85424033D02*
X73941666Y-85557366D01*
D11*
X73681927Y-84257142D02*
X73491451Y-84390475D01*
X73681927Y-84485713D02*
X73281927Y-84485713D01*
X73281927Y-84485713D02*
X73281927Y-84333332D01*
X73281927Y-84333332D02*
X73300975Y-84295237D01*
X73300975Y-84295237D02*
X73320022Y-84276190D01*
X73320022Y-84276190D02*
X73358118Y-84257142D01*
X73358118Y-84257142D02*
X73415260Y-84257142D01*
X73415260Y-84257142D02*
X73453356Y-84276190D01*
X73453356Y-84276190D02*
X73472403Y-84295237D01*
X73472403Y-84295237D02*
X73491451Y-84333332D01*
X73491451Y-84333332D02*
X73491451Y-84485713D01*
X73681927Y-83876190D02*
X73681927Y-84104761D01*
X73681927Y-83990475D02*
X73281927Y-83990475D01*
X73281927Y-83990475D02*
X73339070Y-84028571D01*
X73339070Y-84028571D02*
X73377165Y-84066666D01*
X73377165Y-84066666D02*
X73396213Y-84104761D01*
X73281927Y-83628571D02*
X73281927Y-83590476D01*
X73281927Y-83590476D02*
X73300975Y-83552380D01*
X73300975Y-83552380D02*
X73320022Y-83533333D01*
X73320022Y-83533333D02*
X73358118Y-83514285D01*
X73358118Y-83514285D02*
X73434308Y-83495238D01*
X73434308Y-83495238D02*
X73529546Y-83495238D01*
X73529546Y-83495238D02*
X73605737Y-83514285D01*
X73605737Y-83514285D02*
X73643832Y-83533333D01*
X73643832Y-83533333D02*
X73662880Y-83552380D01*
X73662880Y-83552380D02*
X73681927Y-83590476D01*
X73681927Y-83590476D02*
X73681927Y-83628571D01*
X73681927Y-83628571D02*
X73662880Y-83666666D01*
X73662880Y-83666666D02*
X73643832Y-83685714D01*
X73643832Y-83685714D02*
X73605737Y-83704761D01*
X73605737Y-83704761D02*
X73529546Y-83723809D01*
X73529546Y-83723809D02*
X73434308Y-83723809D01*
X73434308Y-83723809D02*
X73358118Y-83704761D01*
X73358118Y-83704761D02*
X73320022Y-83685714D01*
X73320022Y-83685714D02*
X73300975Y-83666666D01*
X73300975Y-83666666D02*
X73281927Y-83628571D01*
D10*
X91807366Y-76599999D02*
X92090700Y-76599999D01*
X92090700Y-76599999D02*
X92124033Y-76583333D01*
X92124033Y-76583333D02*
X92140700Y-76566666D01*
X92140700Y-76566666D02*
X92157366Y-76533333D01*
X92157366Y-76533333D02*
X92157366Y-76466666D01*
X92157366Y-76466666D02*
X92140700Y-76433333D01*
X92140700Y-76433333D02*
X92124033Y-76416666D01*
X92124033Y-76416666D02*
X92090700Y-76399999D01*
X92090700Y-76399999D02*
X91807366Y-76399999D01*
X92140700Y-76249999D02*
X92157366Y-76199999D01*
X92157366Y-76199999D02*
X92157366Y-76116666D01*
X92157366Y-76116666D02*
X92140700Y-76083332D01*
X92140700Y-76083332D02*
X92124033Y-76066666D01*
X92124033Y-76066666D02*
X92090700Y-76049999D01*
X92090700Y-76049999D02*
X92057366Y-76049999D01*
X92057366Y-76049999D02*
X92024033Y-76066666D01*
X92024033Y-76066666D02*
X92007366Y-76083332D01*
X92007366Y-76083332D02*
X91990700Y-76116666D01*
X91990700Y-76116666D02*
X91974033Y-76183332D01*
X91974033Y-76183332D02*
X91957366Y-76216666D01*
X91957366Y-76216666D02*
X91940700Y-76233332D01*
X91940700Y-76233332D02*
X91907366Y-76249999D01*
X91907366Y-76249999D02*
X91874033Y-76249999D01*
X91874033Y-76249999D02*
X91840700Y-76233332D01*
X91840700Y-76233332D02*
X91824033Y-76216666D01*
X91824033Y-76216666D02*
X91807366Y-76183332D01*
X91807366Y-76183332D02*
X91807366Y-76099999D01*
X91807366Y-76099999D02*
X91824033Y-76049999D01*
X91974033Y-75899999D02*
X91974033Y-75783333D01*
X92157366Y-75733333D02*
X92157366Y-75899999D01*
X92157366Y-75899999D02*
X91807366Y-75899999D01*
X91807366Y-75899999D02*
X91807366Y-75733333D01*
X92157366Y-75383332D02*
X91990700Y-75499999D01*
X92157366Y-75583332D02*
X91807366Y-75583332D01*
X91807366Y-75583332D02*
X91807366Y-75449999D01*
X91807366Y-75449999D02*
X91824033Y-75416666D01*
X91824033Y-75416666D02*
X91840700Y-75399999D01*
X91840700Y-75399999D02*
X91874033Y-75383332D01*
X91874033Y-75383332D02*
X91924033Y-75383332D01*
X91924033Y-75383332D02*
X91957366Y-75399999D01*
X91957366Y-75399999D02*
X91974033Y-75416666D01*
X91974033Y-75416666D02*
X91990700Y-75449999D01*
X91990700Y-75449999D02*
X91990700Y-75583332D01*
X97033333Y-76140700D02*
X97083333Y-76157366D01*
X97083333Y-76157366D02*
X97166667Y-76157366D01*
X97166667Y-76157366D02*
X97200000Y-76140700D01*
X97200000Y-76140700D02*
X97216667Y-76124033D01*
X97216667Y-76124033D02*
X97233333Y-76090700D01*
X97233333Y-76090700D02*
X97233333Y-76057366D01*
X97233333Y-76057366D02*
X97216667Y-76024033D01*
X97216667Y-76024033D02*
X97200000Y-76007366D01*
X97200000Y-76007366D02*
X97166667Y-75990700D01*
X97166667Y-75990700D02*
X97100000Y-75974033D01*
X97100000Y-75974033D02*
X97066667Y-75957366D01*
X97066667Y-75957366D02*
X97050000Y-75940700D01*
X97050000Y-75940700D02*
X97033333Y-75907366D01*
X97033333Y-75907366D02*
X97033333Y-75874033D01*
X97033333Y-75874033D02*
X97050000Y-75840700D01*
X97050000Y-75840700D02*
X97066667Y-75824033D01*
X97066667Y-75824033D02*
X97100000Y-75807366D01*
X97100000Y-75807366D02*
X97183333Y-75807366D01*
X97183333Y-75807366D02*
X97233333Y-75824033D01*
X97350000Y-75807366D02*
X97433333Y-76157366D01*
X97433333Y-76157366D02*
X97500000Y-75907366D01*
X97500000Y-75907366D02*
X97566666Y-76157366D01*
X97566666Y-76157366D02*
X97650000Y-75807366D01*
X97966666Y-76157366D02*
X97766666Y-76157366D01*
X97866666Y-76157366D02*
X97866666Y-75807366D01*
X97866666Y-75807366D02*
X97833333Y-75857366D01*
X97833333Y-75857366D02*
X97800000Y-75890700D01*
X97800000Y-75890700D02*
X97766666Y-75907366D01*
%TO.C,R6*%
D13*
X65087500Y-84475000D02*
X65912500Y-84475000D01*
X65912500Y-82875000D01*
X65087500Y-82875000D01*
X65087500Y-84475000D01*
%TO.C,SW2*%
X94250000Y-80500000D02*
X100750000Y-80500000D01*
X94250000Y-86500000D02*
X94250000Y-80500000D01*
X100750000Y-80500000D02*
X100750000Y-86500000D01*
X100750000Y-86500000D02*
X94250000Y-86500000D01*
X99200000Y-83500000D02*
G75*
G02*
X95800000Y-83500000I-1700000J0D01*
G01*
X95800000Y-83500000D02*
G75*
G02*
X99200000Y-83500000I1700000J0D01*
G01*
%TO.C,J2*%
X98730000Y-55825000D02*
X99365000Y-55190000D01*
X98730000Y-62810000D02*
X98730000Y-55825000D01*
X99365000Y-55190000D02*
X101270000Y-55190000D01*
X101270000Y-55190000D02*
X101270000Y-62810000D01*
X101270000Y-62810000D02*
X98730000Y-62810000D01*
%TO.C,R2*%
X79087500Y-84625000D02*
X79912500Y-84625000D01*
X79912500Y-83025000D01*
X79087500Y-83025000D01*
X79087500Y-84625000D01*
%TO.C,R5*%
X63087500Y-84475000D02*
X63912500Y-84475000D01*
X63912500Y-82875000D01*
X63087500Y-82875000D01*
X63087500Y-84475000D01*
%TO.C,D1*%
X73987500Y-72720000D02*
X73987500Y-73220000D01*
X73987500Y-73220000D02*
X75587500Y-73220000D01*
X74287500Y-72420000D02*
X73987500Y-72720000D01*
X75587500Y-72420000D02*
X74287500Y-72420000D01*
X75587500Y-73220000D02*
X75587500Y-72420000D01*
%TO.C,R8*%
X69087500Y-84475000D02*
X69912500Y-84475000D01*
X69912500Y-82875000D01*
X69087500Y-82875000D01*
X69087500Y-84475000D01*
%TO.C,C9*%
X81985000Y-71100000D02*
X83585000Y-71100000D01*
X83585000Y-71900000D01*
X81985000Y-71900000D01*
X81985000Y-71100000D01*
%TO.C,J4*%
X67640000Y-88390000D02*
X67640000Y-89640000D01*
X68890000Y-88390000D02*
X67640000Y-88390000D01*
X68050000Y-88800000D02*
X73950000Y-88800000D01*
X73950000Y-93300000D01*
X68050000Y-93300000D01*
X68050000Y-88800000D01*
%TO.C,C2*%
X77975000Y-73610000D02*
X79575000Y-73610000D01*
X79575000Y-74410000D01*
X77975000Y-74410000D01*
X77975000Y-73610000D01*
%TO.C,C7*%
X82200000Y-76100000D02*
X83800000Y-76100000D01*
X83800000Y-76900000D01*
X82200000Y-76900000D01*
X82200000Y-76100000D01*
%TO.C,U3*%
X80750000Y-68150000D02*
X76850000Y-68150000D01*
X76850000Y-64225000D01*
X77825000Y-63250000D01*
X80750000Y-63250000D01*
X80750000Y-68150000D01*
%TO.C,R17*%
X75475000Y-80912500D02*
X73875000Y-80912500D01*
X73875000Y-80087500D01*
X75475000Y-80087500D01*
X75475000Y-80912500D01*
%TO.C,R15*%
X59087500Y-84475000D02*
X59912500Y-84475000D01*
X59912500Y-82875000D01*
X59087500Y-82875000D01*
X59087500Y-84475000D01*
%TO.C,SW3*%
X94250000Y-88000000D02*
X100750000Y-88000000D01*
X94250000Y-94000000D02*
X94250000Y-88000000D01*
X100750000Y-88000000D02*
X100750000Y-94000000D01*
X100750000Y-94000000D02*
X94250000Y-94000000D01*
X99200000Y-91000000D02*
G75*
G02*
X95800000Y-91000000I-1700000J0D01*
G01*
X95800000Y-91000000D02*
G75*
G02*
X99200000Y-91000000I1700000J0D01*
G01*
%TO.C,Q1*%
X89150000Y-85450000D02*
X87850000Y-85450000D01*
X87850000Y-82875000D01*
X88175000Y-82550000D01*
X89150000Y-82550000D01*
X89150000Y-85450000D01*
%TO.C,C6*%
X77975000Y-78630000D02*
X79575000Y-78630000D01*
X79575000Y-79430000D01*
X77975000Y-79430000D01*
X77975000Y-78630000D01*
%TO.C,BZ1*%
X92700000Y-59500000D02*
G75*
G02*
X91100000Y-59500000I-800000J0D01*
G01*
X91100000Y-59500000D02*
G75*
G02*
X92700000Y-59500000I800000J0D01*
G01*
X95200000Y-59500000D02*
G75*
G02*
X88600000Y-59500000I-3300000J0D01*
G01*
X88600000Y-59500000D02*
G75*
G02*
X95200000Y-59500000I3300000J0D01*
G01*
%TO.C,C5*%
X77975000Y-76120000D02*
X79575000Y-76120000D01*
X79575000Y-76920000D01*
X77975000Y-76920000D01*
X77975000Y-76120000D01*
%TO.C,R7*%
X67087500Y-84475000D02*
X67912500Y-84475000D01*
X67912500Y-82875000D01*
X67087500Y-82875000D01*
X67087500Y-84475000D01*
%TO.C,C1*%
X77975000Y-71100000D02*
X79575000Y-71100000D01*
X79575000Y-71900000D01*
X77975000Y-71900000D01*
X77975000Y-71100000D01*
%TO.C,R3*%
X81087500Y-84625000D02*
X81912500Y-84625000D01*
X81912500Y-83025000D01*
X81087500Y-83025000D01*
X81087500Y-84625000D01*
%TO.C,J3*%
X78610000Y-90730000D02*
X88770000Y-90730000D01*
X78610000Y-92635000D02*
X78610000Y-90730000D01*
X79245000Y-93270000D02*
X78610000Y-92635000D01*
X88770000Y-90730000D02*
X88770000Y-93270000D01*
X88770000Y-93270000D02*
X79245000Y-93270000D01*
%TO.C,R11*%
X53087500Y-84475000D02*
X53912500Y-84475000D01*
X53912500Y-82875000D01*
X53087500Y-82875000D01*
X53087500Y-84475000D01*
%TO.C,R1*%
X77087500Y-84625000D02*
X77912500Y-84625000D01*
X77912500Y-83025000D01*
X77087500Y-83025000D01*
X77087500Y-84625000D01*
%TO.C,J1*%
X54905000Y-86945000D02*
X63845000Y-86945000D01*
X63845000Y-93850000D01*
X54905000Y-93850000D01*
X54905000Y-86945000D01*
%TO.C,R12*%
X55087500Y-84475000D02*
X55912500Y-84475000D01*
X55912500Y-82875000D01*
X55087500Y-82875000D01*
X55087500Y-84475000D01*
%TO.C,U4*%
X89162500Y-78000000D02*
X87562500Y-78000000D01*
X87562500Y-75500000D01*
X87962500Y-75100000D01*
X89162500Y-75100000D01*
X89162500Y-78000000D01*
%TO.C,R4*%
X75087500Y-84475000D02*
X75912500Y-84475000D01*
X75912500Y-82875000D01*
X75087500Y-82875000D01*
X75087500Y-84475000D01*
%TO.C,R16*%
X61087500Y-84475000D02*
X61912500Y-84475000D01*
X61912500Y-82875000D01*
X61087500Y-82875000D01*
X61087500Y-84475000D01*
%TO.C,C10*%
X93900000Y-65700000D02*
X93900000Y-70300000D01*
X93900000Y-65700000D02*
X94900000Y-64700000D01*
X93900000Y-70300000D02*
X94900000Y-71300000D01*
X94495162Y-66670000D02*
X95125162Y-66670000D01*
X94810162Y-66355000D02*
X94810162Y-66985000D01*
X94900000Y-64700000D02*
X100500000Y-64700000D01*
X94900000Y-71300000D02*
X100500000Y-71300000D01*
X100500000Y-64700000D02*
X100500000Y-71300000D01*
X100350000Y-68000000D02*
G75*
G02*
X94050000Y-68000000I-3150000J0D01*
G01*
X94050000Y-68000000D02*
G75*
G02*
X100350000Y-68000000I3150000J0D01*
G01*
%TO.C,C8*%
X82200000Y-78610000D02*
X83800000Y-78610000D01*
X83800000Y-79410000D01*
X82200000Y-79410000D01*
X82200000Y-78610000D01*
%TO.C,D4*%
X73987500Y-75310000D02*
X73987500Y-75810000D01*
X73987500Y-75810000D02*
X75587500Y-75810000D01*
X74287500Y-75010000D02*
X73987500Y-75310000D01*
X75587500Y-75010000D02*
X74287500Y-75010000D01*
X75587500Y-75810000D02*
X75587500Y-75010000D01*
%TO.C,R13*%
X57087500Y-84475000D02*
X57912500Y-84475000D01*
X57912500Y-82875000D01*
X57087500Y-82875000D01*
X57087500Y-84475000D01*
%TO.C,U1*%
X53600000Y-55000000D02*
X71600000Y-55000000D01*
X53600000Y-61000000D02*
X71600000Y-61000000D01*
X53600000Y-80500000D02*
X53600000Y-55000000D01*
X53600000Y-80500000D02*
X71600000Y-80500000D01*
X71600000Y-80500000D02*
X71600000Y-55000000D01*
%TO.C,D3*%
X87000000Y-66700000D02*
X90000000Y-66700000D01*
X87000000Y-71300000D02*
X87000000Y-66700000D01*
X87749680Y-69501180D02*
X89299080Y-69501180D01*
X88498980Y-68350560D02*
X87749680Y-69501180D01*
X88498980Y-68350560D02*
X88498980Y-67448860D01*
X88498980Y-68350560D02*
X89299080Y-69501180D01*
X88498980Y-69501180D02*
X88498980Y-70499400D01*
X89299080Y-68350560D02*
X87698880Y-68350560D01*
X90000000Y-71300000D02*
X87000000Y-71300000D01*
X90000000Y-71300000D02*
X90000000Y-66700000D01*
%TO.C,D5*%
X73987500Y-77900000D02*
X73987500Y-78400000D01*
X73987500Y-78400000D02*
X75587500Y-78400000D01*
X74287500Y-77600000D02*
X73987500Y-77900000D01*
X75587500Y-77600000D02*
X74287500Y-77600000D01*
X75587500Y-78400000D02*
X75587500Y-77600000D01*
%TO.C,R9*%
X71087500Y-84475000D02*
X71912500Y-84475000D01*
X71912500Y-82875000D01*
X71087500Y-82875000D01*
X71087500Y-84475000D01*
%TO.C,C11*%
X81985000Y-73610000D02*
X83585000Y-73610000D01*
X83585000Y-74410000D01*
X81985000Y-74410000D01*
X81985000Y-73610000D01*
%TO.C,R10*%
X73087500Y-84475000D02*
X73912500Y-84475000D01*
X73912500Y-82875000D01*
X73087500Y-82875000D01*
X73087500Y-84475000D01*
%TO.C,SW1*%
X94250000Y-73000000D02*
X100750000Y-73000000D01*
X94250000Y-79000000D02*
X94250000Y-73000000D01*
X100750000Y-73000000D02*
X100750000Y-79000000D01*
X100750000Y-79000000D02*
X94250000Y-79000000D01*
X99200000Y-76000000D02*
G75*
G02*
X95800000Y-76000000I-1700000J0D01*
G01*
X95800000Y-76000000D02*
G75*
G02*
X99200000Y-76000000I1700000J0D01*
G01*
%TD*%
M02*
