M48
; DRILL file {KiCad 9.0.7} date 2026-03-23T21:33:53+0530
; FORMAT={-:-/ absolute / metric / decimal}
; #@! TF.CreationDate,2026-03-23T21:33:53+05:30
; #@! TF.GenerationSoftware,Kicad,Pcbnew,9.0.7
; #@! TF.FileFunction,MixedPlating,1,2
FMAT,2
METRIC
; #@! TA.AperFunction,Plated,PTH,ComponentDrill
T1C0.200
; #@! TA.AperFunction,Plated,PTH,ComponentDrill
T2C0.750
; #@! TA.AperFunction,Plated,PTH,ComponentDrill
T3C1.000
%
G90
G05
T1
X59.7Y-69.51
X59.7Y-70.91
X60.4Y-68.81
X60.4Y-70.21
X60.4Y-71.61
X61.1Y-69.51
X61.1Y-70.91
X61.8Y-68.81
X61.8Y-70.21
X61.8Y-71.61
X62.5Y-69.51
X62.5Y-70.91
X78.1Y-64.5
X78.1Y-65.7
X78.1Y-66.9
X79.5Y-64.5
X79.5Y-65.7
X79.5Y-66.9
T2
X70.0Y-90.5
X72.0Y-90.5
T3
X79.88Y-92.0
X82.42Y-92.0
X84.96Y-92.0
X87.5Y-92.0
X90.3Y-59.5
X93.5Y-59.5
X100.0Y-56.46
X100.0Y-59.0
X100.0Y-61.54
M30
