%TF.GenerationSoftware,KiCad,Pcbnew,9.0.7*%
%TF.CreationDate,2026-03-23T21:33:52+05:30*%
%TF.ProjectId,Pill_Dispenser_V4,50696c6c-5f44-4697-9370-656e7365725f,rev?*%
%TF.SameCoordinates,Original*%
%TF.FileFunction,Paste,Top*%
%TF.FilePolarity,Positive*%
%FSLAX46Y46*%
G04 Gerber Fmt 4.6, Leading zero omitted, Abs format (unit mm)*
G04 Created by KiCad (PCBNEW 9.0.7) date 2026-03-23 21:33:52*
%MOMM*%
%LPD*%
G01*
G04 APERTURE LIST*
G04 Aperture macros list*
%AMRoundRect*
0 Rectangle with rounded corners*
0 $1 Rounding radius*
0 $2 $3 $4 $5 $6 $7 $8 $9 X,Y pos of 4 corners*
0 Add a 4 corners polygon primitive as box body*
4,1,4,$2,$3,$4,$5,$6,$7,$8,$9,$2,$3,0*
0 Add four circle primitives for the rounded corners*
1,1,$1+$1,$2,$3*
1,1,$1+$1,$4,$5*
1,1,$1+$1,$6,$7*
1,1,$1+$1,$8,$9*
0 Add four rect primitives between the rounded corners*
20,1,$1+$1,$2,$3,$4,$5,0*
20,1,$1+$1,$4,$5,$6,$7,0*
20,1,$1+$1,$6,$7,$8,$9,0*
20,1,$1+$1,$8,$9,$2,$3,0*%
G04 Aperture macros list end*
%ADD10RoundRect,0.200000X0.275000X-0.200000X0.275000X0.200000X-0.275000X0.200000X-0.275000X-0.200000X0*%
%ADD11R,2.750000X1.000000*%
%ADD12RoundRect,0.218750X-0.218750X-0.256250X0.218750X-0.256250X0.218750X0.256250X-0.218750X0.256250X0*%
%ADD13RoundRect,0.225000X-0.225000X-0.250000X0.225000X-0.250000X0.225000X0.250000X-0.225000X0.250000X0*%
%ADD14RoundRect,0.250000X-0.255000X-0.440000X0.255000X-0.440000X0.255000X0.440000X-0.255000X0.440000X0*%
%ADD15RoundRect,0.150000X-0.825000X-0.150000X0.825000X-0.150000X0.825000X0.150000X-0.825000X0.150000X0*%
%ADD16RoundRect,0.200000X0.200000X0.275000X-0.200000X0.275000X-0.200000X-0.275000X0.200000X-0.275000X0*%
%ADD17RoundRect,0.150000X-0.587500X-0.150000X0.587500X-0.150000X0.587500X0.150000X-0.587500X0.150000X0*%
%ADD18RoundRect,0.175000X-0.175000X-0.425000X0.175000X-0.425000X0.175000X0.425000X-0.175000X0.425000X0*%
%ADD19RoundRect,0.175000X0.175000X0.425000X-0.175000X0.425000X-0.175000X-0.425000X0.175000X-0.425000X0*%
%ADD20RoundRect,0.190000X0.190000X0.410000X-0.190000X0.410000X-0.190000X-0.410000X0.190000X-0.410000X0*%
%ADD21RoundRect,0.190000X-0.190000X-0.410000X0.190000X-0.410000X0.190000X0.410000X-0.190000X0.410000X0*%
%ADD22RoundRect,0.200000X0.200000X0.400000X-0.200000X0.400000X-0.200000X-0.400000X0.200000X-0.400000X0*%
%ADD23RoundRect,0.200000X-0.200000X-0.400000X0.200000X-0.400000X0.200000X0.400000X-0.200000X0.400000X0*%
%ADD24RoundRect,0.250000X-0.650000X-0.425000X0.650000X-0.425000X0.650000X0.425000X-0.650000X0.425000X0*%
%ADD25RoundRect,0.250000X-0.650000X-0.500000X0.650000X-0.500000X0.650000X0.500000X-0.650000X0.500000X0*%
%ADD26RoundRect,0.150000X-0.512500X-0.150000X0.512500X-0.150000X0.512500X0.150000X-0.512500X0.150000X0*%
%ADD27RoundRect,0.250000X-1.500000X-0.550000X1.500000X-0.550000X1.500000X0.550000X-1.500000X0.550000X0*%
%ADD28R,0.900000X0.900000*%
%ADD29R,1.500000X0.900000*%
%ADD30R,0.900000X1.500000*%
%ADD31RoundRect,0.250000X-0.650000X1.000000X-0.650000X-1.000000X0.650000X-1.000000X0.650000X1.000000X0*%
G04 APERTURE END LIST*
D10*
%TO.C,R6*%
X65500000Y-84500000D03*
X65500000Y-82850000D03*
%TD*%
D11*
%TO.C,SW2*%
X94620000Y-81500000D03*
X100380000Y-81500000D03*
X94620000Y-85500000D03*
X100380000Y-85500000D03*
%TD*%
D10*
%TO.C,R2*%
X79500000Y-84650000D03*
X79500000Y-83000000D03*
%TD*%
%TO.C,R5*%
X63500000Y-84500000D03*
X63500000Y-82850000D03*
%TD*%
D12*
%TO.C,D1*%
X74000000Y-72820000D03*
X75575000Y-72820000D03*
%TD*%
D10*
%TO.C,R8*%
X69500000Y-84500000D03*
X69500000Y-82850000D03*
%TD*%
D13*
%TO.C,C9*%
X82010000Y-71500000D03*
X83560000Y-71500000D03*
%TD*%
%TO.C,C2*%
X78000000Y-74010000D03*
X79550000Y-74010000D03*
%TD*%
%TO.C,C7*%
X82225000Y-76500000D03*
X83775000Y-76500000D03*
%TD*%
D14*
%TO.C,U3*%
X78200000Y-64875000D03*
X78200000Y-66525000D03*
X79400000Y-64875000D03*
X79400000Y-66525000D03*
D15*
X76325000Y-63795000D03*
X76325000Y-65065000D03*
X76325000Y-66335000D03*
X76325000Y-67605000D03*
X81275000Y-67605000D03*
X81275000Y-66335000D03*
X81275000Y-65065000D03*
X81275000Y-63795000D03*
%TD*%
D16*
%TO.C,R17*%
X75500000Y-80500000D03*
X73850000Y-80500000D03*
%TD*%
D10*
%TO.C,R15*%
X59500000Y-84500000D03*
X59500000Y-82850000D03*
%TD*%
D11*
%TO.C,SW3*%
X94620000Y-89000000D03*
X100380000Y-89000000D03*
X94620000Y-93000000D03*
X100380000Y-93000000D03*
%TD*%
D17*
%TO.C,Q1*%
X87562500Y-83050000D03*
X87562500Y-84950000D03*
X89437500Y-84000000D03*
%TD*%
D13*
%TO.C,C6*%
X78000000Y-79030000D03*
X79550000Y-79030000D03*
%TD*%
%TO.C,C5*%
X78000000Y-76520000D03*
X79550000Y-76520000D03*
%TD*%
D10*
%TO.C,R7*%
X67500000Y-84500000D03*
X67500000Y-82850000D03*
%TD*%
D13*
%TO.C,C1*%
X78000000Y-71500000D03*
X79550000Y-71500000D03*
%TD*%
D10*
%TO.C,R3*%
X81500000Y-84650000D03*
X81500000Y-83000000D03*
%TD*%
%TO.C,R11*%
X53500000Y-84500000D03*
X53500000Y-82850000D03*
%TD*%
%TO.C,R1*%
X77500000Y-84650000D03*
X77500000Y-83000000D03*
%TD*%
D18*
%TO.C,J1*%
X58875000Y-87365000D03*
D19*
X59875000Y-87365000D03*
D20*
X60895000Y-87365000D03*
D21*
X57855000Y-87365000D03*
D22*
X62125000Y-87365000D03*
D23*
X56625000Y-87365000D03*
D24*
X54250000Y-87420000D03*
D25*
X54250000Y-91000000D03*
D24*
X64500000Y-87420000D03*
D25*
X64500000Y-91000000D03*
%TD*%
D10*
%TO.C,R12*%
X55500000Y-84500000D03*
X55500000Y-82850000D03*
%TD*%
D26*
%TO.C,U4*%
X87225000Y-75600000D03*
X87225000Y-76550000D03*
X87225000Y-77500000D03*
X89500000Y-77500000D03*
X89500000Y-75600000D03*
%TD*%
D10*
%TO.C,R4*%
X75500000Y-84500000D03*
X75500000Y-82850000D03*
%TD*%
%TO.C,R16*%
X61500000Y-84500000D03*
X61500000Y-82850000D03*
%TD*%
D27*
%TO.C,C10*%
X94400000Y-68000000D03*
X100000000Y-68000000D03*
%TD*%
D13*
%TO.C,C8*%
X82225000Y-79010000D03*
X83775000Y-79010000D03*
%TD*%
D12*
%TO.C,D4*%
X74000000Y-75410000D03*
X75575000Y-75410000D03*
%TD*%
D10*
%TO.C,R13*%
X57500000Y-84500000D03*
X57500000Y-82850000D03*
%TD*%
D28*
%TO.C,U1*%
X59700000Y-68810000D03*
X59700000Y-70210000D03*
X59700000Y-71610000D03*
X61100000Y-68810000D03*
X61100000Y-70210000D03*
X61100000Y-71610000D03*
X62500000Y-68810000D03*
X62500000Y-70210000D03*
X62500000Y-71610000D03*
D29*
X53850000Y-62490000D03*
X53850000Y-63760000D03*
X53850000Y-65030000D03*
X53850000Y-66300000D03*
X53850000Y-67570000D03*
X53850000Y-68840000D03*
X53850000Y-70110000D03*
X53850000Y-71380000D03*
X53850000Y-72650000D03*
X53850000Y-73920000D03*
X53850000Y-75190000D03*
X53850000Y-76460000D03*
X53850000Y-77730000D03*
X53850000Y-79000000D03*
D30*
X55615000Y-80250000D03*
X56885000Y-80250000D03*
X58155000Y-80250000D03*
X59425000Y-80250000D03*
X60695000Y-80250000D03*
X61965000Y-80250000D03*
X63235000Y-80250000D03*
X64505000Y-80250000D03*
X65775000Y-80250000D03*
X67045000Y-80250000D03*
X68315000Y-80250000D03*
X69585000Y-80250000D03*
D29*
X71350000Y-79000000D03*
X71350000Y-77730000D03*
X71350000Y-76460000D03*
X71350000Y-75190000D03*
X71350000Y-73920000D03*
X71350000Y-72650000D03*
X71350000Y-71380000D03*
X71350000Y-70110000D03*
X71350000Y-68840000D03*
X71350000Y-67570000D03*
X71350000Y-66300000D03*
X71350000Y-65030000D03*
X71350000Y-63760000D03*
X71350000Y-62490000D03*
%TD*%
D31*
%TO.C,D3*%
X88500000Y-67000000D03*
X88500000Y-71000000D03*
%TD*%
D12*
%TO.C,D5*%
X74000000Y-78000000D03*
X75575000Y-78000000D03*
%TD*%
D10*
%TO.C,R9*%
X71500000Y-84500000D03*
X71500000Y-82850000D03*
%TD*%
D13*
%TO.C,C11*%
X82010000Y-74010000D03*
X83560000Y-74010000D03*
%TD*%
D10*
%TO.C,R10*%
X73500000Y-84500000D03*
X73500000Y-82850000D03*
%TD*%
D11*
%TO.C,SW1*%
X94620000Y-74000000D03*
X100380000Y-74000000D03*
X94620000Y-78000000D03*
X100380000Y-78000000D03*
%TD*%
M02*
