%TF.GenerationSoftware,KiCad,Pcbnew,9.0.7*%
%TF.CreationDate,2026-03-23T21:33:52+05:30*%
%TF.ProjectId,Pill_Dispenser_V4,50696c6c-5f44-4697-9370-656e7365725f,rev?*%
%TF.SameCoordinates,Original*%
%TF.FileFunction,Other,User*%
%FSLAX46Y46*%
G04 Gerber Fmt 4.6, Leading zero omitted, Abs format (unit mm)*
G04 Created by KiCad (PCBNEW 9.0.7) date 2026-03-23 21:33:52*
%MOMM*%
%LPD*%
G01*
G04 APERTURE LIST*
%ADD10C,0.050000*%
G04 APERTURE END LIST*
%TO.C,R6*%
D10*
X64770000Y-85155000D02*
X66230000Y-85155000D01*
X66230000Y-82195000D01*
X64770000Y-82195000D01*
X64770000Y-85155000D01*
%TO.C,SW2*%
X93000000Y-80250000D02*
X102000000Y-80250000D01*
X93000000Y-86750000D02*
X93000000Y-80250000D01*
X102000000Y-80250000D02*
X102000000Y-86750000D01*
X102000000Y-86750000D02*
X93000000Y-86750000D01*
%TO.C,J2*%
X98230000Y-54690000D02*
X101770000Y-54690000D01*
X101770000Y-63310000D01*
X98230000Y-63310000D01*
X98230000Y-54690000D01*
%TO.C,R2*%
X78770000Y-85305000D02*
X80230000Y-85305000D01*
X80230000Y-82345000D01*
X78770000Y-82345000D01*
X78770000Y-85305000D01*
%TO.C,R5*%
X62770000Y-85155000D02*
X64230000Y-85155000D01*
X64230000Y-82195000D01*
X62770000Y-82195000D01*
X62770000Y-85155000D01*
%TO.C,D1*%
X73307500Y-72090000D02*
X76267500Y-72090000D01*
X76267500Y-73550000D01*
X73307500Y-73550000D01*
X73307500Y-72090000D01*
%TO.C,R8*%
X68770000Y-85155000D02*
X70230000Y-85155000D01*
X70230000Y-82195000D01*
X68770000Y-82195000D01*
X68770000Y-85155000D01*
%TO.C,C9*%
X81305000Y-70770000D02*
X84265000Y-70770000D01*
X84265000Y-72230000D01*
X81305000Y-72230000D01*
X81305000Y-70770000D01*
%TO.C,J4*%
X67550000Y-88300000D02*
X74450000Y-88300000D01*
X74450000Y-93800000D01*
X67550000Y-93800000D01*
X67550000Y-88300000D01*
%TO.C,C2*%
X77295000Y-73280000D02*
X80255000Y-73280000D01*
X80255000Y-74740000D01*
X77295000Y-74740000D01*
X77295000Y-73280000D01*
%TO.C,C7*%
X81520000Y-75770000D02*
X84480000Y-75770000D01*
X84480000Y-77230000D01*
X81520000Y-77230000D01*
X81520000Y-75770000D01*
%TO.C,U3*%
X75100000Y-63240000D02*
X76600000Y-63240000D01*
X75100000Y-68160000D02*
X75100000Y-63240000D01*
X76600000Y-63000000D02*
X81000000Y-63000000D01*
X76600000Y-63240000D02*
X76600000Y-63000000D01*
X76600000Y-68160000D02*
X75100000Y-68160000D01*
X76600000Y-68400000D02*
X76600000Y-68160000D01*
X81000000Y-63000000D02*
X81000000Y-63240000D01*
X81000000Y-63240000D02*
X82500000Y-63240000D01*
X81000000Y-68160000D02*
X81000000Y-68400000D01*
X81000000Y-68400000D02*
X76600000Y-68400000D01*
X82500000Y-63240000D02*
X82500000Y-68160000D01*
X82500000Y-68160000D02*
X81000000Y-68160000D01*
%TO.C,R17*%
X76155000Y-81230000D02*
X73195000Y-81230000D01*
X73195000Y-79770000D01*
X76155000Y-79770000D01*
X76155000Y-81230000D01*
%TO.C,R15*%
X58770000Y-85155000D02*
X60230000Y-85155000D01*
X60230000Y-82195000D01*
X58770000Y-82195000D01*
X58770000Y-85155000D01*
%TO.C,SW3*%
X93000000Y-87750000D02*
X102000000Y-87750000D01*
X93000000Y-94250000D02*
X93000000Y-87750000D01*
X102000000Y-87750000D02*
X102000000Y-94250000D01*
X102000000Y-94250000D02*
X93000000Y-94250000D01*
%TO.C,Q1*%
X86570000Y-82500000D02*
X87600000Y-82500000D01*
X86570000Y-83610000D02*
X86570000Y-82500000D01*
X86570000Y-84390000D02*
X87600000Y-84390000D01*
X86570000Y-85500000D02*
X86570000Y-84390000D01*
X87600000Y-82300000D02*
X89400000Y-82300000D01*
X87600000Y-82500000D02*
X87600000Y-82300000D01*
X87600000Y-83610000D02*
X86570000Y-83610000D01*
X87600000Y-84390000D02*
X87600000Y-83610000D01*
X87600000Y-85500000D02*
X86570000Y-85500000D01*
X87600000Y-85700000D02*
X87600000Y-85500000D01*
X89400000Y-82300000D02*
X89400000Y-83450000D01*
X89400000Y-83450000D02*
X90430000Y-83450000D01*
X89400000Y-84550000D02*
X89400000Y-85700000D01*
X89400000Y-85700000D02*
X87600000Y-85700000D01*
X90430000Y-83450000D02*
X90430000Y-84550000D01*
X90430000Y-84550000D02*
X89400000Y-84550000D01*
%TO.C,C6*%
X77295000Y-78300000D02*
X80255000Y-78300000D01*
X80255000Y-79760000D01*
X77295000Y-79760000D01*
X77295000Y-78300000D01*
%TO.C,BZ1*%
X95450000Y-59500000D02*
G75*
G02*
X88350000Y-59500000I-3550000J0D01*
G01*
X88350000Y-59500000D02*
G75*
G02*
X95450000Y-59500000I3550000J0D01*
G01*
%TO.C,C5*%
X77295000Y-75790000D02*
X80255000Y-75790000D01*
X80255000Y-77250000D01*
X77295000Y-77250000D01*
X77295000Y-75790000D01*
%TO.C,R7*%
X66770000Y-85155000D02*
X68230000Y-85155000D01*
X68230000Y-82195000D01*
X66770000Y-82195000D01*
X66770000Y-85155000D01*
%TO.C,C1*%
X77295000Y-70770000D02*
X80255000Y-70770000D01*
X80255000Y-72230000D01*
X77295000Y-72230000D01*
X77295000Y-70770000D01*
%TO.C,R3*%
X80770000Y-85305000D02*
X82230000Y-85305000D01*
X82230000Y-82345000D01*
X80770000Y-82345000D01*
X80770000Y-85305000D01*
%TO.C,J3*%
X78110000Y-93770000D02*
X89270000Y-93770000D01*
X89270000Y-90230000D01*
X78110000Y-90230000D01*
X78110000Y-93770000D01*
%TO.C,R11*%
X52770000Y-85155000D02*
X54230000Y-85155000D01*
X54230000Y-82195000D01*
X52770000Y-82195000D01*
X52770000Y-85155000D01*
%TO.C,R1*%
X76770000Y-85305000D02*
X78230000Y-85305000D01*
X78230000Y-82345000D01*
X76770000Y-82345000D01*
X76770000Y-85305000D01*
%TO.C,J1*%
X52825000Y-86197500D02*
X52825000Y-88597500D01*
X52825000Y-88597500D02*
X54375000Y-88597500D01*
X52825000Y-89747500D02*
X52825000Y-92297500D01*
X54375000Y-88597500D02*
X54375000Y-89747500D01*
X54375000Y-89747500D02*
X52825000Y-89747500D01*
X54375000Y-92297500D02*
X52825000Y-92297500D01*
X54375000Y-92297500D02*
X54375000Y-94397500D01*
X54375000Y-94397500D02*
X64375000Y-94397500D01*
X64375000Y-88597500D02*
X64375000Y-89747500D01*
X64375000Y-88597500D02*
X65925000Y-88597500D01*
X64375000Y-92297500D02*
X64375000Y-94397500D01*
X65925000Y-86197500D02*
X52825000Y-86197500D01*
X65925000Y-86197500D02*
X65925000Y-88597500D01*
X65925000Y-89747500D02*
X64375000Y-89747500D01*
X65925000Y-89747500D02*
X65925000Y-92297500D01*
X65925000Y-92297500D02*
X64375000Y-92297500D01*
%TO.C,R12*%
X54770000Y-85155000D02*
X56230000Y-85155000D01*
X56230000Y-82195000D01*
X54770000Y-82195000D01*
X54770000Y-85155000D01*
%TO.C,U4*%
X86312500Y-75050000D02*
X87312500Y-75050000D01*
X86312500Y-78050000D02*
X86312500Y-75050000D01*
X87312500Y-74850000D02*
X89412500Y-74850000D01*
X87312500Y-75050000D02*
X87312500Y-74850000D01*
X87312500Y-78050000D02*
X86312500Y-78050000D01*
X87312500Y-78250000D02*
X87312500Y-78050000D01*
X89412500Y-74850000D02*
X89412500Y-75050000D01*
X89412500Y-75050000D02*
X90412500Y-75050000D01*
X89412500Y-76160000D02*
X89412500Y-76940000D01*
X89412500Y-76940000D02*
X90412500Y-76940000D01*
X89412500Y-78050000D02*
X89412500Y-78250000D01*
X89412500Y-78250000D02*
X87312500Y-78250000D01*
X90412500Y-75050000D02*
X90412500Y-76160000D01*
X90412500Y-76160000D02*
X89412500Y-76160000D01*
X90412500Y-76940000D02*
X90412500Y-78050000D01*
X90412500Y-78050000D02*
X89412500Y-78050000D01*
%TO.C,R4*%
X74770000Y-85155000D02*
X76230000Y-85155000D01*
X76230000Y-82195000D01*
X74770000Y-82195000D01*
X74770000Y-85155000D01*
%TO.C,R16*%
X60770000Y-85155000D02*
X62230000Y-85155000D01*
X62230000Y-82195000D01*
X60770000Y-82195000D01*
X60770000Y-85155000D01*
%TO.C,C10*%
X92400000Y-66950000D02*
X92400000Y-69050000D01*
X92400000Y-69050000D02*
X93650000Y-69050000D01*
X93650000Y-65600000D02*
X93650000Y-66950000D01*
X93650000Y-65600000D02*
X94800000Y-64450000D01*
X93650000Y-66950000D02*
X92400000Y-66950000D01*
X93650000Y-69050000D02*
X93650000Y-70400000D01*
X93650000Y-70400000D02*
X94800000Y-71550000D01*
X94800000Y-64450000D02*
X100750000Y-64450000D01*
X94800000Y-71550000D02*
X100750000Y-71550000D01*
X100750000Y-64450000D02*
X100750000Y-66950000D01*
X100750000Y-66950000D02*
X102000000Y-66950000D01*
X100750000Y-69050000D02*
X100750000Y-71550000D01*
X102000000Y-66950000D02*
X102000000Y-69050000D01*
X102000000Y-69050000D02*
X100750000Y-69050000D01*
%TO.C,C8*%
X81520000Y-78280000D02*
X84480000Y-78280000D01*
X84480000Y-79740000D01*
X81520000Y-79740000D01*
X81520000Y-78280000D01*
%TO.C,D4*%
X73307500Y-74680000D02*
X76267500Y-74680000D01*
X76267500Y-76140000D01*
X73307500Y-76140000D01*
X73307500Y-74680000D01*
%TO.C,R13*%
X56770000Y-85155000D02*
X58230000Y-85155000D01*
X58230000Y-82195000D01*
X56770000Y-82195000D01*
X56770000Y-85155000D01*
%TO.C,U1*%
X38600000Y-40000000D02*
X38600000Y-61000000D01*
X38600000Y-61000000D02*
X52850000Y-61000000D01*
X52850000Y-81200000D02*
X52850000Y-61000000D01*
X52850000Y-81200000D02*
X72350000Y-81200000D01*
X72350000Y-61000000D02*
X72350000Y-81200000D01*
X72350000Y-61000000D02*
X86600000Y-61000000D01*
X86600000Y-40000000D02*
X38600000Y-40000000D01*
X86600000Y-61000000D02*
X86600000Y-40000000D01*
%TO.C,D3*%
X86750000Y-65500000D02*
X90250000Y-65500000D01*
X86750000Y-72500000D02*
X86750000Y-65500000D01*
X90250000Y-65500000D02*
X90250000Y-72500000D01*
X90250000Y-72500000D02*
X86750000Y-72500000D01*
%TO.C,D5*%
X73307500Y-77270000D02*
X76267500Y-77270000D01*
X76267500Y-78730000D01*
X73307500Y-78730000D01*
X73307500Y-77270000D01*
%TO.C,R9*%
X70770000Y-85155000D02*
X72230000Y-85155000D01*
X72230000Y-82195000D01*
X70770000Y-82195000D01*
X70770000Y-85155000D01*
%TO.C,C11*%
X81305000Y-73280000D02*
X84265000Y-73280000D01*
X84265000Y-74740000D01*
X81305000Y-74740000D01*
X81305000Y-73280000D01*
%TO.C,R10*%
X72770000Y-85155000D02*
X74230000Y-85155000D01*
X74230000Y-82195000D01*
X72770000Y-82195000D01*
X72770000Y-85155000D01*
%TO.C,SW1*%
X93000000Y-72750000D02*
X102000000Y-72750000D01*
X93000000Y-79250000D02*
X93000000Y-72750000D01*
X102000000Y-72750000D02*
X102000000Y-79250000D01*
X102000000Y-79250000D02*
X93000000Y-79250000D01*
%TD*%
M02*
