%TF.GenerationSoftware,KiCad,Pcbnew,9.0.7*%
%TF.CreationDate,2026-03-23T21:33:52+05:30*%
%TF.ProjectId,Pill_Dispenser_V4,50696c6c-5f44-4697-9370-656e7365725f,rev?*%
%TF.SameCoordinates,Original*%
%TF.FileFunction,Copper,L1,Top*%
%TF.FilePolarity,Positive*%
%FSLAX46Y46*%
G04 Gerber Fmt 4.6, Leading zero omitted, Abs format (unit mm)*
G04 Created by KiCad (PCBNEW 9.0.7) date 2026-03-23 21:33:52*
%MOMM*%
%LPD*%
G01*
G04 APERTURE LIST*
G04 Aperture macros list*
%AMRoundRect*
0 Rectangle with rounded corners*
0 $1 Rounding radius*
0 $2 $3 $4 $5 $6 $7 $8 $9 X,Y pos of 4 corners*
0 Add a 4 corners polygon primitive as box body*
4,1,4,$2,$3,$4,$5,$6,$7,$8,$9,$2,$3,0*
0 Add four circle primitives for the rounded corners*
1,1,$1+$1,$2,$3*
1,1,$1+$1,$4,$5*
1,1,$1+$1,$6,$7*
1,1,$1+$1,$8,$9*
0 Add four rect primitives between the rounded corners*
20,1,$1+$1,$2,$3,$4,$5,0*
20,1,$1+$1,$4,$5,$6,$7,0*
20,1,$1+$1,$6,$7,$8,$9,0*
20,1,$1+$1,$8,$9,$2,$3,0*%
G04 Aperture macros list end*
%TA.AperFunction,SMDPad,CuDef*%
%ADD10RoundRect,0.200000X0.275000X-0.200000X0.275000X0.200000X-0.275000X0.200000X-0.275000X-0.200000X0*%
%TD*%
%TA.AperFunction,SMDPad,CuDef*%
%ADD11R,2.750000X1.000000*%
%TD*%
%TA.AperFunction,ComponentPad*%
%ADD12R,1.700000X1.700000*%
%TD*%
%TA.AperFunction,ComponentPad*%
%ADD13C,1.700000*%
%TD*%
%TA.AperFunction,SMDPad,CuDef*%
%ADD14RoundRect,0.218750X-0.218750X-0.256250X0.218750X-0.256250X0.218750X0.256250X-0.218750X0.256250X0*%
%TD*%
%TA.AperFunction,SMDPad,CuDef*%
%ADD15RoundRect,0.225000X-0.225000X-0.250000X0.225000X-0.250000X0.225000X0.250000X-0.225000X0.250000X0*%
%TD*%
%TA.AperFunction,ComponentPad*%
%ADD16RoundRect,0.250000X-0.350000X-0.625000X0.350000X-0.625000X0.350000X0.625000X-0.350000X0.625000X0*%
%TD*%
%TA.AperFunction,ComponentPad*%
%ADD17O,1.200000X1.750000*%
%TD*%
%TA.AperFunction,SMDPad,CuDef*%
%ADD18RoundRect,0.150000X-0.825000X-0.150000X0.825000X-0.150000X0.825000X0.150000X-0.825000X0.150000X0*%
%TD*%
%TA.AperFunction,HeatsinkPad*%
%ADD19C,0.500000*%
%TD*%
%TA.AperFunction,HeatsinkPad*%
%ADD20R,2.410000X3.300000*%
%TD*%
%TA.AperFunction,SMDPad,CuDef*%
%ADD21RoundRect,0.200000X0.200000X0.275000X-0.200000X0.275000X-0.200000X-0.275000X0.200000X-0.275000X0*%
%TD*%
%TA.AperFunction,SMDPad,CuDef*%
%ADD22RoundRect,0.150000X-0.587500X-0.150000X0.587500X-0.150000X0.587500X0.150000X-0.587500X0.150000X0*%
%TD*%
%TA.AperFunction,ComponentPad*%
%ADD23R,1.600000X1.600000*%
%TD*%
%TA.AperFunction,ComponentPad*%
%ADD24C,1.600000*%
%TD*%
%TA.AperFunction,SMDPad,CuDef*%
%ADD25RoundRect,0.175000X-0.175000X-0.425000X0.175000X-0.425000X0.175000X0.425000X-0.175000X0.425000X0*%
%TD*%
%TA.AperFunction,SMDPad,CuDef*%
%ADD26RoundRect,0.175000X0.175000X0.425000X-0.175000X0.425000X-0.175000X-0.425000X0.175000X-0.425000X0*%
%TD*%
%TA.AperFunction,SMDPad,CuDef*%
%ADD27RoundRect,0.190000X0.190000X0.410000X-0.190000X0.410000X-0.190000X-0.410000X0.190000X-0.410000X0*%
%TD*%
%TA.AperFunction,SMDPad,CuDef*%
%ADD28RoundRect,0.190000X-0.190000X-0.410000X0.190000X-0.410000X0.190000X0.410000X-0.190000X0.410000X0*%
%TD*%
%TA.AperFunction,SMDPad,CuDef*%
%ADD29RoundRect,0.200000X0.200000X0.400000X-0.200000X0.400000X-0.200000X-0.400000X0.200000X-0.400000X0*%
%TD*%
%TA.AperFunction,SMDPad,CuDef*%
%ADD30RoundRect,0.200000X-0.200000X-0.400000X0.200000X-0.400000X0.200000X0.400000X-0.200000X0.400000X0*%
%TD*%
%TA.AperFunction,SMDPad,CuDef*%
%ADD31RoundRect,0.250000X-0.650000X-0.425000X0.650000X-0.425000X0.650000X0.425000X-0.650000X0.425000X0*%
%TD*%
%TA.AperFunction,SMDPad,CuDef*%
%ADD32RoundRect,0.250000X-0.650000X-0.500000X0.650000X-0.500000X0.650000X0.500000X-0.650000X0.500000X0*%
%TD*%
%TA.AperFunction,SMDPad,CuDef*%
%ADD33RoundRect,0.150000X-0.512500X-0.150000X0.512500X-0.150000X0.512500X0.150000X-0.512500X0.150000X0*%
%TD*%
%TA.AperFunction,SMDPad,CuDef*%
%ADD34RoundRect,0.250000X-1.500000X-0.550000X1.500000X-0.550000X1.500000X0.550000X-1.500000X0.550000X0*%
%TD*%
%TA.AperFunction,SMDPad,CuDef*%
%ADD35R,1.500000X0.900000*%
%TD*%
%TA.AperFunction,SMDPad,CuDef*%
%ADD36R,0.900000X1.500000*%
%TD*%
%TA.AperFunction,HeatsinkPad*%
%ADD37C,0.600000*%
%TD*%
%TA.AperFunction,HeatsinkPad*%
%ADD38R,3.900000X3.900000*%
%TD*%
%TA.AperFunction,SMDPad,CuDef*%
%ADD39RoundRect,0.250000X-0.650000X1.000000X-0.650000X-1.000000X0.650000X-1.000000X0.650000X1.000000X0*%
%TD*%
G04 APERTURE END LIST*
D10*
%TO.P,R6,1*%
%TO.N,/3V3*%
X65500000Y-84500000D03*
%TO.P,R6,2*%
X65500000Y-82850000D03*
%TD*%
D11*
%TO.P,SW2,1,1*%
%TO.N,/3V3*%
X94620000Y-81500000D03*
X100380000Y-81500000D03*
%TO.P,SW2,2,2*%
X94620000Y-85500000D03*
X100380000Y-85500000D03*
%TD*%
D12*
%TO.P,J2,1,Pin_1*%
%TO.N,unconnected-(J2-Pin_1-Pad1)*%
X100000000Y-56460000D03*
D13*
%TO.P,J2,2,Pin_2*%
%TO.N,/3V3*%
X100000000Y-59000000D03*
%TO.P,J2,3,Pin_3*%
X100000000Y-61540000D03*
%TD*%
D10*
%TO.P,R2,1*%
%TO.N,/3V3*%
X79500000Y-84650000D03*
%TO.P,R2,2*%
%TO.N,unconnected-(R2-Pad2)*%
X79500000Y-83000000D03*
%TD*%
%TO.P,R5,1*%
%TO.N,/3V3*%
X63500000Y-84500000D03*
%TO.P,R5,2*%
%TO.N,unconnected-(R5-Pad2)*%
X63500000Y-82850000D03*
%TD*%
D14*
%TO.P,D1,1,K*%
%TO.N,/3V3*%
X74000000Y-72820000D03*
%TO.P,D1,2,A*%
%TO.N,unconnected-(D1-A-Pad2)*%
X75575000Y-72820000D03*
%TD*%
D10*
%TO.P,R8,1*%
%TO.N,Net-(R17-Pad1)*%
X69500000Y-84500000D03*
%TO.P,R8,2*%
%TO.N,Net-(R17-Pad2)*%
X69500000Y-82850000D03*
%TD*%
D15*
%TO.P,C9,1*%
%TO.N,/3V3*%
X82010000Y-71500000D03*
%TO.P,C9,2*%
%TO.N,unconnected-(C9-Pad2)*%
X83560000Y-71500000D03*
%TD*%
D16*
%TO.P,J4,1,Pin_1*%
%TO.N,unconnected-(J4-Pin_1-Pad1)*%
X70000000Y-90500000D03*
D17*
%TO.P,J4,2,Pin_2*%
%TO.N,/3V3*%
X72000000Y-90500000D03*
%TD*%
D15*
%TO.P,C2,1*%
%TO.N,/3V3*%
X78000000Y-74010000D03*
%TO.P,C2,2*%
X79550000Y-74010000D03*
%TD*%
%TO.P,C7,1*%
%TO.N,/3V3*%
X82225000Y-76500000D03*
%TO.P,C7,2*%
X83775000Y-76500000D03*
%TD*%
D18*
%TO.P,U3,1,TEMP*%
%TO.N,/3V3*%
X76325000Y-63795000D03*
%TO.P,U3,2,PROG*%
%TO.N,unconnected-(U3-PROG-Pad2)*%
X76325000Y-65065000D03*
%TO.P,U3,3,GND*%
%TO.N,/3V3*%
X76325000Y-66335000D03*
%TO.P,U3,4,V_{CC}*%
X76325000Y-67605000D03*
%TO.P,U3,5,BAT*%
X81275000Y-67605000D03*
%TO.P,U3,6,~{STDBY}*%
%TO.N,unconnected-(U3-~{STDBY}-Pad6)*%
X81275000Y-66335000D03*
%TO.P,U3,7,~{CHRG}*%
%TO.N,/3V3*%
X81275000Y-65065000D03*
%TO.P,U3,8,CE*%
X81275000Y-63795000D03*
D19*
%TO.P,U3,9,EPAD*%
X78100000Y-64500000D03*
X78100000Y-65700000D03*
X78100000Y-66900000D03*
D20*
X78800000Y-65700000D03*
D19*
X79500000Y-64500000D03*
X79500000Y-65700000D03*
X79500000Y-66900000D03*
%TD*%
D21*
%TO.P,R17,1*%
%TO.N,Net-(R17-Pad1)*%
X75500000Y-80500000D03*
%TO.P,R17,2*%
%TO.N,Net-(R17-Pad2)*%
X73850000Y-80500000D03*
%TD*%
D10*
%TO.P,R15,1*%
%TO.N,/3V3*%
X59500000Y-84500000D03*
%TO.P,R15,2*%
%TO.N,Net-(R15-Pad2)*%
X59500000Y-82850000D03*
%TD*%
D11*
%TO.P,SW3,1,1*%
%TO.N,/3V3*%
X94620000Y-89000000D03*
X100380000Y-89000000D03*
%TO.P,SW3,2,2*%
X94620000Y-93000000D03*
X100380000Y-93000000D03*
%TD*%
D22*
%TO.P,Q1,1,B*%
%TO.N,/3V3*%
X87562500Y-83050000D03*
%TO.P,Q1,2,C*%
%TO.N,unconnected-(Q1-C-Pad2)*%
X87562500Y-84950000D03*
%TO.P,Q1,3,E*%
%TO.N,/3V3*%
X89437500Y-84000000D03*
%TD*%
D15*
%TO.P,C6,1*%
%TO.N,/3V3*%
X78000000Y-79030000D03*
%TO.P,C6,2*%
X79550000Y-79030000D03*
%TD*%
D23*
%TO.P,BZ1,1,+*%
%TO.N,unconnected-(BZ1-+-Pad1)*%
X90300000Y-59500000D03*
D24*
%TO.P,BZ1,2,-*%
%TO.N,/3V3*%
X93500000Y-59500000D03*
%TD*%
D15*
%TO.P,C5,1*%
%TO.N,/3V3*%
X78000000Y-76520000D03*
%TO.P,C5,2*%
%TO.N,Net-(C11-Pad2)*%
X79550000Y-76520000D03*
%TD*%
D10*
%TO.P,R7,1*%
%TO.N,/3V3*%
X67500000Y-84500000D03*
%TO.P,R7,2*%
X67500000Y-82850000D03*
%TD*%
D15*
%TO.P,C1,1*%
%TO.N,/3V3*%
X78000000Y-71500000D03*
%TO.P,C1,2*%
%TO.N,unconnected-(C1-Pad2)*%
X79550000Y-71500000D03*
%TD*%
D10*
%TO.P,R3,1*%
%TO.N,unconnected-(R3-Pad1)*%
X81500000Y-84650000D03*
%TO.P,R3,2*%
%TO.N,unconnected-(R3-Pad2)*%
X81500000Y-83000000D03*
%TD*%
D12*
%TO.P,J3,1,Pin_1*%
%TO.N,unconnected-(J3-Pin_1-Pad1)*%
X79880000Y-92000000D03*
D13*
%TO.P,J3,2,Pin_2*%
%TO.N,unconnected-(J3-Pin_2-Pad2)*%
X82420000Y-92000000D03*
%TO.P,J3,3,Pin_3*%
%TO.N,unconnected-(J3-Pin_3-Pad3)*%
X84960000Y-92000000D03*
%TO.P,J3,4,Pin_4*%
%TO.N,unconnected-(J3-Pin_4-Pad4)*%
X87500000Y-92000000D03*
%TD*%
D10*
%TO.P,R11,1*%
%TO.N,unconnected-(R11-Pad1)*%
X53500000Y-84500000D03*
%TO.P,R11,2*%
%TO.N,unconnected-(R11-Pad2)*%
X53500000Y-82850000D03*
%TD*%
%TO.P,R1,1*%
%TO.N,/3V3*%
X77500000Y-84650000D03*
%TO.P,R1,2*%
%TO.N,unconnected-(R1-Pad2)*%
X77500000Y-83000000D03*
%TD*%
D25*
%TO.P,J1,1,Pin_1*%
%TO.N,unconnected-(J1-Pin_1-Pad1)*%
X58875000Y-87365000D03*
D26*
%TO.P,J1,2,Pin_2*%
%TO.N,unconnected-(J1-Pin_2-Pad2)*%
X59875000Y-87365000D03*
D27*
%TO.P,J1,3,Pin_3*%
%TO.N,unconnected-(J1-Pin_3-Pad3)*%
X60895000Y-87365000D03*
D28*
%TO.P,J1,4,Pin_4*%
%TO.N,unconnected-(J1-Pin_4-Pad4)*%
X57855000Y-87365000D03*
D29*
%TO.P,J1,5,Pin_5*%
%TO.N,/3V3*%
X62125000Y-87365000D03*
D30*
%TO.P,J1,6,Pin_6*%
%TO.N,unconnected-(J1-Pin_6-Pad6)*%
X56625000Y-87365000D03*
D31*
%TO.P,J1,7,Pin_7*%
%TO.N,unconnected-(J1-Pin_7-Pad7)*%
X54250000Y-87420000D03*
D32*
%TO.P,J1,8,Pin_8*%
%TO.N,/3V3*%
X54250000Y-91000000D03*
D31*
%TO.P,J1,9,Pin_9*%
X64500000Y-87420000D03*
D32*
%TO.P,J1,10,Pin_10*%
X64500000Y-91000000D03*
%TD*%
D10*
%TO.P,R12,1*%
%TO.N,/3V3*%
X55500000Y-84500000D03*
%TO.P,R12,2*%
X55500000Y-82850000D03*
%TD*%
D33*
%TO.P,U4,1,VIN*%
%TO.N,/3V3*%
X87225000Y-75600000D03*
%TO.P,U4,2,GND*%
X87225000Y-76550000D03*
%TO.P,U4,3,EN*%
X87225000Y-77500000D03*
%TO.P,U4,4,NC*%
%TO.N,unconnected-(U4-NC-Pad4)*%
X89500000Y-77500000D03*
%TO.P,U4,5,VOUT*%
%TO.N,unconnected-(U4-VOUT-Pad5)*%
X89500000Y-75600000D03*
%TD*%
D10*
%TO.P,R4,1*%
%TO.N,unconnected-(R4-Pad1)*%
X75500000Y-84500000D03*
%TO.P,R4,2*%
%TO.N,/Q1_BASE*%
X75500000Y-82850000D03*
%TD*%
%TO.P,R16,1*%
%TO.N,/3V3*%
X61500000Y-84500000D03*
%TO.P,R16,2*%
%TO.N,Net-(R15-Pad2)*%
X61500000Y-82850000D03*
%TD*%
D34*
%TO.P,C10,1*%
%TO.N,unconnected-(C10-Pad1)*%
X94400000Y-68000000D03*
%TO.P,C10,2*%
%TO.N,/3V3*%
X100000000Y-68000000D03*
%TD*%
D15*
%TO.P,C8,1*%
%TO.N,/3V3*%
X82225000Y-79010000D03*
%TO.P,C8,2*%
X83775000Y-79010000D03*
%TD*%
D14*
%TO.P,D4,1,K*%
%TO.N,/3V3*%
X74000000Y-75410000D03*
%TO.P,D4,2,A*%
%TO.N,unconnected-(D4-A-Pad2)*%
X75575000Y-75410000D03*
%TD*%
D10*
%TO.P,R13,1*%
%TO.N,unconnected-(R13-Pad1)*%
X57500000Y-84500000D03*
%TO.P,R13,2*%
%TO.N,/3V3*%
X57500000Y-82850000D03*
%TD*%
D35*
%TO.P,U1,1,GND*%
%TO.N,Net-(U1-GND-Pad1)*%
X53850000Y-62490000D03*
%TO.P,U1,2,3V3*%
%TO.N,unconnected-(U1-3V3-Pad2)*%
X53850000Y-63760000D03*
%TO.P,U1,3,EN*%
%TO.N,/3V3*%
X53850000Y-65030000D03*
%TO.P,U1,4,IO4*%
%TO.N,unconnected-(U1-IO4-Pad4)*%
X53850000Y-66300000D03*
%TO.P,U1,5,IO5*%
%TO.N,unconnected-(U1-IO5-Pad5)*%
X53850000Y-67570000D03*
%TO.P,U1,6,IO6*%
%TO.N,unconnected-(U1-IO6-Pad6)*%
X53850000Y-68840000D03*
%TO.P,U1,7,IO7*%
%TO.N,unconnected-(U1-IO7-Pad7)*%
X53850000Y-70110000D03*
%TO.P,U1,8,IO15*%
%TO.N,/3V3*%
X53850000Y-71380000D03*
%TO.P,U1,9,IO16*%
%TO.N,unconnected-(U1-IO16-Pad9)*%
X53850000Y-72650000D03*
%TO.P,U1,10,IO17*%
%TO.N,unconnected-(U1-IO17-Pad10)*%
X53850000Y-73920000D03*
%TO.P,U1,11,IO18*%
%TO.N,unconnected-(U1-IO18-Pad11)*%
X53850000Y-75190000D03*
%TO.P,U1,12,IO8*%
%TO.N,/3V3*%
X53850000Y-76460000D03*
%TO.P,U1,13,USB_D-*%
%TO.N,unconnected-(U1-USB_D--Pad13)*%
X53850000Y-77730000D03*
%TO.P,U1,14,USB_D+*%
%TO.N,unconnected-(U1-USB_D+-Pad14)*%
X53850000Y-79000000D03*
D36*
%TO.P,U1,15,IO3*%
%TO.N,unconnected-(U1-IO3-Pad15)*%
X55615000Y-80250000D03*
%TO.P,U1,16,IO46*%
%TO.N,unconnected-(U1-IO46-Pad16)*%
X56885000Y-80250000D03*
%TO.P,U1,17,IO9*%
%TO.N,/3V3*%
X58155000Y-80250000D03*
%TO.P,U1,18,IO10*%
X59425000Y-80250000D03*
%TO.P,U1,19,IO11*%
X60695000Y-80250000D03*
%TO.P,U1,20,IO12*%
X61965000Y-80250000D03*
%TO.P,U1,21,IO13*%
X63235000Y-80250000D03*
%TO.P,U1,22,IO14*%
X64505000Y-80250000D03*
%TO.P,U1,23,IO21*%
%TO.N,unconnected-(U1-IO21-Pad23)*%
X65775000Y-80250000D03*
%TO.P,U1,24,IO47*%
%TO.N,unconnected-(U1-IO47-Pad24)*%
X67045000Y-80250000D03*
%TO.P,U1,25,IO48*%
%TO.N,unconnected-(U1-IO48-Pad25)*%
X68315000Y-80250000D03*
%TO.P,U1,26,IO45*%
%TO.N,unconnected-(U1-IO45-Pad26)*%
X69585000Y-80250000D03*
D35*
%TO.P,U1,27,IO0*%
%TO.N,unconnected-(U1-IO0-Pad27)*%
X71350000Y-79000000D03*
%TO.P,U1,28,IO35*%
%TO.N,unconnected-(U1-IO35-Pad28)*%
X71350000Y-77730000D03*
%TO.P,U1,29,IO36*%
%TO.N,unconnected-(U1-IO36-Pad29)*%
X71350000Y-76460000D03*
%TO.P,U1,30,IO37*%
%TO.N,unconnected-(U1-IO37-Pad30)*%
X71350000Y-75190000D03*
%TO.P,U1,31,IO38*%
%TO.N,unconnected-(U1-IO38-Pad31)*%
X71350000Y-73920000D03*
%TO.P,U1,32,IO39*%
%TO.N,unconnected-(U1-IO39-Pad32)*%
X71350000Y-72650000D03*
%TO.P,U1,33,IO40*%
%TO.N,unconnected-(U1-IO40-Pad33)*%
X71350000Y-71380000D03*
%TO.P,U1,34,IO41*%
%TO.N,unconnected-(U1-IO41-Pad34)*%
X71350000Y-70110000D03*
%TO.P,U1,35,IO42*%
%TO.N,unconnected-(U1-IO42-Pad35)*%
X71350000Y-68840000D03*
%TO.P,U1,36,RXD0*%
%TO.N,unconnected-(U1-RXD0-Pad36)*%
X71350000Y-67570000D03*
%TO.P,U1,37,TXD0*%
%TO.N,unconnected-(U1-TXD0-Pad37)*%
X71350000Y-66300000D03*
%TO.P,U1,38,IO2*%
%TO.N,unconnected-(U1-IO2-Pad38)*%
X71350000Y-65030000D03*
%TO.P,U1,39,IO1*%
%TO.N,unconnected-(U1-IO1-Pad39)*%
X71350000Y-63760000D03*
%TO.P,U1,40,GND*%
%TO.N,Net-(U1-GND-Pad1)*%
X71350000Y-62490000D03*
D37*
%TO.P,U1,41,GND*%
X59700000Y-69510000D03*
X59700000Y-70910000D03*
X60400000Y-68810000D03*
X60400000Y-70210000D03*
X60400000Y-71610000D03*
X61100000Y-69510000D03*
D38*
X61100000Y-70210000D03*
D37*
X61100000Y-70910000D03*
X61800000Y-68810000D03*
X61800000Y-70210000D03*
X61800000Y-71610000D03*
X62500000Y-69510000D03*
X62500000Y-70910000D03*
%TD*%
D39*
%TO.P,D3,1,K*%
%TO.N,/3V3*%
X88500000Y-67000000D03*
%TO.P,D3,2,A*%
%TO.N,unconnected-(D3-A-Pad2)*%
X88500000Y-71000000D03*
%TD*%
D14*
%TO.P,D5,1,K*%
%TO.N,/3V3*%
X74000000Y-78000000D03*
%TO.P,D5,2,A*%
%TO.N,unconnected-(D5-A-Pad2)*%
X75575000Y-78000000D03*
%TD*%
D10*
%TO.P,R9,1*%
%TO.N,/3V3*%
X71500000Y-84500000D03*
%TO.P,R9,2*%
%TO.N,unconnected-(R9-Pad2)*%
X71500000Y-82850000D03*
%TD*%
D15*
%TO.P,C11,1*%
%TO.N,/3V3*%
X82010000Y-74010000D03*
%TO.P,C11,2*%
%TO.N,Net-(C11-Pad2)*%
X83560000Y-74010000D03*
%TD*%
D10*
%TO.P,R10,1*%
%TO.N,unconnected-(R10-Pad1)*%
X73500000Y-84500000D03*
%TO.P,R10,2*%
%TO.N,unconnected-(R10-Pad2)*%
X73500000Y-82850000D03*
%TD*%
D11*
%TO.P,SW1,1,1*%
%TO.N,/3V3*%
X94620000Y-74000000D03*
X100380000Y-74000000D03*
%TO.P,SW1,2,2*%
X94620000Y-78000000D03*
X100380000Y-78000000D03*
%TD*%
M02*
