%TF.GenerationSoftware,KiCad,Pcbnew,9.0.7*%
%TF.CreationDate,2026-04-14T10:40:18+05:30*%
%TF.ProjectId,Pill_Dispenser_V4,50696c6c-5f44-4697-9370-656e7365725f,rev?*%
%TF.SameCoordinates,Original*%
%TF.FileFunction,Copper,L1,Top*%
%TF.FilePolarity,Positive*%
%FSLAX46Y46*%
G04 Gerber Fmt 4.6, Leading zero omitted, Abs format (unit mm)*
G04 Created by KiCad (PCBNEW 9.0.7) date 2026-04-14 10:40:18*
%MOMM*%
%LPD*%
G01*
G04 APERTURE LIST*
G04 Aperture macros list*
%AMRoundRect*
0 Rectangle with rounded corners*
0 $1 Rounding radius*
0 $2 $3 $4 $5 $6 $7 $8 $9 X,Y pos of 4 corners*
0 Add a 4 corners polygon primitive as box body*
4,1,4,$2,$3,$4,$5,$6,$7,$8,$9,$2,$3,0*
0 Add four circle primitives for the rounded corners*
1,1,$1+$1,$2,$3*
1,1,$1+$1,$4,$5*
1,1,$1+$1,$6,$7*
1,1,$1+$1,$8,$9*
0 Add four rect primitives between the rounded corners*
20,1,$1+$1,$2,$3,$4,$5,0*
20,1,$1+$1,$4,$5,$6,$7,0*
20,1,$1+$1,$6,$7,$8,$9,0*
20,1,$1+$1,$8,$9,$2,$3,0*%
G04 Aperture macros list end*
%TA.AperFunction,SMDPad,CuDef*%
%ADD10RoundRect,0.200000X0.275000X-0.200000X0.275000X0.200000X-0.275000X0.200000X-0.275000X-0.200000X0*%
%TD*%
%TA.AperFunction,SMDPad,CuDef*%
%ADD11R,2.750000X1.000000*%
%TD*%
%TA.AperFunction,ComponentPad*%
%ADD12R,1.700000X1.700000*%
%TD*%
%TA.AperFunction,ComponentPad*%
%ADD13C,1.700000*%
%TD*%
%TA.AperFunction,SMDPad,CuDef*%
%ADD14RoundRect,0.218750X-0.218750X-0.256250X0.218750X-0.256250X0.218750X0.256250X-0.218750X0.256250X0*%
%TD*%
%TA.AperFunction,SMDPad,CuDef*%
%ADD15RoundRect,0.225000X-0.225000X-0.250000X0.225000X-0.250000X0.225000X0.250000X-0.225000X0.250000X0*%
%TD*%
%TA.AperFunction,ComponentPad*%
%ADD16RoundRect,0.250000X-0.350000X-0.625000X0.350000X-0.625000X0.350000X0.625000X-0.350000X0.625000X0*%
%TD*%
%TA.AperFunction,ComponentPad*%
%ADD17O,1.200000X1.750000*%
%TD*%
%TA.AperFunction,SMDPad,CuDef*%
%ADD18RoundRect,0.150000X-0.825000X-0.150000X0.825000X-0.150000X0.825000X0.150000X-0.825000X0.150000X0*%
%TD*%
%TA.AperFunction,HeatsinkPad*%
%ADD19C,0.500000*%
%TD*%
%TA.AperFunction,HeatsinkPad*%
%ADD20R,2.410000X3.300000*%
%TD*%
%TA.AperFunction,SMDPad,CuDef*%
%ADD21RoundRect,0.200000X0.200000X0.275000X-0.200000X0.275000X-0.200000X-0.275000X0.200000X-0.275000X0*%
%TD*%
%TA.AperFunction,SMDPad,CuDef*%
%ADD22RoundRect,0.150000X-0.587500X-0.150000X0.587500X-0.150000X0.587500X0.150000X-0.587500X0.150000X0*%
%TD*%
%TA.AperFunction,ComponentPad*%
%ADD23R,1.600000X1.600000*%
%TD*%
%TA.AperFunction,ComponentPad*%
%ADD24C,1.600000*%
%TD*%
%TA.AperFunction,SMDPad,CuDef*%
%ADD25RoundRect,0.175000X-0.175000X-0.425000X0.175000X-0.425000X0.175000X0.425000X-0.175000X0.425000X0*%
%TD*%
%TA.AperFunction,SMDPad,CuDef*%
%ADD26RoundRect,0.175000X0.175000X0.425000X-0.175000X0.425000X-0.175000X-0.425000X0.175000X-0.425000X0*%
%TD*%
%TA.AperFunction,SMDPad,CuDef*%
%ADD27RoundRect,0.190000X0.190000X0.410000X-0.190000X0.410000X-0.190000X-0.410000X0.190000X-0.410000X0*%
%TD*%
%TA.AperFunction,SMDPad,CuDef*%
%ADD28RoundRect,0.190000X-0.190000X-0.410000X0.190000X-0.410000X0.190000X0.410000X-0.190000X0.410000X0*%
%TD*%
%TA.AperFunction,SMDPad,CuDef*%
%ADD29RoundRect,0.200000X0.200000X0.400000X-0.200000X0.400000X-0.200000X-0.400000X0.200000X-0.400000X0*%
%TD*%
%TA.AperFunction,SMDPad,CuDef*%
%ADD30RoundRect,0.200000X-0.200000X-0.400000X0.200000X-0.400000X0.200000X0.400000X-0.200000X0.400000X0*%
%TD*%
%TA.AperFunction,SMDPad,CuDef*%
%ADD31RoundRect,0.250000X-0.650000X-0.425000X0.650000X-0.425000X0.650000X0.425000X-0.650000X0.425000X0*%
%TD*%
%TA.AperFunction,SMDPad,CuDef*%
%ADD32RoundRect,0.250000X-0.650000X-0.500000X0.650000X-0.500000X0.650000X0.500000X-0.650000X0.500000X0*%
%TD*%
%TA.AperFunction,SMDPad,CuDef*%
%ADD33RoundRect,0.150000X-0.512500X-0.150000X0.512500X-0.150000X0.512500X0.150000X-0.512500X0.150000X0*%
%TD*%
%TA.AperFunction,SMDPad,CuDef*%
%ADD34RoundRect,0.250000X-1.500000X-0.550000X1.500000X-0.550000X1.500000X0.550000X-1.500000X0.550000X0*%
%TD*%
%TA.AperFunction,SMDPad,CuDef*%
%ADD35R,1.500000X0.900000*%
%TD*%
%TA.AperFunction,SMDPad,CuDef*%
%ADD36R,0.900000X1.500000*%
%TD*%
%TA.AperFunction,HeatsinkPad*%
%ADD37C,0.600000*%
%TD*%
%TA.AperFunction,HeatsinkPad*%
%ADD38R,3.900000X3.900000*%
%TD*%
%TA.AperFunction,SMDPad,CuDef*%
%ADD39RoundRect,0.250000X-0.650000X1.000000X-0.650000X-1.000000X0.650000X-1.000000X0.650000X1.000000X0*%
%TD*%
%TA.AperFunction,ViaPad*%
%ADD40C,0.600000*%
%TD*%
%TA.AperFunction,Conductor*%
%ADD41C,0.200000*%
%TD*%
%TA.AperFunction,Profile*%
%ADD42C,0.050000*%
%TD*%
G04 APERTURE END LIST*
D10*
%TO.P,R6,1*%
%TO.N,/SDA*%
X65500000Y-84500000D03*
%TO.P,R6,2*%
%TO.N,/3V3*%
X65500000Y-82850000D03*
%TD*%
D11*
%TO.P,SW2,1,1*%
%TO.N,GND*%
X94620000Y-81500000D03*
X100380000Y-81500000D03*
%TO.P,SW2,2,2*%
%TO.N,Net-(U1-IO0)*%
X94620000Y-85500000D03*
X100380000Y-85500000D03*
%TD*%
D12*
%TO.P,J2,1,Pin_1*%
%TO.N,GND*%
X100000000Y-56460000D03*
D13*
%TO.P,J2,2,Pin_2*%
%TO.N,/VBAT*%
X100000000Y-59000000D03*
%TO.P,J2,3,Pin_3*%
%TO.N,Net-(J2-Pin_3)*%
X100000000Y-61540000D03*
%TD*%
D10*
%TO.P,R2,1*%
%TO.N,Net-(D4-A)*%
X79500000Y-84650000D03*
%TO.P,R2,2*%
%TO.N,/3V3*%
X79500000Y-83000000D03*
%TD*%
%TO.P,R5,1*%
%TO.N,/3V3*%
X63500000Y-84500000D03*
%TO.P,R5,2*%
%TO.N,unconnected-(R5-Pad2)*%
X63500000Y-82850000D03*
%TD*%
D14*
%TO.P,D1,1,K*%
%TO.N,GND*%
X74000000Y-72820000D03*
%TO.P,D1,2,A*%
%TO.N,Net-(D1-A)*%
X75575000Y-72820000D03*
%TD*%
D10*
%TO.P,R8,1*%
%TO.N,/3V3*%
X69500000Y-84500000D03*
%TO.P,R8,2*%
%TO.N,Net-(U1-IO0)*%
X69500000Y-82850000D03*
%TD*%
D15*
%TO.P,C9,1*%
%TO.N,/3V3*%
X82960000Y-71500000D03*
%TO.P,C9,2*%
%TO.N,GND*%
X84510000Y-71500000D03*
%TD*%
D16*
%TO.P,J4,1,Pin_1*%
%TO.N,/VBAT*%
X70000000Y-90500000D03*
D17*
%TO.P,J4,2,Pin_2*%
%TO.N,GND*%
X72000000Y-90500000D03*
%TD*%
D15*
%TO.P,C2,1*%
%TO.N,/3V3*%
X78950000Y-74010000D03*
%TO.P,C2,2*%
%TO.N,GND*%
X80500000Y-74010000D03*
%TD*%
%TO.P,C7,1*%
%TO.N,/3V3*%
X83175000Y-76500000D03*
%TO.P,C7,2*%
%TO.N,GND*%
X84725000Y-76500000D03*
%TD*%
D18*
%TO.P,U3,1,TEMP*%
%TO.N,GND*%
X76325000Y-63795000D03*
%TO.P,U3,2,PROG*%
%TO.N,Net-(U3-PROG)*%
X76325000Y-65065000D03*
%TO.P,U3,3,GND*%
%TO.N,GND*%
X76325000Y-66335000D03*
%TO.P,U3,4,V_{CC}*%
%TO.N,Net-(D3-K)*%
X76325000Y-67605000D03*
%TO.P,U3,5,BAT*%
%TO.N,/VBAT*%
X81275000Y-67605000D03*
%TO.P,U3,6,~{STDBY}*%
%TO.N,/STDBY*%
X81275000Y-66335000D03*
%TO.P,U3,7,~{CHRG}*%
%TO.N,/CHRG*%
X81275000Y-65065000D03*
%TO.P,U3,8,CE*%
%TO.N,/VBUS*%
X81275000Y-63795000D03*
D19*
%TO.P,U3,9,EPAD*%
%TO.N,GND*%
X78100000Y-64500000D03*
X78100000Y-65700000D03*
X78100000Y-66900000D03*
D20*
X78800000Y-65700000D03*
D19*
X79500000Y-64500000D03*
X79500000Y-65700000D03*
X79500000Y-66900000D03*
%TD*%
D21*
%TO.P,R17,1*%
%TO.N,Net-(U1-IO10)*%
X75500000Y-80500000D03*
%TO.P,R17,2*%
%TO.N,/3V3*%
X73850000Y-80500000D03*
%TD*%
D10*
%TO.P,R15,1*%
%TO.N,Net-(U1-USB_D-)*%
X59500000Y-84500000D03*
%TO.P,R15,2*%
%TO.N,/USB_DN*%
X59500000Y-82850000D03*
%TD*%
D11*
%TO.P,SW3,1,1*%
%TO.N,GND*%
X94620000Y-89000000D03*
X100380000Y-89000000D03*
%TO.P,SW3,2,2*%
%TO.N,Net-(U1-EN)*%
X94620000Y-93000000D03*
X100380000Y-93000000D03*
%TD*%
D22*
%TO.P,Q1,1,B*%
%TO.N,Net-(Q1-B)*%
X87562500Y-83050000D03*
%TO.P,Q1,2,C*%
%TO.N,GND*%
X87562500Y-84950000D03*
%TO.P,Q1,3,E*%
%TO.N,Net-(BZ1--)*%
X89437500Y-84000000D03*
%TD*%
D15*
%TO.P,C6,1*%
%TO.N,/3V3*%
X78950000Y-79030000D03*
%TO.P,C6,2*%
%TO.N,GND*%
X80500000Y-79030000D03*
%TD*%
D23*
%TO.P,BZ1,1,+*%
%TO.N,/3V3*%
X90300000Y-59500000D03*
D24*
%TO.P,BZ1,2,-*%
%TO.N,Net-(BZ1--)*%
X93500000Y-59500000D03*
%TD*%
D15*
%TO.P,C5,1*%
%TO.N,/3V3*%
X78950000Y-76520000D03*
%TO.P,C5,2*%
%TO.N,GND*%
X80500000Y-76520000D03*
%TD*%
D10*
%TO.P,R7,1*%
%TO.N,/SCL*%
X67500000Y-84500000D03*
%TO.P,R7,2*%
%TO.N,/3V3*%
X67500000Y-82850000D03*
%TD*%
D15*
%TO.P,C1,1*%
%TO.N,/VBAT*%
X78950000Y-71500000D03*
%TO.P,C1,2*%
%TO.N,GND*%
X80500000Y-71500000D03*
%TD*%
D10*
%TO.P,R3,1*%
%TO.N,/3V3*%
X81500000Y-84650000D03*
%TO.P,R3,2*%
%TO.N,Net-(U1-EN)*%
X81500000Y-83000000D03*
%TD*%
D12*
%TO.P,J3,1,Pin_1*%
%TO.N,/3V3*%
X79880000Y-92000000D03*
D13*
%TO.P,J3,2,Pin_2*%
%TO.N,GND*%
X82420000Y-92000000D03*
%TO.P,J3,3,Pin_3*%
%TO.N,/SDA*%
X84960000Y-92000000D03*
%TO.P,J3,4,Pin_4*%
%TO.N,/SCL*%
X87500000Y-92000000D03*
%TD*%
D10*
%TO.P,R11,1*%
%TO.N,Net-(J1-Pin_5)*%
X53500000Y-84500000D03*
%TO.P,R11,2*%
%TO.N,GND*%
X53500000Y-82850000D03*
%TD*%
%TO.P,R1,1*%
%TO.N,Net-(D1-A)*%
X77500000Y-84650000D03*
%TO.P,R1,2*%
%TO.N,/STATUS*%
X77500000Y-83000000D03*
%TD*%
D25*
%TO.P,J1,1,Pin_1*%
%TO.N,GND*%
X58875000Y-87365000D03*
D26*
%TO.P,J1,2,Pin_2*%
X59875000Y-87365000D03*
D27*
%TO.P,J1,3,Pin_3*%
%TO.N,unconnected-(J1-Pin_3-Pad3)*%
X60895000Y-87365000D03*
D28*
%TO.P,J1,4,Pin_4*%
%TO.N,/VBUS*%
X57855000Y-87365000D03*
D29*
%TO.P,J1,5,Pin_5*%
%TO.N,Net-(J1-Pin_5)*%
X62125000Y-87365000D03*
D30*
%TO.P,J1,6,Pin_6*%
%TO.N,/USB_DP*%
X56625000Y-87365000D03*
D31*
%TO.P,J1,7,Pin_7*%
%TO.N,/USB_DN*%
X54250000Y-87420000D03*
D32*
%TO.P,J1,8,Pin_8*%
%TO.N,unconnected-(J1-Pin_8-Pad8)*%
X54250000Y-91000000D03*
D31*
%TO.P,J1,9,Pin_9*%
%TO.N,/VBUS*%
X64500000Y-87420000D03*
D32*
%TO.P,J1,10,Pin_10*%
%TO.N,unconnected-(J1-Pin_10-Pad10)*%
X64500000Y-91000000D03*
%TD*%
D10*
%TO.P,R12,1*%
%TO.N,Net-(J1-Pin_13)*%
X55500000Y-84500000D03*
%TO.P,R12,2*%
%TO.N,GND*%
X55500000Y-82850000D03*
%TD*%
%TO.P,R18,1*%
%TO.N,Net-(D5-A)*%
X84000000Y-84650000D03*
%TO.P,R18,2*%
%TO.N,/3V3*%
X84000000Y-83000000D03*
%TD*%
D33*
%TO.P,U4,1,VIN*%
%TO.N,/VBAT*%
X87225000Y-75600000D03*
%TO.P,U4,2,GND*%
%TO.N,GND*%
X87225000Y-76550000D03*
%TO.P,U4,3,EN*%
%TO.N,/3V3*%
X87225000Y-77500000D03*
%TO.P,U4,4,NC*%
%TO.N,unconnected-(U4-NC-Pad4)*%
X89500000Y-77500000D03*
%TO.P,U4,5,VOUT*%
%TO.N,/3V3*%
X89500000Y-75600000D03*
%TD*%
D10*
%TO.P,R4,1*%
%TO.N,Net-(Q1-B)*%
X75500000Y-84500000D03*
%TO.P,R4,2*%
%TO.N,Net-(U1-IO5)*%
X75500000Y-82850000D03*
%TD*%
%TO.P,R16,1*%
%TO.N,Net-(U1-USB_D+)*%
X61500000Y-84500000D03*
%TO.P,R16,2*%
%TO.N,/USB_DP*%
X61500000Y-82850000D03*
%TD*%
D34*
%TO.P,C10,1*%
%TO.N,/VBAT*%
X94400000Y-68000000D03*
%TO.P,C10,2*%
%TO.N,GND*%
X100000000Y-68000000D03*
%TD*%
D15*
%TO.P,C8,1*%
%TO.N,/3V3*%
X83175000Y-79010000D03*
%TO.P,C8,2*%
%TO.N,GND*%
X84725000Y-79010000D03*
%TD*%
D14*
%TO.P,D4,1,K*%
%TO.N,/CHRG*%
X74000000Y-75410000D03*
%TO.P,D4,2,A*%
%TO.N,Net-(D4-A)*%
X75575000Y-75410000D03*
%TD*%
D10*
%TO.P,R13,1*%
%TO.N,unconnected-(R13-Pad1)*%
X57500000Y-84500000D03*
%TO.P,R13,2*%
%TO.N,/3V3*%
X57500000Y-82850000D03*
%TD*%
D35*
%TO.P,U1,1,GND*%
%TO.N,GND*%
X53850000Y-62490000D03*
%TO.P,U1,2,3V3*%
%TO.N,/3V3*%
X53850000Y-63760000D03*
%TO.P,U1,3,EN*%
%TO.N,Net-(U1-EN)*%
X53850000Y-65030000D03*
%TO.P,U1,4,IO4*%
%TO.N,Net-(J2-Pin_3)*%
X53850000Y-66300000D03*
%TO.P,U1,5,IO5*%
%TO.N,Net-(U1-IO5)*%
X53850000Y-67570000D03*
%TO.P,U1,6,IO6*%
%TO.N,unconnected-(U1-IO6-Pad6)*%
X53850000Y-68840000D03*
%TO.P,U1,7,IO7*%
%TO.N,unconnected-(U1-IO7-Pad7)*%
X53850000Y-70110000D03*
%TO.P,U1,8,IO15*%
%TO.N,unconnected-(U1-IO15-Pad8)*%
X53850000Y-71380000D03*
%TO.P,U1,9,IO16*%
%TO.N,unconnected-(U1-IO16-Pad9)*%
X53850000Y-72650000D03*
%TO.P,U1,10,IO17*%
%TO.N,unconnected-(U1-IO17-Pad10)*%
X53850000Y-73920000D03*
%TO.P,U1,11,IO18*%
%TO.N,unconnected-(U1-IO18-Pad11)*%
X53850000Y-75190000D03*
%TO.P,U1,12,IO8*%
%TO.N,/SDA*%
X53850000Y-76460000D03*
%TO.P,U1,13,USB_D-*%
%TO.N,Net-(U1-USB_D-)*%
X53850000Y-77730000D03*
%TO.P,U1,14,USB_D+*%
%TO.N,Net-(U1-USB_D+)*%
X53850000Y-79000000D03*
D36*
%TO.P,U1,15,IO3*%
%TO.N,unconnected-(U1-IO3-Pad15)*%
X55615000Y-80250000D03*
%TO.P,U1,16,IO46*%
%TO.N,unconnected-(U1-IO46-Pad16)*%
X56885000Y-80250000D03*
%TO.P,U1,17,IO9*%
%TO.N,/SCL*%
X58155000Y-80250000D03*
%TO.P,U1,18,IO10*%
%TO.N,Net-(U1-IO10)*%
X59425000Y-80250000D03*
%TO.P,U1,19,IO11*%
%TO.N,unconnected-(U1-IO11-Pad19)*%
X60695000Y-80250000D03*
%TO.P,U1,20,IO12*%
%TO.N,unconnected-(U1-IO12-Pad20)*%
X61965000Y-80250000D03*
%TO.P,U1,21,IO13*%
%TO.N,unconnected-(U1-IO13-Pad21)*%
X63235000Y-80250000D03*
%TO.P,U1,22,IO14*%
%TO.N,unconnected-(U1-IO14-Pad22)*%
X64505000Y-80250000D03*
%TO.P,U1,23,IO21*%
%TO.N,unconnected-(U1-IO21-Pad23)*%
X65775000Y-80250000D03*
%TO.P,U1,24,IO47*%
%TO.N,unconnected-(U1-IO47-Pad24)*%
X67045000Y-80250000D03*
%TO.P,U1,25,IO48*%
%TO.N,unconnected-(U1-IO48-Pad25)*%
X68315000Y-80250000D03*
%TO.P,U1,26,IO45*%
%TO.N,unconnected-(U1-IO45-Pad26)*%
X69585000Y-80250000D03*
D35*
%TO.P,U1,27,IO0*%
%TO.N,Net-(U1-IO0)*%
X71350000Y-79000000D03*
%TO.P,U1,28,IO35*%
%TO.N,unconnected-(U1-IO35-Pad28)*%
X71350000Y-77730000D03*
%TO.P,U1,29,IO36*%
%TO.N,unconnected-(U1-IO36-Pad29)*%
X71350000Y-76460000D03*
%TO.P,U1,30,IO37*%
%TO.N,unconnected-(U1-IO37-Pad30)*%
X71350000Y-75190000D03*
%TO.P,U1,31,IO38*%
%TO.N,unconnected-(U1-IO38-Pad31)*%
X71350000Y-73920000D03*
%TO.P,U1,32,IO39*%
%TO.N,unconnected-(U1-IO39-Pad32)*%
X71350000Y-72650000D03*
%TO.P,U1,33,IO40*%
%TO.N,unconnected-(U1-IO40-Pad33)*%
X71350000Y-71380000D03*
%TO.P,U1,34,IO41*%
%TO.N,unconnected-(U1-IO41-Pad34)*%
X71350000Y-70110000D03*
%TO.P,U1,35,IO42*%
%TO.N,unconnected-(U1-IO42-Pad35)*%
X71350000Y-68840000D03*
%TO.P,U1,36,RXD0*%
%TO.N,unconnected-(U1-RXD0-Pad36)*%
X71350000Y-67570000D03*
%TO.P,U1,37,TXD0*%
%TO.N,unconnected-(U1-TXD0-Pad37)*%
X71350000Y-66300000D03*
%TO.P,U1,38,IO2*%
%TO.N,unconnected-(U1-IO2-Pad38)*%
X71350000Y-65030000D03*
%TO.P,U1,39,IO1*%
%TO.N,/STATUS*%
X71350000Y-63760000D03*
%TO.P,U1,40,GND*%
%TO.N,GND*%
X71350000Y-62490000D03*
D37*
%TO.P,U1,41,GND*%
X59700000Y-69510000D03*
X59700000Y-70910000D03*
X60400000Y-68810000D03*
X60400000Y-70210000D03*
X60400000Y-71610000D03*
X61100000Y-69510000D03*
D38*
X61100000Y-70210000D03*
D37*
X61100000Y-70910000D03*
X61800000Y-68810000D03*
X61800000Y-70210000D03*
X61800000Y-71610000D03*
X62500000Y-69510000D03*
X62500000Y-70910000D03*
%TD*%
D39*
%TO.P,D3,1,K*%
%TO.N,Net-(D3-K)*%
X88500000Y-67000000D03*
%TO.P,D3,2,A*%
%TO.N,/VBUS*%
X88500000Y-71000000D03*
%TD*%
D14*
%TO.P,D5,1,K*%
%TO.N,/STDBY*%
X74000000Y-78000000D03*
%TO.P,D5,2,A*%
%TO.N,Net-(D5-A)*%
X75575000Y-78000000D03*
%TD*%
D10*
%TO.P,R9,1*%
%TO.N,/3V3*%
X71500000Y-84500000D03*
%TO.P,R9,2*%
%TO.N,unconnected-(R9-Pad2)*%
X71500000Y-82850000D03*
%TD*%
D15*
%TO.P,C11,1*%
%TO.N,GND*%
X82960000Y-74010000D03*
%TO.P,C11,2*%
%TO.N,/3V3*%
X84510000Y-74010000D03*
%TD*%
D10*
%TO.P,R10,1*%
%TO.N,unconnected-(R10-Pad1)*%
X73500000Y-84500000D03*
%TO.P,R10,2*%
%TO.N,unconnected-(R10-Pad2)*%
X73500000Y-82850000D03*
%TD*%
D11*
%TO.P,SW1,1,1*%
%TO.N,GND*%
X94620000Y-74000000D03*
X100380000Y-74000000D03*
%TO.P,SW1,2,2*%
%TO.N,Net-(U1-IO10)*%
X94620000Y-78000000D03*
X100380000Y-78000000D03*
%TD*%
D40*
%TO.N,Net-(U1-IO10)*%
X67319700Y-78471300D03*
X77261600Y-80500000D03*
%TO.N,Net-(U1-USB_D-)*%
X60868800Y-85611400D03*
X56041300Y-78471300D03*
%TO.N,Net-(U1-IO5)*%
X68641500Y-73028200D03*
X74500000Y-82786900D03*
%TO.N,Net-(U1-EN)*%
X83132300Y-90001600D03*
X82554700Y-82801700D03*
X65922000Y-65958300D03*
X70357300Y-88132300D03*
%TO.N,/STATUS*%
X73438900Y-64783000D03*
X73049500Y-81780500D03*
%TO.N,/SDA*%
X64380600Y-83757900D03*
X60299700Y-75752600D03*
%TO.N,/SCL*%
X66537900Y-76961200D03*
X66686700Y-83583600D03*
%TO.N,/USB_DN*%
X60511300Y-83473000D03*
X53931500Y-88655100D03*
%TO.N,/USB_DP*%
X61400100Y-81934500D03*
X60929500Y-89408800D03*
%TO.N,Net-(J1-Pin_5)*%
X62080900Y-89703400D03*
X62658400Y-85586000D03*
%TO.N,Net-(D5-A)*%
X77149700Y-78235900D03*
X76498000Y-81045700D03*
X81230700Y-80519600D03*
X82198100Y-83842200D03*
%TO.N,Net-(D4-A)*%
X78674600Y-77998300D03*
X78260400Y-82250900D03*
%TO.N,/VBUS*%
X72764400Y-61973600D03*
X65365600Y-85712700D03*
%TO.N,Net-(D3-K)*%
X77472600Y-71819300D03*
X76480900Y-69103100D03*
%TO.N,/VBAT*%
X79013500Y-72755000D03*
X84033500Y-75378500D03*
X90128800Y-69122900D03*
X79673500Y-68051200D03*
%TO.N,GND*%
X59782500Y-64199500D03*
X86158700Y-85331500D03*
X80657000Y-72755000D03*
X59583100Y-85475300D03*
%TO.N,/3V3*%
X90443000Y-74932600D03*
X80500000Y-84256400D03*
X90489600Y-72251400D03*
X56829500Y-65935500D03*
X58935600Y-81515400D03*
X80614900Y-87198700D03*
%TO.N,Net-(BZ1--)*%
X91838100Y-84386200D03*
%TD*%
D41*
%TO.N,Net-(U1-IO10)*%
X59943300Y-79731700D02*
X59425000Y-80250000D01*
X59943300Y-79375000D02*
X59943300Y-79731700D01*
X60120000Y-79198300D02*
X59943300Y-79375000D01*
X66592700Y-79198300D02*
X60120000Y-79198300D01*
X67319700Y-78471300D02*
X66592700Y-79198300D01*
X100380000Y-78000000D02*
X94620000Y-78000000D01*
X94620000Y-78000000D02*
X92943300Y-78000000D01*
X67319700Y-78471300D02*
X67293100Y-78497900D01*
X67293100Y-78497900D02*
X67319700Y-78471300D01*
X75556000Y-80444000D02*
X75500000Y-80500000D01*
X77205600Y-80444000D02*
X75556000Y-80444000D01*
X77261600Y-80500000D02*
X77205600Y-80444000D01*
X80399500Y-80500000D02*
X77261600Y-80500000D01*
X82686200Y-78213300D02*
X80399500Y-80500000D01*
X92730000Y-78213300D02*
X82686200Y-78213300D01*
X92943300Y-78000000D02*
X92730000Y-78213300D01*
%TO.N,Net-(U1-USB_D+)*%
X60687500Y-84500000D02*
X61500000Y-84500000D01*
X59907200Y-83719700D02*
X60687500Y-84500000D01*
X57157500Y-83719700D02*
X59907200Y-83719700D01*
X56678500Y-83240700D02*
X57157500Y-83719700D01*
X56678500Y-82717000D02*
X56678500Y-83240700D01*
X55545400Y-81583900D02*
X56678500Y-82717000D01*
X55275800Y-81583900D02*
X55545400Y-81583900D01*
X53850000Y-80158100D02*
X55275800Y-81583900D01*
X53850000Y-79000000D02*
X53850000Y-80158100D01*
%TO.N,Net-(U1-USB_D-)*%
X59757400Y-84500000D02*
X59500000Y-84500000D01*
X60843400Y-85586000D02*
X59757400Y-84500000D01*
X55300000Y-77730000D02*
X53850000Y-77730000D01*
X56041300Y-78471300D02*
X55300000Y-77730000D01*
X60843400Y-85586000D02*
X60868800Y-85611400D01*
%TO.N,Net-(U1-IO0)*%
X100380000Y-85500000D02*
X94620000Y-85500000D01*
X94620000Y-85500000D02*
X92943300Y-85500000D01*
X71350000Y-81000000D02*
X71350000Y-79000000D01*
X69500000Y-82850000D02*
X71350000Y-81000000D01*
X92472000Y-85971300D02*
X92943300Y-85500000D01*
X73740100Y-85971300D02*
X92472000Y-85971300D01*
X72376000Y-84607200D02*
X73740100Y-85971300D01*
X72376000Y-84142400D02*
X72376000Y-84607200D01*
X71908600Y-83675000D02*
X72376000Y-84142400D01*
X70325000Y-83675000D02*
X71908600Y-83675000D01*
X69500000Y-82850000D02*
X70325000Y-83675000D01*
%TO.N,Net-(U1-IO5)*%
X59501900Y-73028200D02*
X68641500Y-73028200D01*
X54901700Y-68428000D02*
X59501900Y-73028200D01*
X54901700Y-67570000D02*
X54901700Y-68428000D01*
X75436900Y-82786900D02*
X75500000Y-82850000D01*
X74500000Y-82786900D02*
X75436900Y-82786900D01*
X53850000Y-67570000D02*
X54901700Y-67570000D01*
%TO.N,Net-(U1-EN)*%
X100380000Y-93000000D02*
X94620000Y-93000000D01*
X84648800Y-90001600D02*
X83132300Y-90001600D01*
X86111700Y-91464500D02*
X84648800Y-90001600D01*
X86111700Y-92256600D02*
X86111700Y-91464500D01*
X87050800Y-93195700D02*
X86111700Y-92256600D01*
X92747600Y-93195700D02*
X87050800Y-93195700D01*
X92943300Y-93000000D02*
X92747600Y-93195700D01*
X81698300Y-82801700D02*
X81500000Y-83000000D01*
X82554700Y-82801700D02*
X81698300Y-82801700D01*
X94620000Y-93000000D02*
X92943300Y-93000000D01*
X60561400Y-65958300D02*
X65922000Y-65958300D01*
X59982500Y-66537200D02*
X60561400Y-65958300D01*
X56408900Y-66537200D02*
X59982500Y-66537200D01*
X54901700Y-65030000D02*
X56408900Y-66537200D01*
X53850000Y-65030000D02*
X54901700Y-65030000D01*
X81332800Y-88202100D02*
X83132300Y-90001600D01*
X70427100Y-88202100D02*
X81332800Y-88202100D01*
X70357300Y-88132300D02*
X70427100Y-88202100D01*
%TO.N,/STATUS*%
X72415900Y-63760000D02*
X73438900Y-64783000D01*
X71350000Y-63760000D02*
X72415900Y-63760000D01*
X76647500Y-82147500D02*
X77500000Y-83000000D01*
X73416500Y-82147500D02*
X76647500Y-82147500D01*
X73049500Y-81780500D02*
X73416500Y-82147500D01*
%TO.N,Net-(Q1-B)*%
X85223200Y-85389300D02*
X87562500Y-83050000D01*
X76389300Y-85389300D02*
X85223200Y-85389300D01*
X75500000Y-84500000D02*
X76389300Y-85389300D01*
%TO.N,/SDA*%
X83752600Y-93207400D02*
X84960000Y-92000000D01*
X70950900Y-93207400D02*
X83752600Y-93207400D01*
X69097300Y-91353800D02*
X70950900Y-93207400D01*
X69097300Y-88097300D02*
X69097300Y-91353800D01*
X65500000Y-84500000D02*
X69097300Y-88097300D01*
X64757900Y-83757900D02*
X64380600Y-83757900D01*
X65500000Y-84500000D02*
X64757900Y-83757900D01*
X59592300Y-76460000D02*
X53850000Y-76460000D01*
X60299700Y-75752600D02*
X59592300Y-76460000D01*
%TO.N,/SCL*%
X67500000Y-84396900D02*
X67500000Y-84500000D01*
X66686700Y-83583600D02*
X67500000Y-84396900D01*
X58155000Y-80250000D02*
X58155000Y-79198300D01*
X61789100Y-76961200D02*
X59718300Y-79032000D01*
X66537900Y-76961200D02*
X61789100Y-76961200D01*
X59552000Y-79198300D02*
X58155000Y-79198300D01*
X59718300Y-79032000D02*
X59552000Y-79198300D01*
X59718300Y-79032000D02*
X59552000Y-79198300D01*
X83300400Y-87800400D02*
X87500000Y-92000000D01*
X80365800Y-87800400D02*
X83300400Y-87800400D01*
X79967800Y-87402400D02*
X80365800Y-87800400D01*
X70402400Y-87402400D02*
X79967800Y-87402400D01*
X67500000Y-84500000D02*
X70402400Y-87402400D01*
%TO.N,Net-(J2-Pin_3)*%
X53850000Y-66300000D02*
X54901700Y-66300000D01*
X60349000Y-66938900D02*
X60584400Y-66703500D01*
X55540600Y-66938900D02*
X60349000Y-66938900D01*
X54901700Y-66300000D02*
X55540600Y-66938900D01*
X60584400Y-66703500D02*
X60750700Y-66537200D01*
X60584400Y-66703500D02*
X60750700Y-66537200D01*
X60773500Y-66560000D02*
X60750700Y-66537200D01*
X66171200Y-66560000D02*
X60773500Y-66560000D01*
X66523700Y-66207500D02*
X66171200Y-66560000D01*
X66523700Y-65689600D02*
X66523700Y-66207500D01*
X70841400Y-61371900D02*
X66523700Y-65689600D01*
X99831900Y-61371900D02*
X70841400Y-61371900D01*
X100000000Y-61540000D02*
X99831900Y-61371900D01*
%TO.N,/USB_DN*%
X59888300Y-82850000D02*
X59500000Y-82850000D01*
X60511300Y-83473000D02*
X59888300Y-82850000D01*
X54250000Y-88336600D02*
X54250000Y-87420000D01*
X53931500Y-88655100D02*
X54250000Y-88336600D01*
%TO.N,/USB_DP*%
X61400100Y-82750100D02*
X61500000Y-82850000D01*
X61400100Y-81934500D02*
X61400100Y-82750100D01*
X56625000Y-87440600D02*
X56625000Y-87365000D01*
X58593200Y-89408800D02*
X56625000Y-87440600D01*
X60929500Y-89408800D02*
X58593200Y-89408800D01*
%TO.N,Net-(J1-Pin_5)*%
X62125000Y-86119400D02*
X62125000Y-87365000D01*
X62658400Y-85586000D02*
X62125000Y-86119400D01*
X61773800Y-90010500D02*
X62080900Y-89703400D01*
X57959800Y-90010500D02*
X61773800Y-90010500D01*
X55687600Y-87738300D02*
X57959800Y-90010500D01*
X55687600Y-86687600D02*
X55687600Y-87738300D01*
X53500000Y-84500000D02*
X55687600Y-86687600D01*
%TO.N,/STDBY*%
X72640400Y-74825100D02*
X72640400Y-75295900D01*
X73316200Y-74149300D02*
X72640400Y-74825100D01*
X73892500Y-74149300D02*
X73316200Y-74149300D01*
X74787400Y-73254400D02*
X73892500Y-74149300D01*
X74787400Y-72355700D02*
X74787400Y-73254400D01*
X78477700Y-68665400D02*
X74787400Y-72355700D01*
X81910500Y-68665400D02*
X78477700Y-68665400D01*
X82554600Y-68021300D02*
X81910500Y-68665400D01*
X82554600Y-67265600D02*
X82554600Y-68021300D01*
X81624000Y-66335000D02*
X82554600Y-67265600D01*
X81275000Y-66335000D02*
X81624000Y-66335000D01*
X72806700Y-76806700D02*
X74000000Y-78000000D01*
X72806700Y-75462200D02*
X72806700Y-76806700D01*
X72640400Y-75295900D02*
X72806700Y-75462200D01*
X72640400Y-75295900D02*
X72806700Y-75462200D01*
%TO.N,Net-(D5-A)*%
X75810900Y-78235900D02*
X77149700Y-78235900D01*
X75575000Y-78000000D02*
X75810900Y-78235900D01*
X80641800Y-81108500D02*
X81230700Y-80519600D01*
X76560800Y-81108500D02*
X80641800Y-81108500D01*
X76498000Y-81045700D02*
X76560800Y-81108500D01*
X83005900Y-84650000D02*
X84000000Y-84650000D01*
X82198100Y-83842200D02*
X83005900Y-84650000D01*
X81230700Y-80519600D02*
X80641800Y-81108500D01*
X80641800Y-81108500D02*
X81230700Y-80519600D01*
X77149700Y-78235900D02*
X76516100Y-78235900D01*
X76516100Y-78235900D02*
X77149700Y-78235900D01*
X82198100Y-83842200D02*
X82529300Y-84173400D01*
X82529300Y-84173400D02*
X82198100Y-83842200D01*
%TO.N,Net-(D4-A)*%
X78322300Y-83472300D02*
X79500000Y-84650000D01*
X78322300Y-82312800D02*
X78322300Y-83472300D01*
X78260400Y-82250900D02*
X78322300Y-82312800D01*
X76086300Y-75410000D02*
X75575000Y-75410000D01*
X78674600Y-77998300D02*
X76086300Y-75410000D01*
%TO.N,/CHRG*%
X81681400Y-65065000D02*
X81275000Y-65065000D01*
X82956300Y-66339900D02*
X81681400Y-65065000D01*
X82956300Y-68187600D02*
X82956300Y-66339900D01*
X82076800Y-69067100D02*
X82956300Y-68187600D01*
X78915700Y-69067100D02*
X82076800Y-69067100D01*
X76794900Y-71187900D02*
X78915700Y-69067100D01*
X76794900Y-72840600D02*
X76794900Y-71187900D01*
X74225500Y-75410000D02*
X76794900Y-72840600D01*
X74000000Y-75410000D02*
X74225500Y-75410000D01*
%TO.N,/VBUS*%
X81275000Y-63795000D02*
X84519000Y-63795000D01*
X88500000Y-69900900D02*
X88500000Y-71000000D01*
X89768100Y-68632800D02*
X88500000Y-69900900D01*
X89768100Y-65800200D02*
X89768100Y-68632800D01*
X87762900Y-63795000D02*
X89768100Y-65800200D01*
X84519000Y-63795000D02*
X87762900Y-63795000D01*
X76118300Y-61973600D02*
X72764400Y-61973600D01*
X77338900Y-63194200D02*
X76118300Y-61973600D01*
X81095700Y-63194200D02*
X77338900Y-63194200D01*
X81696500Y-63795000D02*
X81095700Y-63194200D01*
X84519000Y-63795000D02*
X81696500Y-63795000D01*
X64500000Y-86578300D02*
X64500000Y-87420000D01*
X65365600Y-85712700D02*
X64500000Y-86578300D01*
X57855000Y-87696600D02*
X57855000Y-87365000D01*
X58477500Y-88319100D02*
X57855000Y-87696600D01*
X63600900Y-88319100D02*
X58477500Y-88319100D01*
X64500000Y-87420000D02*
X63600900Y-88319100D01*
%TO.N,Net-(D3-K)*%
X76325000Y-68947200D02*
X76325000Y-67605000D01*
X76480900Y-69103100D02*
X76325000Y-68947200D01*
X85573000Y-69927000D02*
X88500000Y-67000000D01*
X78623800Y-69927000D02*
X85573000Y-69927000D01*
X77426000Y-71124800D02*
X78623800Y-69927000D01*
X77426000Y-71772700D02*
X77426000Y-71124800D01*
X77472600Y-71819300D02*
X77426000Y-71772700D01*
%TO.N,Net-(D1-A)*%
X76525000Y-83675000D02*
X77500000Y-84650000D01*
X73078700Y-83675000D02*
X76525000Y-83675000D01*
X72447800Y-83044100D02*
X73078700Y-83675000D01*
X72447800Y-80701900D02*
X72447800Y-83044100D01*
X74011800Y-79137900D02*
X72447800Y-80701900D01*
X74097800Y-79137900D02*
X74011800Y-79137900D01*
X74787500Y-78448200D02*
X74097800Y-79137900D01*
X74787500Y-77509400D02*
X74787500Y-78448200D01*
X73208400Y-75930300D02*
X74787500Y-77509400D01*
X73208400Y-74905300D02*
X73208400Y-75930300D01*
X73537900Y-74575800D02*
X73208400Y-74905300D01*
X74034000Y-74575800D02*
X73537900Y-74575800D01*
X75575000Y-73034800D02*
X74034000Y-74575800D01*
X75575000Y-72820000D02*
X75575000Y-73034800D01*
%TO.N,/VBAT*%
X79013500Y-71563500D02*
X78950000Y-71500000D01*
X79013500Y-72755000D02*
X79013500Y-71563500D01*
X84255000Y-75600000D02*
X84033500Y-75378500D01*
X87225000Y-75600000D02*
X84255000Y-75600000D01*
X95181800Y-68000000D02*
X94400000Y-68000000D01*
X101216100Y-61965700D02*
X95181800Y-68000000D01*
X101216100Y-60216100D02*
X101216100Y-61965700D01*
X100000000Y-59000000D02*
X101216100Y-60216100D01*
X93277100Y-69122900D02*
X94400000Y-68000000D01*
X90128800Y-69122900D02*
X93277100Y-69122900D01*
X80828800Y-68051200D02*
X81275000Y-67605000D01*
X79673500Y-68051200D02*
X80828800Y-68051200D01*
%TO.N,GND*%
X62500000Y-70910000D02*
X61100000Y-70910000D01*
X60400000Y-70210000D02*
X61100000Y-70210000D01*
X100380000Y-81500000D02*
X94620000Y-81500000D01*
X61800000Y-70210000D02*
X61100000Y-70210000D01*
X60400000Y-68810000D02*
X61800000Y-68810000D01*
X78100000Y-65700000D02*
X78800000Y-65700000D01*
X98703300Y-69296700D02*
X98703300Y-74000000D01*
X100000000Y-68000000D02*
X98703300Y-69296700D01*
X61800000Y-71610000D02*
X60400000Y-71610000D01*
X90550000Y-81500000D02*
X88986700Y-83063300D01*
X94620000Y-81500000D02*
X90550000Y-81500000D01*
X87562500Y-84487500D02*
X87562500Y-84950000D01*
X88986700Y-83063300D02*
X87562500Y-84487500D01*
X59700000Y-70910000D02*
X61100000Y-70910000D01*
X79500000Y-65700000D02*
X78800000Y-65700000D01*
X77395000Y-63795000D02*
X78100000Y-64500000D01*
X76325000Y-63795000D02*
X77395000Y-63795000D01*
X61100000Y-69510000D02*
X62500000Y-69510000D01*
X98703300Y-74000000D02*
X94620000Y-74000000D01*
X94620000Y-74000000D02*
X92943300Y-74000000D01*
X59875000Y-87365000D02*
X58875000Y-87365000D01*
X83535900Y-73434100D02*
X82960000Y-74010000D01*
X83535900Y-73198200D02*
X83535900Y-73434100D01*
X83535900Y-72315400D02*
X83535900Y-73198200D01*
X83694600Y-72315400D02*
X84510000Y-71500000D01*
X83535900Y-72315400D02*
X83694600Y-72315400D01*
X84933400Y-79010000D02*
X84725000Y-79010000D01*
X88986700Y-83063300D02*
X84933400Y-79010000D01*
X82960000Y-74010000D02*
X80500000Y-74010000D01*
X80500000Y-74010000D02*
X80500000Y-76520000D01*
X80920000Y-90500000D02*
X82420000Y-92000000D01*
X72000000Y-90500000D02*
X80920000Y-90500000D01*
X92141500Y-73198200D02*
X92943300Y-74000000D01*
X83535900Y-73198200D02*
X92141500Y-73198200D01*
X101661200Y-66338800D02*
X100000000Y-68000000D01*
X101661200Y-58985000D02*
X101661200Y-66338800D01*
X100287900Y-57611700D02*
X101661200Y-58985000D01*
X100000000Y-57611700D02*
X100287900Y-57611700D01*
X100000000Y-56460000D02*
X100000000Y-57611700D01*
X77535000Y-66335000D02*
X78100000Y-66900000D01*
X76325000Y-66335000D02*
X77535000Y-66335000D01*
X58073000Y-62490000D02*
X59782500Y-64199500D01*
X53850000Y-62490000D02*
X58073000Y-62490000D01*
X100380000Y-89000000D02*
X94620000Y-89000000D01*
X102056700Y-89000000D02*
X102056700Y-81500000D01*
X100380000Y-89000000D02*
X102056700Y-89000000D01*
X84775000Y-76550000D02*
X84725000Y-76500000D01*
X87225000Y-76550000D02*
X84775000Y-76550000D01*
X80500000Y-79030000D02*
X80500000Y-77303100D01*
X80500000Y-77303100D02*
X80500000Y-76520000D01*
X83921900Y-77303100D02*
X84725000Y-76500000D01*
X80500000Y-77303100D02*
X83921900Y-77303100D01*
X87181000Y-85331500D02*
X87562500Y-84950000D01*
X86158700Y-85331500D02*
X87181000Y-85331500D01*
X73706700Y-63795000D02*
X76325000Y-63795000D01*
X72401700Y-62490000D02*
X73706700Y-63795000D01*
X71350000Y-62490000D02*
X72401700Y-62490000D01*
X99541700Y-74000000D02*
X98703300Y-74000000D01*
X99541700Y-74000000D02*
X100380000Y-74000000D01*
X102056700Y-81498500D02*
X102055200Y-81500000D01*
X102056700Y-74000000D02*
X102056700Y-81498500D01*
X100380000Y-81500000D02*
X102055200Y-81500000D01*
X102055200Y-81500000D02*
X102056700Y-81500000D01*
X100380000Y-74000000D02*
X102056700Y-74000000D01*
X53500000Y-82850000D02*
X54687500Y-82850000D01*
X54687500Y-82850000D02*
X55500000Y-82850000D01*
X80657000Y-72755000D02*
X81206000Y-72206000D01*
X80500000Y-71500000D02*
X81206000Y-72206000D01*
X81315400Y-72315400D02*
X83535900Y-72315400D01*
X81206000Y-72206000D02*
X81315400Y-72315400D01*
X71350000Y-62490000D02*
X70298300Y-62490000D01*
X70298300Y-63000900D02*
X70298300Y-62490000D01*
X64489200Y-68810000D02*
X70298300Y-63000900D01*
X61800000Y-68810000D02*
X64489200Y-68810000D01*
X74000000Y-72435000D02*
X74000000Y-72820000D01*
X78100000Y-68335000D02*
X74000000Y-72435000D01*
X78100000Y-66900000D02*
X78100000Y-68335000D01*
X58875000Y-87064000D02*
X58434700Y-86623700D01*
X58875000Y-87365000D02*
X58875000Y-87064000D01*
X58434700Y-86623700D02*
X59583100Y-85475300D01*
X54687500Y-84873200D02*
X54687500Y-82850000D01*
X56032800Y-86218500D02*
X54687500Y-84873200D01*
X58029500Y-86218500D02*
X56032800Y-86218500D01*
X58434700Y-86623700D02*
X58029500Y-86218500D01*
%TO.N,/3V3*%
X78950000Y-74010000D02*
X78950000Y-76520000D01*
X84000000Y-83000000D02*
X83175000Y-82175000D01*
X83175000Y-82175000D02*
X83175000Y-79010000D01*
X83175000Y-75345000D02*
X83175000Y-76500000D01*
X84510000Y-74010000D02*
X83175000Y-75345000D01*
X89500000Y-74932600D02*
X89500000Y-75600000D01*
X90443000Y-74932600D02*
X89500000Y-74932600D01*
X85432600Y-74932600D02*
X84510000Y-74010000D01*
X89500000Y-74932600D02*
X85432600Y-74932600D01*
X80325000Y-82175000D02*
X83175000Y-82175000D01*
X79500000Y-83000000D02*
X80325000Y-82175000D01*
X67850000Y-82850000D02*
X67500000Y-82850000D01*
X69500000Y-84500000D02*
X67850000Y-82850000D01*
X87600000Y-77500000D02*
X87225000Y-77500000D01*
X89500000Y-75600000D02*
X87600000Y-77500000D01*
X74246800Y-80474500D02*
X74246900Y-80474500D01*
X73875500Y-80474500D02*
X74246800Y-80474500D01*
X73850000Y-80500000D02*
X73875500Y-80474500D01*
X82121100Y-70661100D02*
X82960000Y-71500000D01*
X78502000Y-70661100D02*
X82121100Y-70661100D01*
X78189600Y-70973500D02*
X78502000Y-70661100D01*
X78189600Y-73249600D02*
X78189600Y-70973500D01*
X78950000Y-74010000D02*
X78189600Y-73249600D01*
X83737600Y-70722400D02*
X82960000Y-71500000D01*
X85729100Y-70722400D02*
X83737600Y-70722400D01*
X87598900Y-72592200D02*
X85729100Y-70722400D01*
X90148800Y-72592200D02*
X87598900Y-72592200D01*
X90489600Y-72251400D02*
X90148800Y-72592200D01*
X65500000Y-82850000D02*
X67500000Y-82850000D01*
X62714300Y-83714300D02*
X63500000Y-84500000D01*
X62714300Y-82140000D02*
X62714300Y-83714300D01*
X64790000Y-82140000D02*
X62714300Y-82140000D01*
X65500000Y-82850000D02*
X64790000Y-82140000D01*
X54901700Y-64007700D02*
X56829500Y-65935500D01*
X54901700Y-63760000D02*
X54901700Y-64007700D01*
X61907100Y-81332800D02*
X62714300Y-82140000D01*
X59118200Y-81332800D02*
X61907100Y-81332800D01*
X58935600Y-81515400D02*
X59118200Y-81332800D01*
X58834600Y-81515400D02*
X57500000Y-82850000D01*
X58935600Y-81515400D02*
X58834600Y-81515400D01*
X53850000Y-63760000D02*
X54901700Y-63760000D01*
X69500000Y-84500000D02*
X71500000Y-84500000D01*
X81106400Y-84256400D02*
X80500000Y-84256400D01*
X81500000Y-84650000D02*
X81106400Y-84256400D01*
X80500000Y-84000000D02*
X79500000Y-83000000D01*
X80500000Y-84256400D02*
X80500000Y-84000000D01*
X79276300Y-76846300D02*
X78950000Y-76520000D01*
X79276300Y-78703700D02*
X79276300Y-76846300D01*
X78950000Y-79030000D02*
X79276300Y-78703700D01*
X80414800Y-86998600D02*
X80614900Y-87198700D01*
X73998600Y-86998600D02*
X80414800Y-86998600D01*
X71500000Y-84500000D02*
X73998600Y-86998600D01*
X75259500Y-81487200D02*
X74246900Y-80474500D01*
X75494900Y-81487200D02*
X75259500Y-81487200D01*
X75729600Y-81721900D02*
X75494900Y-81487200D01*
X76123400Y-81721900D02*
X75729600Y-81721900D01*
X76143000Y-81741500D02*
X76123400Y-81721900D01*
X77919000Y-81741500D02*
X76143000Y-81741500D01*
X78011300Y-81649200D02*
X77919000Y-81741500D01*
X78509600Y-81649200D02*
X78011300Y-81649200D01*
X78862100Y-82001700D02*
X78509600Y-81649200D01*
X78862100Y-82284600D02*
X78862100Y-82001700D01*
X79124200Y-82546700D02*
X78862100Y-82284600D01*
X79124200Y-82624200D02*
X79124200Y-82546700D01*
X79500000Y-83000000D02*
X79124200Y-82624200D01*
X76635300Y-79030000D02*
X78950000Y-79030000D01*
X76633800Y-79031500D02*
X76635300Y-79030000D01*
X75689900Y-79031500D02*
X76633800Y-79031500D01*
X74246900Y-80474500D02*
X75689900Y-79031500D01*
%TO.N,Net-(BZ1--)*%
X89823700Y-84386200D02*
X89437500Y-84000000D01*
X91838100Y-84386200D02*
X89823700Y-84386200D01*
%TD*%
D42*
X52500000Y-54000000D02*
X102500000Y-54000000D01*
X102500000Y-95000000D01*
X52500000Y-95000000D01*
X52500000Y-54000000D01*
M02*
