M48
; DRILL file {KiCad 9.0.7} date 2026-04-14T10:40:44+0530
; FORMAT={-:-/ absolute / metric / decimal}
; #@! TF.CreationDate,2026-04-14T10:40:44+05:30
; #@! TF.GenerationSoftware,Kicad,Pcbnew,9.0.7
; #@! TF.FileFunction,Plated,1,2,PTH
FMAT,2
METRIC
; #@! TA.AperFunction,Plated,PTH,ComponentDrill
T1C0.200
; #@! TA.AperFunction,Plated,PTH,ViaDrill
T2C0.300
; #@! TA.AperFunction,Plated,PTH,ComponentDrill
T3C0.750
; #@! TA.AperFunction,Plated,PTH,ComponentDrill
T4C1.000
%
G90
G05
T1
X59.7Y-69.51
X59.7Y-70.91
X60.4Y-68.81
X60.4Y-70.21
X60.4Y-71.61
X61.1Y-69.51
X61.1Y-70.91
X61.8Y-68.81
X61.8Y-70.21
X61.8Y-71.61
X62.5Y-69.51
X62.5Y-70.91
X78.1Y-64.5
X78.1Y-65.7
X78.1Y-66.9
X79.5Y-64.5
X79.5Y-65.7
X79.5Y-66.9
T2
X53.931Y-88.655
X56.041Y-78.471
X56.829Y-65.935
X58.936Y-81.515
X59.583Y-85.475
X59.782Y-64.2
X60.3Y-75.753
X60.511Y-83.473
X60.869Y-85.611
X60.929Y-89.409
X61.4Y-81.934
X62.081Y-89.703
X62.658Y-85.586
X64.381Y-83.758
X65.366Y-85.713
X65.922Y-65.958
X66.538Y-76.961
X66.687Y-83.584
X67.32Y-78.471
X68.641Y-73.028
X70.357Y-88.132
X72.764Y-61.974
X73.049Y-81.78
X73.439Y-64.783
X74.5Y-82.787
X76.481Y-69.103
X76.498Y-81.046
X77.15Y-78.236
X77.262Y-80.5
X77.473Y-71.819
X78.26Y-82.251
X78.675Y-77.998
X79.013Y-72.755
X79.673Y-68.051
X80.5Y-84.256
X80.615Y-87.199
X80.657Y-72.755
X81.231Y-80.52
X82.198Y-83.842
X82.555Y-82.802
X83.132Y-90.002
X84.033Y-75.379
X86.159Y-85.331
X90.129Y-69.123
X90.443Y-74.933
X90.49Y-72.251
X91.838Y-84.386
T3
X70.0Y-90.5
X72.0Y-90.5
T4
X79.88Y-92.0
X82.42Y-92.0
X84.96Y-92.0
X87.5Y-92.0
X90.3Y-59.5
X93.5Y-59.5
X100.0Y-56.46
X100.0Y-59.0
X100.0Y-61.54
M30
