%TF.GenerationSoftware,KiCad,Pcbnew,9.0.7*%
%TF.CreationDate,2026-03-23T16:43:12+05:30*%
%TF.ProjectId,Pill_Dispenser_V4,50696c6c-5f44-4697-9370-656e7365725f,rev?*%
%TF.SameCoordinates,Original*%
%TF.FileFunction,Other,Comment*%
%FSLAX46Y46*%
G04 Gerber Fmt 4.6, Leading zero omitted, Abs format (unit mm)*
G04 Created by KiCad (PCBNEW 9.0.7) date 2026-03-23 16:43:12*
%MOMM*%
%LPD*%
G01*
G04 APERTURE LIST*
%ADD10C,0.150000*%
G04 APERTURE END LIST*
D10*
X77188095Y-50729104D02*
X77664285Y-50729104D01*
X77092857Y-51014819D02*
X77426190Y-50014819D01*
X77426190Y-50014819D02*
X77759523Y-51014819D01*
X78092857Y-50348152D02*
X78092857Y-51014819D01*
X78092857Y-50443390D02*
X78140476Y-50395771D01*
X78140476Y-50395771D02*
X78235714Y-50348152D01*
X78235714Y-50348152D02*
X78378571Y-50348152D01*
X78378571Y-50348152D02*
X78473809Y-50395771D01*
X78473809Y-50395771D02*
X78521428Y-50491009D01*
X78521428Y-50491009D02*
X78521428Y-51014819D01*
X78854762Y-50348152D02*
X79235714Y-50348152D01*
X78997619Y-50014819D02*
X78997619Y-50871961D01*
X78997619Y-50871961D02*
X79045238Y-50967200D01*
X79045238Y-50967200D02*
X79140476Y-51014819D01*
X79140476Y-51014819D02*
X79235714Y-51014819D01*
X79950000Y-50967200D02*
X79854762Y-51014819D01*
X79854762Y-51014819D02*
X79664286Y-51014819D01*
X79664286Y-51014819D02*
X79569048Y-50967200D01*
X79569048Y-50967200D02*
X79521429Y-50871961D01*
X79521429Y-50871961D02*
X79521429Y-50491009D01*
X79521429Y-50491009D02*
X79569048Y-50395771D01*
X79569048Y-50395771D02*
X79664286Y-50348152D01*
X79664286Y-50348152D02*
X79854762Y-50348152D01*
X79854762Y-50348152D02*
X79950000Y-50395771D01*
X79950000Y-50395771D02*
X79997619Y-50491009D01*
X79997619Y-50491009D02*
X79997619Y-50586247D01*
X79997619Y-50586247D02*
X79521429Y-50681485D01*
X80426191Y-50348152D02*
X80426191Y-51014819D01*
X80426191Y-50443390D02*
X80473810Y-50395771D01*
X80473810Y-50395771D02*
X80569048Y-50348152D01*
X80569048Y-50348152D02*
X80711905Y-50348152D01*
X80711905Y-50348152D02*
X80807143Y-50395771D01*
X80807143Y-50395771D02*
X80854762Y-50491009D01*
X80854762Y-50491009D02*
X80854762Y-51014819D01*
X81330953Y-50348152D02*
X81330953Y-51014819D01*
X81330953Y-50443390D02*
X81378572Y-50395771D01*
X81378572Y-50395771D02*
X81473810Y-50348152D01*
X81473810Y-50348152D02*
X81616667Y-50348152D01*
X81616667Y-50348152D02*
X81711905Y-50395771D01*
X81711905Y-50395771D02*
X81759524Y-50491009D01*
X81759524Y-50491009D02*
X81759524Y-51014819D01*
X82664286Y-51014819D02*
X82664286Y-50491009D01*
X82664286Y-50491009D02*
X82616667Y-50395771D01*
X82616667Y-50395771D02*
X82521429Y-50348152D01*
X82521429Y-50348152D02*
X82330953Y-50348152D01*
X82330953Y-50348152D02*
X82235715Y-50395771D01*
X82664286Y-50967200D02*
X82569048Y-51014819D01*
X82569048Y-51014819D02*
X82330953Y-51014819D01*
X82330953Y-51014819D02*
X82235715Y-50967200D01*
X82235715Y-50967200D02*
X82188096Y-50871961D01*
X82188096Y-50871961D02*
X82188096Y-50776723D01*
X82188096Y-50776723D02*
X82235715Y-50681485D01*
X82235715Y-50681485D02*
X82330953Y-50633866D01*
X82330953Y-50633866D02*
X82569048Y-50633866D01*
X82569048Y-50633866D02*
X82664286Y-50586247D01*
X67857142Y-41997438D02*
X67857142Y-39997438D01*
X68999999Y-41997438D02*
X68142856Y-40854580D01*
X68999999Y-39997438D02*
X67857142Y-41140295D01*
X69857142Y-40949819D02*
X70523809Y-40949819D01*
X70809523Y-41997438D02*
X69857142Y-41997438D01*
X69857142Y-41997438D02*
X69857142Y-39997438D01*
X69857142Y-39997438D02*
X70809523Y-39997438D01*
X71666666Y-40949819D02*
X72333333Y-40949819D01*
X72619047Y-41997438D02*
X71666666Y-41997438D01*
X71666666Y-41997438D02*
X71666666Y-39997438D01*
X71666666Y-39997438D02*
X72619047Y-39997438D01*
X73476190Y-41997438D02*
X73476190Y-39997438D01*
X73476190Y-39997438D02*
X74238095Y-39997438D01*
X74238095Y-39997438D02*
X74428571Y-40092676D01*
X74428571Y-40092676D02*
X74523809Y-40187914D01*
X74523809Y-40187914D02*
X74619047Y-40378390D01*
X74619047Y-40378390D02*
X74619047Y-40664104D01*
X74619047Y-40664104D02*
X74523809Y-40854580D01*
X74523809Y-40854580D02*
X74428571Y-40949819D01*
X74428571Y-40949819D02*
X74238095Y-41045057D01*
X74238095Y-41045057D02*
X73476190Y-41045057D01*
X75476190Y-41235533D02*
X77000000Y-41235533D01*
X78333332Y-39997438D02*
X78714285Y-39997438D01*
X78714285Y-39997438D02*
X78904761Y-40092676D01*
X78904761Y-40092676D02*
X79095237Y-40283152D01*
X79095237Y-40283152D02*
X79190475Y-40664104D01*
X79190475Y-40664104D02*
X79190475Y-41330771D01*
X79190475Y-41330771D02*
X79095237Y-41711723D01*
X79095237Y-41711723D02*
X78904761Y-41902200D01*
X78904761Y-41902200D02*
X78714285Y-41997438D01*
X78714285Y-41997438D02*
X78333332Y-41997438D01*
X78333332Y-41997438D02*
X78142856Y-41902200D01*
X78142856Y-41902200D02*
X77952380Y-41711723D01*
X77952380Y-41711723D02*
X77857142Y-41330771D01*
X77857142Y-41330771D02*
X77857142Y-40664104D01*
X77857142Y-40664104D02*
X77952380Y-40283152D01*
X77952380Y-40283152D02*
X78142856Y-40092676D01*
X78142856Y-40092676D02*
X78333332Y-39997438D01*
X80047618Y-39997438D02*
X80047618Y-41616485D01*
X80047618Y-41616485D02*
X80142856Y-41806961D01*
X80142856Y-41806961D02*
X80238094Y-41902200D01*
X80238094Y-41902200D02*
X80428570Y-41997438D01*
X80428570Y-41997438D02*
X80809523Y-41997438D01*
X80809523Y-41997438D02*
X80999999Y-41902200D01*
X80999999Y-41902200D02*
X81095237Y-41806961D01*
X81095237Y-41806961D02*
X81190475Y-41616485D01*
X81190475Y-41616485D02*
X81190475Y-39997438D01*
X81857142Y-39997438D02*
X82999999Y-39997438D01*
X82428570Y-41997438D02*
X82428570Y-39997438D01*
X85000000Y-39997438D02*
X86333333Y-39997438D01*
X86333333Y-39997438D02*
X85000000Y-41997438D01*
X85000000Y-41997438D02*
X86333333Y-41997438D01*
X87476190Y-39997438D02*
X87857143Y-39997438D01*
X87857143Y-39997438D02*
X88047619Y-40092676D01*
X88047619Y-40092676D02*
X88238095Y-40283152D01*
X88238095Y-40283152D02*
X88333333Y-40664104D01*
X88333333Y-40664104D02*
X88333333Y-41330771D01*
X88333333Y-41330771D02*
X88238095Y-41711723D01*
X88238095Y-41711723D02*
X88047619Y-41902200D01*
X88047619Y-41902200D02*
X87857143Y-41997438D01*
X87857143Y-41997438D02*
X87476190Y-41997438D01*
X87476190Y-41997438D02*
X87285714Y-41902200D01*
X87285714Y-41902200D02*
X87095238Y-41711723D01*
X87095238Y-41711723D02*
X87000000Y-41330771D01*
X87000000Y-41330771D02*
X87000000Y-40664104D01*
X87000000Y-40664104D02*
X87095238Y-40283152D01*
X87095238Y-40283152D02*
X87285714Y-40092676D01*
X87285714Y-40092676D02*
X87476190Y-39997438D01*
X89190476Y-41997438D02*
X89190476Y-39997438D01*
X89190476Y-39997438D02*
X90333333Y-41997438D01*
X90333333Y-41997438D02*
X90333333Y-39997438D01*
X91285714Y-40949819D02*
X91952381Y-40949819D01*
X92238095Y-41997438D02*
X91285714Y-41997438D01*
X91285714Y-41997438D02*
X91285714Y-39997438D01*
X91285714Y-39997438D02*
X92238095Y-39997438D01*
M02*
