%TF.GenerationSoftware,KiCad,Pcbnew,9.0.7*%
%TF.CreationDate,2026-03-23T16:43:12+05:30*%
%TF.ProjectId,Pill_Dispenser_V4,50696c6c-5f44-4697-9370-656e7365725f,rev?*%
%TF.SameCoordinates,Original*%
%TF.FileFunction,Copper,L2,Bot*%
%TF.FilePolarity,Positive*%
%FSLAX46Y46*%
G04 Gerber Fmt 4.6, Leading zero omitted, Abs format (unit mm)*
G04 Created by KiCad (PCBNEW 9.0.7) date 2026-03-23 16:43:12*
%MOMM*%
%LPD*%
G01*
G04 APERTURE LIST*
G04 Aperture macros list*
%AMRoundRect*
0 Rectangle with rounded corners*
0 $1 Rounding radius*
0 $2 $3 $4 $5 $6 $7 $8 $9 X,Y pos of 4 corners*
0 Add a 4 corners polygon primitive as box body*
4,1,4,$2,$3,$4,$5,$6,$7,$8,$9,$2,$3,0*
0 Add four circle primitives for the rounded corners*
1,1,$1+$1,$2,$3*
1,1,$1+$1,$4,$5*
1,1,$1+$1,$6,$7*
1,1,$1+$1,$8,$9*
0 Add four rect primitives between the rounded corners*
20,1,$1+$1,$2,$3,$4,$5,0*
20,1,$1+$1,$4,$5,$6,$7,0*
20,1,$1+$1,$6,$7,$8,$9,0*
20,1,$1+$1,$8,$9,$2,$3,0*%
G04 Aperture macros list end*
%TA.AperFunction,ComponentPad*%
%ADD10R,1.600000X1.600000*%
%TD*%
%TA.AperFunction,ComponentPad*%
%ADD11C,1.600000*%
%TD*%
%TA.AperFunction,HeatsinkPad*%
%ADD12C,0.500000*%
%TD*%
%TA.AperFunction,HeatsinkPad*%
%ADD13R,1.900000X2.900000*%
%TD*%
%TA.AperFunction,ComponentPad*%
%ADD14R,1.700000X1.700000*%
%TD*%
%TA.AperFunction,ComponentPad*%
%ADD15C,1.700000*%
%TD*%
%TA.AperFunction,ComponentPad*%
%ADD16RoundRect,0.250000X-0.350000X-0.625000X0.350000X-0.625000X0.350000X0.625000X-0.350000X0.625000X0*%
%TD*%
%TA.AperFunction,ComponentPad*%
%ADD17O,1.200000X1.750000*%
%TD*%
%TA.AperFunction,HeatsinkPad*%
%ADD18C,0.600000*%
%TD*%
%TA.AperFunction,ViaPad*%
%ADD19C,0.600000*%
%TD*%
%TA.AperFunction,Conductor*%
%ADD20C,0.200000*%
%TD*%
G04 APERTURE END LIST*
D10*
%TO.P,BZ1,1,+*%
%TO.N,unconnected-(BZ1-+-Pad1)*%
X20000000Y-80000000D03*
D11*
%TO.P,BZ1,2,-*%
%TO.N,/3V3*%
X23200000Y-80000000D03*
%TD*%
D12*
%TO.P,U3,9,EPAD*%
%TO.N,/3V3*%
X27300000Y-43800000D03*
X27300000Y-45000000D03*
X27300000Y-46200000D03*
D13*
X28000000Y-45000000D03*
D12*
X28700000Y-43800000D03*
X28700000Y-45000000D03*
X28700000Y-46200000D03*
%TD*%
D14*
%TO.P,J2,1,Pin_1*%
%TO.N,unconnected-(J2-Pin_1-Pad1)*%
X110000000Y-20000000D03*
D15*
%TO.P,J2,2,Pin_2*%
%TO.N,/3V3*%
X110000000Y-22540000D03*
%TO.P,J2,3,Pin_3*%
X110000000Y-25080000D03*
%TD*%
D16*
%TO.P,J4,1,Pin_1*%
%TO.N,unconnected-(J4-Pin_1-Pad1)*%
X110000000Y-75000000D03*
D17*
%TO.P,J4,2,Pin_2*%
%TO.N,/3V3*%
X112000000Y-75000000D03*
%TD*%
D14*
%TO.P,J3,1,Pin_1*%
%TO.N,unconnected-(J3-Pin_1-Pad1)*%
X110000000Y-50000000D03*
D15*
%TO.P,J3,2,Pin_2*%
%TO.N,unconnected-(J3-Pin_2-Pad2)*%
X110000000Y-52540000D03*
%TO.P,J3,3,Pin_3*%
%TO.N,unconnected-(J3-Pin_3-Pad3)*%
X110000000Y-55080000D03*
%TO.P,J3,4,Pin_4*%
%TO.N,unconnected-(J3-Pin_4-Pad4)*%
X110000000Y-57620000D03*
%TD*%
D18*
%TO.P,U1,41,GND*%
%TO.N,Net-(U1-GND-Pad1)*%
X77100000Y-61760000D03*
X77100000Y-63160000D03*
X77800000Y-61060000D03*
X77800000Y-62460000D03*
X77800000Y-63860000D03*
X78500000Y-61760000D03*
X78500000Y-63160000D03*
X79200000Y-61060000D03*
X79200000Y-62460000D03*
X79200000Y-63860000D03*
X79900000Y-61760000D03*
X79900000Y-63160000D03*
%TD*%
D19*
%TO.N,/3V3*%
X110449000Y-33734200D03*
X112000000Y-44555600D03*
%TO.N,Net-(R15-Pad2)*%
X68786400Y-17245000D03*
X68976800Y-26307500D03*
%TD*%
D20*
%TO.N,/3V3*%
X23200000Y-50300000D02*
X27300000Y-46200000D01*
X110449000Y-25529000D02*
X110000000Y-25080000D01*
X112000000Y-44555600D02*
X112000000Y-35285200D01*
X112000000Y-54234800D02*
X112000000Y-44555600D01*
X112000000Y-75000000D02*
X112000000Y-55142600D01*
X112000000Y-35285200D02*
X110449000Y-33734200D01*
X23200000Y-80000000D02*
X23200000Y-50300000D01*
X27300000Y-46200000D02*
X27300000Y-45000000D01*
X112000000Y-55101300D02*
X112000000Y-54234800D01*
X110449000Y-33734200D02*
X110449000Y-25529000D01*
X112000000Y-55142600D02*
X112000000Y-55101300D01*
X28700000Y-46200000D02*
X28700000Y-45000000D01*
X27300000Y-43800000D02*
X27300000Y-45000000D01*
X28700000Y-43800000D02*
X28700000Y-45000000D01*
X28000000Y-45000000D02*
X28700000Y-45000000D01*
X110000000Y-25080000D02*
X110000000Y-22540000D01*
%TO.N,Net-(R15-Pad2)*%
X68976800Y-26307500D02*
X68976800Y-17435400D01*
X68976800Y-17435400D02*
X68786400Y-17245000D01*
X63262800Y-22768600D02*
X68786400Y-17245000D01*
X68786400Y-17245000D02*
X63262800Y-22768600D01*
%TO.N,Net-(U1-GND-Pad1)*%
X77100000Y-63160000D02*
X77100000Y-61760000D01*
X79900000Y-63160000D02*
X79900000Y-61760000D01*
X77800000Y-63860000D02*
X77800000Y-62460000D01*
X79200000Y-61060000D02*
X79200000Y-62460000D01*
%TD*%
%TA.AperFunction,Conductor*%
%TO.N,Net-(U1-GND-Pad1)*%
G36*
X79758691Y-219407D02*
G01*
X79794655Y-268907D01*
X79799500Y-299500D01*
X79799500Y-32151000D01*
X79780593Y-32209191D01*
X79731093Y-32245155D01*
X79700500Y-32250000D01*
X56000000Y-32250000D01*
X56000000Y-53250000D01*
X79700500Y-53250000D01*
X79758691Y-53268907D01*
X79794655Y-53318407D01*
X79799500Y-53349000D01*
X79799500Y-67700500D01*
X79780593Y-67758691D01*
X79731093Y-67794655D01*
X79700500Y-67799500D01*
X23899500Y-67799500D01*
X23841309Y-67780593D01*
X23805345Y-67731093D01*
X23800500Y-67700500D01*
X23800500Y-50589743D01*
X23819407Y-50531552D01*
X23829496Y-50519739D01*
X27369740Y-46979495D01*
X27424257Y-46951718D01*
X27439744Y-46950499D01*
X28626077Y-46950499D01*
X28626082Y-46950500D01*
X28773918Y-46950500D01*
X28773922Y-46950499D01*
X28997872Y-46950499D01*
X29057483Y-46944091D01*
X29124907Y-46918943D01*
X29192329Y-46893797D01*
X29192329Y-46893796D01*
X29192331Y-46893796D01*
X29307546Y-46807546D01*
X29393796Y-46692331D01*
X29444091Y-46557483D01*
X29450500Y-46497873D01*
X29450500Y-45073918D01*
X29450500Y-44926082D01*
X29450500Y-44918108D01*
X29450499Y-44918094D01*
X29450499Y-43873922D01*
X29450500Y-43873918D01*
X29450500Y-43726082D01*
X29450499Y-43726077D01*
X29450499Y-43502128D01*
X29444091Y-43442517D01*
X29444089Y-43442511D01*
X29393797Y-43307670D01*
X29307549Y-43192458D01*
X29307548Y-43192457D01*
X29307546Y-43192454D01*
X29307541Y-43192450D01*
X29192329Y-43106202D01*
X29057488Y-43055910D01*
X29057483Y-43055909D01*
X29057481Y-43055908D01*
X29057477Y-43055908D01*
X29026249Y-43052550D01*
X28997873Y-43049500D01*
X28773918Y-43049500D01*
X28626082Y-43049500D01*
X28626081Y-43049500D01*
X27373922Y-43049500D01*
X27373918Y-43049500D01*
X27226082Y-43049500D01*
X27226077Y-43049500D01*
X27002131Y-43049500D01*
X27002129Y-43049500D01*
X27002128Y-43049501D01*
X26994949Y-43050272D01*
X26942519Y-43055908D01*
X26942514Y-43055909D01*
X26807670Y-43106202D01*
X26692458Y-43192450D01*
X26692450Y-43192458D01*
X26606202Y-43307670D01*
X26555910Y-43442511D01*
X26555908Y-43442522D01*
X26549500Y-43502129D01*
X26549500Y-46060255D01*
X26530593Y-46118446D01*
X26520504Y-46130259D01*
X22831286Y-49819478D01*
X22831284Y-49819480D01*
X22831283Y-49819479D01*
X22719479Y-49931284D01*
X22669359Y-50018095D01*
X22640425Y-50068209D01*
X22640423Y-50068213D01*
X22640423Y-50068215D01*
X22599499Y-50220943D01*
X22599499Y-50220945D01*
X22599499Y-50387031D01*
X22599500Y-50387044D01*
X22599500Y-67700500D01*
X22580593Y-67758691D01*
X22531093Y-67794655D01*
X22500500Y-67799500D01*
X299500Y-67799500D01*
X241309Y-67780593D01*
X205345Y-67731093D01*
X200500Y-67700500D01*
X200500Y-22689543D01*
X62662299Y-22689543D01*
X62662299Y-22847657D01*
X62703223Y-23000385D01*
X62703224Y-23000387D01*
X62703225Y-23000390D01*
X62782277Y-23137311D01*
X62782279Y-23137313D01*
X62782281Y-23137316D01*
X62894084Y-23249119D01*
X62894086Y-23249120D01*
X62894088Y-23249122D01*
X63031009Y-23328174D01*
X63031010Y-23328174D01*
X63031015Y-23328177D01*
X63183743Y-23369101D01*
X63183745Y-23369101D01*
X63341855Y-23369101D01*
X63341857Y-23369101D01*
X63494585Y-23328177D01*
X63631516Y-23249119D01*
X68207298Y-18673336D01*
X68261813Y-18645561D01*
X68322245Y-18655132D01*
X68365510Y-18698397D01*
X68376300Y-18743342D01*
X68376300Y-25735847D01*
X68357682Y-25793147D01*
X68357713Y-25793168D01*
X68357640Y-25793276D01*
X68357393Y-25794038D01*
X68355455Y-25796546D01*
X68267409Y-25928314D01*
X68267403Y-25928325D01*
X68207063Y-26074001D01*
X68207063Y-26074003D01*
X68176300Y-26228655D01*
X68176300Y-26386344D01*
X68207063Y-26540996D01*
X68207063Y-26540998D01*
X68267403Y-26686674D01*
X68267409Y-26686685D01*
X68320112Y-26765559D01*
X68355011Y-26817789D01*
X68466511Y-26929289D01*
X68544676Y-26981517D01*
X68597614Y-27016890D01*
X68597625Y-27016896D01*
X68651438Y-27039185D01*
X68743303Y-27077237D01*
X68897958Y-27108000D01*
X68897959Y-27108000D01*
X69055641Y-27108000D01*
X69055642Y-27108000D01*
X69210297Y-27077237D01*
X69355979Y-27016894D01*
X69487089Y-26929289D01*
X69598589Y-26817789D01*
X69686194Y-26686679D01*
X69746537Y-26540997D01*
X69777300Y-26386342D01*
X69777300Y-26228658D01*
X69746537Y-26074003D01*
X69686194Y-25928321D01*
X69686193Y-25928319D01*
X69686190Y-25928314D01*
X69636385Y-25853778D01*
X69598589Y-25797211D01*
X69598587Y-25797209D01*
X69595887Y-25793168D01*
X69597259Y-25792251D01*
X69577470Y-25741646D01*
X69577300Y-25735847D01*
X69577300Y-17381856D01*
X69579202Y-17362541D01*
X69586900Y-17323842D01*
X69586900Y-17166158D01*
X69556137Y-17011503D01*
X69495794Y-16865821D01*
X69495793Y-16865819D01*
X69495790Y-16865814D01*
X69460417Y-16812876D01*
X69408189Y-16734711D01*
X69296689Y-16623211D01*
X69244459Y-16588312D01*
X69165585Y-16535609D01*
X69165574Y-16535603D01*
X69019897Y-16475263D01*
X68865244Y-16444500D01*
X68865242Y-16444500D01*
X68707558Y-16444500D01*
X68707555Y-16444500D01*
X68552903Y-16475263D01*
X68552901Y-16475263D01*
X68407225Y-16535603D01*
X68407214Y-16535609D01*
X68276111Y-16623211D01*
X68276107Y-16623214D01*
X68164614Y-16734707D01*
X68164611Y-16734711D01*
X68077009Y-16865814D01*
X68077003Y-16865825D01*
X68016663Y-17011501D01*
X68016663Y-17011503D01*
X67984951Y-17170928D01*
X67983326Y-17170604D01*
X67961558Y-17220363D01*
X67957563Y-17224601D01*
X62782278Y-22399887D01*
X62782277Y-22399888D01*
X62703225Y-22536809D01*
X62703223Y-22536813D01*
X62703223Y-22536815D01*
X62662299Y-22689543D01*
X200500Y-22689543D01*
X200500Y-299500D01*
X219407Y-241309D01*
X268907Y-205345D01*
X299500Y-200500D01*
X79700500Y-200500D01*
X79758691Y-219407D01*
G37*
%TD.AperFunction*%
%TD*%
M02*
