%TF.GenerationSoftware,KiCad,Pcbnew,9.0.7*%
%TF.CreationDate,2026-03-23T16:43:12+05:30*%
%TF.ProjectId,Pill_Dispenser_V4,50696c6c-5f44-4697-9370-656e7365725f,rev?*%
%TF.SameCoordinates,Original*%
%TF.FileFunction,Soldermask,Top*%
%TF.FilePolarity,Negative*%
%FSLAX46Y46*%
G04 Gerber Fmt 4.6, Leading zero omitted, Abs format (unit mm)*
G04 Created by KiCad (PCBNEW 9.0.7) date 2026-03-23 16:43:12*
%MOMM*%
%LPD*%
G01*
G04 APERTURE LIST*
G04 Aperture macros list*
%AMRoundRect*
0 Rectangle with rounded corners*
0 $1 Rounding radius*
0 $2 $3 $4 $5 $6 $7 $8 $9 X,Y pos of 4 corners*
0 Add a 4 corners polygon primitive as box body*
4,1,4,$2,$3,$4,$5,$6,$7,$8,$9,$2,$3,0*
0 Add four circle primitives for the rounded corners*
1,1,$1+$1,$2,$3*
1,1,$1+$1,$4,$5*
1,1,$1+$1,$6,$7*
1,1,$1+$1,$8,$9*
0 Add four rect primitives between the rounded corners*
20,1,$1+$1,$2,$3,$4,$5,0*
20,1,$1+$1,$4,$5,$6,$7,0*
20,1,$1+$1,$6,$7,$8,$9,0*
20,1,$1+$1,$8,$9,$2,$3,0*%
G04 Aperture macros list end*
%ADD10RoundRect,0.200000X-0.200000X-0.275000X0.200000X-0.275000X0.200000X0.275000X-0.200000X0.275000X0*%
%ADD11R,2.750000X1.000000*%
%ADD12RoundRect,0.225000X-0.225000X-0.250000X0.225000X-0.250000X0.225000X0.250000X-0.225000X0.250000X0*%
%ADD13RoundRect,0.250000X-1.500000X-0.550000X1.500000X-0.550000X1.500000X0.550000X-1.500000X0.550000X0*%
%ADD14RoundRect,0.218750X-0.218750X-0.256250X0.218750X-0.256250X0.218750X0.256250X-0.218750X0.256250X0*%
%ADD15R,1.600000X1.600000*%
%ADD16C,1.600000*%
%ADD17RoundRect,0.150000X-0.825000X-0.150000X0.825000X-0.150000X0.825000X0.150000X-0.825000X0.150000X0*%
%ADD18R,2.410000X3.300000*%
%ADD19RoundRect,0.175000X-0.175000X-0.425000X0.175000X-0.425000X0.175000X0.425000X-0.175000X0.425000X0*%
%ADD20RoundRect,0.190000X0.190000X0.410000X-0.190000X0.410000X-0.190000X-0.410000X0.190000X-0.410000X0*%
%ADD21RoundRect,0.200000X0.200000X0.400000X-0.200000X0.400000X-0.200000X-0.400000X0.200000X-0.400000X0*%
%ADD22RoundRect,0.175000X0.175000X0.425000X-0.175000X0.425000X-0.175000X-0.425000X0.175000X-0.425000X0*%
%ADD23RoundRect,0.190000X-0.190000X-0.410000X0.190000X-0.410000X0.190000X0.410000X-0.190000X0.410000X0*%
%ADD24RoundRect,0.200000X-0.200000X-0.400000X0.200000X-0.400000X0.200000X0.400000X-0.200000X0.400000X0*%
%ADD25RoundRect,0.250000X-0.650000X-0.425000X0.650000X-0.425000X0.650000X0.425000X-0.650000X0.425000X0*%
%ADD26RoundRect,0.250000X-0.650000X-0.500000X0.650000X-0.500000X0.650000X0.500000X-0.650000X0.500000X0*%
%ADD27R,1.700000X1.700000*%
%ADD28C,1.700000*%
%ADD29RoundRect,0.150000X-0.587500X-0.150000X0.587500X-0.150000X0.587500X0.150000X-0.587500X0.150000X0*%
%ADD30RoundRect,0.250000X-0.350000X-0.625000X0.350000X-0.625000X0.350000X0.625000X-0.350000X0.625000X0*%
%ADD31O,1.200000X1.750000*%
%ADD32RoundRect,0.250000X-1.000000X-0.650000X1.000000X-0.650000X1.000000X0.650000X-1.000000X0.650000X0*%
%ADD33R,1.500000X0.900000*%
%ADD34R,0.900000X1.500000*%
%ADD35C,0.600000*%
%ADD36R,3.900000X3.900000*%
%ADD37RoundRect,0.150000X-0.512500X-0.150000X0.512500X-0.150000X0.512500X0.150000X-0.512500X0.150000X0*%
G04 APERTURE END LIST*
D10*
%TO.C,R4*%
X24175000Y-15000000D03*
X25825000Y-15000000D03*
%TD*%
D11*
%TO.C,SW1*%
X32120000Y-13000000D03*
X37880000Y-13000000D03*
X32120000Y-17000000D03*
X37880000Y-17000000D03*
%TD*%
%TO.C,SW3*%
X42120000Y-13000000D03*
X47880000Y-13000000D03*
X42120000Y-17000000D03*
X47880000Y-17000000D03*
%TD*%
D12*
%TO.C,C6*%
X54225000Y-15000000D03*
X55775000Y-15000000D03*
%TD*%
D13*
%TO.C,C10*%
X62200000Y-15000000D03*
X67800000Y-15000000D03*
%TD*%
D11*
%TO.C,SW2*%
X72120000Y-13000000D03*
X77880000Y-13000000D03*
X72120000Y-17000000D03*
X77880000Y-17000000D03*
%TD*%
D10*
%TO.C,R11*%
X84175000Y-15000000D03*
X85825000Y-15000000D03*
%TD*%
D14*
%TO.C,D5*%
X94212500Y-15000000D03*
X95787500Y-15000000D03*
%TD*%
D10*
%TO.C,R8*%
X104175000Y-15000000D03*
X105825000Y-15000000D03*
%TD*%
D15*
%TO.C,BZ1*%
X20000000Y-80000000D03*
D16*
X23200000Y-80000000D03*
%TD*%
D10*
%TO.C,R16*%
X24175000Y-25000000D03*
X25825000Y-25000000D03*
%TD*%
%TO.C,R6*%
X34175000Y-25000000D03*
X35825000Y-25000000D03*
%TD*%
D17*
%TO.C,U3*%
X25525000Y-43095000D03*
X25525000Y-44365000D03*
X25525000Y-45635000D03*
X25525000Y-46905000D03*
X30475000Y-46905000D03*
X30475000Y-45635000D03*
X30475000Y-44365000D03*
X30475000Y-43095000D03*
D18*
X28000000Y-45000000D03*
%TD*%
D12*
%TO.C,C11*%
X44225000Y-25000000D03*
X45775000Y-25000000D03*
%TD*%
D10*
%TO.C,R13*%
X54175000Y-25000000D03*
X55825000Y-25000000D03*
%TD*%
%TO.C,R9*%
X64175000Y-25000000D03*
X65825000Y-25000000D03*
%TD*%
%TO.C,R5*%
X74175000Y-25000000D03*
X75825000Y-25000000D03*
%TD*%
%TO.C,R15*%
X84175000Y-25000000D03*
X85825000Y-25000000D03*
%TD*%
%TO.C,R12*%
X94175000Y-25000000D03*
X95825000Y-25000000D03*
%TD*%
%TO.C,R17*%
X104175000Y-25000000D03*
X105825000Y-25000000D03*
%TD*%
D12*
%TO.C,C9*%
X24225000Y-35000000D03*
X25775000Y-35000000D03*
%TD*%
D10*
%TO.C,R7*%
X34175000Y-35000000D03*
X35825000Y-35000000D03*
%TD*%
D19*
%TO.C,J1*%
X11500000Y-56967500D03*
D20*
X13520000Y-56967500D03*
D21*
X14750000Y-56967500D03*
D22*
X12500000Y-56967500D03*
D23*
X10480000Y-56967500D03*
D24*
X9250000Y-56967500D03*
D25*
X6875000Y-57022500D03*
D26*
X6875000Y-60602500D03*
D25*
X17125000Y-57022500D03*
D26*
X17125000Y-60602500D03*
%TD*%
D27*
%TO.C,J2*%
X110000000Y-20000000D03*
D28*
X110000000Y-22540000D03*
X110000000Y-25080000D03*
%TD*%
D12*
%TO.C,C5*%
X44225000Y-35000000D03*
X45775000Y-35000000D03*
%TD*%
D10*
%TO.C,R2*%
X109175000Y-35000000D03*
X110825000Y-35000000D03*
%TD*%
D12*
%TO.C,C7*%
X114225000Y-35000000D03*
X115775000Y-35000000D03*
%TD*%
D14*
%TO.C,D1*%
X124212500Y-35000000D03*
X125787500Y-35000000D03*
%TD*%
D10*
%TO.C,R1*%
X129175000Y-35000000D03*
X130825000Y-35000000D03*
%TD*%
%TO.C,R10*%
X134175000Y-35000000D03*
X135825000Y-35000000D03*
%TD*%
%TO.C,R3*%
X139175000Y-35000000D03*
X140825000Y-35000000D03*
%TD*%
D12*
%TO.C,C8*%
X114225000Y-45000000D03*
X115775000Y-45000000D03*
%TD*%
%TO.C,C2*%
X119225000Y-45000000D03*
X120775000Y-45000000D03*
%TD*%
D29*
%TO.C,Q1*%
X129062500Y-44050000D03*
X129062500Y-45950000D03*
X130937500Y-45000000D03*
%TD*%
D30*
%TO.C,J4*%
X110000000Y-75000000D03*
D31*
X112000000Y-75000000D03*
%TD*%
D27*
%TO.C,J3*%
X110000000Y-50000000D03*
D28*
X110000000Y-52540000D03*
X110000000Y-55080000D03*
X110000000Y-57620000D03*
%TD*%
D12*
%TO.C,C1*%
X139225000Y-45000000D03*
X140775000Y-45000000D03*
%TD*%
D32*
%TO.C,D3*%
X148000000Y-45000000D03*
X152000000Y-45000000D03*
%TD*%
D33*
%TO.C,U1*%
X71250000Y-54740000D03*
X71250000Y-56010000D03*
X71250000Y-57280000D03*
X71250000Y-58550000D03*
X71250000Y-59820000D03*
X71250000Y-61090000D03*
X71250000Y-62360000D03*
X71250000Y-63630000D03*
X71250000Y-64900000D03*
X71250000Y-66170000D03*
X71250000Y-67440000D03*
X71250000Y-68710000D03*
X71250000Y-69980000D03*
X71250000Y-71250000D03*
D34*
X73015000Y-72500000D03*
X74285000Y-72500000D03*
X75555000Y-72500000D03*
X76825000Y-72500000D03*
X78095000Y-72500000D03*
X79365000Y-72500000D03*
X80635000Y-72500000D03*
X81905000Y-72500000D03*
X83175000Y-72500000D03*
X84445000Y-72500000D03*
X85715000Y-72500000D03*
X86985000Y-72500000D03*
D33*
X88750000Y-71250000D03*
X88750000Y-69980000D03*
X88750000Y-68710000D03*
X88750000Y-67440000D03*
X88750000Y-66170000D03*
X88750000Y-64900000D03*
X88750000Y-63630000D03*
X88750000Y-62360000D03*
X88750000Y-61090000D03*
X88750000Y-59820000D03*
X88750000Y-58550000D03*
X88750000Y-57280000D03*
X88750000Y-56010000D03*
X88750000Y-54740000D03*
D35*
X77100000Y-61760000D03*
X77100000Y-63160000D03*
X77800000Y-61060000D03*
X77800000Y-62460000D03*
X77800000Y-63860000D03*
X78500000Y-61760000D03*
D36*
X78500000Y-62460000D03*
D35*
X78500000Y-63160000D03*
X79200000Y-61060000D03*
X79200000Y-62460000D03*
X79200000Y-63860000D03*
X79900000Y-61760000D03*
X79900000Y-63160000D03*
%TD*%
D37*
%TO.C,U4*%
X42862500Y-44050000D03*
X42862500Y-45000000D03*
X42862500Y-45950000D03*
X45137500Y-45950000D03*
X45137500Y-44050000D03*
%TD*%
D14*
%TO.C,D4*%
X159212500Y-45000000D03*
X160787500Y-45000000D03*
%TD*%
M02*
