%TF.GenerationSoftware,KiCad,Pcbnew,9.0.7*%
%TF.CreationDate,2026-03-23T16:43:12+05:30*%
%TF.ProjectId,Pill_Dispenser_V4,50696c6c-5f44-4697-9370-656e7365725f,rev?*%
%TF.SameCoordinates,Original*%
%TF.FileFunction,Other,User*%
%FSLAX46Y46*%
G04 Gerber Fmt 4.6, Leading zero omitted, Abs format (unit mm)*
G04 Created by KiCad (PCBNEW 9.0.7) date 2026-03-23 16:43:12*
%MOMM*%
%LPD*%
G01*
G04 APERTURE LIST*
%ADD10C,0.050000*%
G04 APERTURE END LIST*
%TO.C,R4*%
D10*
X23520000Y-14270000D02*
X26480000Y-14270000D01*
X26480000Y-15730000D01*
X23520000Y-15730000D01*
X23520000Y-14270000D01*
%TO.C,SW1*%
X30500000Y-11750000D02*
X39500000Y-11750000D01*
X30500000Y-18250000D02*
X30500000Y-11750000D01*
X39500000Y-11750000D02*
X39500000Y-18250000D01*
X39500000Y-18250000D02*
X30500000Y-18250000D01*
%TO.C,SW3*%
X40500000Y-11750000D02*
X49500000Y-11750000D01*
X40500000Y-18250000D02*
X40500000Y-11750000D01*
X49500000Y-11750000D02*
X49500000Y-18250000D01*
X49500000Y-18250000D02*
X40500000Y-18250000D01*
%TO.C,C6*%
X53520000Y-14270000D02*
X56480000Y-14270000D01*
X56480000Y-15730000D01*
X53520000Y-15730000D01*
X53520000Y-14270000D01*
%TO.C,C10*%
X60200000Y-13950000D02*
X60200000Y-16050000D01*
X60200000Y-16050000D02*
X61450000Y-16050000D01*
X61450000Y-12600000D02*
X61450000Y-13950000D01*
X61450000Y-12600000D02*
X62600000Y-11450000D01*
X61450000Y-13950000D02*
X60200000Y-13950000D01*
X61450000Y-16050000D02*
X61450000Y-17400000D01*
X61450000Y-17400000D02*
X62600000Y-18550000D01*
X62600000Y-11450000D02*
X68550000Y-11450000D01*
X62600000Y-18550000D02*
X68550000Y-18550000D01*
X68550000Y-11450000D02*
X68550000Y-13950000D01*
X68550000Y-13950000D02*
X69800000Y-13950000D01*
X68550000Y-16050000D02*
X68550000Y-18550000D01*
X69800000Y-13950000D02*
X69800000Y-16050000D01*
X69800000Y-16050000D02*
X68550000Y-16050000D01*
%TO.C,SW2*%
X70500000Y-11750000D02*
X79500000Y-11750000D01*
X70500000Y-18250000D02*
X70500000Y-11750000D01*
X79500000Y-11750000D02*
X79500000Y-18250000D01*
X79500000Y-18250000D02*
X70500000Y-18250000D01*
%TO.C,R11*%
X83520000Y-14270000D02*
X86480000Y-14270000D01*
X86480000Y-15730000D01*
X83520000Y-15730000D01*
X83520000Y-14270000D01*
%TO.C,D5*%
X93520000Y-14270000D02*
X96480000Y-14270000D01*
X96480000Y-15730000D01*
X93520000Y-15730000D01*
X93520000Y-14270000D01*
%TO.C,R8*%
X103520000Y-14270000D02*
X106480000Y-14270000D01*
X106480000Y-15730000D01*
X103520000Y-15730000D01*
X103520000Y-14270000D01*
%TO.C,BZ1*%
X25150000Y-80000000D02*
G75*
G02*
X18050000Y-80000000I-3550000J0D01*
G01*
X18050000Y-80000000D02*
G75*
G02*
X25150000Y-80000000I3550000J0D01*
G01*
%TO.C,R16*%
X23520000Y-24270000D02*
X26480000Y-24270000D01*
X26480000Y-25730000D01*
X23520000Y-25730000D01*
X23520000Y-24270000D01*
%TO.C,R6*%
X33520000Y-24270000D02*
X36480000Y-24270000D01*
X36480000Y-25730000D01*
X33520000Y-25730000D01*
X33520000Y-24270000D01*
%TO.C,U3*%
X24300000Y-42540000D02*
X25800000Y-42540000D01*
X24300000Y-47460000D02*
X24300000Y-42540000D01*
X25800000Y-42300000D02*
X30200000Y-42300000D01*
X25800000Y-42540000D02*
X25800000Y-42300000D01*
X25800000Y-47460000D02*
X24300000Y-47460000D01*
X25800000Y-47700000D02*
X25800000Y-47460000D01*
X30200000Y-42300000D02*
X30200000Y-42540000D01*
X30200000Y-42540000D02*
X31700000Y-42540000D01*
X30200000Y-47460000D02*
X30200000Y-47700000D01*
X30200000Y-47700000D02*
X25800000Y-47700000D01*
X31700000Y-42540000D02*
X31700000Y-47460000D01*
X31700000Y-47460000D02*
X30200000Y-47460000D01*
%TO.C,C11*%
X43520000Y-24270000D02*
X46480000Y-24270000D01*
X46480000Y-25730000D01*
X43520000Y-25730000D01*
X43520000Y-24270000D01*
%TO.C,R13*%
X53520000Y-24270000D02*
X56480000Y-24270000D01*
X56480000Y-25730000D01*
X53520000Y-25730000D01*
X53520000Y-24270000D01*
%TO.C,R9*%
X63520000Y-24270000D02*
X66480000Y-24270000D01*
X66480000Y-25730000D01*
X63520000Y-25730000D01*
X63520000Y-24270000D01*
%TO.C,R5*%
X73520000Y-24270000D02*
X76480000Y-24270000D01*
X76480000Y-25730000D01*
X73520000Y-25730000D01*
X73520000Y-24270000D01*
%TO.C,R15*%
X83520000Y-24270000D02*
X86480000Y-24270000D01*
X86480000Y-25730000D01*
X83520000Y-25730000D01*
X83520000Y-24270000D01*
%TO.C,R12*%
X93520000Y-24270000D02*
X96480000Y-24270000D01*
X96480000Y-25730000D01*
X93520000Y-25730000D01*
X93520000Y-24270000D01*
%TO.C,R17*%
X103520000Y-24270000D02*
X106480000Y-24270000D01*
X106480000Y-25730000D01*
X103520000Y-25730000D01*
X103520000Y-24270000D01*
%TO.C,C9*%
X23520000Y-34270000D02*
X26480000Y-34270000D01*
X26480000Y-35730000D01*
X23520000Y-35730000D01*
X23520000Y-34270000D01*
%TO.C,R7*%
X33520000Y-34270000D02*
X36480000Y-34270000D01*
X36480000Y-35730000D01*
X33520000Y-35730000D01*
X33520000Y-34270000D01*
%TO.C,J1*%
X5450000Y-55800000D02*
X5450000Y-58200000D01*
X5450000Y-58200000D02*
X7000000Y-58200000D01*
X5450000Y-59350000D02*
X5450000Y-61900000D01*
X7000000Y-58200000D02*
X7000000Y-59350000D01*
X7000000Y-59350000D02*
X5450000Y-59350000D01*
X7000000Y-61900000D02*
X5450000Y-61900000D01*
X7000000Y-61900000D02*
X7000000Y-64000000D01*
X7000000Y-64000000D02*
X17000000Y-64000000D01*
X17000000Y-58200000D02*
X17000000Y-59350000D01*
X17000000Y-58200000D02*
X18550000Y-58200000D01*
X17000000Y-61900000D02*
X17000000Y-64000000D01*
X18550000Y-55800000D02*
X5450000Y-55800000D01*
X18550000Y-55800000D02*
X18550000Y-58200000D01*
X18550000Y-59350000D02*
X17000000Y-59350000D01*
X18550000Y-59350000D02*
X18550000Y-61900000D01*
X18550000Y-61900000D02*
X17000000Y-61900000D01*
%TO.C,J2*%
X108230000Y-18230000D02*
X111770000Y-18230000D01*
X111770000Y-26850000D01*
X108230000Y-26850000D01*
X108230000Y-18230000D01*
%TO.C,C5*%
X43520000Y-34270000D02*
X46480000Y-34270000D01*
X46480000Y-35730000D01*
X43520000Y-35730000D01*
X43520000Y-34270000D01*
%TO.C,R2*%
X108520000Y-34270000D02*
X111480000Y-34270000D01*
X111480000Y-35730000D01*
X108520000Y-35730000D01*
X108520000Y-34270000D01*
%TO.C,C7*%
X113520000Y-34270000D02*
X116480000Y-34270000D01*
X116480000Y-35730000D01*
X113520000Y-35730000D01*
X113520000Y-34270000D01*
%TO.C,D1*%
X123520000Y-34270000D02*
X126480000Y-34270000D01*
X126480000Y-35730000D01*
X123520000Y-35730000D01*
X123520000Y-34270000D01*
%TO.C,R1*%
X128520000Y-34270000D02*
X131480000Y-34270000D01*
X131480000Y-35730000D01*
X128520000Y-35730000D01*
X128520000Y-34270000D01*
%TO.C,R10*%
X133520000Y-34270000D02*
X136480000Y-34270000D01*
X136480000Y-35730000D01*
X133520000Y-35730000D01*
X133520000Y-34270000D01*
%TO.C,R3*%
X138520000Y-34270000D02*
X141480000Y-34270000D01*
X141480000Y-35730000D01*
X138520000Y-35730000D01*
X138520000Y-34270000D01*
%TO.C,C8*%
X113520000Y-44270000D02*
X116480000Y-44270000D01*
X116480000Y-45730000D01*
X113520000Y-45730000D01*
X113520000Y-44270000D01*
%TO.C,C2*%
X118520000Y-44270000D02*
X121480000Y-44270000D01*
X121480000Y-45730000D01*
X118520000Y-45730000D01*
X118520000Y-44270000D01*
%TO.C,Q1*%
X128070000Y-43500000D02*
X129100000Y-43500000D01*
X128070000Y-44610000D02*
X128070000Y-43500000D01*
X128070000Y-45390000D02*
X129100000Y-45390000D01*
X128070000Y-46500000D02*
X128070000Y-45390000D01*
X129100000Y-43300000D02*
X130900000Y-43300000D01*
X129100000Y-43500000D02*
X129100000Y-43300000D01*
X129100000Y-44610000D02*
X128070000Y-44610000D01*
X129100000Y-45390000D02*
X129100000Y-44610000D01*
X129100000Y-46500000D02*
X128070000Y-46500000D01*
X129100000Y-46700000D02*
X129100000Y-46500000D01*
X130900000Y-43300000D02*
X130900000Y-44450000D01*
X130900000Y-44450000D02*
X131930000Y-44450000D01*
X130900000Y-45550000D02*
X130900000Y-46700000D01*
X130900000Y-46700000D02*
X129100000Y-46700000D01*
X131930000Y-44450000D02*
X131930000Y-45550000D01*
X131930000Y-45550000D02*
X130900000Y-45550000D01*
%TO.C,J4*%
X107550000Y-72800000D02*
X114450000Y-72800000D01*
X114450000Y-78300000D01*
X107550000Y-78300000D01*
X107550000Y-72800000D01*
%TO.C,J3*%
X108230000Y-48230000D02*
X111770000Y-48230000D01*
X111770000Y-59390000D01*
X108230000Y-59390000D01*
X108230000Y-48230000D01*
%TO.C,C1*%
X138520000Y-44270000D02*
X141480000Y-44270000D01*
X141480000Y-45730000D01*
X138520000Y-45730000D01*
X138520000Y-44270000D01*
%TO.C,D3*%
X146500000Y-43250000D02*
X153500000Y-43250000D01*
X146500000Y-46750000D02*
X146500000Y-43250000D01*
X153500000Y-43250000D02*
X153500000Y-46750000D01*
X153500000Y-46750000D02*
X146500000Y-46750000D01*
%TO.C,U1*%
X56000000Y-32250000D02*
X56000000Y-53250000D01*
X56000000Y-53250000D02*
X70250000Y-53250000D01*
X70250000Y-73450000D02*
X70250000Y-53250000D01*
X70250000Y-73450000D02*
X89750000Y-73450000D01*
X89750000Y-53250000D02*
X89750000Y-73450000D01*
X89750000Y-53250000D02*
X104000000Y-53250000D01*
X104000000Y-32250000D02*
X56000000Y-32250000D01*
X104000000Y-53250000D02*
X104000000Y-32250000D01*
%TO.C,U4*%
X41950000Y-43500000D02*
X42950000Y-43500000D01*
X41950000Y-46500000D02*
X41950000Y-43500000D01*
X42950000Y-43300000D02*
X45050000Y-43300000D01*
X42950000Y-43500000D02*
X42950000Y-43300000D01*
X42950000Y-46500000D02*
X41950000Y-46500000D01*
X42950000Y-46700000D02*
X42950000Y-46500000D01*
X45050000Y-43300000D02*
X45050000Y-43500000D01*
X45050000Y-43500000D02*
X46050000Y-43500000D01*
X45050000Y-44610000D02*
X45050000Y-45390000D01*
X45050000Y-45390000D02*
X46050000Y-45390000D01*
X45050000Y-46500000D02*
X45050000Y-46700000D01*
X45050000Y-46700000D02*
X42950000Y-46700000D01*
X46050000Y-43500000D02*
X46050000Y-44610000D01*
X46050000Y-44610000D02*
X45050000Y-44610000D01*
X46050000Y-45390000D02*
X46050000Y-46500000D01*
X46050000Y-46500000D02*
X45050000Y-46500000D01*
%TO.C,D4*%
X158520000Y-44270000D02*
X161480000Y-44270000D01*
X161480000Y-45730000D01*
X158520000Y-45730000D01*
X158520000Y-44270000D01*
%TD*%
M02*
