%TF.GenerationSoftware,KiCad,Pcbnew,9.0.7*%
%TF.CreationDate,2026-03-23T16:43:12+05:30*%
%TF.ProjectId,Pill_Dispenser_V4,50696c6c-5f44-4697-9370-656e7365725f,rev?*%
%TF.SameCoordinates,Original*%
%TF.FileFunction,OtherDrawing,Comment*%
%FSLAX46Y46*%
G04 Gerber Fmt 4.6, Leading zero omitted, Abs format (unit mm)*
G04 Created by KiCad (PCBNEW 9.0.7) date 2026-03-23 16:43:12*
%MOMM*%
%LPD*%
G01*
G04 APERTURE LIST*
%ADD10C,0.100000*%
G04 APERTURE END LIST*
D10*
X10285714Y-63126109D02*
X10285714Y-62626109D01*
X10285714Y-62626109D02*
X10476190Y-62626109D01*
X10476190Y-62626109D02*
X10523809Y-62649919D01*
X10523809Y-62649919D02*
X10547619Y-62673728D01*
X10547619Y-62673728D02*
X10571428Y-62721347D01*
X10571428Y-62721347D02*
X10571428Y-62792776D01*
X10571428Y-62792776D02*
X10547619Y-62840395D01*
X10547619Y-62840395D02*
X10523809Y-62864204D01*
X10523809Y-62864204D02*
X10476190Y-62888014D01*
X10476190Y-62888014D02*
X10285714Y-62888014D01*
X11071428Y-63078490D02*
X11047619Y-63102300D01*
X11047619Y-63102300D02*
X10976190Y-63126109D01*
X10976190Y-63126109D02*
X10928571Y-63126109D01*
X10928571Y-63126109D02*
X10857143Y-63102300D01*
X10857143Y-63102300D02*
X10809524Y-63054680D01*
X10809524Y-63054680D02*
X10785714Y-63007061D01*
X10785714Y-63007061D02*
X10761905Y-62911823D01*
X10761905Y-62911823D02*
X10761905Y-62840395D01*
X10761905Y-62840395D02*
X10785714Y-62745157D01*
X10785714Y-62745157D02*
X10809524Y-62697538D01*
X10809524Y-62697538D02*
X10857143Y-62649919D01*
X10857143Y-62649919D02*
X10928571Y-62626109D01*
X10928571Y-62626109D02*
X10976190Y-62626109D01*
X10976190Y-62626109D02*
X11047619Y-62649919D01*
X11047619Y-62649919D02*
X11071428Y-62673728D01*
X11452381Y-62864204D02*
X11523809Y-62888014D01*
X11523809Y-62888014D02*
X11547619Y-62911823D01*
X11547619Y-62911823D02*
X11571428Y-62959442D01*
X11571428Y-62959442D02*
X11571428Y-63030871D01*
X11571428Y-63030871D02*
X11547619Y-63078490D01*
X11547619Y-63078490D02*
X11523809Y-63102300D01*
X11523809Y-63102300D02*
X11476190Y-63126109D01*
X11476190Y-63126109D02*
X11285714Y-63126109D01*
X11285714Y-63126109D02*
X11285714Y-62626109D01*
X11285714Y-62626109D02*
X11452381Y-62626109D01*
X11452381Y-62626109D02*
X11500000Y-62649919D01*
X11500000Y-62649919D02*
X11523809Y-62673728D01*
X11523809Y-62673728D02*
X11547619Y-62721347D01*
X11547619Y-62721347D02*
X11547619Y-62768966D01*
X11547619Y-62768966D02*
X11523809Y-62816585D01*
X11523809Y-62816585D02*
X11500000Y-62840395D01*
X11500000Y-62840395D02*
X11452381Y-62864204D01*
X11452381Y-62864204D02*
X11285714Y-62864204D01*
X12166666Y-62864204D02*
X12333333Y-62864204D01*
X12404761Y-63126109D02*
X12166666Y-63126109D01*
X12166666Y-63126109D02*
X12166666Y-62626109D01*
X12166666Y-62626109D02*
X12404761Y-62626109D01*
X12833333Y-63126109D02*
X12833333Y-62626109D01*
X12833333Y-63102300D02*
X12785714Y-63126109D01*
X12785714Y-63126109D02*
X12690476Y-63126109D01*
X12690476Y-63126109D02*
X12642857Y-63102300D01*
X12642857Y-63102300D02*
X12619047Y-63078490D01*
X12619047Y-63078490D02*
X12595238Y-63030871D01*
X12595238Y-63030871D02*
X12595238Y-62888014D01*
X12595238Y-62888014D02*
X12619047Y-62840395D01*
X12619047Y-62840395D02*
X12642857Y-62816585D01*
X12642857Y-62816585D02*
X12690476Y-62792776D01*
X12690476Y-62792776D02*
X12785714Y-62792776D01*
X12785714Y-62792776D02*
X12833333Y-62816585D01*
X13285714Y-62792776D02*
X13285714Y-63197538D01*
X13285714Y-63197538D02*
X13261904Y-63245157D01*
X13261904Y-63245157D02*
X13238095Y-63268966D01*
X13238095Y-63268966D02*
X13190476Y-63292776D01*
X13190476Y-63292776D02*
X13119047Y-63292776D01*
X13119047Y-63292776D02*
X13071428Y-63268966D01*
X13285714Y-63102300D02*
X13238095Y-63126109D01*
X13238095Y-63126109D02*
X13142857Y-63126109D01*
X13142857Y-63126109D02*
X13095238Y-63102300D01*
X13095238Y-63102300D02*
X13071428Y-63078490D01*
X13071428Y-63078490D02*
X13047619Y-63030871D01*
X13047619Y-63030871D02*
X13047619Y-62888014D01*
X13047619Y-62888014D02*
X13071428Y-62840395D01*
X13071428Y-62840395D02*
X13095238Y-62816585D01*
X13095238Y-62816585D02*
X13142857Y-62792776D01*
X13142857Y-62792776D02*
X13238095Y-62792776D01*
X13238095Y-62792776D02*
X13285714Y-62816585D01*
X13714285Y-63102300D02*
X13666666Y-63126109D01*
X13666666Y-63126109D02*
X13571428Y-63126109D01*
X13571428Y-63126109D02*
X13523809Y-63102300D01*
X13523809Y-63102300D02*
X13500000Y-63054680D01*
X13500000Y-63054680D02*
X13500000Y-62864204D01*
X13500000Y-62864204D02*
X13523809Y-62816585D01*
X13523809Y-62816585D02*
X13571428Y-62792776D01*
X13571428Y-62792776D02*
X13666666Y-62792776D01*
X13666666Y-62792776D02*
X13714285Y-62816585D01*
X13714285Y-62816585D02*
X13738095Y-62864204D01*
X13738095Y-62864204D02*
X13738095Y-62911823D01*
X13738095Y-62911823D02*
X13500000Y-62959442D01*
%TO.C,J1*%
X7250000Y-63452500D02*
X16750000Y-63452500D01*
%TD*%
M02*
