%TF.GenerationSoftware,KiCad,Pcbnew,9.0.7*%
%TF.CreationDate,2026-03-23T16:43:12+05:30*%
%TF.ProjectId,Pill_Dispenser_V4,50696c6c-5f44-4697-9370-656e7365725f,rev?*%
%TF.SameCoordinates,Original*%
%TF.FileFunction,AssemblyDrawing,Top*%
%FSLAX46Y46*%
G04 Gerber Fmt 4.6, Leading zero omitted, Abs format (unit mm)*
G04 Created by KiCad (PCBNEW 9.0.7) date 2026-03-23 16:43:12*
%MOMM*%
%LPD*%
G01*
G04 APERTURE LIST*
%ADD10C,0.150000*%
%ADD11C,0.060000*%
%ADD12C,0.110000*%
%ADD13C,0.100000*%
G04 APERTURE END LIST*
D10*
X24880952Y-16884819D02*
X24309524Y-16884819D01*
X24595238Y-16884819D02*
X24595238Y-15884819D01*
X24595238Y-15884819D02*
X24500000Y-16027676D01*
X24500000Y-16027676D02*
X24404762Y-16122914D01*
X24404762Y-16122914D02*
X24309524Y-16170533D01*
X25309524Y-16884819D02*
X25309524Y-15884819D01*
X25404762Y-16503866D02*
X25690476Y-16884819D01*
X25690476Y-16218152D02*
X25309524Y-16599104D01*
D11*
X24933333Y-15181927D02*
X24800000Y-14991451D01*
X24704762Y-15181927D02*
X24704762Y-14781927D01*
X24704762Y-14781927D02*
X24857143Y-14781927D01*
X24857143Y-14781927D02*
X24895238Y-14800975D01*
X24895238Y-14800975D02*
X24914285Y-14820022D01*
X24914285Y-14820022D02*
X24933333Y-14858118D01*
X24933333Y-14858118D02*
X24933333Y-14915260D01*
X24933333Y-14915260D02*
X24914285Y-14953356D01*
X24914285Y-14953356D02*
X24895238Y-14972403D01*
X24895238Y-14972403D02*
X24857143Y-14991451D01*
X24857143Y-14991451D02*
X24704762Y-14991451D01*
X25276190Y-14915260D02*
X25276190Y-15181927D01*
X25180952Y-14762880D02*
X25085714Y-15048594D01*
X25085714Y-15048594D02*
X25333333Y-15048594D01*
D10*
X33285714Y-18704819D02*
X33285714Y-19514342D01*
X33285714Y-19514342D02*
X33333333Y-19609580D01*
X33333333Y-19609580D02*
X33380952Y-19657200D01*
X33380952Y-19657200D02*
X33476190Y-19704819D01*
X33476190Y-19704819D02*
X33666666Y-19704819D01*
X33666666Y-19704819D02*
X33761904Y-19657200D01*
X33761904Y-19657200D02*
X33809523Y-19609580D01*
X33809523Y-19609580D02*
X33857142Y-19514342D01*
X33857142Y-19514342D02*
X33857142Y-18704819D01*
X34285714Y-19657200D02*
X34428571Y-19704819D01*
X34428571Y-19704819D02*
X34666666Y-19704819D01*
X34666666Y-19704819D02*
X34761904Y-19657200D01*
X34761904Y-19657200D02*
X34809523Y-19609580D01*
X34809523Y-19609580D02*
X34857142Y-19514342D01*
X34857142Y-19514342D02*
X34857142Y-19419104D01*
X34857142Y-19419104D02*
X34809523Y-19323866D01*
X34809523Y-19323866D02*
X34761904Y-19276247D01*
X34761904Y-19276247D02*
X34666666Y-19228628D01*
X34666666Y-19228628D02*
X34476190Y-19181009D01*
X34476190Y-19181009D02*
X34380952Y-19133390D01*
X34380952Y-19133390D02*
X34333333Y-19085771D01*
X34333333Y-19085771D02*
X34285714Y-18990533D01*
X34285714Y-18990533D02*
X34285714Y-18895295D01*
X34285714Y-18895295D02*
X34333333Y-18800057D01*
X34333333Y-18800057D02*
X34380952Y-18752438D01*
X34380952Y-18752438D02*
X34476190Y-18704819D01*
X34476190Y-18704819D02*
X34714285Y-18704819D01*
X34714285Y-18704819D02*
X34857142Y-18752438D01*
X35285714Y-19181009D02*
X35619047Y-19181009D01*
X35761904Y-19704819D02*
X35285714Y-19704819D01*
X35285714Y-19704819D02*
X35285714Y-18704819D01*
X35285714Y-18704819D02*
X35761904Y-18704819D01*
X36761904Y-19704819D02*
X36428571Y-19228628D01*
X36190476Y-19704819D02*
X36190476Y-18704819D01*
X36190476Y-18704819D02*
X36571428Y-18704819D01*
X36571428Y-18704819D02*
X36666666Y-18752438D01*
X36666666Y-18752438D02*
X36714285Y-18800057D01*
X36714285Y-18800057D02*
X36761904Y-18895295D01*
X36761904Y-18895295D02*
X36761904Y-19038152D01*
X36761904Y-19038152D02*
X36714285Y-19133390D01*
X36714285Y-19133390D02*
X36666666Y-19181009D01*
X36666666Y-19181009D02*
X36571428Y-19228628D01*
X36571428Y-19228628D02*
X36190476Y-19228628D01*
X33666667Y-11507200D02*
X33809524Y-11554819D01*
X33809524Y-11554819D02*
X34047619Y-11554819D01*
X34047619Y-11554819D02*
X34142857Y-11507200D01*
X34142857Y-11507200D02*
X34190476Y-11459580D01*
X34190476Y-11459580D02*
X34238095Y-11364342D01*
X34238095Y-11364342D02*
X34238095Y-11269104D01*
X34238095Y-11269104D02*
X34190476Y-11173866D01*
X34190476Y-11173866D02*
X34142857Y-11126247D01*
X34142857Y-11126247D02*
X34047619Y-11078628D01*
X34047619Y-11078628D02*
X33857143Y-11031009D01*
X33857143Y-11031009D02*
X33761905Y-10983390D01*
X33761905Y-10983390D02*
X33714286Y-10935771D01*
X33714286Y-10935771D02*
X33666667Y-10840533D01*
X33666667Y-10840533D02*
X33666667Y-10745295D01*
X33666667Y-10745295D02*
X33714286Y-10650057D01*
X33714286Y-10650057D02*
X33761905Y-10602438D01*
X33761905Y-10602438D02*
X33857143Y-10554819D01*
X33857143Y-10554819D02*
X34095238Y-10554819D01*
X34095238Y-10554819D02*
X34238095Y-10602438D01*
X34571429Y-10554819D02*
X34809524Y-11554819D01*
X34809524Y-11554819D02*
X35000000Y-10840533D01*
X35000000Y-10840533D02*
X35190476Y-11554819D01*
X35190476Y-11554819D02*
X35428572Y-10554819D01*
X36333333Y-11554819D02*
X35761905Y-11554819D01*
X36047619Y-11554819D02*
X36047619Y-10554819D01*
X36047619Y-10554819D02*
X35952381Y-10697676D01*
X35952381Y-10697676D02*
X35857143Y-10792914D01*
X35857143Y-10792914D02*
X35761905Y-10840533D01*
X43547618Y-19704819D02*
X43214285Y-19228628D01*
X42976190Y-19704819D02*
X42976190Y-18704819D01*
X42976190Y-18704819D02*
X43357142Y-18704819D01*
X43357142Y-18704819D02*
X43452380Y-18752438D01*
X43452380Y-18752438D02*
X43499999Y-18800057D01*
X43499999Y-18800057D02*
X43547618Y-18895295D01*
X43547618Y-18895295D02*
X43547618Y-19038152D01*
X43547618Y-19038152D02*
X43499999Y-19133390D01*
X43499999Y-19133390D02*
X43452380Y-19181009D01*
X43452380Y-19181009D02*
X43357142Y-19228628D01*
X43357142Y-19228628D02*
X42976190Y-19228628D01*
X43976190Y-19181009D02*
X44309523Y-19181009D01*
X44452380Y-19704819D02*
X43976190Y-19704819D01*
X43976190Y-19704819D02*
X43976190Y-18704819D01*
X43976190Y-18704819D02*
X44452380Y-18704819D01*
X44833333Y-19657200D02*
X44976190Y-19704819D01*
X44976190Y-19704819D02*
X45214285Y-19704819D01*
X45214285Y-19704819D02*
X45309523Y-19657200D01*
X45309523Y-19657200D02*
X45357142Y-19609580D01*
X45357142Y-19609580D02*
X45404761Y-19514342D01*
X45404761Y-19514342D02*
X45404761Y-19419104D01*
X45404761Y-19419104D02*
X45357142Y-19323866D01*
X45357142Y-19323866D02*
X45309523Y-19276247D01*
X45309523Y-19276247D02*
X45214285Y-19228628D01*
X45214285Y-19228628D02*
X45023809Y-19181009D01*
X45023809Y-19181009D02*
X44928571Y-19133390D01*
X44928571Y-19133390D02*
X44880952Y-19085771D01*
X44880952Y-19085771D02*
X44833333Y-18990533D01*
X44833333Y-18990533D02*
X44833333Y-18895295D01*
X44833333Y-18895295D02*
X44880952Y-18800057D01*
X44880952Y-18800057D02*
X44928571Y-18752438D01*
X44928571Y-18752438D02*
X45023809Y-18704819D01*
X45023809Y-18704819D02*
X45261904Y-18704819D01*
X45261904Y-18704819D02*
X45404761Y-18752438D01*
X45833333Y-19181009D02*
X46166666Y-19181009D01*
X46309523Y-19704819D02*
X45833333Y-19704819D01*
X45833333Y-19704819D02*
X45833333Y-18704819D01*
X45833333Y-18704819D02*
X46309523Y-18704819D01*
X46595238Y-18704819D02*
X47166666Y-18704819D01*
X46880952Y-19704819D02*
X46880952Y-18704819D01*
X43666667Y-11507200D02*
X43809524Y-11554819D01*
X43809524Y-11554819D02*
X44047619Y-11554819D01*
X44047619Y-11554819D02*
X44142857Y-11507200D01*
X44142857Y-11507200D02*
X44190476Y-11459580D01*
X44190476Y-11459580D02*
X44238095Y-11364342D01*
X44238095Y-11364342D02*
X44238095Y-11269104D01*
X44238095Y-11269104D02*
X44190476Y-11173866D01*
X44190476Y-11173866D02*
X44142857Y-11126247D01*
X44142857Y-11126247D02*
X44047619Y-11078628D01*
X44047619Y-11078628D02*
X43857143Y-11031009D01*
X43857143Y-11031009D02*
X43761905Y-10983390D01*
X43761905Y-10983390D02*
X43714286Y-10935771D01*
X43714286Y-10935771D02*
X43666667Y-10840533D01*
X43666667Y-10840533D02*
X43666667Y-10745295D01*
X43666667Y-10745295D02*
X43714286Y-10650057D01*
X43714286Y-10650057D02*
X43761905Y-10602438D01*
X43761905Y-10602438D02*
X43857143Y-10554819D01*
X43857143Y-10554819D02*
X44095238Y-10554819D01*
X44095238Y-10554819D02*
X44238095Y-10602438D01*
X44571429Y-10554819D02*
X44809524Y-11554819D01*
X44809524Y-11554819D02*
X45000000Y-10840533D01*
X45000000Y-10840533D02*
X45190476Y-11554819D01*
X45190476Y-11554819D02*
X45428572Y-10554819D01*
X45714286Y-10554819D02*
X46333333Y-10554819D01*
X46333333Y-10554819D02*
X46000000Y-10935771D01*
X46000000Y-10935771D02*
X46142857Y-10935771D01*
X46142857Y-10935771D02*
X46238095Y-10983390D01*
X46238095Y-10983390D02*
X46285714Y-11031009D01*
X46285714Y-11031009D02*
X46333333Y-11126247D01*
X46333333Y-11126247D02*
X46333333Y-11364342D01*
X46333333Y-11364342D02*
X46285714Y-11459580D01*
X46285714Y-11459580D02*
X46238095Y-11507200D01*
X46238095Y-11507200D02*
X46142857Y-11554819D01*
X46142857Y-11554819D02*
X45857143Y-11554819D01*
X45857143Y-11554819D02*
X45761905Y-11507200D01*
X45761905Y-11507200D02*
X45714286Y-11459580D01*
X53452380Y-16884819D02*
X52880952Y-16884819D01*
X53166666Y-16884819D02*
X53166666Y-15884819D01*
X53166666Y-15884819D02*
X53071428Y-16027676D01*
X53071428Y-16027676D02*
X52976190Y-16122914D01*
X52976190Y-16122914D02*
X52880952Y-16170533D01*
X54071428Y-15884819D02*
X54166666Y-15884819D01*
X54166666Y-15884819D02*
X54261904Y-15932438D01*
X54261904Y-15932438D02*
X54309523Y-15980057D01*
X54309523Y-15980057D02*
X54357142Y-16075295D01*
X54357142Y-16075295D02*
X54404761Y-16265771D01*
X54404761Y-16265771D02*
X54404761Y-16503866D01*
X54404761Y-16503866D02*
X54357142Y-16694342D01*
X54357142Y-16694342D02*
X54309523Y-16789580D01*
X54309523Y-16789580D02*
X54261904Y-16837200D01*
X54261904Y-16837200D02*
X54166666Y-16884819D01*
X54166666Y-16884819D02*
X54071428Y-16884819D01*
X54071428Y-16884819D02*
X53976190Y-16837200D01*
X53976190Y-16837200D02*
X53928571Y-16789580D01*
X53928571Y-16789580D02*
X53880952Y-16694342D01*
X53880952Y-16694342D02*
X53833333Y-16503866D01*
X53833333Y-16503866D02*
X53833333Y-16265771D01*
X53833333Y-16265771D02*
X53880952Y-16075295D01*
X53880952Y-16075295D02*
X53928571Y-15980057D01*
X53928571Y-15980057D02*
X53976190Y-15932438D01*
X53976190Y-15932438D02*
X54071428Y-15884819D01*
X55023809Y-15884819D02*
X55119047Y-15884819D01*
X55119047Y-15884819D02*
X55214285Y-15932438D01*
X55214285Y-15932438D02*
X55261904Y-15980057D01*
X55261904Y-15980057D02*
X55309523Y-16075295D01*
X55309523Y-16075295D02*
X55357142Y-16265771D01*
X55357142Y-16265771D02*
X55357142Y-16503866D01*
X55357142Y-16503866D02*
X55309523Y-16694342D01*
X55309523Y-16694342D02*
X55261904Y-16789580D01*
X55261904Y-16789580D02*
X55214285Y-16837200D01*
X55214285Y-16837200D02*
X55119047Y-16884819D01*
X55119047Y-16884819D02*
X55023809Y-16884819D01*
X55023809Y-16884819D02*
X54928571Y-16837200D01*
X54928571Y-16837200D02*
X54880952Y-16789580D01*
X54880952Y-16789580D02*
X54833333Y-16694342D01*
X54833333Y-16694342D02*
X54785714Y-16503866D01*
X54785714Y-16503866D02*
X54785714Y-16265771D01*
X54785714Y-16265771D02*
X54833333Y-16075295D01*
X54833333Y-16075295D02*
X54880952Y-15980057D01*
X54880952Y-15980057D02*
X54928571Y-15932438D01*
X54928571Y-15932438D02*
X55023809Y-15884819D01*
X55785714Y-16218152D02*
X55785714Y-16884819D01*
X55785714Y-16313390D02*
X55833333Y-16265771D01*
X55833333Y-16265771D02*
X55928571Y-16218152D01*
X55928571Y-16218152D02*
X56071428Y-16218152D01*
X56071428Y-16218152D02*
X56166666Y-16265771D01*
X56166666Y-16265771D02*
X56214285Y-16361009D01*
X56214285Y-16361009D02*
X56214285Y-16884819D01*
X57023809Y-16361009D02*
X56690476Y-16361009D01*
X56690476Y-16884819D02*
X56690476Y-15884819D01*
X56690476Y-15884819D02*
X57166666Y-15884819D01*
D11*
X54933333Y-15143832D02*
X54914285Y-15162880D01*
X54914285Y-15162880D02*
X54857143Y-15181927D01*
X54857143Y-15181927D02*
X54819047Y-15181927D01*
X54819047Y-15181927D02*
X54761904Y-15162880D01*
X54761904Y-15162880D02*
X54723809Y-15124784D01*
X54723809Y-15124784D02*
X54704762Y-15086689D01*
X54704762Y-15086689D02*
X54685714Y-15010499D01*
X54685714Y-15010499D02*
X54685714Y-14953356D01*
X54685714Y-14953356D02*
X54704762Y-14877165D01*
X54704762Y-14877165D02*
X54723809Y-14839070D01*
X54723809Y-14839070D02*
X54761904Y-14800975D01*
X54761904Y-14800975D02*
X54819047Y-14781927D01*
X54819047Y-14781927D02*
X54857143Y-14781927D01*
X54857143Y-14781927D02*
X54914285Y-14800975D01*
X54914285Y-14800975D02*
X54933333Y-14820022D01*
X55276190Y-14781927D02*
X55200000Y-14781927D01*
X55200000Y-14781927D02*
X55161904Y-14800975D01*
X55161904Y-14800975D02*
X55142857Y-14820022D01*
X55142857Y-14820022D02*
X55104762Y-14877165D01*
X55104762Y-14877165D02*
X55085714Y-14953356D01*
X55085714Y-14953356D02*
X55085714Y-15105737D01*
X55085714Y-15105737D02*
X55104762Y-15143832D01*
X55104762Y-15143832D02*
X55123809Y-15162880D01*
X55123809Y-15162880D02*
X55161904Y-15181927D01*
X55161904Y-15181927D02*
X55238095Y-15181927D01*
X55238095Y-15181927D02*
X55276190Y-15162880D01*
X55276190Y-15162880D02*
X55295238Y-15143832D01*
X55295238Y-15143832D02*
X55314285Y-15105737D01*
X55314285Y-15105737D02*
X55314285Y-15010499D01*
X55314285Y-15010499D02*
X55295238Y-14972403D01*
X55295238Y-14972403D02*
X55276190Y-14953356D01*
X55276190Y-14953356D02*
X55238095Y-14934308D01*
X55238095Y-14934308D02*
X55161904Y-14934308D01*
X55161904Y-14934308D02*
X55123809Y-14953356D01*
X55123809Y-14953356D02*
X55104762Y-14972403D01*
X55104762Y-14972403D02*
X55085714Y-15010499D01*
D10*
X63452380Y-19804819D02*
X62880952Y-19804819D01*
X63166666Y-19804819D02*
X63166666Y-18804819D01*
X63166666Y-18804819D02*
X63071428Y-18947676D01*
X63071428Y-18947676D02*
X62976190Y-19042914D01*
X62976190Y-19042914D02*
X62880952Y-19090533D01*
X64071428Y-18804819D02*
X64166666Y-18804819D01*
X64166666Y-18804819D02*
X64261904Y-18852438D01*
X64261904Y-18852438D02*
X64309523Y-18900057D01*
X64309523Y-18900057D02*
X64357142Y-18995295D01*
X64357142Y-18995295D02*
X64404761Y-19185771D01*
X64404761Y-19185771D02*
X64404761Y-19423866D01*
X64404761Y-19423866D02*
X64357142Y-19614342D01*
X64357142Y-19614342D02*
X64309523Y-19709580D01*
X64309523Y-19709580D02*
X64261904Y-19757200D01*
X64261904Y-19757200D02*
X64166666Y-19804819D01*
X64166666Y-19804819D02*
X64071428Y-19804819D01*
X64071428Y-19804819D02*
X63976190Y-19757200D01*
X63976190Y-19757200D02*
X63928571Y-19709580D01*
X63928571Y-19709580D02*
X63880952Y-19614342D01*
X63880952Y-19614342D02*
X63833333Y-19423866D01*
X63833333Y-19423866D02*
X63833333Y-19185771D01*
X63833333Y-19185771D02*
X63880952Y-18995295D01*
X63880952Y-18995295D02*
X63928571Y-18900057D01*
X63928571Y-18900057D02*
X63976190Y-18852438D01*
X63976190Y-18852438D02*
X64071428Y-18804819D01*
X65023809Y-18804819D02*
X65119047Y-18804819D01*
X65119047Y-18804819D02*
X65214285Y-18852438D01*
X65214285Y-18852438D02*
X65261904Y-18900057D01*
X65261904Y-18900057D02*
X65309523Y-18995295D01*
X65309523Y-18995295D02*
X65357142Y-19185771D01*
X65357142Y-19185771D02*
X65357142Y-19423866D01*
X65357142Y-19423866D02*
X65309523Y-19614342D01*
X65309523Y-19614342D02*
X65261904Y-19709580D01*
X65261904Y-19709580D02*
X65214285Y-19757200D01*
X65214285Y-19757200D02*
X65119047Y-19804819D01*
X65119047Y-19804819D02*
X65023809Y-19804819D01*
X65023809Y-19804819D02*
X64928571Y-19757200D01*
X64928571Y-19757200D02*
X64880952Y-19709580D01*
X64880952Y-19709580D02*
X64833333Y-19614342D01*
X64833333Y-19614342D02*
X64785714Y-19423866D01*
X64785714Y-19423866D02*
X64785714Y-19185771D01*
X64785714Y-19185771D02*
X64833333Y-18995295D01*
X64833333Y-18995295D02*
X64880952Y-18900057D01*
X64880952Y-18900057D02*
X64928571Y-18852438D01*
X64928571Y-18852438D02*
X65023809Y-18804819D01*
X66214285Y-19138152D02*
X66214285Y-19804819D01*
X65785714Y-19138152D02*
X65785714Y-19661961D01*
X65785714Y-19661961D02*
X65833333Y-19757200D01*
X65833333Y-19757200D02*
X65928571Y-19804819D01*
X65928571Y-19804819D02*
X66071428Y-19804819D01*
X66071428Y-19804819D02*
X66166666Y-19757200D01*
X66166666Y-19757200D02*
X66214285Y-19709580D01*
X67023809Y-19281009D02*
X66690476Y-19281009D01*
X66690476Y-19804819D02*
X66690476Y-18804819D01*
X66690476Y-18804819D02*
X67166666Y-18804819D01*
X64357142Y-15359580D02*
X64309523Y-15407200D01*
X64309523Y-15407200D02*
X64166666Y-15454819D01*
X64166666Y-15454819D02*
X64071428Y-15454819D01*
X64071428Y-15454819D02*
X63928571Y-15407200D01*
X63928571Y-15407200D02*
X63833333Y-15311961D01*
X63833333Y-15311961D02*
X63785714Y-15216723D01*
X63785714Y-15216723D02*
X63738095Y-15026247D01*
X63738095Y-15026247D02*
X63738095Y-14883390D01*
X63738095Y-14883390D02*
X63785714Y-14692914D01*
X63785714Y-14692914D02*
X63833333Y-14597676D01*
X63833333Y-14597676D02*
X63928571Y-14502438D01*
X63928571Y-14502438D02*
X64071428Y-14454819D01*
X64071428Y-14454819D02*
X64166666Y-14454819D01*
X64166666Y-14454819D02*
X64309523Y-14502438D01*
X64309523Y-14502438D02*
X64357142Y-14550057D01*
X65309523Y-15454819D02*
X64738095Y-15454819D01*
X65023809Y-15454819D02*
X65023809Y-14454819D01*
X65023809Y-14454819D02*
X64928571Y-14597676D01*
X64928571Y-14597676D02*
X64833333Y-14692914D01*
X64833333Y-14692914D02*
X64738095Y-14740533D01*
X65928571Y-14454819D02*
X66023809Y-14454819D01*
X66023809Y-14454819D02*
X66119047Y-14502438D01*
X66119047Y-14502438D02*
X66166666Y-14550057D01*
X66166666Y-14550057D02*
X66214285Y-14645295D01*
X66214285Y-14645295D02*
X66261904Y-14835771D01*
X66261904Y-14835771D02*
X66261904Y-15073866D01*
X66261904Y-15073866D02*
X66214285Y-15264342D01*
X66214285Y-15264342D02*
X66166666Y-15359580D01*
X66166666Y-15359580D02*
X66119047Y-15407200D01*
X66119047Y-15407200D02*
X66023809Y-15454819D01*
X66023809Y-15454819D02*
X65928571Y-15454819D01*
X65928571Y-15454819D02*
X65833333Y-15407200D01*
X65833333Y-15407200D02*
X65785714Y-15359580D01*
X65785714Y-15359580D02*
X65738095Y-15264342D01*
X65738095Y-15264342D02*
X65690476Y-15073866D01*
X65690476Y-15073866D02*
X65690476Y-14835771D01*
X65690476Y-14835771D02*
X65738095Y-14645295D01*
X65738095Y-14645295D02*
X65785714Y-14550057D01*
X65785714Y-14550057D02*
X65833333Y-14502438D01*
X65833333Y-14502438D02*
X65928571Y-14454819D01*
X73642857Y-19181009D02*
X73785714Y-19228628D01*
X73785714Y-19228628D02*
X73833333Y-19276247D01*
X73833333Y-19276247D02*
X73880952Y-19371485D01*
X73880952Y-19371485D02*
X73880952Y-19514342D01*
X73880952Y-19514342D02*
X73833333Y-19609580D01*
X73833333Y-19609580D02*
X73785714Y-19657200D01*
X73785714Y-19657200D02*
X73690476Y-19704819D01*
X73690476Y-19704819D02*
X73309524Y-19704819D01*
X73309524Y-19704819D02*
X73309524Y-18704819D01*
X73309524Y-18704819D02*
X73642857Y-18704819D01*
X73642857Y-18704819D02*
X73738095Y-18752438D01*
X73738095Y-18752438D02*
X73785714Y-18800057D01*
X73785714Y-18800057D02*
X73833333Y-18895295D01*
X73833333Y-18895295D02*
X73833333Y-18990533D01*
X73833333Y-18990533D02*
X73785714Y-19085771D01*
X73785714Y-19085771D02*
X73738095Y-19133390D01*
X73738095Y-19133390D02*
X73642857Y-19181009D01*
X73642857Y-19181009D02*
X73309524Y-19181009D01*
X74500000Y-18704819D02*
X74690476Y-18704819D01*
X74690476Y-18704819D02*
X74785714Y-18752438D01*
X74785714Y-18752438D02*
X74880952Y-18847676D01*
X74880952Y-18847676D02*
X74928571Y-19038152D01*
X74928571Y-19038152D02*
X74928571Y-19371485D01*
X74928571Y-19371485D02*
X74880952Y-19561961D01*
X74880952Y-19561961D02*
X74785714Y-19657200D01*
X74785714Y-19657200D02*
X74690476Y-19704819D01*
X74690476Y-19704819D02*
X74500000Y-19704819D01*
X74500000Y-19704819D02*
X74404762Y-19657200D01*
X74404762Y-19657200D02*
X74309524Y-19561961D01*
X74309524Y-19561961D02*
X74261905Y-19371485D01*
X74261905Y-19371485D02*
X74261905Y-19038152D01*
X74261905Y-19038152D02*
X74309524Y-18847676D01*
X74309524Y-18847676D02*
X74404762Y-18752438D01*
X74404762Y-18752438D02*
X74500000Y-18704819D01*
X75547619Y-18704819D02*
X75738095Y-18704819D01*
X75738095Y-18704819D02*
X75833333Y-18752438D01*
X75833333Y-18752438D02*
X75928571Y-18847676D01*
X75928571Y-18847676D02*
X75976190Y-19038152D01*
X75976190Y-19038152D02*
X75976190Y-19371485D01*
X75976190Y-19371485D02*
X75928571Y-19561961D01*
X75928571Y-19561961D02*
X75833333Y-19657200D01*
X75833333Y-19657200D02*
X75738095Y-19704819D01*
X75738095Y-19704819D02*
X75547619Y-19704819D01*
X75547619Y-19704819D02*
X75452381Y-19657200D01*
X75452381Y-19657200D02*
X75357143Y-19561961D01*
X75357143Y-19561961D02*
X75309524Y-19371485D01*
X75309524Y-19371485D02*
X75309524Y-19038152D01*
X75309524Y-19038152D02*
X75357143Y-18847676D01*
X75357143Y-18847676D02*
X75452381Y-18752438D01*
X75452381Y-18752438D02*
X75547619Y-18704819D01*
X76261905Y-18704819D02*
X76833333Y-18704819D01*
X76547619Y-19704819D02*
X76547619Y-18704819D01*
X73666667Y-11507200D02*
X73809524Y-11554819D01*
X73809524Y-11554819D02*
X74047619Y-11554819D01*
X74047619Y-11554819D02*
X74142857Y-11507200D01*
X74142857Y-11507200D02*
X74190476Y-11459580D01*
X74190476Y-11459580D02*
X74238095Y-11364342D01*
X74238095Y-11364342D02*
X74238095Y-11269104D01*
X74238095Y-11269104D02*
X74190476Y-11173866D01*
X74190476Y-11173866D02*
X74142857Y-11126247D01*
X74142857Y-11126247D02*
X74047619Y-11078628D01*
X74047619Y-11078628D02*
X73857143Y-11031009D01*
X73857143Y-11031009D02*
X73761905Y-10983390D01*
X73761905Y-10983390D02*
X73714286Y-10935771D01*
X73714286Y-10935771D02*
X73666667Y-10840533D01*
X73666667Y-10840533D02*
X73666667Y-10745295D01*
X73666667Y-10745295D02*
X73714286Y-10650057D01*
X73714286Y-10650057D02*
X73761905Y-10602438D01*
X73761905Y-10602438D02*
X73857143Y-10554819D01*
X73857143Y-10554819D02*
X74095238Y-10554819D01*
X74095238Y-10554819D02*
X74238095Y-10602438D01*
X74571429Y-10554819D02*
X74809524Y-11554819D01*
X74809524Y-11554819D02*
X75000000Y-10840533D01*
X75000000Y-10840533D02*
X75190476Y-11554819D01*
X75190476Y-11554819D02*
X75428572Y-10554819D01*
X75761905Y-10650057D02*
X75809524Y-10602438D01*
X75809524Y-10602438D02*
X75904762Y-10554819D01*
X75904762Y-10554819D02*
X76142857Y-10554819D01*
X76142857Y-10554819D02*
X76238095Y-10602438D01*
X76238095Y-10602438D02*
X76285714Y-10650057D01*
X76285714Y-10650057D02*
X76333333Y-10745295D01*
X76333333Y-10745295D02*
X76333333Y-10840533D01*
X76333333Y-10840533D02*
X76285714Y-10983390D01*
X76285714Y-10983390D02*
X75714286Y-11554819D01*
X75714286Y-11554819D02*
X76333333Y-11554819D01*
X84119047Y-15884819D02*
X83642857Y-15884819D01*
X83642857Y-15884819D02*
X83595238Y-16361009D01*
X83595238Y-16361009D02*
X83642857Y-16313390D01*
X83642857Y-16313390D02*
X83738095Y-16265771D01*
X83738095Y-16265771D02*
X83976190Y-16265771D01*
X83976190Y-16265771D02*
X84071428Y-16313390D01*
X84071428Y-16313390D02*
X84119047Y-16361009D01*
X84119047Y-16361009D02*
X84166666Y-16456247D01*
X84166666Y-16456247D02*
X84166666Y-16694342D01*
X84166666Y-16694342D02*
X84119047Y-16789580D01*
X84119047Y-16789580D02*
X84071428Y-16837200D01*
X84071428Y-16837200D02*
X83976190Y-16884819D01*
X83976190Y-16884819D02*
X83738095Y-16884819D01*
X83738095Y-16884819D02*
X83642857Y-16837200D01*
X83642857Y-16837200D02*
X83595238Y-16789580D01*
X84595238Y-16789580D02*
X84642857Y-16837200D01*
X84642857Y-16837200D02*
X84595238Y-16884819D01*
X84595238Y-16884819D02*
X84547619Y-16837200D01*
X84547619Y-16837200D02*
X84595238Y-16789580D01*
X84595238Y-16789580D02*
X84595238Y-16884819D01*
X85595237Y-16884819D02*
X85023809Y-16884819D01*
X85309523Y-16884819D02*
X85309523Y-15884819D01*
X85309523Y-15884819D02*
X85214285Y-16027676D01*
X85214285Y-16027676D02*
X85119047Y-16122914D01*
X85119047Y-16122914D02*
X85023809Y-16170533D01*
X86023809Y-16884819D02*
X86023809Y-15884819D01*
X86119047Y-16503866D02*
X86404761Y-16884819D01*
X86404761Y-16218152D02*
X86023809Y-16599104D01*
D11*
X84742857Y-15181927D02*
X84609524Y-14991451D01*
X84514286Y-15181927D02*
X84514286Y-14781927D01*
X84514286Y-14781927D02*
X84666667Y-14781927D01*
X84666667Y-14781927D02*
X84704762Y-14800975D01*
X84704762Y-14800975D02*
X84723809Y-14820022D01*
X84723809Y-14820022D02*
X84742857Y-14858118D01*
X84742857Y-14858118D02*
X84742857Y-14915260D01*
X84742857Y-14915260D02*
X84723809Y-14953356D01*
X84723809Y-14953356D02*
X84704762Y-14972403D01*
X84704762Y-14972403D02*
X84666667Y-14991451D01*
X84666667Y-14991451D02*
X84514286Y-14991451D01*
X85123809Y-15181927D02*
X84895238Y-15181927D01*
X85009524Y-15181927D02*
X85009524Y-14781927D01*
X85009524Y-14781927D02*
X84971428Y-14839070D01*
X84971428Y-14839070D02*
X84933333Y-14877165D01*
X84933333Y-14877165D02*
X84895238Y-14896213D01*
X85504761Y-15181927D02*
X85276190Y-15181927D01*
X85390476Y-15181927D02*
X85390476Y-14781927D01*
X85390476Y-14781927D02*
X85352380Y-14839070D01*
X85352380Y-14839070D02*
X85314285Y-14877165D01*
X85314285Y-14877165D02*
X85276190Y-14896213D01*
D10*
X92904762Y-16837200D02*
X93047619Y-16884819D01*
X93047619Y-16884819D02*
X93285714Y-16884819D01*
X93285714Y-16884819D02*
X93380952Y-16837200D01*
X93380952Y-16837200D02*
X93428571Y-16789580D01*
X93428571Y-16789580D02*
X93476190Y-16694342D01*
X93476190Y-16694342D02*
X93476190Y-16599104D01*
X93476190Y-16599104D02*
X93428571Y-16503866D01*
X93428571Y-16503866D02*
X93380952Y-16456247D01*
X93380952Y-16456247D02*
X93285714Y-16408628D01*
X93285714Y-16408628D02*
X93095238Y-16361009D01*
X93095238Y-16361009D02*
X93000000Y-16313390D01*
X93000000Y-16313390D02*
X92952381Y-16265771D01*
X92952381Y-16265771D02*
X92904762Y-16170533D01*
X92904762Y-16170533D02*
X92904762Y-16075295D01*
X92904762Y-16075295D02*
X92952381Y-15980057D01*
X92952381Y-15980057D02*
X93000000Y-15932438D01*
X93000000Y-15932438D02*
X93095238Y-15884819D01*
X93095238Y-15884819D02*
X93333333Y-15884819D01*
X93333333Y-15884819D02*
X93476190Y-15932438D01*
X93761905Y-15884819D02*
X94333333Y-15884819D01*
X94047619Y-16884819D02*
X94047619Y-15884819D01*
X94666667Y-16884819D02*
X94666667Y-15884819D01*
X94666667Y-15884819D02*
X94904762Y-15884819D01*
X94904762Y-15884819D02*
X95047619Y-15932438D01*
X95047619Y-15932438D02*
X95142857Y-16027676D01*
X95142857Y-16027676D02*
X95190476Y-16122914D01*
X95190476Y-16122914D02*
X95238095Y-16313390D01*
X95238095Y-16313390D02*
X95238095Y-16456247D01*
X95238095Y-16456247D02*
X95190476Y-16646723D01*
X95190476Y-16646723D02*
X95142857Y-16741961D01*
X95142857Y-16741961D02*
X95047619Y-16837200D01*
X95047619Y-16837200D02*
X94904762Y-16884819D01*
X94904762Y-16884819D02*
X94666667Y-16884819D01*
X96000000Y-16361009D02*
X96142857Y-16408628D01*
X96142857Y-16408628D02*
X96190476Y-16456247D01*
X96190476Y-16456247D02*
X96238095Y-16551485D01*
X96238095Y-16551485D02*
X96238095Y-16694342D01*
X96238095Y-16694342D02*
X96190476Y-16789580D01*
X96190476Y-16789580D02*
X96142857Y-16837200D01*
X96142857Y-16837200D02*
X96047619Y-16884819D01*
X96047619Y-16884819D02*
X95666667Y-16884819D01*
X95666667Y-16884819D02*
X95666667Y-15884819D01*
X95666667Y-15884819D02*
X96000000Y-15884819D01*
X96000000Y-15884819D02*
X96095238Y-15932438D01*
X96095238Y-15932438D02*
X96142857Y-15980057D01*
X96142857Y-15980057D02*
X96190476Y-16075295D01*
X96190476Y-16075295D02*
X96190476Y-16170533D01*
X96190476Y-16170533D02*
X96142857Y-16265771D01*
X96142857Y-16265771D02*
X96095238Y-16313390D01*
X96095238Y-16313390D02*
X96000000Y-16361009D01*
X96000000Y-16361009D02*
X95666667Y-16361009D01*
X96857143Y-16408628D02*
X96857143Y-16884819D01*
X96523810Y-15884819D02*
X96857143Y-16408628D01*
X96857143Y-16408628D02*
X97190476Y-15884819D01*
D11*
X94704762Y-15181927D02*
X94704762Y-14781927D01*
X94704762Y-14781927D02*
X94800000Y-14781927D01*
X94800000Y-14781927D02*
X94857143Y-14800975D01*
X94857143Y-14800975D02*
X94895238Y-14839070D01*
X94895238Y-14839070D02*
X94914285Y-14877165D01*
X94914285Y-14877165D02*
X94933333Y-14953356D01*
X94933333Y-14953356D02*
X94933333Y-15010499D01*
X94933333Y-15010499D02*
X94914285Y-15086689D01*
X94914285Y-15086689D02*
X94895238Y-15124784D01*
X94895238Y-15124784D02*
X94857143Y-15162880D01*
X94857143Y-15162880D02*
X94800000Y-15181927D01*
X94800000Y-15181927D02*
X94704762Y-15181927D01*
X95295238Y-14781927D02*
X95104762Y-14781927D01*
X95104762Y-14781927D02*
X95085714Y-14972403D01*
X95085714Y-14972403D02*
X95104762Y-14953356D01*
X95104762Y-14953356D02*
X95142857Y-14934308D01*
X95142857Y-14934308D02*
X95238095Y-14934308D01*
X95238095Y-14934308D02*
X95276190Y-14953356D01*
X95276190Y-14953356D02*
X95295238Y-14972403D01*
X95295238Y-14972403D02*
X95314285Y-15010499D01*
X95314285Y-15010499D02*
X95314285Y-15105737D01*
X95314285Y-15105737D02*
X95295238Y-15143832D01*
X95295238Y-15143832D02*
X95276190Y-15162880D01*
X95276190Y-15162880D02*
X95238095Y-15181927D01*
X95238095Y-15181927D02*
X95142857Y-15181927D01*
X95142857Y-15181927D02*
X95104762Y-15162880D01*
X95104762Y-15162880D02*
X95085714Y-15143832D01*
D10*
X104404761Y-16884819D02*
X103833333Y-16884819D01*
X104119047Y-16884819D02*
X104119047Y-15884819D01*
X104119047Y-15884819D02*
X104023809Y-16027676D01*
X104023809Y-16027676D02*
X103928571Y-16122914D01*
X103928571Y-16122914D02*
X103833333Y-16170533D01*
X105023809Y-15884819D02*
X105119047Y-15884819D01*
X105119047Y-15884819D02*
X105214285Y-15932438D01*
X105214285Y-15932438D02*
X105261904Y-15980057D01*
X105261904Y-15980057D02*
X105309523Y-16075295D01*
X105309523Y-16075295D02*
X105357142Y-16265771D01*
X105357142Y-16265771D02*
X105357142Y-16503866D01*
X105357142Y-16503866D02*
X105309523Y-16694342D01*
X105309523Y-16694342D02*
X105261904Y-16789580D01*
X105261904Y-16789580D02*
X105214285Y-16837200D01*
X105214285Y-16837200D02*
X105119047Y-16884819D01*
X105119047Y-16884819D02*
X105023809Y-16884819D01*
X105023809Y-16884819D02*
X104928571Y-16837200D01*
X104928571Y-16837200D02*
X104880952Y-16789580D01*
X104880952Y-16789580D02*
X104833333Y-16694342D01*
X104833333Y-16694342D02*
X104785714Y-16503866D01*
X104785714Y-16503866D02*
X104785714Y-16265771D01*
X104785714Y-16265771D02*
X104833333Y-16075295D01*
X104833333Y-16075295D02*
X104880952Y-15980057D01*
X104880952Y-15980057D02*
X104928571Y-15932438D01*
X104928571Y-15932438D02*
X105023809Y-15884819D01*
X105785714Y-16884819D02*
X105785714Y-15884819D01*
X105880952Y-16503866D02*
X106166666Y-16884819D01*
X106166666Y-16218152D02*
X105785714Y-16599104D01*
D11*
X104933333Y-15181927D02*
X104800000Y-14991451D01*
X104704762Y-15181927D02*
X104704762Y-14781927D01*
X104704762Y-14781927D02*
X104857143Y-14781927D01*
X104857143Y-14781927D02*
X104895238Y-14800975D01*
X104895238Y-14800975D02*
X104914285Y-14820022D01*
X104914285Y-14820022D02*
X104933333Y-14858118D01*
X104933333Y-14858118D02*
X104933333Y-14915260D01*
X104933333Y-14915260D02*
X104914285Y-14953356D01*
X104914285Y-14953356D02*
X104895238Y-14972403D01*
X104895238Y-14972403D02*
X104857143Y-14991451D01*
X104857143Y-14991451D02*
X104704762Y-14991451D01*
X105161904Y-14953356D02*
X105123809Y-14934308D01*
X105123809Y-14934308D02*
X105104762Y-14915260D01*
X105104762Y-14915260D02*
X105085714Y-14877165D01*
X105085714Y-14877165D02*
X105085714Y-14858118D01*
X105085714Y-14858118D02*
X105104762Y-14820022D01*
X105104762Y-14820022D02*
X105123809Y-14800975D01*
X105123809Y-14800975D02*
X105161904Y-14781927D01*
X105161904Y-14781927D02*
X105238095Y-14781927D01*
X105238095Y-14781927D02*
X105276190Y-14800975D01*
X105276190Y-14800975D02*
X105295238Y-14820022D01*
X105295238Y-14820022D02*
X105314285Y-14858118D01*
X105314285Y-14858118D02*
X105314285Y-14877165D01*
X105314285Y-14877165D02*
X105295238Y-14915260D01*
X105295238Y-14915260D02*
X105276190Y-14934308D01*
X105276190Y-14934308D02*
X105238095Y-14953356D01*
X105238095Y-14953356D02*
X105161904Y-14953356D01*
X105161904Y-14953356D02*
X105123809Y-14972403D01*
X105123809Y-14972403D02*
X105104762Y-14991451D01*
X105104762Y-14991451D02*
X105085714Y-15029546D01*
X105085714Y-15029546D02*
X105085714Y-15105737D01*
X105085714Y-15105737D02*
X105104762Y-15143832D01*
X105104762Y-15143832D02*
X105123809Y-15162880D01*
X105123809Y-15162880D02*
X105161904Y-15181927D01*
X105161904Y-15181927D02*
X105238095Y-15181927D01*
X105238095Y-15181927D02*
X105276190Y-15162880D01*
X105276190Y-15162880D02*
X105295238Y-15143832D01*
X105295238Y-15143832D02*
X105314285Y-15105737D01*
X105314285Y-15105737D02*
X105314285Y-15029546D01*
X105314285Y-15029546D02*
X105295238Y-14991451D01*
X105295238Y-14991451D02*
X105276190Y-14972403D01*
X105276190Y-14972403D02*
X105238095Y-14953356D01*
D10*
X19671428Y-84331009D02*
X19814285Y-84378628D01*
X19814285Y-84378628D02*
X19861904Y-84426247D01*
X19861904Y-84426247D02*
X19909523Y-84521485D01*
X19909523Y-84521485D02*
X19909523Y-84664342D01*
X19909523Y-84664342D02*
X19861904Y-84759580D01*
X19861904Y-84759580D02*
X19814285Y-84807200D01*
X19814285Y-84807200D02*
X19719047Y-84854819D01*
X19719047Y-84854819D02*
X19338095Y-84854819D01*
X19338095Y-84854819D02*
X19338095Y-83854819D01*
X19338095Y-83854819D02*
X19671428Y-83854819D01*
X19671428Y-83854819D02*
X19766666Y-83902438D01*
X19766666Y-83902438D02*
X19814285Y-83950057D01*
X19814285Y-83950057D02*
X19861904Y-84045295D01*
X19861904Y-84045295D02*
X19861904Y-84140533D01*
X19861904Y-84140533D02*
X19814285Y-84235771D01*
X19814285Y-84235771D02*
X19766666Y-84283390D01*
X19766666Y-84283390D02*
X19671428Y-84331009D01*
X19671428Y-84331009D02*
X19338095Y-84331009D01*
X20766666Y-84188152D02*
X20766666Y-84854819D01*
X20338095Y-84188152D02*
X20338095Y-84711961D01*
X20338095Y-84711961D02*
X20385714Y-84807200D01*
X20385714Y-84807200D02*
X20480952Y-84854819D01*
X20480952Y-84854819D02*
X20623809Y-84854819D01*
X20623809Y-84854819D02*
X20719047Y-84807200D01*
X20719047Y-84807200D02*
X20766666Y-84759580D01*
X21147619Y-84188152D02*
X21671428Y-84188152D01*
X21671428Y-84188152D02*
X21147619Y-84854819D01*
X21147619Y-84854819D02*
X21671428Y-84854819D01*
X21957143Y-84188152D02*
X22480952Y-84188152D01*
X22480952Y-84188152D02*
X21957143Y-84854819D01*
X21957143Y-84854819D02*
X22480952Y-84854819D01*
X23242857Y-84807200D02*
X23147619Y-84854819D01*
X23147619Y-84854819D02*
X22957143Y-84854819D01*
X22957143Y-84854819D02*
X22861905Y-84807200D01*
X22861905Y-84807200D02*
X22814286Y-84711961D01*
X22814286Y-84711961D02*
X22814286Y-84331009D01*
X22814286Y-84331009D02*
X22861905Y-84235771D01*
X22861905Y-84235771D02*
X22957143Y-84188152D01*
X22957143Y-84188152D02*
X23147619Y-84188152D01*
X23147619Y-84188152D02*
X23242857Y-84235771D01*
X23242857Y-84235771D02*
X23290476Y-84331009D01*
X23290476Y-84331009D02*
X23290476Y-84426247D01*
X23290476Y-84426247D02*
X22814286Y-84521485D01*
X23719048Y-84854819D02*
X23719048Y-84188152D01*
X23719048Y-84378628D02*
X23766667Y-84283390D01*
X23766667Y-84283390D02*
X23814286Y-84235771D01*
X23814286Y-84235771D02*
X23909524Y-84188152D01*
X23909524Y-84188152D02*
X24004762Y-84188152D01*
X19619048Y-78473866D02*
X20380953Y-78473866D01*
X20000000Y-78854819D02*
X20000000Y-78092914D01*
X20719047Y-75731009D02*
X20861904Y-75778628D01*
X20861904Y-75778628D02*
X20909523Y-75826247D01*
X20909523Y-75826247D02*
X20957142Y-75921485D01*
X20957142Y-75921485D02*
X20957142Y-76064342D01*
X20957142Y-76064342D02*
X20909523Y-76159580D01*
X20909523Y-76159580D02*
X20861904Y-76207200D01*
X20861904Y-76207200D02*
X20766666Y-76254819D01*
X20766666Y-76254819D02*
X20385714Y-76254819D01*
X20385714Y-76254819D02*
X20385714Y-75254819D01*
X20385714Y-75254819D02*
X20719047Y-75254819D01*
X20719047Y-75254819D02*
X20814285Y-75302438D01*
X20814285Y-75302438D02*
X20861904Y-75350057D01*
X20861904Y-75350057D02*
X20909523Y-75445295D01*
X20909523Y-75445295D02*
X20909523Y-75540533D01*
X20909523Y-75540533D02*
X20861904Y-75635771D01*
X20861904Y-75635771D02*
X20814285Y-75683390D01*
X20814285Y-75683390D02*
X20719047Y-75731009D01*
X20719047Y-75731009D02*
X20385714Y-75731009D01*
X21290476Y-75254819D02*
X21957142Y-75254819D01*
X21957142Y-75254819D02*
X21290476Y-76254819D01*
X21290476Y-76254819D02*
X21957142Y-76254819D01*
X22861904Y-76254819D02*
X22290476Y-76254819D01*
X22576190Y-76254819D02*
X22576190Y-75254819D01*
X22576190Y-75254819D02*
X22480952Y-75397676D01*
X22480952Y-75397676D02*
X22385714Y-75492914D01*
X22385714Y-75492914D02*
X22290476Y-75540533D01*
X24238095Y-25980057D02*
X24285714Y-25932438D01*
X24285714Y-25932438D02*
X24380952Y-25884819D01*
X24380952Y-25884819D02*
X24619047Y-25884819D01*
X24619047Y-25884819D02*
X24714285Y-25932438D01*
X24714285Y-25932438D02*
X24761904Y-25980057D01*
X24761904Y-25980057D02*
X24809523Y-26075295D01*
X24809523Y-26075295D02*
X24809523Y-26170533D01*
X24809523Y-26170533D02*
X24761904Y-26313390D01*
X24761904Y-26313390D02*
X24190476Y-26884819D01*
X24190476Y-26884819D02*
X24809523Y-26884819D01*
X25190476Y-25980057D02*
X25238095Y-25932438D01*
X25238095Y-25932438D02*
X25333333Y-25884819D01*
X25333333Y-25884819D02*
X25571428Y-25884819D01*
X25571428Y-25884819D02*
X25666666Y-25932438D01*
X25666666Y-25932438D02*
X25714285Y-25980057D01*
X25714285Y-25980057D02*
X25761904Y-26075295D01*
X25761904Y-26075295D02*
X25761904Y-26170533D01*
X25761904Y-26170533D02*
X25714285Y-26313390D01*
X25714285Y-26313390D02*
X25142857Y-26884819D01*
X25142857Y-26884819D02*
X25761904Y-26884819D01*
D11*
X24742857Y-25181927D02*
X24609524Y-24991451D01*
X24514286Y-25181927D02*
X24514286Y-24781927D01*
X24514286Y-24781927D02*
X24666667Y-24781927D01*
X24666667Y-24781927D02*
X24704762Y-24800975D01*
X24704762Y-24800975D02*
X24723809Y-24820022D01*
X24723809Y-24820022D02*
X24742857Y-24858118D01*
X24742857Y-24858118D02*
X24742857Y-24915260D01*
X24742857Y-24915260D02*
X24723809Y-24953356D01*
X24723809Y-24953356D02*
X24704762Y-24972403D01*
X24704762Y-24972403D02*
X24666667Y-24991451D01*
X24666667Y-24991451D02*
X24514286Y-24991451D01*
X25123809Y-25181927D02*
X24895238Y-25181927D01*
X25009524Y-25181927D02*
X25009524Y-24781927D01*
X25009524Y-24781927D02*
X24971428Y-24839070D01*
X24971428Y-24839070D02*
X24933333Y-24877165D01*
X24933333Y-24877165D02*
X24895238Y-24896213D01*
X25466666Y-24781927D02*
X25390476Y-24781927D01*
X25390476Y-24781927D02*
X25352380Y-24800975D01*
X25352380Y-24800975D02*
X25333333Y-24820022D01*
X25333333Y-24820022D02*
X25295238Y-24877165D01*
X25295238Y-24877165D02*
X25276190Y-24953356D01*
X25276190Y-24953356D02*
X25276190Y-25105737D01*
X25276190Y-25105737D02*
X25295238Y-25143832D01*
X25295238Y-25143832D02*
X25314285Y-25162880D01*
X25314285Y-25162880D02*
X25352380Y-25181927D01*
X25352380Y-25181927D02*
X25428571Y-25181927D01*
X25428571Y-25181927D02*
X25466666Y-25162880D01*
X25466666Y-25162880D02*
X25485714Y-25143832D01*
X25485714Y-25143832D02*
X25504761Y-25105737D01*
X25504761Y-25105737D02*
X25504761Y-25010499D01*
X25504761Y-25010499D02*
X25485714Y-24972403D01*
X25485714Y-24972403D02*
X25466666Y-24953356D01*
X25466666Y-24953356D02*
X25428571Y-24934308D01*
X25428571Y-24934308D02*
X25352380Y-24934308D01*
X25352380Y-24934308D02*
X25314285Y-24953356D01*
X25314285Y-24953356D02*
X25295238Y-24972403D01*
X25295238Y-24972403D02*
X25276190Y-25010499D01*
D10*
X34071428Y-26218152D02*
X34071428Y-26884819D01*
X33833333Y-25837200D02*
X33595238Y-26551485D01*
X33595238Y-26551485D02*
X34214285Y-26551485D01*
X34595238Y-26789580D02*
X34642857Y-26837200D01*
X34642857Y-26837200D02*
X34595238Y-26884819D01*
X34595238Y-26884819D02*
X34547619Y-26837200D01*
X34547619Y-26837200D02*
X34595238Y-26789580D01*
X34595238Y-26789580D02*
X34595238Y-26884819D01*
X34976190Y-25884819D02*
X35642856Y-25884819D01*
X35642856Y-25884819D02*
X35214285Y-26884819D01*
X36023809Y-26884819D02*
X36023809Y-25884819D01*
X36119047Y-26503866D02*
X36404761Y-26884819D01*
X36404761Y-26218152D02*
X36023809Y-26599104D01*
D11*
X34933333Y-25181927D02*
X34800000Y-24991451D01*
X34704762Y-25181927D02*
X34704762Y-24781927D01*
X34704762Y-24781927D02*
X34857143Y-24781927D01*
X34857143Y-24781927D02*
X34895238Y-24800975D01*
X34895238Y-24800975D02*
X34914285Y-24820022D01*
X34914285Y-24820022D02*
X34933333Y-24858118D01*
X34933333Y-24858118D02*
X34933333Y-24915260D01*
X34933333Y-24915260D02*
X34914285Y-24953356D01*
X34914285Y-24953356D02*
X34895238Y-24972403D01*
X34895238Y-24972403D02*
X34857143Y-24991451D01*
X34857143Y-24991451D02*
X34704762Y-24991451D01*
X35276190Y-24781927D02*
X35200000Y-24781927D01*
X35200000Y-24781927D02*
X35161904Y-24800975D01*
X35161904Y-24800975D02*
X35142857Y-24820022D01*
X35142857Y-24820022D02*
X35104762Y-24877165D01*
X35104762Y-24877165D02*
X35085714Y-24953356D01*
X35085714Y-24953356D02*
X35085714Y-25105737D01*
X35085714Y-25105737D02*
X35104762Y-25143832D01*
X35104762Y-25143832D02*
X35123809Y-25162880D01*
X35123809Y-25162880D02*
X35161904Y-25181927D01*
X35161904Y-25181927D02*
X35238095Y-25181927D01*
X35238095Y-25181927D02*
X35276190Y-25162880D01*
X35276190Y-25162880D02*
X35295238Y-25143832D01*
X35295238Y-25143832D02*
X35314285Y-25105737D01*
X35314285Y-25105737D02*
X35314285Y-25010499D01*
X35314285Y-25010499D02*
X35295238Y-24972403D01*
X35295238Y-24972403D02*
X35276190Y-24953356D01*
X35276190Y-24953356D02*
X35238095Y-24934308D01*
X35238095Y-24934308D02*
X35161904Y-24934308D01*
X35161904Y-24934308D02*
X35123809Y-24953356D01*
X35123809Y-24953356D02*
X35104762Y-24972403D01*
X35104762Y-24972403D02*
X35085714Y-25010499D01*
D10*
X20690476Y-47854819D02*
X21261904Y-47854819D01*
X20976190Y-48854819D02*
X20976190Y-47854819D01*
X21595238Y-48854819D02*
X21595238Y-47854819D01*
X21595238Y-47854819D02*
X21976190Y-47854819D01*
X21976190Y-47854819D02*
X22071428Y-47902438D01*
X22071428Y-47902438D02*
X22119047Y-47950057D01*
X22119047Y-47950057D02*
X22166666Y-48045295D01*
X22166666Y-48045295D02*
X22166666Y-48188152D01*
X22166666Y-48188152D02*
X22119047Y-48283390D01*
X22119047Y-48283390D02*
X22071428Y-48331009D01*
X22071428Y-48331009D02*
X21976190Y-48378628D01*
X21976190Y-48378628D02*
X21595238Y-48378628D01*
X23023809Y-48188152D02*
X23023809Y-48854819D01*
X22785714Y-47807200D02*
X22547619Y-48521485D01*
X22547619Y-48521485D02*
X23166666Y-48521485D01*
X23738095Y-47854819D02*
X23833333Y-47854819D01*
X23833333Y-47854819D02*
X23928571Y-47902438D01*
X23928571Y-47902438D02*
X23976190Y-47950057D01*
X23976190Y-47950057D02*
X24023809Y-48045295D01*
X24023809Y-48045295D02*
X24071428Y-48235771D01*
X24071428Y-48235771D02*
X24071428Y-48473866D01*
X24071428Y-48473866D02*
X24023809Y-48664342D01*
X24023809Y-48664342D02*
X23976190Y-48759580D01*
X23976190Y-48759580D02*
X23928571Y-48807200D01*
X23928571Y-48807200D02*
X23833333Y-48854819D01*
X23833333Y-48854819D02*
X23738095Y-48854819D01*
X23738095Y-48854819D02*
X23642857Y-48807200D01*
X23642857Y-48807200D02*
X23595238Y-48759580D01*
X23595238Y-48759580D02*
X23547619Y-48664342D01*
X23547619Y-48664342D02*
X23500000Y-48473866D01*
X23500000Y-48473866D02*
X23500000Y-48235771D01*
X23500000Y-48235771D02*
X23547619Y-48045295D01*
X23547619Y-48045295D02*
X23595238Y-47950057D01*
X23595238Y-47950057D02*
X23642857Y-47902438D01*
X23642857Y-47902438D02*
X23738095Y-47854819D01*
X24976190Y-47854819D02*
X24500000Y-47854819D01*
X24500000Y-47854819D02*
X24452381Y-48331009D01*
X24452381Y-48331009D02*
X24500000Y-48283390D01*
X24500000Y-48283390D02*
X24595238Y-48235771D01*
X24595238Y-48235771D02*
X24833333Y-48235771D01*
X24833333Y-48235771D02*
X24928571Y-48283390D01*
X24928571Y-48283390D02*
X24976190Y-48331009D01*
X24976190Y-48331009D02*
X25023809Y-48426247D01*
X25023809Y-48426247D02*
X25023809Y-48664342D01*
X25023809Y-48664342D02*
X24976190Y-48759580D01*
X24976190Y-48759580D02*
X24928571Y-48807200D01*
X24928571Y-48807200D02*
X24833333Y-48854819D01*
X24833333Y-48854819D02*
X24595238Y-48854819D01*
X24595238Y-48854819D02*
X24500000Y-48807200D01*
X24500000Y-48807200D02*
X24452381Y-48759580D01*
X25880952Y-47854819D02*
X25690476Y-47854819D01*
X25690476Y-47854819D02*
X25595238Y-47902438D01*
X25595238Y-47902438D02*
X25547619Y-47950057D01*
X25547619Y-47950057D02*
X25452381Y-48092914D01*
X25452381Y-48092914D02*
X25404762Y-48283390D01*
X25404762Y-48283390D02*
X25404762Y-48664342D01*
X25404762Y-48664342D02*
X25452381Y-48759580D01*
X25452381Y-48759580D02*
X25500000Y-48807200D01*
X25500000Y-48807200D02*
X25595238Y-48854819D01*
X25595238Y-48854819D02*
X25785714Y-48854819D01*
X25785714Y-48854819D02*
X25880952Y-48807200D01*
X25880952Y-48807200D02*
X25928571Y-48759580D01*
X25928571Y-48759580D02*
X25976190Y-48664342D01*
X25976190Y-48664342D02*
X25976190Y-48426247D01*
X25976190Y-48426247D02*
X25928571Y-48331009D01*
X25928571Y-48331009D02*
X25880952Y-48283390D01*
X25880952Y-48283390D02*
X25785714Y-48235771D01*
X25785714Y-48235771D02*
X25595238Y-48235771D01*
X25595238Y-48235771D02*
X25500000Y-48283390D01*
X25500000Y-48283390D02*
X25452381Y-48331009D01*
X25452381Y-48331009D02*
X25404762Y-48426247D01*
X26404762Y-48473866D02*
X27166667Y-48473866D01*
X28071428Y-48188152D02*
X28071428Y-48854819D01*
X27833333Y-47807200D02*
X27595238Y-48521485D01*
X27595238Y-48521485D02*
X28214285Y-48521485D01*
X28547619Y-47950057D02*
X28595238Y-47902438D01*
X28595238Y-47902438D02*
X28690476Y-47854819D01*
X28690476Y-47854819D02*
X28928571Y-47854819D01*
X28928571Y-47854819D02*
X29023809Y-47902438D01*
X29023809Y-47902438D02*
X29071428Y-47950057D01*
X29071428Y-47950057D02*
X29119047Y-48045295D01*
X29119047Y-48045295D02*
X29119047Y-48140533D01*
X29119047Y-48140533D02*
X29071428Y-48283390D01*
X29071428Y-48283390D02*
X28500000Y-48854819D01*
X28500000Y-48854819D02*
X29119047Y-48854819D01*
X29547619Y-48473866D02*
X30309524Y-48473866D01*
X30785714Y-48331009D02*
X31119047Y-48331009D01*
X31261904Y-48854819D02*
X30785714Y-48854819D01*
X30785714Y-48854819D02*
X30785714Y-47854819D01*
X30785714Y-47854819D02*
X31261904Y-47854819D01*
X31642857Y-48807200D02*
X31785714Y-48854819D01*
X31785714Y-48854819D02*
X32023809Y-48854819D01*
X32023809Y-48854819D02*
X32119047Y-48807200D01*
X32119047Y-48807200D02*
X32166666Y-48759580D01*
X32166666Y-48759580D02*
X32214285Y-48664342D01*
X32214285Y-48664342D02*
X32214285Y-48569104D01*
X32214285Y-48569104D02*
X32166666Y-48473866D01*
X32166666Y-48473866D02*
X32119047Y-48426247D01*
X32119047Y-48426247D02*
X32023809Y-48378628D01*
X32023809Y-48378628D02*
X31833333Y-48331009D01*
X31833333Y-48331009D02*
X31738095Y-48283390D01*
X31738095Y-48283390D02*
X31690476Y-48235771D01*
X31690476Y-48235771D02*
X31642857Y-48140533D01*
X31642857Y-48140533D02*
X31642857Y-48045295D01*
X31642857Y-48045295D02*
X31690476Y-47950057D01*
X31690476Y-47950057D02*
X31738095Y-47902438D01*
X31738095Y-47902438D02*
X31833333Y-47854819D01*
X31833333Y-47854819D02*
X32071428Y-47854819D01*
X32071428Y-47854819D02*
X32214285Y-47902438D01*
X32833333Y-47854819D02*
X33023809Y-47854819D01*
X33023809Y-47854819D02*
X33119047Y-47902438D01*
X33119047Y-47902438D02*
X33214285Y-47997676D01*
X33214285Y-47997676D02*
X33261904Y-48188152D01*
X33261904Y-48188152D02*
X33261904Y-48521485D01*
X33261904Y-48521485D02*
X33214285Y-48711961D01*
X33214285Y-48711961D02*
X33119047Y-48807200D01*
X33119047Y-48807200D02*
X33023809Y-48854819D01*
X33023809Y-48854819D02*
X32833333Y-48854819D01*
X32833333Y-48854819D02*
X32738095Y-48807200D01*
X32738095Y-48807200D02*
X32642857Y-48711961D01*
X32642857Y-48711961D02*
X32595238Y-48521485D01*
X32595238Y-48521485D02*
X32595238Y-48188152D01*
X32595238Y-48188152D02*
X32642857Y-47997676D01*
X32642857Y-47997676D02*
X32738095Y-47902438D01*
X32738095Y-47902438D02*
X32833333Y-47854819D01*
X33690476Y-48854819D02*
X33690476Y-47854819D01*
X33690476Y-47854819D02*
X34071428Y-47854819D01*
X34071428Y-47854819D02*
X34166666Y-47902438D01*
X34166666Y-47902438D02*
X34214285Y-47950057D01*
X34214285Y-47950057D02*
X34261904Y-48045295D01*
X34261904Y-48045295D02*
X34261904Y-48188152D01*
X34261904Y-48188152D02*
X34214285Y-48283390D01*
X34214285Y-48283390D02*
X34166666Y-48331009D01*
X34166666Y-48331009D02*
X34071428Y-48378628D01*
X34071428Y-48378628D02*
X33690476Y-48378628D01*
X34833333Y-48283390D02*
X34738095Y-48235771D01*
X34738095Y-48235771D02*
X34690476Y-48188152D01*
X34690476Y-48188152D02*
X34642857Y-48092914D01*
X34642857Y-48092914D02*
X34642857Y-48045295D01*
X34642857Y-48045295D02*
X34690476Y-47950057D01*
X34690476Y-47950057D02*
X34738095Y-47902438D01*
X34738095Y-47902438D02*
X34833333Y-47854819D01*
X34833333Y-47854819D02*
X35023809Y-47854819D01*
X35023809Y-47854819D02*
X35119047Y-47902438D01*
X35119047Y-47902438D02*
X35166666Y-47950057D01*
X35166666Y-47950057D02*
X35214285Y-48045295D01*
X35214285Y-48045295D02*
X35214285Y-48092914D01*
X35214285Y-48092914D02*
X35166666Y-48188152D01*
X35166666Y-48188152D02*
X35119047Y-48235771D01*
X35119047Y-48235771D02*
X35023809Y-48283390D01*
X35023809Y-48283390D02*
X34833333Y-48283390D01*
X34833333Y-48283390D02*
X34738095Y-48331009D01*
X34738095Y-48331009D02*
X34690476Y-48378628D01*
X34690476Y-48378628D02*
X34642857Y-48473866D01*
X34642857Y-48473866D02*
X34642857Y-48664342D01*
X34642857Y-48664342D02*
X34690476Y-48759580D01*
X34690476Y-48759580D02*
X34738095Y-48807200D01*
X34738095Y-48807200D02*
X34833333Y-48854819D01*
X34833333Y-48854819D02*
X35023809Y-48854819D01*
X35023809Y-48854819D02*
X35119047Y-48807200D01*
X35119047Y-48807200D02*
X35166666Y-48759580D01*
X35166666Y-48759580D02*
X35214285Y-48664342D01*
X35214285Y-48664342D02*
X35214285Y-48473866D01*
X35214285Y-48473866D02*
X35166666Y-48378628D01*
X35166666Y-48378628D02*
X35119047Y-48331009D01*
X35119047Y-48331009D02*
X35023809Y-48283390D01*
X27454819Y-45761904D02*
X28264342Y-45761904D01*
X28264342Y-45761904D02*
X28359580Y-45714285D01*
X28359580Y-45714285D02*
X28407200Y-45666666D01*
X28407200Y-45666666D02*
X28454819Y-45571428D01*
X28454819Y-45571428D02*
X28454819Y-45380952D01*
X28454819Y-45380952D02*
X28407200Y-45285714D01*
X28407200Y-45285714D02*
X28359580Y-45238095D01*
X28359580Y-45238095D02*
X28264342Y-45190476D01*
X28264342Y-45190476D02*
X27454819Y-45190476D01*
X27454819Y-44809523D02*
X27454819Y-44190476D01*
X27454819Y-44190476D02*
X27835771Y-44523809D01*
X27835771Y-44523809D02*
X27835771Y-44380952D01*
X27835771Y-44380952D02*
X27883390Y-44285714D01*
X27883390Y-44285714D02*
X27931009Y-44238095D01*
X27931009Y-44238095D02*
X28026247Y-44190476D01*
X28026247Y-44190476D02*
X28264342Y-44190476D01*
X28264342Y-44190476D02*
X28359580Y-44238095D01*
X28359580Y-44238095D02*
X28407200Y-44285714D01*
X28407200Y-44285714D02*
X28454819Y-44380952D01*
X28454819Y-44380952D02*
X28454819Y-44666666D01*
X28454819Y-44666666D02*
X28407200Y-44761904D01*
X28407200Y-44761904D02*
X28359580Y-44809523D01*
X43452380Y-26884819D02*
X42880952Y-26884819D01*
X43166666Y-26884819D02*
X43166666Y-25884819D01*
X43166666Y-25884819D02*
X43071428Y-26027676D01*
X43071428Y-26027676D02*
X42976190Y-26122914D01*
X42976190Y-26122914D02*
X42880952Y-26170533D01*
X44071428Y-25884819D02*
X44166666Y-25884819D01*
X44166666Y-25884819D02*
X44261904Y-25932438D01*
X44261904Y-25932438D02*
X44309523Y-25980057D01*
X44309523Y-25980057D02*
X44357142Y-26075295D01*
X44357142Y-26075295D02*
X44404761Y-26265771D01*
X44404761Y-26265771D02*
X44404761Y-26503866D01*
X44404761Y-26503866D02*
X44357142Y-26694342D01*
X44357142Y-26694342D02*
X44309523Y-26789580D01*
X44309523Y-26789580D02*
X44261904Y-26837200D01*
X44261904Y-26837200D02*
X44166666Y-26884819D01*
X44166666Y-26884819D02*
X44071428Y-26884819D01*
X44071428Y-26884819D02*
X43976190Y-26837200D01*
X43976190Y-26837200D02*
X43928571Y-26789580D01*
X43928571Y-26789580D02*
X43880952Y-26694342D01*
X43880952Y-26694342D02*
X43833333Y-26503866D01*
X43833333Y-26503866D02*
X43833333Y-26265771D01*
X43833333Y-26265771D02*
X43880952Y-26075295D01*
X43880952Y-26075295D02*
X43928571Y-25980057D01*
X43928571Y-25980057D02*
X43976190Y-25932438D01*
X43976190Y-25932438D02*
X44071428Y-25884819D01*
X45023809Y-25884819D02*
X45119047Y-25884819D01*
X45119047Y-25884819D02*
X45214285Y-25932438D01*
X45214285Y-25932438D02*
X45261904Y-25980057D01*
X45261904Y-25980057D02*
X45309523Y-26075295D01*
X45309523Y-26075295D02*
X45357142Y-26265771D01*
X45357142Y-26265771D02*
X45357142Y-26503866D01*
X45357142Y-26503866D02*
X45309523Y-26694342D01*
X45309523Y-26694342D02*
X45261904Y-26789580D01*
X45261904Y-26789580D02*
X45214285Y-26837200D01*
X45214285Y-26837200D02*
X45119047Y-26884819D01*
X45119047Y-26884819D02*
X45023809Y-26884819D01*
X45023809Y-26884819D02*
X44928571Y-26837200D01*
X44928571Y-26837200D02*
X44880952Y-26789580D01*
X44880952Y-26789580D02*
X44833333Y-26694342D01*
X44833333Y-26694342D02*
X44785714Y-26503866D01*
X44785714Y-26503866D02*
X44785714Y-26265771D01*
X44785714Y-26265771D02*
X44833333Y-26075295D01*
X44833333Y-26075295D02*
X44880952Y-25980057D01*
X44880952Y-25980057D02*
X44928571Y-25932438D01*
X44928571Y-25932438D02*
X45023809Y-25884819D01*
X45785714Y-26218152D02*
X45785714Y-26884819D01*
X45785714Y-26313390D02*
X45833333Y-26265771D01*
X45833333Y-26265771D02*
X45928571Y-26218152D01*
X45928571Y-26218152D02*
X46071428Y-26218152D01*
X46071428Y-26218152D02*
X46166666Y-26265771D01*
X46166666Y-26265771D02*
X46214285Y-26361009D01*
X46214285Y-26361009D02*
X46214285Y-26884819D01*
X47023809Y-26361009D02*
X46690476Y-26361009D01*
X46690476Y-26884819D02*
X46690476Y-25884819D01*
X46690476Y-25884819D02*
X47166666Y-25884819D01*
D11*
X44742857Y-25143832D02*
X44723809Y-25162880D01*
X44723809Y-25162880D02*
X44666667Y-25181927D01*
X44666667Y-25181927D02*
X44628571Y-25181927D01*
X44628571Y-25181927D02*
X44571428Y-25162880D01*
X44571428Y-25162880D02*
X44533333Y-25124784D01*
X44533333Y-25124784D02*
X44514286Y-25086689D01*
X44514286Y-25086689D02*
X44495238Y-25010499D01*
X44495238Y-25010499D02*
X44495238Y-24953356D01*
X44495238Y-24953356D02*
X44514286Y-24877165D01*
X44514286Y-24877165D02*
X44533333Y-24839070D01*
X44533333Y-24839070D02*
X44571428Y-24800975D01*
X44571428Y-24800975D02*
X44628571Y-24781927D01*
X44628571Y-24781927D02*
X44666667Y-24781927D01*
X44666667Y-24781927D02*
X44723809Y-24800975D01*
X44723809Y-24800975D02*
X44742857Y-24820022D01*
X45123809Y-25181927D02*
X44895238Y-25181927D01*
X45009524Y-25181927D02*
X45009524Y-24781927D01*
X45009524Y-24781927D02*
X44971428Y-24839070D01*
X44971428Y-24839070D02*
X44933333Y-24877165D01*
X44933333Y-24877165D02*
X44895238Y-24896213D01*
X45504761Y-25181927D02*
X45276190Y-25181927D01*
X45390476Y-25181927D02*
X45390476Y-24781927D01*
X45390476Y-24781927D02*
X45352380Y-24839070D01*
X45352380Y-24839070D02*
X45314285Y-24877165D01*
X45314285Y-24877165D02*
X45276190Y-24896213D01*
D10*
X53714286Y-25884819D02*
X54333333Y-25884819D01*
X54333333Y-25884819D02*
X54000000Y-26265771D01*
X54000000Y-26265771D02*
X54142857Y-26265771D01*
X54142857Y-26265771D02*
X54238095Y-26313390D01*
X54238095Y-26313390D02*
X54285714Y-26361009D01*
X54285714Y-26361009D02*
X54333333Y-26456247D01*
X54333333Y-26456247D02*
X54333333Y-26694342D01*
X54333333Y-26694342D02*
X54285714Y-26789580D01*
X54285714Y-26789580D02*
X54238095Y-26837200D01*
X54238095Y-26837200D02*
X54142857Y-26884819D01*
X54142857Y-26884819D02*
X53857143Y-26884819D01*
X53857143Y-26884819D02*
X53761905Y-26837200D01*
X53761905Y-26837200D02*
X53714286Y-26789580D01*
X54666667Y-25884819D02*
X55285714Y-25884819D01*
X55285714Y-25884819D02*
X54952381Y-26265771D01*
X54952381Y-26265771D02*
X55095238Y-26265771D01*
X55095238Y-26265771D02*
X55190476Y-26313390D01*
X55190476Y-26313390D02*
X55238095Y-26361009D01*
X55238095Y-26361009D02*
X55285714Y-26456247D01*
X55285714Y-26456247D02*
X55285714Y-26694342D01*
X55285714Y-26694342D02*
X55238095Y-26789580D01*
X55238095Y-26789580D02*
X55190476Y-26837200D01*
X55190476Y-26837200D02*
X55095238Y-26884819D01*
X55095238Y-26884819D02*
X54809524Y-26884819D01*
X54809524Y-26884819D02*
X54714286Y-26837200D01*
X54714286Y-26837200D02*
X54666667Y-26789580D01*
X55904762Y-25884819D02*
X56000000Y-25884819D01*
X56000000Y-25884819D02*
X56095238Y-25932438D01*
X56095238Y-25932438D02*
X56142857Y-25980057D01*
X56142857Y-25980057D02*
X56190476Y-26075295D01*
X56190476Y-26075295D02*
X56238095Y-26265771D01*
X56238095Y-26265771D02*
X56238095Y-26503866D01*
X56238095Y-26503866D02*
X56190476Y-26694342D01*
X56190476Y-26694342D02*
X56142857Y-26789580D01*
X56142857Y-26789580D02*
X56095238Y-26837200D01*
X56095238Y-26837200D02*
X56000000Y-26884819D01*
X56000000Y-26884819D02*
X55904762Y-26884819D01*
X55904762Y-26884819D02*
X55809524Y-26837200D01*
X55809524Y-26837200D02*
X55761905Y-26789580D01*
X55761905Y-26789580D02*
X55714286Y-26694342D01*
X55714286Y-26694342D02*
X55666667Y-26503866D01*
X55666667Y-26503866D02*
X55666667Y-26265771D01*
X55666667Y-26265771D02*
X55714286Y-26075295D01*
X55714286Y-26075295D02*
X55761905Y-25980057D01*
X55761905Y-25980057D02*
X55809524Y-25932438D01*
X55809524Y-25932438D02*
X55904762Y-25884819D01*
D11*
X54742857Y-25181927D02*
X54609524Y-24991451D01*
X54514286Y-25181927D02*
X54514286Y-24781927D01*
X54514286Y-24781927D02*
X54666667Y-24781927D01*
X54666667Y-24781927D02*
X54704762Y-24800975D01*
X54704762Y-24800975D02*
X54723809Y-24820022D01*
X54723809Y-24820022D02*
X54742857Y-24858118D01*
X54742857Y-24858118D02*
X54742857Y-24915260D01*
X54742857Y-24915260D02*
X54723809Y-24953356D01*
X54723809Y-24953356D02*
X54704762Y-24972403D01*
X54704762Y-24972403D02*
X54666667Y-24991451D01*
X54666667Y-24991451D02*
X54514286Y-24991451D01*
X55123809Y-25181927D02*
X54895238Y-25181927D01*
X55009524Y-25181927D02*
X55009524Y-24781927D01*
X55009524Y-24781927D02*
X54971428Y-24839070D01*
X54971428Y-24839070D02*
X54933333Y-24877165D01*
X54933333Y-24877165D02*
X54895238Y-24896213D01*
X55257142Y-24781927D02*
X55504761Y-24781927D01*
X55504761Y-24781927D02*
X55371428Y-24934308D01*
X55371428Y-24934308D02*
X55428571Y-24934308D01*
X55428571Y-24934308D02*
X55466666Y-24953356D01*
X55466666Y-24953356D02*
X55485714Y-24972403D01*
X55485714Y-24972403D02*
X55504761Y-25010499D01*
X55504761Y-25010499D02*
X55504761Y-25105737D01*
X55504761Y-25105737D02*
X55485714Y-25143832D01*
X55485714Y-25143832D02*
X55466666Y-25162880D01*
X55466666Y-25162880D02*
X55428571Y-25181927D01*
X55428571Y-25181927D02*
X55314285Y-25181927D01*
X55314285Y-25181927D02*
X55276190Y-25162880D01*
X55276190Y-25162880D02*
X55257142Y-25143832D01*
D10*
X63928571Y-26884819D02*
X63357143Y-26884819D01*
X63642857Y-26884819D02*
X63642857Y-25884819D01*
X63642857Y-25884819D02*
X63547619Y-26027676D01*
X63547619Y-26027676D02*
X63452381Y-26122914D01*
X63452381Y-26122914D02*
X63357143Y-26170533D01*
X64547619Y-25884819D02*
X64642857Y-25884819D01*
X64642857Y-25884819D02*
X64738095Y-25932438D01*
X64738095Y-25932438D02*
X64785714Y-25980057D01*
X64785714Y-25980057D02*
X64833333Y-26075295D01*
X64833333Y-26075295D02*
X64880952Y-26265771D01*
X64880952Y-26265771D02*
X64880952Y-26503866D01*
X64880952Y-26503866D02*
X64833333Y-26694342D01*
X64833333Y-26694342D02*
X64785714Y-26789580D01*
X64785714Y-26789580D02*
X64738095Y-26837200D01*
X64738095Y-26837200D02*
X64642857Y-26884819D01*
X64642857Y-26884819D02*
X64547619Y-26884819D01*
X64547619Y-26884819D02*
X64452381Y-26837200D01*
X64452381Y-26837200D02*
X64404762Y-26789580D01*
X64404762Y-26789580D02*
X64357143Y-26694342D01*
X64357143Y-26694342D02*
X64309524Y-26503866D01*
X64309524Y-26503866D02*
X64309524Y-26265771D01*
X64309524Y-26265771D02*
X64357143Y-26075295D01*
X64357143Y-26075295D02*
X64404762Y-25980057D01*
X64404762Y-25980057D02*
X64452381Y-25932438D01*
X64452381Y-25932438D02*
X64547619Y-25884819D01*
X65500000Y-25884819D02*
X65595238Y-25884819D01*
X65595238Y-25884819D02*
X65690476Y-25932438D01*
X65690476Y-25932438D02*
X65738095Y-25980057D01*
X65738095Y-25980057D02*
X65785714Y-26075295D01*
X65785714Y-26075295D02*
X65833333Y-26265771D01*
X65833333Y-26265771D02*
X65833333Y-26503866D01*
X65833333Y-26503866D02*
X65785714Y-26694342D01*
X65785714Y-26694342D02*
X65738095Y-26789580D01*
X65738095Y-26789580D02*
X65690476Y-26837200D01*
X65690476Y-26837200D02*
X65595238Y-26884819D01*
X65595238Y-26884819D02*
X65500000Y-26884819D01*
X65500000Y-26884819D02*
X65404762Y-26837200D01*
X65404762Y-26837200D02*
X65357143Y-26789580D01*
X65357143Y-26789580D02*
X65309524Y-26694342D01*
X65309524Y-26694342D02*
X65261905Y-26503866D01*
X65261905Y-26503866D02*
X65261905Y-26265771D01*
X65261905Y-26265771D02*
X65309524Y-26075295D01*
X65309524Y-26075295D02*
X65357143Y-25980057D01*
X65357143Y-25980057D02*
X65404762Y-25932438D01*
X65404762Y-25932438D02*
X65500000Y-25884819D01*
X66261905Y-26884819D02*
X66261905Y-25884819D01*
X66357143Y-26503866D02*
X66642857Y-26884819D01*
X66642857Y-26218152D02*
X66261905Y-26599104D01*
D11*
X64933333Y-25181927D02*
X64800000Y-24991451D01*
X64704762Y-25181927D02*
X64704762Y-24781927D01*
X64704762Y-24781927D02*
X64857143Y-24781927D01*
X64857143Y-24781927D02*
X64895238Y-24800975D01*
X64895238Y-24800975D02*
X64914285Y-24820022D01*
X64914285Y-24820022D02*
X64933333Y-24858118D01*
X64933333Y-24858118D02*
X64933333Y-24915260D01*
X64933333Y-24915260D02*
X64914285Y-24953356D01*
X64914285Y-24953356D02*
X64895238Y-24972403D01*
X64895238Y-24972403D02*
X64857143Y-24991451D01*
X64857143Y-24991451D02*
X64704762Y-24991451D01*
X65123809Y-25181927D02*
X65200000Y-25181927D01*
X65200000Y-25181927D02*
X65238095Y-25162880D01*
X65238095Y-25162880D02*
X65257143Y-25143832D01*
X65257143Y-25143832D02*
X65295238Y-25086689D01*
X65295238Y-25086689D02*
X65314285Y-25010499D01*
X65314285Y-25010499D02*
X65314285Y-24858118D01*
X65314285Y-24858118D02*
X65295238Y-24820022D01*
X65295238Y-24820022D02*
X65276190Y-24800975D01*
X65276190Y-24800975D02*
X65238095Y-24781927D01*
X65238095Y-24781927D02*
X65161904Y-24781927D01*
X65161904Y-24781927D02*
X65123809Y-24800975D01*
X65123809Y-24800975D02*
X65104762Y-24820022D01*
X65104762Y-24820022D02*
X65085714Y-24858118D01*
X65085714Y-24858118D02*
X65085714Y-24953356D01*
X65085714Y-24953356D02*
X65104762Y-24991451D01*
X65104762Y-24991451D02*
X65123809Y-25010499D01*
X65123809Y-25010499D02*
X65161904Y-25029546D01*
X65161904Y-25029546D02*
X65238095Y-25029546D01*
X65238095Y-25029546D02*
X65276190Y-25010499D01*
X65276190Y-25010499D02*
X65295238Y-24991451D01*
X65295238Y-24991451D02*
X65314285Y-24953356D01*
D10*
X74309524Y-25980057D02*
X74357143Y-25932438D01*
X74357143Y-25932438D02*
X74452381Y-25884819D01*
X74452381Y-25884819D02*
X74690476Y-25884819D01*
X74690476Y-25884819D02*
X74785714Y-25932438D01*
X74785714Y-25932438D02*
X74833333Y-25980057D01*
X74833333Y-25980057D02*
X74880952Y-26075295D01*
X74880952Y-26075295D02*
X74880952Y-26170533D01*
X74880952Y-26170533D02*
X74833333Y-26313390D01*
X74833333Y-26313390D02*
X74261905Y-26884819D01*
X74261905Y-26884819D02*
X74880952Y-26884819D01*
X75309524Y-26884819D02*
X75309524Y-25884819D01*
X75404762Y-26503866D02*
X75690476Y-26884819D01*
X75690476Y-26218152D02*
X75309524Y-26599104D01*
D11*
X74933333Y-25181927D02*
X74800000Y-24991451D01*
X74704762Y-25181927D02*
X74704762Y-24781927D01*
X74704762Y-24781927D02*
X74857143Y-24781927D01*
X74857143Y-24781927D02*
X74895238Y-24800975D01*
X74895238Y-24800975D02*
X74914285Y-24820022D01*
X74914285Y-24820022D02*
X74933333Y-24858118D01*
X74933333Y-24858118D02*
X74933333Y-24915260D01*
X74933333Y-24915260D02*
X74914285Y-24953356D01*
X74914285Y-24953356D02*
X74895238Y-24972403D01*
X74895238Y-24972403D02*
X74857143Y-24991451D01*
X74857143Y-24991451D02*
X74704762Y-24991451D01*
X75295238Y-24781927D02*
X75104762Y-24781927D01*
X75104762Y-24781927D02*
X75085714Y-24972403D01*
X75085714Y-24972403D02*
X75104762Y-24953356D01*
X75104762Y-24953356D02*
X75142857Y-24934308D01*
X75142857Y-24934308D02*
X75238095Y-24934308D01*
X75238095Y-24934308D02*
X75276190Y-24953356D01*
X75276190Y-24953356D02*
X75295238Y-24972403D01*
X75295238Y-24972403D02*
X75314285Y-25010499D01*
X75314285Y-25010499D02*
X75314285Y-25105737D01*
X75314285Y-25105737D02*
X75295238Y-25143832D01*
X75295238Y-25143832D02*
X75276190Y-25162880D01*
X75276190Y-25162880D02*
X75238095Y-25181927D01*
X75238095Y-25181927D02*
X75142857Y-25181927D01*
X75142857Y-25181927D02*
X75104762Y-25162880D01*
X75104762Y-25162880D02*
X75085714Y-25143832D01*
D10*
X84238095Y-25980057D02*
X84285714Y-25932438D01*
X84285714Y-25932438D02*
X84380952Y-25884819D01*
X84380952Y-25884819D02*
X84619047Y-25884819D01*
X84619047Y-25884819D02*
X84714285Y-25932438D01*
X84714285Y-25932438D02*
X84761904Y-25980057D01*
X84761904Y-25980057D02*
X84809523Y-26075295D01*
X84809523Y-26075295D02*
X84809523Y-26170533D01*
X84809523Y-26170533D02*
X84761904Y-26313390D01*
X84761904Y-26313390D02*
X84190476Y-26884819D01*
X84190476Y-26884819D02*
X84809523Y-26884819D01*
X85190476Y-25980057D02*
X85238095Y-25932438D01*
X85238095Y-25932438D02*
X85333333Y-25884819D01*
X85333333Y-25884819D02*
X85571428Y-25884819D01*
X85571428Y-25884819D02*
X85666666Y-25932438D01*
X85666666Y-25932438D02*
X85714285Y-25980057D01*
X85714285Y-25980057D02*
X85761904Y-26075295D01*
X85761904Y-26075295D02*
X85761904Y-26170533D01*
X85761904Y-26170533D02*
X85714285Y-26313390D01*
X85714285Y-26313390D02*
X85142857Y-26884819D01*
X85142857Y-26884819D02*
X85761904Y-26884819D01*
D11*
X84742857Y-25181927D02*
X84609524Y-24991451D01*
X84514286Y-25181927D02*
X84514286Y-24781927D01*
X84514286Y-24781927D02*
X84666667Y-24781927D01*
X84666667Y-24781927D02*
X84704762Y-24800975D01*
X84704762Y-24800975D02*
X84723809Y-24820022D01*
X84723809Y-24820022D02*
X84742857Y-24858118D01*
X84742857Y-24858118D02*
X84742857Y-24915260D01*
X84742857Y-24915260D02*
X84723809Y-24953356D01*
X84723809Y-24953356D02*
X84704762Y-24972403D01*
X84704762Y-24972403D02*
X84666667Y-24991451D01*
X84666667Y-24991451D02*
X84514286Y-24991451D01*
X85123809Y-25181927D02*
X84895238Y-25181927D01*
X85009524Y-25181927D02*
X85009524Y-24781927D01*
X85009524Y-24781927D02*
X84971428Y-24839070D01*
X84971428Y-24839070D02*
X84933333Y-24877165D01*
X84933333Y-24877165D02*
X84895238Y-24896213D01*
X85485714Y-24781927D02*
X85295238Y-24781927D01*
X85295238Y-24781927D02*
X85276190Y-24972403D01*
X85276190Y-24972403D02*
X85295238Y-24953356D01*
X85295238Y-24953356D02*
X85333333Y-24934308D01*
X85333333Y-24934308D02*
X85428571Y-24934308D01*
X85428571Y-24934308D02*
X85466666Y-24953356D01*
X85466666Y-24953356D02*
X85485714Y-24972403D01*
X85485714Y-24972403D02*
X85504761Y-25010499D01*
X85504761Y-25010499D02*
X85504761Y-25105737D01*
X85504761Y-25105737D02*
X85485714Y-25143832D01*
X85485714Y-25143832D02*
X85466666Y-25162880D01*
X85466666Y-25162880D02*
X85428571Y-25181927D01*
X85428571Y-25181927D02*
X85333333Y-25181927D01*
X85333333Y-25181927D02*
X85295238Y-25162880D01*
X85295238Y-25162880D02*
X85276190Y-25143832D01*
D10*
X94119047Y-25884819D02*
X93642857Y-25884819D01*
X93642857Y-25884819D02*
X93595238Y-26361009D01*
X93595238Y-26361009D02*
X93642857Y-26313390D01*
X93642857Y-26313390D02*
X93738095Y-26265771D01*
X93738095Y-26265771D02*
X93976190Y-26265771D01*
X93976190Y-26265771D02*
X94071428Y-26313390D01*
X94071428Y-26313390D02*
X94119047Y-26361009D01*
X94119047Y-26361009D02*
X94166666Y-26456247D01*
X94166666Y-26456247D02*
X94166666Y-26694342D01*
X94166666Y-26694342D02*
X94119047Y-26789580D01*
X94119047Y-26789580D02*
X94071428Y-26837200D01*
X94071428Y-26837200D02*
X93976190Y-26884819D01*
X93976190Y-26884819D02*
X93738095Y-26884819D01*
X93738095Y-26884819D02*
X93642857Y-26837200D01*
X93642857Y-26837200D02*
X93595238Y-26789580D01*
X94595238Y-26789580D02*
X94642857Y-26837200D01*
X94642857Y-26837200D02*
X94595238Y-26884819D01*
X94595238Y-26884819D02*
X94547619Y-26837200D01*
X94547619Y-26837200D02*
X94595238Y-26789580D01*
X94595238Y-26789580D02*
X94595238Y-26884819D01*
X95595237Y-26884819D02*
X95023809Y-26884819D01*
X95309523Y-26884819D02*
X95309523Y-25884819D01*
X95309523Y-25884819D02*
X95214285Y-26027676D01*
X95214285Y-26027676D02*
X95119047Y-26122914D01*
X95119047Y-26122914D02*
X95023809Y-26170533D01*
X96023809Y-26884819D02*
X96023809Y-25884819D01*
X96119047Y-26503866D02*
X96404761Y-26884819D01*
X96404761Y-26218152D02*
X96023809Y-26599104D01*
D11*
X94742857Y-25181927D02*
X94609524Y-24991451D01*
X94514286Y-25181927D02*
X94514286Y-24781927D01*
X94514286Y-24781927D02*
X94666667Y-24781927D01*
X94666667Y-24781927D02*
X94704762Y-24800975D01*
X94704762Y-24800975D02*
X94723809Y-24820022D01*
X94723809Y-24820022D02*
X94742857Y-24858118D01*
X94742857Y-24858118D02*
X94742857Y-24915260D01*
X94742857Y-24915260D02*
X94723809Y-24953356D01*
X94723809Y-24953356D02*
X94704762Y-24972403D01*
X94704762Y-24972403D02*
X94666667Y-24991451D01*
X94666667Y-24991451D02*
X94514286Y-24991451D01*
X95123809Y-25181927D02*
X94895238Y-25181927D01*
X95009524Y-25181927D02*
X95009524Y-24781927D01*
X95009524Y-24781927D02*
X94971428Y-24839070D01*
X94971428Y-24839070D02*
X94933333Y-24877165D01*
X94933333Y-24877165D02*
X94895238Y-24896213D01*
X95276190Y-24820022D02*
X95295238Y-24800975D01*
X95295238Y-24800975D02*
X95333333Y-24781927D01*
X95333333Y-24781927D02*
X95428571Y-24781927D01*
X95428571Y-24781927D02*
X95466666Y-24800975D01*
X95466666Y-24800975D02*
X95485714Y-24820022D01*
X95485714Y-24820022D02*
X95504761Y-24858118D01*
X95504761Y-24858118D02*
X95504761Y-24896213D01*
X95504761Y-24896213D02*
X95485714Y-24953356D01*
X95485714Y-24953356D02*
X95257142Y-25181927D01*
X95257142Y-25181927D02*
X95504761Y-25181927D01*
D10*
X104404761Y-26884819D02*
X103833333Y-26884819D01*
X104119047Y-26884819D02*
X104119047Y-25884819D01*
X104119047Y-25884819D02*
X104023809Y-26027676D01*
X104023809Y-26027676D02*
X103928571Y-26122914D01*
X103928571Y-26122914D02*
X103833333Y-26170533D01*
X105023809Y-25884819D02*
X105119047Y-25884819D01*
X105119047Y-25884819D02*
X105214285Y-25932438D01*
X105214285Y-25932438D02*
X105261904Y-25980057D01*
X105261904Y-25980057D02*
X105309523Y-26075295D01*
X105309523Y-26075295D02*
X105357142Y-26265771D01*
X105357142Y-26265771D02*
X105357142Y-26503866D01*
X105357142Y-26503866D02*
X105309523Y-26694342D01*
X105309523Y-26694342D02*
X105261904Y-26789580D01*
X105261904Y-26789580D02*
X105214285Y-26837200D01*
X105214285Y-26837200D02*
X105119047Y-26884819D01*
X105119047Y-26884819D02*
X105023809Y-26884819D01*
X105023809Y-26884819D02*
X104928571Y-26837200D01*
X104928571Y-26837200D02*
X104880952Y-26789580D01*
X104880952Y-26789580D02*
X104833333Y-26694342D01*
X104833333Y-26694342D02*
X104785714Y-26503866D01*
X104785714Y-26503866D02*
X104785714Y-26265771D01*
X104785714Y-26265771D02*
X104833333Y-26075295D01*
X104833333Y-26075295D02*
X104880952Y-25980057D01*
X104880952Y-25980057D02*
X104928571Y-25932438D01*
X104928571Y-25932438D02*
X105023809Y-25884819D01*
X105785714Y-26884819D02*
X105785714Y-25884819D01*
X105880952Y-26503866D02*
X106166666Y-26884819D01*
X106166666Y-26218152D02*
X105785714Y-26599104D01*
D11*
X104742857Y-25181927D02*
X104609524Y-24991451D01*
X104514286Y-25181927D02*
X104514286Y-24781927D01*
X104514286Y-24781927D02*
X104666667Y-24781927D01*
X104666667Y-24781927D02*
X104704762Y-24800975D01*
X104704762Y-24800975D02*
X104723809Y-24820022D01*
X104723809Y-24820022D02*
X104742857Y-24858118D01*
X104742857Y-24858118D02*
X104742857Y-24915260D01*
X104742857Y-24915260D02*
X104723809Y-24953356D01*
X104723809Y-24953356D02*
X104704762Y-24972403D01*
X104704762Y-24972403D02*
X104666667Y-24991451D01*
X104666667Y-24991451D02*
X104514286Y-24991451D01*
X105123809Y-25181927D02*
X104895238Y-25181927D01*
X105009524Y-25181927D02*
X105009524Y-24781927D01*
X105009524Y-24781927D02*
X104971428Y-24839070D01*
X104971428Y-24839070D02*
X104933333Y-24877165D01*
X104933333Y-24877165D02*
X104895238Y-24896213D01*
X105257142Y-24781927D02*
X105523809Y-24781927D01*
X105523809Y-24781927D02*
X105352380Y-25181927D01*
D10*
X23928571Y-36884819D02*
X23357143Y-36884819D01*
X23642857Y-36884819D02*
X23642857Y-35884819D01*
X23642857Y-35884819D02*
X23547619Y-36027676D01*
X23547619Y-36027676D02*
X23452381Y-36122914D01*
X23452381Y-36122914D02*
X23357143Y-36170533D01*
X24547619Y-35884819D02*
X24642857Y-35884819D01*
X24642857Y-35884819D02*
X24738095Y-35932438D01*
X24738095Y-35932438D02*
X24785714Y-35980057D01*
X24785714Y-35980057D02*
X24833333Y-36075295D01*
X24833333Y-36075295D02*
X24880952Y-36265771D01*
X24880952Y-36265771D02*
X24880952Y-36503866D01*
X24880952Y-36503866D02*
X24833333Y-36694342D01*
X24833333Y-36694342D02*
X24785714Y-36789580D01*
X24785714Y-36789580D02*
X24738095Y-36837200D01*
X24738095Y-36837200D02*
X24642857Y-36884819D01*
X24642857Y-36884819D02*
X24547619Y-36884819D01*
X24547619Y-36884819D02*
X24452381Y-36837200D01*
X24452381Y-36837200D02*
X24404762Y-36789580D01*
X24404762Y-36789580D02*
X24357143Y-36694342D01*
X24357143Y-36694342D02*
X24309524Y-36503866D01*
X24309524Y-36503866D02*
X24309524Y-36265771D01*
X24309524Y-36265771D02*
X24357143Y-36075295D01*
X24357143Y-36075295D02*
X24404762Y-35980057D01*
X24404762Y-35980057D02*
X24452381Y-35932438D01*
X24452381Y-35932438D02*
X24547619Y-35884819D01*
X25738095Y-36218152D02*
X25738095Y-36884819D01*
X25309524Y-36218152D02*
X25309524Y-36741961D01*
X25309524Y-36741961D02*
X25357143Y-36837200D01*
X25357143Y-36837200D02*
X25452381Y-36884819D01*
X25452381Y-36884819D02*
X25595238Y-36884819D01*
X25595238Y-36884819D02*
X25690476Y-36837200D01*
X25690476Y-36837200D02*
X25738095Y-36789580D01*
X26547619Y-36361009D02*
X26214286Y-36361009D01*
X26214286Y-36884819D02*
X26214286Y-35884819D01*
X26214286Y-35884819D02*
X26690476Y-35884819D01*
D11*
X24933333Y-35143832D02*
X24914285Y-35162880D01*
X24914285Y-35162880D02*
X24857143Y-35181927D01*
X24857143Y-35181927D02*
X24819047Y-35181927D01*
X24819047Y-35181927D02*
X24761904Y-35162880D01*
X24761904Y-35162880D02*
X24723809Y-35124784D01*
X24723809Y-35124784D02*
X24704762Y-35086689D01*
X24704762Y-35086689D02*
X24685714Y-35010499D01*
X24685714Y-35010499D02*
X24685714Y-34953356D01*
X24685714Y-34953356D02*
X24704762Y-34877165D01*
X24704762Y-34877165D02*
X24723809Y-34839070D01*
X24723809Y-34839070D02*
X24761904Y-34800975D01*
X24761904Y-34800975D02*
X24819047Y-34781927D01*
X24819047Y-34781927D02*
X24857143Y-34781927D01*
X24857143Y-34781927D02*
X24914285Y-34800975D01*
X24914285Y-34800975D02*
X24933333Y-34820022D01*
X25123809Y-35181927D02*
X25200000Y-35181927D01*
X25200000Y-35181927D02*
X25238095Y-35162880D01*
X25238095Y-35162880D02*
X25257143Y-35143832D01*
X25257143Y-35143832D02*
X25295238Y-35086689D01*
X25295238Y-35086689D02*
X25314285Y-35010499D01*
X25314285Y-35010499D02*
X25314285Y-34858118D01*
X25314285Y-34858118D02*
X25295238Y-34820022D01*
X25295238Y-34820022D02*
X25276190Y-34800975D01*
X25276190Y-34800975D02*
X25238095Y-34781927D01*
X25238095Y-34781927D02*
X25161904Y-34781927D01*
X25161904Y-34781927D02*
X25123809Y-34800975D01*
X25123809Y-34800975D02*
X25104762Y-34820022D01*
X25104762Y-34820022D02*
X25085714Y-34858118D01*
X25085714Y-34858118D02*
X25085714Y-34953356D01*
X25085714Y-34953356D02*
X25104762Y-34991451D01*
X25104762Y-34991451D02*
X25123809Y-35010499D01*
X25123809Y-35010499D02*
X25161904Y-35029546D01*
X25161904Y-35029546D02*
X25238095Y-35029546D01*
X25238095Y-35029546D02*
X25276190Y-35010499D01*
X25276190Y-35010499D02*
X25295238Y-34991451D01*
X25295238Y-34991451D02*
X25314285Y-34953356D01*
D10*
X34071428Y-36218152D02*
X34071428Y-36884819D01*
X33833333Y-35837200D02*
X33595238Y-36551485D01*
X33595238Y-36551485D02*
X34214285Y-36551485D01*
X34595238Y-36789580D02*
X34642857Y-36837200D01*
X34642857Y-36837200D02*
X34595238Y-36884819D01*
X34595238Y-36884819D02*
X34547619Y-36837200D01*
X34547619Y-36837200D02*
X34595238Y-36789580D01*
X34595238Y-36789580D02*
X34595238Y-36884819D01*
X34976190Y-35884819D02*
X35642856Y-35884819D01*
X35642856Y-35884819D02*
X35214285Y-36884819D01*
X36023809Y-36884819D02*
X36023809Y-35884819D01*
X36119047Y-36503866D02*
X36404761Y-36884819D01*
X36404761Y-36218152D02*
X36023809Y-36599104D01*
D11*
X34933333Y-35181927D02*
X34800000Y-34991451D01*
X34704762Y-35181927D02*
X34704762Y-34781927D01*
X34704762Y-34781927D02*
X34857143Y-34781927D01*
X34857143Y-34781927D02*
X34895238Y-34800975D01*
X34895238Y-34800975D02*
X34914285Y-34820022D01*
X34914285Y-34820022D02*
X34933333Y-34858118D01*
X34933333Y-34858118D02*
X34933333Y-34915260D01*
X34933333Y-34915260D02*
X34914285Y-34953356D01*
X34914285Y-34953356D02*
X34895238Y-34972403D01*
X34895238Y-34972403D02*
X34857143Y-34991451D01*
X34857143Y-34991451D02*
X34704762Y-34991451D01*
X35066666Y-34781927D02*
X35333333Y-34781927D01*
X35333333Y-34781927D02*
X35161904Y-35181927D01*
D10*
X9619048Y-63954819D02*
X9619048Y-64764342D01*
X9619048Y-64764342D02*
X9666667Y-64859580D01*
X9666667Y-64859580D02*
X9714286Y-64907200D01*
X9714286Y-64907200D02*
X9809524Y-64954819D01*
X9809524Y-64954819D02*
X10000000Y-64954819D01*
X10000000Y-64954819D02*
X10095238Y-64907200D01*
X10095238Y-64907200D02*
X10142857Y-64859580D01*
X10142857Y-64859580D02*
X10190476Y-64764342D01*
X10190476Y-64764342D02*
X10190476Y-63954819D01*
X10619048Y-64907200D02*
X10761905Y-64954819D01*
X10761905Y-64954819D02*
X11000000Y-64954819D01*
X11000000Y-64954819D02*
X11095238Y-64907200D01*
X11095238Y-64907200D02*
X11142857Y-64859580D01*
X11142857Y-64859580D02*
X11190476Y-64764342D01*
X11190476Y-64764342D02*
X11190476Y-64669104D01*
X11190476Y-64669104D02*
X11142857Y-64573866D01*
X11142857Y-64573866D02*
X11095238Y-64526247D01*
X11095238Y-64526247D02*
X11000000Y-64478628D01*
X11000000Y-64478628D02*
X10809524Y-64431009D01*
X10809524Y-64431009D02*
X10714286Y-64383390D01*
X10714286Y-64383390D02*
X10666667Y-64335771D01*
X10666667Y-64335771D02*
X10619048Y-64240533D01*
X10619048Y-64240533D02*
X10619048Y-64145295D01*
X10619048Y-64145295D02*
X10666667Y-64050057D01*
X10666667Y-64050057D02*
X10714286Y-64002438D01*
X10714286Y-64002438D02*
X10809524Y-63954819D01*
X10809524Y-63954819D02*
X11047619Y-63954819D01*
X11047619Y-63954819D02*
X11190476Y-64002438D01*
X11952381Y-64431009D02*
X12095238Y-64478628D01*
X12095238Y-64478628D02*
X12142857Y-64526247D01*
X12142857Y-64526247D02*
X12190476Y-64621485D01*
X12190476Y-64621485D02*
X12190476Y-64764342D01*
X12190476Y-64764342D02*
X12142857Y-64859580D01*
X12142857Y-64859580D02*
X12095238Y-64907200D01*
X12095238Y-64907200D02*
X12000000Y-64954819D01*
X12000000Y-64954819D02*
X11619048Y-64954819D01*
X11619048Y-64954819D02*
X11619048Y-63954819D01*
X11619048Y-63954819D02*
X11952381Y-63954819D01*
X11952381Y-63954819D02*
X12047619Y-64002438D01*
X12047619Y-64002438D02*
X12095238Y-64050057D01*
X12095238Y-64050057D02*
X12142857Y-64145295D01*
X12142857Y-64145295D02*
X12142857Y-64240533D01*
X12142857Y-64240533D02*
X12095238Y-64335771D01*
X12095238Y-64335771D02*
X12047619Y-64383390D01*
X12047619Y-64383390D02*
X11952381Y-64431009D01*
X11952381Y-64431009D02*
X11619048Y-64431009D01*
X12619048Y-64573866D02*
X13380953Y-64573866D01*
X14428571Y-64859580D02*
X14380952Y-64907200D01*
X14380952Y-64907200D02*
X14238095Y-64954819D01*
X14238095Y-64954819D02*
X14142857Y-64954819D01*
X14142857Y-64954819D02*
X14000000Y-64907200D01*
X14000000Y-64907200D02*
X13904762Y-64811961D01*
X13904762Y-64811961D02*
X13857143Y-64716723D01*
X13857143Y-64716723D02*
X13809524Y-64526247D01*
X13809524Y-64526247D02*
X13809524Y-64383390D01*
X13809524Y-64383390D02*
X13857143Y-64192914D01*
X13857143Y-64192914D02*
X13904762Y-64097676D01*
X13904762Y-64097676D02*
X14000000Y-64002438D01*
X14000000Y-64002438D02*
X14142857Y-63954819D01*
X14142857Y-63954819D02*
X14238095Y-63954819D01*
X14238095Y-63954819D02*
X14380952Y-64002438D01*
X14380952Y-64002438D02*
X14428571Y-64050057D01*
X11666666Y-59454819D02*
X11666666Y-60169104D01*
X11666666Y-60169104D02*
X11619047Y-60311961D01*
X11619047Y-60311961D02*
X11523809Y-60407200D01*
X11523809Y-60407200D02*
X11380952Y-60454819D01*
X11380952Y-60454819D02*
X11285714Y-60454819D01*
X12666666Y-60454819D02*
X12095238Y-60454819D01*
X12380952Y-60454819D02*
X12380952Y-59454819D01*
X12380952Y-59454819D02*
X12285714Y-59597676D01*
X12285714Y-59597676D02*
X12190476Y-59692914D01*
X12190476Y-59692914D02*
X12095238Y-59740533D01*
X107809524Y-27867200D02*
X107952381Y-27914819D01*
X107952381Y-27914819D02*
X108190476Y-27914819D01*
X108190476Y-27914819D02*
X108285714Y-27867200D01*
X108285714Y-27867200D02*
X108333333Y-27819580D01*
X108333333Y-27819580D02*
X108380952Y-27724342D01*
X108380952Y-27724342D02*
X108380952Y-27629104D01*
X108380952Y-27629104D02*
X108333333Y-27533866D01*
X108333333Y-27533866D02*
X108285714Y-27486247D01*
X108285714Y-27486247D02*
X108190476Y-27438628D01*
X108190476Y-27438628D02*
X108000000Y-27391009D01*
X108000000Y-27391009D02*
X107904762Y-27343390D01*
X107904762Y-27343390D02*
X107857143Y-27295771D01*
X107857143Y-27295771D02*
X107809524Y-27200533D01*
X107809524Y-27200533D02*
X107809524Y-27105295D01*
X107809524Y-27105295D02*
X107857143Y-27010057D01*
X107857143Y-27010057D02*
X107904762Y-26962438D01*
X107904762Y-26962438D02*
X108000000Y-26914819D01*
X108000000Y-26914819D02*
X108238095Y-26914819D01*
X108238095Y-26914819D02*
X108380952Y-26962438D01*
X108809524Y-27391009D02*
X109142857Y-27391009D01*
X109285714Y-27914819D02*
X108809524Y-27914819D01*
X108809524Y-27914819D02*
X108809524Y-26914819D01*
X108809524Y-26914819D02*
X109285714Y-26914819D01*
X110285714Y-27914819D02*
X109952381Y-27438628D01*
X109714286Y-27914819D02*
X109714286Y-26914819D01*
X109714286Y-26914819D02*
X110095238Y-26914819D01*
X110095238Y-26914819D02*
X110190476Y-26962438D01*
X110190476Y-26962438D02*
X110238095Y-27010057D01*
X110238095Y-27010057D02*
X110285714Y-27105295D01*
X110285714Y-27105295D02*
X110285714Y-27248152D01*
X110285714Y-27248152D02*
X110238095Y-27343390D01*
X110238095Y-27343390D02*
X110190476Y-27391009D01*
X110190476Y-27391009D02*
X110095238Y-27438628D01*
X110095238Y-27438628D02*
X109714286Y-27438628D01*
X110571429Y-26914819D02*
X110904762Y-27914819D01*
X110904762Y-27914819D02*
X111238095Y-26914819D01*
X111761905Y-26914819D02*
X111952381Y-26914819D01*
X111952381Y-26914819D02*
X112047619Y-26962438D01*
X112047619Y-26962438D02*
X112142857Y-27057676D01*
X112142857Y-27057676D02*
X112190476Y-27248152D01*
X112190476Y-27248152D02*
X112190476Y-27581485D01*
X112190476Y-27581485D02*
X112142857Y-27771961D01*
X112142857Y-27771961D02*
X112047619Y-27867200D01*
X112047619Y-27867200D02*
X111952381Y-27914819D01*
X111952381Y-27914819D02*
X111761905Y-27914819D01*
X111761905Y-27914819D02*
X111666667Y-27867200D01*
X111666667Y-27867200D02*
X111571429Y-27771961D01*
X111571429Y-27771961D02*
X111523810Y-27581485D01*
X111523810Y-27581485D02*
X111523810Y-27248152D01*
X111523810Y-27248152D02*
X111571429Y-27057676D01*
X111571429Y-27057676D02*
X111666667Y-26962438D01*
X111666667Y-26962438D02*
X111761905Y-26914819D01*
X109454819Y-22873333D02*
X110169104Y-22873333D01*
X110169104Y-22873333D02*
X110311961Y-22920952D01*
X110311961Y-22920952D02*
X110407200Y-23016190D01*
X110407200Y-23016190D02*
X110454819Y-23159047D01*
X110454819Y-23159047D02*
X110454819Y-23254285D01*
X109550057Y-22444761D02*
X109502438Y-22397142D01*
X109502438Y-22397142D02*
X109454819Y-22301904D01*
X109454819Y-22301904D02*
X109454819Y-22063809D01*
X109454819Y-22063809D02*
X109502438Y-21968571D01*
X109502438Y-21968571D02*
X109550057Y-21920952D01*
X109550057Y-21920952D02*
X109645295Y-21873333D01*
X109645295Y-21873333D02*
X109740533Y-21873333D01*
X109740533Y-21873333D02*
X109883390Y-21920952D01*
X109883390Y-21920952D02*
X110454819Y-22492380D01*
X110454819Y-22492380D02*
X110454819Y-21873333D01*
X43452380Y-36884819D02*
X42880952Y-36884819D01*
X43166666Y-36884819D02*
X43166666Y-35884819D01*
X43166666Y-35884819D02*
X43071428Y-36027676D01*
X43071428Y-36027676D02*
X42976190Y-36122914D01*
X42976190Y-36122914D02*
X42880952Y-36170533D01*
X44071428Y-35884819D02*
X44166666Y-35884819D01*
X44166666Y-35884819D02*
X44261904Y-35932438D01*
X44261904Y-35932438D02*
X44309523Y-35980057D01*
X44309523Y-35980057D02*
X44357142Y-36075295D01*
X44357142Y-36075295D02*
X44404761Y-36265771D01*
X44404761Y-36265771D02*
X44404761Y-36503866D01*
X44404761Y-36503866D02*
X44357142Y-36694342D01*
X44357142Y-36694342D02*
X44309523Y-36789580D01*
X44309523Y-36789580D02*
X44261904Y-36837200D01*
X44261904Y-36837200D02*
X44166666Y-36884819D01*
X44166666Y-36884819D02*
X44071428Y-36884819D01*
X44071428Y-36884819D02*
X43976190Y-36837200D01*
X43976190Y-36837200D02*
X43928571Y-36789580D01*
X43928571Y-36789580D02*
X43880952Y-36694342D01*
X43880952Y-36694342D02*
X43833333Y-36503866D01*
X43833333Y-36503866D02*
X43833333Y-36265771D01*
X43833333Y-36265771D02*
X43880952Y-36075295D01*
X43880952Y-36075295D02*
X43928571Y-35980057D01*
X43928571Y-35980057D02*
X43976190Y-35932438D01*
X43976190Y-35932438D02*
X44071428Y-35884819D01*
X45023809Y-35884819D02*
X45119047Y-35884819D01*
X45119047Y-35884819D02*
X45214285Y-35932438D01*
X45214285Y-35932438D02*
X45261904Y-35980057D01*
X45261904Y-35980057D02*
X45309523Y-36075295D01*
X45309523Y-36075295D02*
X45357142Y-36265771D01*
X45357142Y-36265771D02*
X45357142Y-36503866D01*
X45357142Y-36503866D02*
X45309523Y-36694342D01*
X45309523Y-36694342D02*
X45261904Y-36789580D01*
X45261904Y-36789580D02*
X45214285Y-36837200D01*
X45214285Y-36837200D02*
X45119047Y-36884819D01*
X45119047Y-36884819D02*
X45023809Y-36884819D01*
X45023809Y-36884819D02*
X44928571Y-36837200D01*
X44928571Y-36837200D02*
X44880952Y-36789580D01*
X44880952Y-36789580D02*
X44833333Y-36694342D01*
X44833333Y-36694342D02*
X44785714Y-36503866D01*
X44785714Y-36503866D02*
X44785714Y-36265771D01*
X44785714Y-36265771D02*
X44833333Y-36075295D01*
X44833333Y-36075295D02*
X44880952Y-35980057D01*
X44880952Y-35980057D02*
X44928571Y-35932438D01*
X44928571Y-35932438D02*
X45023809Y-35884819D01*
X45785714Y-36218152D02*
X45785714Y-36884819D01*
X45785714Y-36313390D02*
X45833333Y-36265771D01*
X45833333Y-36265771D02*
X45928571Y-36218152D01*
X45928571Y-36218152D02*
X46071428Y-36218152D01*
X46071428Y-36218152D02*
X46166666Y-36265771D01*
X46166666Y-36265771D02*
X46214285Y-36361009D01*
X46214285Y-36361009D02*
X46214285Y-36884819D01*
X47023809Y-36361009D02*
X46690476Y-36361009D01*
X46690476Y-36884819D02*
X46690476Y-35884819D01*
X46690476Y-35884819D02*
X47166666Y-35884819D01*
D11*
X44933333Y-35143832D02*
X44914285Y-35162880D01*
X44914285Y-35162880D02*
X44857143Y-35181927D01*
X44857143Y-35181927D02*
X44819047Y-35181927D01*
X44819047Y-35181927D02*
X44761904Y-35162880D01*
X44761904Y-35162880D02*
X44723809Y-35124784D01*
X44723809Y-35124784D02*
X44704762Y-35086689D01*
X44704762Y-35086689D02*
X44685714Y-35010499D01*
X44685714Y-35010499D02*
X44685714Y-34953356D01*
X44685714Y-34953356D02*
X44704762Y-34877165D01*
X44704762Y-34877165D02*
X44723809Y-34839070D01*
X44723809Y-34839070D02*
X44761904Y-34800975D01*
X44761904Y-34800975D02*
X44819047Y-34781927D01*
X44819047Y-34781927D02*
X44857143Y-34781927D01*
X44857143Y-34781927D02*
X44914285Y-34800975D01*
X44914285Y-34800975D02*
X44933333Y-34820022D01*
X45295238Y-34781927D02*
X45104762Y-34781927D01*
X45104762Y-34781927D02*
X45085714Y-34972403D01*
X45085714Y-34972403D02*
X45104762Y-34953356D01*
X45104762Y-34953356D02*
X45142857Y-34934308D01*
X45142857Y-34934308D02*
X45238095Y-34934308D01*
X45238095Y-34934308D02*
X45276190Y-34953356D01*
X45276190Y-34953356D02*
X45295238Y-34972403D01*
X45295238Y-34972403D02*
X45314285Y-35010499D01*
X45314285Y-35010499D02*
X45314285Y-35105737D01*
X45314285Y-35105737D02*
X45295238Y-35143832D01*
X45295238Y-35143832D02*
X45276190Y-35162880D01*
X45276190Y-35162880D02*
X45238095Y-35181927D01*
X45238095Y-35181927D02*
X45142857Y-35181927D01*
X45142857Y-35181927D02*
X45104762Y-35162880D01*
X45104762Y-35162880D02*
X45085714Y-35143832D01*
D10*
X108714286Y-35884819D02*
X109333333Y-35884819D01*
X109333333Y-35884819D02*
X109000000Y-36265771D01*
X109000000Y-36265771D02*
X109142857Y-36265771D01*
X109142857Y-36265771D02*
X109238095Y-36313390D01*
X109238095Y-36313390D02*
X109285714Y-36361009D01*
X109285714Y-36361009D02*
X109333333Y-36456247D01*
X109333333Y-36456247D02*
X109333333Y-36694342D01*
X109333333Y-36694342D02*
X109285714Y-36789580D01*
X109285714Y-36789580D02*
X109238095Y-36837200D01*
X109238095Y-36837200D02*
X109142857Y-36884819D01*
X109142857Y-36884819D02*
X108857143Y-36884819D01*
X108857143Y-36884819D02*
X108761905Y-36837200D01*
X108761905Y-36837200D02*
X108714286Y-36789580D01*
X109666667Y-35884819D02*
X110285714Y-35884819D01*
X110285714Y-35884819D02*
X109952381Y-36265771D01*
X109952381Y-36265771D02*
X110095238Y-36265771D01*
X110095238Y-36265771D02*
X110190476Y-36313390D01*
X110190476Y-36313390D02*
X110238095Y-36361009D01*
X110238095Y-36361009D02*
X110285714Y-36456247D01*
X110285714Y-36456247D02*
X110285714Y-36694342D01*
X110285714Y-36694342D02*
X110238095Y-36789580D01*
X110238095Y-36789580D02*
X110190476Y-36837200D01*
X110190476Y-36837200D02*
X110095238Y-36884819D01*
X110095238Y-36884819D02*
X109809524Y-36884819D01*
X109809524Y-36884819D02*
X109714286Y-36837200D01*
X109714286Y-36837200D02*
X109666667Y-36789580D01*
X110904762Y-35884819D02*
X111000000Y-35884819D01*
X111000000Y-35884819D02*
X111095238Y-35932438D01*
X111095238Y-35932438D02*
X111142857Y-35980057D01*
X111142857Y-35980057D02*
X111190476Y-36075295D01*
X111190476Y-36075295D02*
X111238095Y-36265771D01*
X111238095Y-36265771D02*
X111238095Y-36503866D01*
X111238095Y-36503866D02*
X111190476Y-36694342D01*
X111190476Y-36694342D02*
X111142857Y-36789580D01*
X111142857Y-36789580D02*
X111095238Y-36837200D01*
X111095238Y-36837200D02*
X111000000Y-36884819D01*
X111000000Y-36884819D02*
X110904762Y-36884819D01*
X110904762Y-36884819D02*
X110809524Y-36837200D01*
X110809524Y-36837200D02*
X110761905Y-36789580D01*
X110761905Y-36789580D02*
X110714286Y-36694342D01*
X110714286Y-36694342D02*
X110666667Y-36503866D01*
X110666667Y-36503866D02*
X110666667Y-36265771D01*
X110666667Y-36265771D02*
X110714286Y-36075295D01*
X110714286Y-36075295D02*
X110761905Y-35980057D01*
X110761905Y-35980057D02*
X110809524Y-35932438D01*
X110809524Y-35932438D02*
X110904762Y-35884819D01*
D11*
X109933333Y-35181927D02*
X109800000Y-34991451D01*
X109704762Y-35181927D02*
X109704762Y-34781927D01*
X109704762Y-34781927D02*
X109857143Y-34781927D01*
X109857143Y-34781927D02*
X109895238Y-34800975D01*
X109895238Y-34800975D02*
X109914285Y-34820022D01*
X109914285Y-34820022D02*
X109933333Y-34858118D01*
X109933333Y-34858118D02*
X109933333Y-34915260D01*
X109933333Y-34915260D02*
X109914285Y-34953356D01*
X109914285Y-34953356D02*
X109895238Y-34972403D01*
X109895238Y-34972403D02*
X109857143Y-34991451D01*
X109857143Y-34991451D02*
X109704762Y-34991451D01*
X110085714Y-34820022D02*
X110104762Y-34800975D01*
X110104762Y-34800975D02*
X110142857Y-34781927D01*
X110142857Y-34781927D02*
X110238095Y-34781927D01*
X110238095Y-34781927D02*
X110276190Y-34800975D01*
X110276190Y-34800975D02*
X110295238Y-34820022D01*
X110295238Y-34820022D02*
X110314285Y-34858118D01*
X110314285Y-34858118D02*
X110314285Y-34896213D01*
X110314285Y-34896213D02*
X110295238Y-34953356D01*
X110295238Y-34953356D02*
X110066666Y-35181927D01*
X110066666Y-35181927D02*
X110314285Y-35181927D01*
D10*
X113452380Y-36884819D02*
X112880952Y-36884819D01*
X113166666Y-36884819D02*
X113166666Y-35884819D01*
X113166666Y-35884819D02*
X113071428Y-36027676D01*
X113071428Y-36027676D02*
X112976190Y-36122914D01*
X112976190Y-36122914D02*
X112880952Y-36170533D01*
X114071428Y-35884819D02*
X114166666Y-35884819D01*
X114166666Y-35884819D02*
X114261904Y-35932438D01*
X114261904Y-35932438D02*
X114309523Y-35980057D01*
X114309523Y-35980057D02*
X114357142Y-36075295D01*
X114357142Y-36075295D02*
X114404761Y-36265771D01*
X114404761Y-36265771D02*
X114404761Y-36503866D01*
X114404761Y-36503866D02*
X114357142Y-36694342D01*
X114357142Y-36694342D02*
X114309523Y-36789580D01*
X114309523Y-36789580D02*
X114261904Y-36837200D01*
X114261904Y-36837200D02*
X114166666Y-36884819D01*
X114166666Y-36884819D02*
X114071428Y-36884819D01*
X114071428Y-36884819D02*
X113976190Y-36837200D01*
X113976190Y-36837200D02*
X113928571Y-36789580D01*
X113928571Y-36789580D02*
X113880952Y-36694342D01*
X113880952Y-36694342D02*
X113833333Y-36503866D01*
X113833333Y-36503866D02*
X113833333Y-36265771D01*
X113833333Y-36265771D02*
X113880952Y-36075295D01*
X113880952Y-36075295D02*
X113928571Y-35980057D01*
X113928571Y-35980057D02*
X113976190Y-35932438D01*
X113976190Y-35932438D02*
X114071428Y-35884819D01*
X115023809Y-35884819D02*
X115119047Y-35884819D01*
X115119047Y-35884819D02*
X115214285Y-35932438D01*
X115214285Y-35932438D02*
X115261904Y-35980057D01*
X115261904Y-35980057D02*
X115309523Y-36075295D01*
X115309523Y-36075295D02*
X115357142Y-36265771D01*
X115357142Y-36265771D02*
X115357142Y-36503866D01*
X115357142Y-36503866D02*
X115309523Y-36694342D01*
X115309523Y-36694342D02*
X115261904Y-36789580D01*
X115261904Y-36789580D02*
X115214285Y-36837200D01*
X115214285Y-36837200D02*
X115119047Y-36884819D01*
X115119047Y-36884819D02*
X115023809Y-36884819D01*
X115023809Y-36884819D02*
X114928571Y-36837200D01*
X114928571Y-36837200D02*
X114880952Y-36789580D01*
X114880952Y-36789580D02*
X114833333Y-36694342D01*
X114833333Y-36694342D02*
X114785714Y-36503866D01*
X114785714Y-36503866D02*
X114785714Y-36265771D01*
X114785714Y-36265771D02*
X114833333Y-36075295D01*
X114833333Y-36075295D02*
X114880952Y-35980057D01*
X114880952Y-35980057D02*
X114928571Y-35932438D01*
X114928571Y-35932438D02*
X115023809Y-35884819D01*
X115785714Y-36218152D02*
X115785714Y-36884819D01*
X115785714Y-36313390D02*
X115833333Y-36265771D01*
X115833333Y-36265771D02*
X115928571Y-36218152D01*
X115928571Y-36218152D02*
X116071428Y-36218152D01*
X116071428Y-36218152D02*
X116166666Y-36265771D01*
X116166666Y-36265771D02*
X116214285Y-36361009D01*
X116214285Y-36361009D02*
X116214285Y-36884819D01*
X117023809Y-36361009D02*
X116690476Y-36361009D01*
X116690476Y-36884819D02*
X116690476Y-35884819D01*
X116690476Y-35884819D02*
X117166666Y-35884819D01*
D11*
X114933333Y-35143832D02*
X114914285Y-35162880D01*
X114914285Y-35162880D02*
X114857143Y-35181927D01*
X114857143Y-35181927D02*
X114819047Y-35181927D01*
X114819047Y-35181927D02*
X114761904Y-35162880D01*
X114761904Y-35162880D02*
X114723809Y-35124784D01*
X114723809Y-35124784D02*
X114704762Y-35086689D01*
X114704762Y-35086689D02*
X114685714Y-35010499D01*
X114685714Y-35010499D02*
X114685714Y-34953356D01*
X114685714Y-34953356D02*
X114704762Y-34877165D01*
X114704762Y-34877165D02*
X114723809Y-34839070D01*
X114723809Y-34839070D02*
X114761904Y-34800975D01*
X114761904Y-34800975D02*
X114819047Y-34781927D01*
X114819047Y-34781927D02*
X114857143Y-34781927D01*
X114857143Y-34781927D02*
X114914285Y-34800975D01*
X114914285Y-34800975D02*
X114933333Y-34820022D01*
X115066666Y-34781927D02*
X115333333Y-34781927D01*
X115333333Y-34781927D02*
X115161904Y-35181927D01*
D10*
X122523809Y-36837200D02*
X122666666Y-36884819D01*
X122666666Y-36884819D02*
X122904761Y-36884819D01*
X122904761Y-36884819D02*
X122999999Y-36837200D01*
X122999999Y-36837200D02*
X123047618Y-36789580D01*
X123047618Y-36789580D02*
X123095237Y-36694342D01*
X123095237Y-36694342D02*
X123095237Y-36599104D01*
X123095237Y-36599104D02*
X123047618Y-36503866D01*
X123047618Y-36503866D02*
X122999999Y-36456247D01*
X122999999Y-36456247D02*
X122904761Y-36408628D01*
X122904761Y-36408628D02*
X122714285Y-36361009D01*
X122714285Y-36361009D02*
X122619047Y-36313390D01*
X122619047Y-36313390D02*
X122571428Y-36265771D01*
X122571428Y-36265771D02*
X122523809Y-36170533D01*
X122523809Y-36170533D02*
X122523809Y-36075295D01*
X122523809Y-36075295D02*
X122571428Y-35980057D01*
X122571428Y-35980057D02*
X122619047Y-35932438D01*
X122619047Y-35932438D02*
X122714285Y-35884819D01*
X122714285Y-35884819D02*
X122952380Y-35884819D01*
X122952380Y-35884819D02*
X123095237Y-35932438D01*
X123380952Y-35884819D02*
X123952380Y-35884819D01*
X123666666Y-36884819D02*
X123666666Y-35884819D01*
X124238095Y-36599104D02*
X124714285Y-36599104D01*
X124142857Y-36884819D02*
X124476190Y-35884819D01*
X124476190Y-35884819D02*
X124809523Y-36884819D01*
X125000000Y-35884819D02*
X125571428Y-35884819D01*
X125285714Y-36884819D02*
X125285714Y-35884819D01*
X125904762Y-35884819D02*
X125904762Y-36694342D01*
X125904762Y-36694342D02*
X125952381Y-36789580D01*
X125952381Y-36789580D02*
X126000000Y-36837200D01*
X126000000Y-36837200D02*
X126095238Y-36884819D01*
X126095238Y-36884819D02*
X126285714Y-36884819D01*
X126285714Y-36884819D02*
X126380952Y-36837200D01*
X126380952Y-36837200D02*
X126428571Y-36789580D01*
X126428571Y-36789580D02*
X126476190Y-36694342D01*
X126476190Y-36694342D02*
X126476190Y-35884819D01*
X126904762Y-36837200D02*
X127047619Y-36884819D01*
X127047619Y-36884819D02*
X127285714Y-36884819D01*
X127285714Y-36884819D02*
X127380952Y-36837200D01*
X127380952Y-36837200D02*
X127428571Y-36789580D01*
X127428571Y-36789580D02*
X127476190Y-36694342D01*
X127476190Y-36694342D02*
X127476190Y-36599104D01*
X127476190Y-36599104D02*
X127428571Y-36503866D01*
X127428571Y-36503866D02*
X127380952Y-36456247D01*
X127380952Y-36456247D02*
X127285714Y-36408628D01*
X127285714Y-36408628D02*
X127095238Y-36361009D01*
X127095238Y-36361009D02*
X127000000Y-36313390D01*
X127000000Y-36313390D02*
X126952381Y-36265771D01*
X126952381Y-36265771D02*
X126904762Y-36170533D01*
X126904762Y-36170533D02*
X126904762Y-36075295D01*
X126904762Y-36075295D02*
X126952381Y-35980057D01*
X126952381Y-35980057D02*
X127000000Y-35932438D01*
X127000000Y-35932438D02*
X127095238Y-35884819D01*
X127095238Y-35884819D02*
X127333333Y-35884819D01*
X127333333Y-35884819D02*
X127476190Y-35932438D01*
D11*
X124704762Y-35181927D02*
X124704762Y-34781927D01*
X124704762Y-34781927D02*
X124800000Y-34781927D01*
X124800000Y-34781927D02*
X124857143Y-34800975D01*
X124857143Y-34800975D02*
X124895238Y-34839070D01*
X124895238Y-34839070D02*
X124914285Y-34877165D01*
X124914285Y-34877165D02*
X124933333Y-34953356D01*
X124933333Y-34953356D02*
X124933333Y-35010499D01*
X124933333Y-35010499D02*
X124914285Y-35086689D01*
X124914285Y-35086689D02*
X124895238Y-35124784D01*
X124895238Y-35124784D02*
X124857143Y-35162880D01*
X124857143Y-35162880D02*
X124800000Y-35181927D01*
X124800000Y-35181927D02*
X124704762Y-35181927D01*
X125314285Y-35181927D02*
X125085714Y-35181927D01*
X125200000Y-35181927D02*
X125200000Y-34781927D01*
X125200000Y-34781927D02*
X125161904Y-34839070D01*
X125161904Y-34839070D02*
X125123809Y-34877165D01*
X125123809Y-34877165D02*
X125085714Y-34896213D01*
D10*
X128714286Y-35884819D02*
X129333333Y-35884819D01*
X129333333Y-35884819D02*
X129000000Y-36265771D01*
X129000000Y-36265771D02*
X129142857Y-36265771D01*
X129142857Y-36265771D02*
X129238095Y-36313390D01*
X129238095Y-36313390D02*
X129285714Y-36361009D01*
X129285714Y-36361009D02*
X129333333Y-36456247D01*
X129333333Y-36456247D02*
X129333333Y-36694342D01*
X129333333Y-36694342D02*
X129285714Y-36789580D01*
X129285714Y-36789580D02*
X129238095Y-36837200D01*
X129238095Y-36837200D02*
X129142857Y-36884819D01*
X129142857Y-36884819D02*
X128857143Y-36884819D01*
X128857143Y-36884819D02*
X128761905Y-36837200D01*
X128761905Y-36837200D02*
X128714286Y-36789580D01*
X129666667Y-35884819D02*
X130285714Y-35884819D01*
X130285714Y-35884819D02*
X129952381Y-36265771D01*
X129952381Y-36265771D02*
X130095238Y-36265771D01*
X130095238Y-36265771D02*
X130190476Y-36313390D01*
X130190476Y-36313390D02*
X130238095Y-36361009D01*
X130238095Y-36361009D02*
X130285714Y-36456247D01*
X130285714Y-36456247D02*
X130285714Y-36694342D01*
X130285714Y-36694342D02*
X130238095Y-36789580D01*
X130238095Y-36789580D02*
X130190476Y-36837200D01*
X130190476Y-36837200D02*
X130095238Y-36884819D01*
X130095238Y-36884819D02*
X129809524Y-36884819D01*
X129809524Y-36884819D02*
X129714286Y-36837200D01*
X129714286Y-36837200D02*
X129666667Y-36789580D01*
X130904762Y-35884819D02*
X131000000Y-35884819D01*
X131000000Y-35884819D02*
X131095238Y-35932438D01*
X131095238Y-35932438D02*
X131142857Y-35980057D01*
X131142857Y-35980057D02*
X131190476Y-36075295D01*
X131190476Y-36075295D02*
X131238095Y-36265771D01*
X131238095Y-36265771D02*
X131238095Y-36503866D01*
X131238095Y-36503866D02*
X131190476Y-36694342D01*
X131190476Y-36694342D02*
X131142857Y-36789580D01*
X131142857Y-36789580D02*
X131095238Y-36837200D01*
X131095238Y-36837200D02*
X131000000Y-36884819D01*
X131000000Y-36884819D02*
X130904762Y-36884819D01*
X130904762Y-36884819D02*
X130809524Y-36837200D01*
X130809524Y-36837200D02*
X130761905Y-36789580D01*
X130761905Y-36789580D02*
X130714286Y-36694342D01*
X130714286Y-36694342D02*
X130666667Y-36503866D01*
X130666667Y-36503866D02*
X130666667Y-36265771D01*
X130666667Y-36265771D02*
X130714286Y-36075295D01*
X130714286Y-36075295D02*
X130761905Y-35980057D01*
X130761905Y-35980057D02*
X130809524Y-35932438D01*
X130809524Y-35932438D02*
X130904762Y-35884819D01*
D11*
X129933333Y-35181927D02*
X129800000Y-34991451D01*
X129704762Y-35181927D02*
X129704762Y-34781927D01*
X129704762Y-34781927D02*
X129857143Y-34781927D01*
X129857143Y-34781927D02*
X129895238Y-34800975D01*
X129895238Y-34800975D02*
X129914285Y-34820022D01*
X129914285Y-34820022D02*
X129933333Y-34858118D01*
X129933333Y-34858118D02*
X129933333Y-34915260D01*
X129933333Y-34915260D02*
X129914285Y-34953356D01*
X129914285Y-34953356D02*
X129895238Y-34972403D01*
X129895238Y-34972403D02*
X129857143Y-34991451D01*
X129857143Y-34991451D02*
X129704762Y-34991451D01*
X130314285Y-35181927D02*
X130085714Y-35181927D01*
X130200000Y-35181927D02*
X130200000Y-34781927D01*
X130200000Y-34781927D02*
X130161904Y-34839070D01*
X130161904Y-34839070D02*
X130123809Y-34877165D01*
X130123809Y-34877165D02*
X130085714Y-34896213D01*
D10*
X133928571Y-36884819D02*
X133357143Y-36884819D01*
X133642857Y-36884819D02*
X133642857Y-35884819D01*
X133642857Y-35884819D02*
X133547619Y-36027676D01*
X133547619Y-36027676D02*
X133452381Y-36122914D01*
X133452381Y-36122914D02*
X133357143Y-36170533D01*
X134547619Y-35884819D02*
X134642857Y-35884819D01*
X134642857Y-35884819D02*
X134738095Y-35932438D01*
X134738095Y-35932438D02*
X134785714Y-35980057D01*
X134785714Y-35980057D02*
X134833333Y-36075295D01*
X134833333Y-36075295D02*
X134880952Y-36265771D01*
X134880952Y-36265771D02*
X134880952Y-36503866D01*
X134880952Y-36503866D02*
X134833333Y-36694342D01*
X134833333Y-36694342D02*
X134785714Y-36789580D01*
X134785714Y-36789580D02*
X134738095Y-36837200D01*
X134738095Y-36837200D02*
X134642857Y-36884819D01*
X134642857Y-36884819D02*
X134547619Y-36884819D01*
X134547619Y-36884819D02*
X134452381Y-36837200D01*
X134452381Y-36837200D02*
X134404762Y-36789580D01*
X134404762Y-36789580D02*
X134357143Y-36694342D01*
X134357143Y-36694342D02*
X134309524Y-36503866D01*
X134309524Y-36503866D02*
X134309524Y-36265771D01*
X134309524Y-36265771D02*
X134357143Y-36075295D01*
X134357143Y-36075295D02*
X134404762Y-35980057D01*
X134404762Y-35980057D02*
X134452381Y-35932438D01*
X134452381Y-35932438D02*
X134547619Y-35884819D01*
X135500000Y-35884819D02*
X135595238Y-35884819D01*
X135595238Y-35884819D02*
X135690476Y-35932438D01*
X135690476Y-35932438D02*
X135738095Y-35980057D01*
X135738095Y-35980057D02*
X135785714Y-36075295D01*
X135785714Y-36075295D02*
X135833333Y-36265771D01*
X135833333Y-36265771D02*
X135833333Y-36503866D01*
X135833333Y-36503866D02*
X135785714Y-36694342D01*
X135785714Y-36694342D02*
X135738095Y-36789580D01*
X135738095Y-36789580D02*
X135690476Y-36837200D01*
X135690476Y-36837200D02*
X135595238Y-36884819D01*
X135595238Y-36884819D02*
X135500000Y-36884819D01*
X135500000Y-36884819D02*
X135404762Y-36837200D01*
X135404762Y-36837200D02*
X135357143Y-36789580D01*
X135357143Y-36789580D02*
X135309524Y-36694342D01*
X135309524Y-36694342D02*
X135261905Y-36503866D01*
X135261905Y-36503866D02*
X135261905Y-36265771D01*
X135261905Y-36265771D02*
X135309524Y-36075295D01*
X135309524Y-36075295D02*
X135357143Y-35980057D01*
X135357143Y-35980057D02*
X135404762Y-35932438D01*
X135404762Y-35932438D02*
X135500000Y-35884819D01*
X136261905Y-36884819D02*
X136261905Y-35884819D01*
X136357143Y-36503866D02*
X136642857Y-36884819D01*
X136642857Y-36218152D02*
X136261905Y-36599104D01*
D11*
X134742857Y-35181927D02*
X134609524Y-34991451D01*
X134514286Y-35181927D02*
X134514286Y-34781927D01*
X134514286Y-34781927D02*
X134666667Y-34781927D01*
X134666667Y-34781927D02*
X134704762Y-34800975D01*
X134704762Y-34800975D02*
X134723809Y-34820022D01*
X134723809Y-34820022D02*
X134742857Y-34858118D01*
X134742857Y-34858118D02*
X134742857Y-34915260D01*
X134742857Y-34915260D02*
X134723809Y-34953356D01*
X134723809Y-34953356D02*
X134704762Y-34972403D01*
X134704762Y-34972403D02*
X134666667Y-34991451D01*
X134666667Y-34991451D02*
X134514286Y-34991451D01*
X135123809Y-35181927D02*
X134895238Y-35181927D01*
X135009524Y-35181927D02*
X135009524Y-34781927D01*
X135009524Y-34781927D02*
X134971428Y-34839070D01*
X134971428Y-34839070D02*
X134933333Y-34877165D01*
X134933333Y-34877165D02*
X134895238Y-34896213D01*
X135371428Y-34781927D02*
X135409523Y-34781927D01*
X135409523Y-34781927D02*
X135447619Y-34800975D01*
X135447619Y-34800975D02*
X135466666Y-34820022D01*
X135466666Y-34820022D02*
X135485714Y-34858118D01*
X135485714Y-34858118D02*
X135504761Y-34934308D01*
X135504761Y-34934308D02*
X135504761Y-35029546D01*
X135504761Y-35029546D02*
X135485714Y-35105737D01*
X135485714Y-35105737D02*
X135466666Y-35143832D01*
X135466666Y-35143832D02*
X135447619Y-35162880D01*
X135447619Y-35162880D02*
X135409523Y-35181927D01*
X135409523Y-35181927D02*
X135371428Y-35181927D01*
X135371428Y-35181927D02*
X135333333Y-35162880D01*
X135333333Y-35162880D02*
X135314285Y-35143832D01*
X135314285Y-35143832D02*
X135295238Y-35105737D01*
X135295238Y-35105737D02*
X135276190Y-35029546D01*
X135276190Y-35029546D02*
X135276190Y-34934308D01*
X135276190Y-34934308D02*
X135295238Y-34858118D01*
X135295238Y-34858118D02*
X135314285Y-34820022D01*
X135314285Y-34820022D02*
X135333333Y-34800975D01*
X135333333Y-34800975D02*
X135371428Y-34781927D01*
D10*
X139404761Y-36884819D02*
X138833333Y-36884819D01*
X139119047Y-36884819D02*
X139119047Y-35884819D01*
X139119047Y-35884819D02*
X139023809Y-36027676D01*
X139023809Y-36027676D02*
X138928571Y-36122914D01*
X138928571Y-36122914D02*
X138833333Y-36170533D01*
X140023809Y-35884819D02*
X140119047Y-35884819D01*
X140119047Y-35884819D02*
X140214285Y-35932438D01*
X140214285Y-35932438D02*
X140261904Y-35980057D01*
X140261904Y-35980057D02*
X140309523Y-36075295D01*
X140309523Y-36075295D02*
X140357142Y-36265771D01*
X140357142Y-36265771D02*
X140357142Y-36503866D01*
X140357142Y-36503866D02*
X140309523Y-36694342D01*
X140309523Y-36694342D02*
X140261904Y-36789580D01*
X140261904Y-36789580D02*
X140214285Y-36837200D01*
X140214285Y-36837200D02*
X140119047Y-36884819D01*
X140119047Y-36884819D02*
X140023809Y-36884819D01*
X140023809Y-36884819D02*
X139928571Y-36837200D01*
X139928571Y-36837200D02*
X139880952Y-36789580D01*
X139880952Y-36789580D02*
X139833333Y-36694342D01*
X139833333Y-36694342D02*
X139785714Y-36503866D01*
X139785714Y-36503866D02*
X139785714Y-36265771D01*
X139785714Y-36265771D02*
X139833333Y-36075295D01*
X139833333Y-36075295D02*
X139880952Y-35980057D01*
X139880952Y-35980057D02*
X139928571Y-35932438D01*
X139928571Y-35932438D02*
X140023809Y-35884819D01*
X140785714Y-36884819D02*
X140785714Y-35884819D01*
X140880952Y-36503866D02*
X141166666Y-36884819D01*
X141166666Y-36218152D02*
X140785714Y-36599104D01*
D11*
X139933333Y-35181927D02*
X139800000Y-34991451D01*
X139704762Y-35181927D02*
X139704762Y-34781927D01*
X139704762Y-34781927D02*
X139857143Y-34781927D01*
X139857143Y-34781927D02*
X139895238Y-34800975D01*
X139895238Y-34800975D02*
X139914285Y-34820022D01*
X139914285Y-34820022D02*
X139933333Y-34858118D01*
X139933333Y-34858118D02*
X139933333Y-34915260D01*
X139933333Y-34915260D02*
X139914285Y-34953356D01*
X139914285Y-34953356D02*
X139895238Y-34972403D01*
X139895238Y-34972403D02*
X139857143Y-34991451D01*
X139857143Y-34991451D02*
X139704762Y-34991451D01*
X140066666Y-34781927D02*
X140314285Y-34781927D01*
X140314285Y-34781927D02*
X140180952Y-34934308D01*
X140180952Y-34934308D02*
X140238095Y-34934308D01*
X140238095Y-34934308D02*
X140276190Y-34953356D01*
X140276190Y-34953356D02*
X140295238Y-34972403D01*
X140295238Y-34972403D02*
X140314285Y-35010499D01*
X140314285Y-35010499D02*
X140314285Y-35105737D01*
X140314285Y-35105737D02*
X140295238Y-35143832D01*
X140295238Y-35143832D02*
X140276190Y-35162880D01*
X140276190Y-35162880D02*
X140238095Y-35181927D01*
X140238095Y-35181927D02*
X140123809Y-35181927D01*
X140123809Y-35181927D02*
X140085714Y-35162880D01*
X140085714Y-35162880D02*
X140066666Y-35143832D01*
D10*
X113452380Y-46884819D02*
X112880952Y-46884819D01*
X113166666Y-46884819D02*
X113166666Y-45884819D01*
X113166666Y-45884819D02*
X113071428Y-46027676D01*
X113071428Y-46027676D02*
X112976190Y-46122914D01*
X112976190Y-46122914D02*
X112880952Y-46170533D01*
X114071428Y-45884819D02*
X114166666Y-45884819D01*
X114166666Y-45884819D02*
X114261904Y-45932438D01*
X114261904Y-45932438D02*
X114309523Y-45980057D01*
X114309523Y-45980057D02*
X114357142Y-46075295D01*
X114357142Y-46075295D02*
X114404761Y-46265771D01*
X114404761Y-46265771D02*
X114404761Y-46503866D01*
X114404761Y-46503866D02*
X114357142Y-46694342D01*
X114357142Y-46694342D02*
X114309523Y-46789580D01*
X114309523Y-46789580D02*
X114261904Y-46837200D01*
X114261904Y-46837200D02*
X114166666Y-46884819D01*
X114166666Y-46884819D02*
X114071428Y-46884819D01*
X114071428Y-46884819D02*
X113976190Y-46837200D01*
X113976190Y-46837200D02*
X113928571Y-46789580D01*
X113928571Y-46789580D02*
X113880952Y-46694342D01*
X113880952Y-46694342D02*
X113833333Y-46503866D01*
X113833333Y-46503866D02*
X113833333Y-46265771D01*
X113833333Y-46265771D02*
X113880952Y-46075295D01*
X113880952Y-46075295D02*
X113928571Y-45980057D01*
X113928571Y-45980057D02*
X113976190Y-45932438D01*
X113976190Y-45932438D02*
X114071428Y-45884819D01*
X115023809Y-45884819D02*
X115119047Y-45884819D01*
X115119047Y-45884819D02*
X115214285Y-45932438D01*
X115214285Y-45932438D02*
X115261904Y-45980057D01*
X115261904Y-45980057D02*
X115309523Y-46075295D01*
X115309523Y-46075295D02*
X115357142Y-46265771D01*
X115357142Y-46265771D02*
X115357142Y-46503866D01*
X115357142Y-46503866D02*
X115309523Y-46694342D01*
X115309523Y-46694342D02*
X115261904Y-46789580D01*
X115261904Y-46789580D02*
X115214285Y-46837200D01*
X115214285Y-46837200D02*
X115119047Y-46884819D01*
X115119047Y-46884819D02*
X115023809Y-46884819D01*
X115023809Y-46884819D02*
X114928571Y-46837200D01*
X114928571Y-46837200D02*
X114880952Y-46789580D01*
X114880952Y-46789580D02*
X114833333Y-46694342D01*
X114833333Y-46694342D02*
X114785714Y-46503866D01*
X114785714Y-46503866D02*
X114785714Y-46265771D01*
X114785714Y-46265771D02*
X114833333Y-46075295D01*
X114833333Y-46075295D02*
X114880952Y-45980057D01*
X114880952Y-45980057D02*
X114928571Y-45932438D01*
X114928571Y-45932438D02*
X115023809Y-45884819D01*
X115785714Y-46218152D02*
X115785714Y-46884819D01*
X115785714Y-46313390D02*
X115833333Y-46265771D01*
X115833333Y-46265771D02*
X115928571Y-46218152D01*
X115928571Y-46218152D02*
X116071428Y-46218152D01*
X116071428Y-46218152D02*
X116166666Y-46265771D01*
X116166666Y-46265771D02*
X116214285Y-46361009D01*
X116214285Y-46361009D02*
X116214285Y-46884819D01*
X117023809Y-46361009D02*
X116690476Y-46361009D01*
X116690476Y-46884819D02*
X116690476Y-45884819D01*
X116690476Y-45884819D02*
X117166666Y-45884819D01*
D11*
X114933333Y-45143832D02*
X114914285Y-45162880D01*
X114914285Y-45162880D02*
X114857143Y-45181927D01*
X114857143Y-45181927D02*
X114819047Y-45181927D01*
X114819047Y-45181927D02*
X114761904Y-45162880D01*
X114761904Y-45162880D02*
X114723809Y-45124784D01*
X114723809Y-45124784D02*
X114704762Y-45086689D01*
X114704762Y-45086689D02*
X114685714Y-45010499D01*
X114685714Y-45010499D02*
X114685714Y-44953356D01*
X114685714Y-44953356D02*
X114704762Y-44877165D01*
X114704762Y-44877165D02*
X114723809Y-44839070D01*
X114723809Y-44839070D02*
X114761904Y-44800975D01*
X114761904Y-44800975D02*
X114819047Y-44781927D01*
X114819047Y-44781927D02*
X114857143Y-44781927D01*
X114857143Y-44781927D02*
X114914285Y-44800975D01*
X114914285Y-44800975D02*
X114933333Y-44820022D01*
X115161904Y-44953356D02*
X115123809Y-44934308D01*
X115123809Y-44934308D02*
X115104762Y-44915260D01*
X115104762Y-44915260D02*
X115085714Y-44877165D01*
X115085714Y-44877165D02*
X115085714Y-44858118D01*
X115085714Y-44858118D02*
X115104762Y-44820022D01*
X115104762Y-44820022D02*
X115123809Y-44800975D01*
X115123809Y-44800975D02*
X115161904Y-44781927D01*
X115161904Y-44781927D02*
X115238095Y-44781927D01*
X115238095Y-44781927D02*
X115276190Y-44800975D01*
X115276190Y-44800975D02*
X115295238Y-44820022D01*
X115295238Y-44820022D02*
X115314285Y-44858118D01*
X115314285Y-44858118D02*
X115314285Y-44877165D01*
X115314285Y-44877165D02*
X115295238Y-44915260D01*
X115295238Y-44915260D02*
X115276190Y-44934308D01*
X115276190Y-44934308D02*
X115238095Y-44953356D01*
X115238095Y-44953356D02*
X115161904Y-44953356D01*
X115161904Y-44953356D02*
X115123809Y-44972403D01*
X115123809Y-44972403D02*
X115104762Y-44991451D01*
X115104762Y-44991451D02*
X115085714Y-45029546D01*
X115085714Y-45029546D02*
X115085714Y-45105737D01*
X115085714Y-45105737D02*
X115104762Y-45143832D01*
X115104762Y-45143832D02*
X115123809Y-45162880D01*
X115123809Y-45162880D02*
X115161904Y-45181927D01*
X115161904Y-45181927D02*
X115238095Y-45181927D01*
X115238095Y-45181927D02*
X115276190Y-45162880D01*
X115276190Y-45162880D02*
X115295238Y-45143832D01*
X115295238Y-45143832D02*
X115314285Y-45105737D01*
X115314285Y-45105737D02*
X115314285Y-45029546D01*
X115314285Y-45029546D02*
X115295238Y-44991451D01*
X115295238Y-44991451D02*
X115276190Y-44972403D01*
X115276190Y-44972403D02*
X115238095Y-44953356D01*
D10*
X118928571Y-46884819D02*
X118357143Y-46884819D01*
X118642857Y-46884819D02*
X118642857Y-45884819D01*
X118642857Y-45884819D02*
X118547619Y-46027676D01*
X118547619Y-46027676D02*
X118452381Y-46122914D01*
X118452381Y-46122914D02*
X118357143Y-46170533D01*
X119547619Y-45884819D02*
X119642857Y-45884819D01*
X119642857Y-45884819D02*
X119738095Y-45932438D01*
X119738095Y-45932438D02*
X119785714Y-45980057D01*
X119785714Y-45980057D02*
X119833333Y-46075295D01*
X119833333Y-46075295D02*
X119880952Y-46265771D01*
X119880952Y-46265771D02*
X119880952Y-46503866D01*
X119880952Y-46503866D02*
X119833333Y-46694342D01*
X119833333Y-46694342D02*
X119785714Y-46789580D01*
X119785714Y-46789580D02*
X119738095Y-46837200D01*
X119738095Y-46837200D02*
X119642857Y-46884819D01*
X119642857Y-46884819D02*
X119547619Y-46884819D01*
X119547619Y-46884819D02*
X119452381Y-46837200D01*
X119452381Y-46837200D02*
X119404762Y-46789580D01*
X119404762Y-46789580D02*
X119357143Y-46694342D01*
X119357143Y-46694342D02*
X119309524Y-46503866D01*
X119309524Y-46503866D02*
X119309524Y-46265771D01*
X119309524Y-46265771D02*
X119357143Y-46075295D01*
X119357143Y-46075295D02*
X119404762Y-45980057D01*
X119404762Y-45980057D02*
X119452381Y-45932438D01*
X119452381Y-45932438D02*
X119547619Y-45884819D01*
X120738095Y-46218152D02*
X120738095Y-46884819D01*
X120309524Y-46218152D02*
X120309524Y-46741961D01*
X120309524Y-46741961D02*
X120357143Y-46837200D01*
X120357143Y-46837200D02*
X120452381Y-46884819D01*
X120452381Y-46884819D02*
X120595238Y-46884819D01*
X120595238Y-46884819D02*
X120690476Y-46837200D01*
X120690476Y-46837200D02*
X120738095Y-46789580D01*
X121547619Y-46361009D02*
X121214286Y-46361009D01*
X121214286Y-46884819D02*
X121214286Y-45884819D01*
X121214286Y-45884819D02*
X121690476Y-45884819D01*
D11*
X119933333Y-45143832D02*
X119914285Y-45162880D01*
X119914285Y-45162880D02*
X119857143Y-45181927D01*
X119857143Y-45181927D02*
X119819047Y-45181927D01*
X119819047Y-45181927D02*
X119761904Y-45162880D01*
X119761904Y-45162880D02*
X119723809Y-45124784D01*
X119723809Y-45124784D02*
X119704762Y-45086689D01*
X119704762Y-45086689D02*
X119685714Y-45010499D01*
X119685714Y-45010499D02*
X119685714Y-44953356D01*
X119685714Y-44953356D02*
X119704762Y-44877165D01*
X119704762Y-44877165D02*
X119723809Y-44839070D01*
X119723809Y-44839070D02*
X119761904Y-44800975D01*
X119761904Y-44800975D02*
X119819047Y-44781927D01*
X119819047Y-44781927D02*
X119857143Y-44781927D01*
X119857143Y-44781927D02*
X119914285Y-44800975D01*
X119914285Y-44800975D02*
X119933333Y-44820022D01*
X120085714Y-44820022D02*
X120104762Y-44800975D01*
X120104762Y-44800975D02*
X120142857Y-44781927D01*
X120142857Y-44781927D02*
X120238095Y-44781927D01*
X120238095Y-44781927D02*
X120276190Y-44800975D01*
X120276190Y-44800975D02*
X120295238Y-44820022D01*
X120295238Y-44820022D02*
X120314285Y-44858118D01*
X120314285Y-44858118D02*
X120314285Y-44896213D01*
X120314285Y-44896213D02*
X120295238Y-44953356D01*
X120295238Y-44953356D02*
X120066666Y-45181927D01*
X120066666Y-45181927D02*
X120314285Y-45181927D01*
D10*
X125880952Y-47854819D02*
X125880952Y-46854819D01*
X125880952Y-46854819D02*
X126214285Y-47569104D01*
X126214285Y-47569104D02*
X126547618Y-46854819D01*
X126547618Y-46854819D02*
X126547618Y-47854819D01*
X127023809Y-47854819D02*
X127023809Y-46854819D01*
X127023809Y-46854819D02*
X127357142Y-47569104D01*
X127357142Y-47569104D02*
X127690475Y-46854819D01*
X127690475Y-46854819D02*
X127690475Y-47854819D01*
X128499999Y-47331009D02*
X128642856Y-47378628D01*
X128642856Y-47378628D02*
X128690475Y-47426247D01*
X128690475Y-47426247D02*
X128738094Y-47521485D01*
X128738094Y-47521485D02*
X128738094Y-47664342D01*
X128738094Y-47664342D02*
X128690475Y-47759580D01*
X128690475Y-47759580D02*
X128642856Y-47807200D01*
X128642856Y-47807200D02*
X128547618Y-47854819D01*
X128547618Y-47854819D02*
X128166666Y-47854819D01*
X128166666Y-47854819D02*
X128166666Y-46854819D01*
X128166666Y-46854819D02*
X128499999Y-46854819D01*
X128499999Y-46854819D02*
X128595237Y-46902438D01*
X128595237Y-46902438D02*
X128642856Y-46950057D01*
X128642856Y-46950057D02*
X128690475Y-47045295D01*
X128690475Y-47045295D02*
X128690475Y-47140533D01*
X128690475Y-47140533D02*
X128642856Y-47235771D01*
X128642856Y-47235771D02*
X128595237Y-47283390D01*
X128595237Y-47283390D02*
X128499999Y-47331009D01*
X128499999Y-47331009D02*
X128166666Y-47331009D01*
X129023809Y-46854819D02*
X129595237Y-46854819D01*
X129309523Y-47854819D02*
X129309523Y-46854819D01*
X129880952Y-46950057D02*
X129928571Y-46902438D01*
X129928571Y-46902438D02*
X130023809Y-46854819D01*
X130023809Y-46854819D02*
X130261904Y-46854819D01*
X130261904Y-46854819D02*
X130357142Y-46902438D01*
X130357142Y-46902438D02*
X130404761Y-46950057D01*
X130404761Y-46950057D02*
X130452380Y-47045295D01*
X130452380Y-47045295D02*
X130452380Y-47140533D01*
X130452380Y-47140533D02*
X130404761Y-47283390D01*
X130404761Y-47283390D02*
X129833333Y-47854819D01*
X129833333Y-47854819D02*
X130452380Y-47854819D01*
X130833333Y-46950057D02*
X130880952Y-46902438D01*
X130880952Y-46902438D02*
X130976190Y-46854819D01*
X130976190Y-46854819D02*
X131214285Y-46854819D01*
X131214285Y-46854819D02*
X131309523Y-46902438D01*
X131309523Y-46902438D02*
X131357142Y-46950057D01*
X131357142Y-46950057D02*
X131404761Y-47045295D01*
X131404761Y-47045295D02*
X131404761Y-47140533D01*
X131404761Y-47140533D02*
X131357142Y-47283390D01*
X131357142Y-47283390D02*
X130785714Y-47854819D01*
X130785714Y-47854819D02*
X131404761Y-47854819D01*
X131785714Y-46950057D02*
X131833333Y-46902438D01*
X131833333Y-46902438D02*
X131928571Y-46854819D01*
X131928571Y-46854819D02*
X132166666Y-46854819D01*
X132166666Y-46854819D02*
X132261904Y-46902438D01*
X132261904Y-46902438D02*
X132309523Y-46950057D01*
X132309523Y-46950057D02*
X132357142Y-47045295D01*
X132357142Y-47045295D02*
X132357142Y-47140533D01*
X132357142Y-47140533D02*
X132309523Y-47283390D01*
X132309523Y-47283390D02*
X131738095Y-47854819D01*
X131738095Y-47854819D02*
X132357142Y-47854819D01*
X132738095Y-46950057D02*
X132785714Y-46902438D01*
X132785714Y-46902438D02*
X132880952Y-46854819D01*
X132880952Y-46854819D02*
X133119047Y-46854819D01*
X133119047Y-46854819D02*
X133214285Y-46902438D01*
X133214285Y-46902438D02*
X133261904Y-46950057D01*
X133261904Y-46950057D02*
X133309523Y-47045295D01*
X133309523Y-47045295D02*
X133309523Y-47140533D01*
X133309523Y-47140533D02*
X133261904Y-47283390D01*
X133261904Y-47283390D02*
X132690476Y-47854819D01*
X132690476Y-47854819D02*
X133309523Y-47854819D01*
X133690476Y-47569104D02*
X134166666Y-47569104D01*
X133595238Y-47854819D02*
X133928571Y-46854819D01*
X133928571Y-46854819D02*
X134261904Y-47854819D01*
D12*
X130395937Y-45068571D02*
X130361651Y-45137142D01*
X130361651Y-45137142D02*
X130293080Y-45205714D01*
X130293080Y-45205714D02*
X130190222Y-45308571D01*
X130190222Y-45308571D02*
X130155937Y-45377142D01*
X130155937Y-45377142D02*
X130155937Y-45445714D01*
X130327365Y-45411428D02*
X130293080Y-45480000D01*
X130293080Y-45480000D02*
X130224508Y-45548571D01*
X130224508Y-45548571D02*
X130087365Y-45582857D01*
X130087365Y-45582857D02*
X129847365Y-45582857D01*
X129847365Y-45582857D02*
X129710222Y-45548571D01*
X129710222Y-45548571D02*
X129641651Y-45480000D01*
X129641651Y-45480000D02*
X129607365Y-45411428D01*
X129607365Y-45411428D02*
X129607365Y-45274285D01*
X129607365Y-45274285D02*
X129641651Y-45205714D01*
X129641651Y-45205714D02*
X129710222Y-45137142D01*
X129710222Y-45137142D02*
X129847365Y-45102857D01*
X129847365Y-45102857D02*
X130087365Y-45102857D01*
X130087365Y-45102857D02*
X130224508Y-45137142D01*
X130224508Y-45137142D02*
X130293080Y-45205714D01*
X130293080Y-45205714D02*
X130327365Y-45274285D01*
X130327365Y-45274285D02*
X130327365Y-45411428D01*
X130327365Y-44417142D02*
X130327365Y-44828571D01*
X130327365Y-44622856D02*
X129607365Y-44622856D01*
X129607365Y-44622856D02*
X129710222Y-44691428D01*
X129710222Y-44691428D02*
X129778794Y-44759999D01*
X129778794Y-44759999D02*
X129813080Y-44828571D01*
D10*
X108499999Y-78931009D02*
X108642856Y-78978628D01*
X108642856Y-78978628D02*
X108690475Y-79026247D01*
X108690475Y-79026247D02*
X108738094Y-79121485D01*
X108738094Y-79121485D02*
X108738094Y-79264342D01*
X108738094Y-79264342D02*
X108690475Y-79359580D01*
X108690475Y-79359580D02*
X108642856Y-79407200D01*
X108642856Y-79407200D02*
X108547618Y-79454819D01*
X108547618Y-79454819D02*
X108166666Y-79454819D01*
X108166666Y-79454819D02*
X108166666Y-78454819D01*
X108166666Y-78454819D02*
X108499999Y-78454819D01*
X108499999Y-78454819D02*
X108595237Y-78502438D01*
X108595237Y-78502438D02*
X108642856Y-78550057D01*
X108642856Y-78550057D02*
X108690475Y-78645295D01*
X108690475Y-78645295D02*
X108690475Y-78740533D01*
X108690475Y-78740533D02*
X108642856Y-78835771D01*
X108642856Y-78835771D02*
X108595237Y-78883390D01*
X108595237Y-78883390D02*
X108499999Y-78931009D01*
X108499999Y-78931009D02*
X108166666Y-78931009D01*
X109119047Y-79169104D02*
X109595237Y-79169104D01*
X109023809Y-79454819D02*
X109357142Y-78454819D01*
X109357142Y-78454819D02*
X109690475Y-79454819D01*
X109880952Y-78454819D02*
X110452380Y-78454819D01*
X110166666Y-79454819D02*
X110166666Y-78454819D01*
X110642857Y-78454819D02*
X111214285Y-78454819D01*
X110928571Y-79454819D02*
X110928571Y-78454819D01*
X111547619Y-78931009D02*
X111880952Y-78931009D01*
X112023809Y-79454819D02*
X111547619Y-79454819D01*
X111547619Y-79454819D02*
X111547619Y-78454819D01*
X111547619Y-78454819D02*
X112023809Y-78454819D01*
X113023809Y-79454819D02*
X112690476Y-78978628D01*
X112452381Y-79454819D02*
X112452381Y-78454819D01*
X112452381Y-78454819D02*
X112833333Y-78454819D01*
X112833333Y-78454819D02*
X112928571Y-78502438D01*
X112928571Y-78502438D02*
X112976190Y-78550057D01*
X112976190Y-78550057D02*
X113023809Y-78645295D01*
X113023809Y-78645295D02*
X113023809Y-78788152D01*
X113023809Y-78788152D02*
X112976190Y-78883390D01*
X112976190Y-78883390D02*
X112928571Y-78931009D01*
X112928571Y-78931009D02*
X112833333Y-78978628D01*
X112833333Y-78978628D02*
X112452381Y-78978628D01*
X113642857Y-78978628D02*
X113642857Y-79454819D01*
X113309524Y-78454819D02*
X113642857Y-78978628D01*
X113642857Y-78978628D02*
X113976190Y-78454819D01*
X110666666Y-75954819D02*
X110666666Y-76669104D01*
X110666666Y-76669104D02*
X110619047Y-76811961D01*
X110619047Y-76811961D02*
X110523809Y-76907200D01*
X110523809Y-76907200D02*
X110380952Y-76954819D01*
X110380952Y-76954819D02*
X110285714Y-76954819D01*
X111571428Y-76288152D02*
X111571428Y-76954819D01*
X111333333Y-75907200D02*
X111095238Y-76621485D01*
X111095238Y-76621485D02*
X111714285Y-76621485D01*
X108547619Y-59454819D02*
X108738095Y-59454819D01*
X108738095Y-59454819D02*
X108833333Y-59502438D01*
X108833333Y-59502438D02*
X108928571Y-59597676D01*
X108928571Y-59597676D02*
X108976190Y-59788152D01*
X108976190Y-59788152D02*
X108976190Y-60121485D01*
X108976190Y-60121485D02*
X108928571Y-60311961D01*
X108928571Y-60311961D02*
X108833333Y-60407200D01*
X108833333Y-60407200D02*
X108738095Y-60454819D01*
X108738095Y-60454819D02*
X108547619Y-60454819D01*
X108547619Y-60454819D02*
X108452381Y-60407200D01*
X108452381Y-60407200D02*
X108357143Y-60311961D01*
X108357143Y-60311961D02*
X108309524Y-60121485D01*
X108309524Y-60121485D02*
X108309524Y-59788152D01*
X108309524Y-59788152D02*
X108357143Y-59597676D01*
X108357143Y-59597676D02*
X108452381Y-59502438D01*
X108452381Y-59502438D02*
X108547619Y-59454819D01*
X109880952Y-60454819D02*
X109404762Y-60454819D01*
X109404762Y-60454819D02*
X109404762Y-59454819D01*
X110214286Y-59931009D02*
X110547619Y-59931009D01*
X110690476Y-60454819D02*
X110214286Y-60454819D01*
X110214286Y-60454819D02*
X110214286Y-59454819D01*
X110214286Y-59454819D02*
X110690476Y-59454819D01*
X111119048Y-60454819D02*
X111119048Y-59454819D01*
X111119048Y-59454819D02*
X111357143Y-59454819D01*
X111357143Y-59454819D02*
X111500000Y-59502438D01*
X111500000Y-59502438D02*
X111595238Y-59597676D01*
X111595238Y-59597676D02*
X111642857Y-59692914D01*
X111642857Y-59692914D02*
X111690476Y-59883390D01*
X111690476Y-59883390D02*
X111690476Y-60026247D01*
X111690476Y-60026247D02*
X111642857Y-60216723D01*
X111642857Y-60216723D02*
X111595238Y-60311961D01*
X111595238Y-60311961D02*
X111500000Y-60407200D01*
X111500000Y-60407200D02*
X111357143Y-60454819D01*
X111357143Y-60454819D02*
X111119048Y-60454819D01*
X109454819Y-54143333D02*
X110169104Y-54143333D01*
X110169104Y-54143333D02*
X110311961Y-54190952D01*
X110311961Y-54190952D02*
X110407200Y-54286190D01*
X110407200Y-54286190D02*
X110454819Y-54429047D01*
X110454819Y-54429047D02*
X110454819Y-54524285D01*
X109454819Y-53762380D02*
X109454819Y-53143333D01*
X109454819Y-53143333D02*
X109835771Y-53476666D01*
X109835771Y-53476666D02*
X109835771Y-53333809D01*
X109835771Y-53333809D02*
X109883390Y-53238571D01*
X109883390Y-53238571D02*
X109931009Y-53190952D01*
X109931009Y-53190952D02*
X110026247Y-53143333D01*
X110026247Y-53143333D02*
X110264342Y-53143333D01*
X110264342Y-53143333D02*
X110359580Y-53190952D01*
X110359580Y-53190952D02*
X110407200Y-53238571D01*
X110407200Y-53238571D02*
X110454819Y-53333809D01*
X110454819Y-53333809D02*
X110454819Y-53619523D01*
X110454819Y-53619523D02*
X110407200Y-53714761D01*
X110407200Y-53714761D02*
X110359580Y-53762380D01*
X138928571Y-46884819D02*
X138357143Y-46884819D01*
X138642857Y-46884819D02*
X138642857Y-45884819D01*
X138642857Y-45884819D02*
X138547619Y-46027676D01*
X138547619Y-46027676D02*
X138452381Y-46122914D01*
X138452381Y-46122914D02*
X138357143Y-46170533D01*
X139547619Y-45884819D02*
X139642857Y-45884819D01*
X139642857Y-45884819D02*
X139738095Y-45932438D01*
X139738095Y-45932438D02*
X139785714Y-45980057D01*
X139785714Y-45980057D02*
X139833333Y-46075295D01*
X139833333Y-46075295D02*
X139880952Y-46265771D01*
X139880952Y-46265771D02*
X139880952Y-46503866D01*
X139880952Y-46503866D02*
X139833333Y-46694342D01*
X139833333Y-46694342D02*
X139785714Y-46789580D01*
X139785714Y-46789580D02*
X139738095Y-46837200D01*
X139738095Y-46837200D02*
X139642857Y-46884819D01*
X139642857Y-46884819D02*
X139547619Y-46884819D01*
X139547619Y-46884819D02*
X139452381Y-46837200D01*
X139452381Y-46837200D02*
X139404762Y-46789580D01*
X139404762Y-46789580D02*
X139357143Y-46694342D01*
X139357143Y-46694342D02*
X139309524Y-46503866D01*
X139309524Y-46503866D02*
X139309524Y-46265771D01*
X139309524Y-46265771D02*
X139357143Y-46075295D01*
X139357143Y-46075295D02*
X139404762Y-45980057D01*
X139404762Y-45980057D02*
X139452381Y-45932438D01*
X139452381Y-45932438D02*
X139547619Y-45884819D01*
X140738095Y-46218152D02*
X140738095Y-46884819D01*
X140309524Y-46218152D02*
X140309524Y-46741961D01*
X140309524Y-46741961D02*
X140357143Y-46837200D01*
X140357143Y-46837200D02*
X140452381Y-46884819D01*
X140452381Y-46884819D02*
X140595238Y-46884819D01*
X140595238Y-46884819D02*
X140690476Y-46837200D01*
X140690476Y-46837200D02*
X140738095Y-46789580D01*
X141547619Y-46361009D02*
X141214286Y-46361009D01*
X141214286Y-46884819D02*
X141214286Y-45884819D01*
X141214286Y-45884819D02*
X141690476Y-45884819D01*
D11*
X139933333Y-45143832D02*
X139914285Y-45162880D01*
X139914285Y-45162880D02*
X139857143Y-45181927D01*
X139857143Y-45181927D02*
X139819047Y-45181927D01*
X139819047Y-45181927D02*
X139761904Y-45162880D01*
X139761904Y-45162880D02*
X139723809Y-45124784D01*
X139723809Y-45124784D02*
X139704762Y-45086689D01*
X139704762Y-45086689D02*
X139685714Y-45010499D01*
X139685714Y-45010499D02*
X139685714Y-44953356D01*
X139685714Y-44953356D02*
X139704762Y-44877165D01*
X139704762Y-44877165D02*
X139723809Y-44839070D01*
X139723809Y-44839070D02*
X139761904Y-44800975D01*
X139761904Y-44800975D02*
X139819047Y-44781927D01*
X139819047Y-44781927D02*
X139857143Y-44781927D01*
X139857143Y-44781927D02*
X139914285Y-44800975D01*
X139914285Y-44800975D02*
X139933333Y-44820022D01*
X140314285Y-45181927D02*
X140085714Y-45181927D01*
X140200000Y-45181927D02*
X140200000Y-44781927D01*
X140200000Y-44781927D02*
X140161904Y-44839070D01*
X140161904Y-44839070D02*
X140123809Y-44877165D01*
X140123809Y-44877165D02*
X140085714Y-44896213D01*
D10*
X147857142Y-48054819D02*
X147285714Y-48054819D01*
X147571428Y-48054819D02*
X147571428Y-47054819D01*
X147571428Y-47054819D02*
X147476190Y-47197676D01*
X147476190Y-47197676D02*
X147380952Y-47292914D01*
X147380952Y-47292914D02*
X147285714Y-47340533D01*
X148285714Y-48054819D02*
X148285714Y-47054819D01*
X148285714Y-47054819D02*
X148857142Y-48054819D01*
X148857142Y-48054819D02*
X148857142Y-47054819D01*
X149809523Y-47054819D02*
X149333333Y-47054819D01*
X149333333Y-47054819D02*
X149285714Y-47531009D01*
X149285714Y-47531009D02*
X149333333Y-47483390D01*
X149333333Y-47483390D02*
X149428571Y-47435771D01*
X149428571Y-47435771D02*
X149666666Y-47435771D01*
X149666666Y-47435771D02*
X149761904Y-47483390D01*
X149761904Y-47483390D02*
X149809523Y-47531009D01*
X149809523Y-47531009D02*
X149857142Y-47626247D01*
X149857142Y-47626247D02*
X149857142Y-47864342D01*
X149857142Y-47864342D02*
X149809523Y-47959580D01*
X149809523Y-47959580D02*
X149761904Y-48007200D01*
X149761904Y-48007200D02*
X149666666Y-48054819D01*
X149666666Y-48054819D02*
X149428571Y-48054819D01*
X149428571Y-48054819D02*
X149333333Y-48007200D01*
X149333333Y-48007200D02*
X149285714Y-47959580D01*
X150428571Y-47483390D02*
X150333333Y-47435771D01*
X150333333Y-47435771D02*
X150285714Y-47388152D01*
X150285714Y-47388152D02*
X150238095Y-47292914D01*
X150238095Y-47292914D02*
X150238095Y-47245295D01*
X150238095Y-47245295D02*
X150285714Y-47150057D01*
X150285714Y-47150057D02*
X150333333Y-47102438D01*
X150333333Y-47102438D02*
X150428571Y-47054819D01*
X150428571Y-47054819D02*
X150619047Y-47054819D01*
X150619047Y-47054819D02*
X150714285Y-47102438D01*
X150714285Y-47102438D02*
X150761904Y-47150057D01*
X150761904Y-47150057D02*
X150809523Y-47245295D01*
X150809523Y-47245295D02*
X150809523Y-47292914D01*
X150809523Y-47292914D02*
X150761904Y-47388152D01*
X150761904Y-47388152D02*
X150714285Y-47435771D01*
X150714285Y-47435771D02*
X150619047Y-47483390D01*
X150619047Y-47483390D02*
X150428571Y-47483390D01*
X150428571Y-47483390D02*
X150333333Y-47531009D01*
X150333333Y-47531009D02*
X150285714Y-47578628D01*
X150285714Y-47578628D02*
X150238095Y-47673866D01*
X150238095Y-47673866D02*
X150238095Y-47864342D01*
X150238095Y-47864342D02*
X150285714Y-47959580D01*
X150285714Y-47959580D02*
X150333333Y-48007200D01*
X150333333Y-48007200D02*
X150428571Y-48054819D01*
X150428571Y-48054819D02*
X150619047Y-48054819D01*
X150619047Y-48054819D02*
X150714285Y-48007200D01*
X150714285Y-48007200D02*
X150761904Y-47959580D01*
X150761904Y-47959580D02*
X150809523Y-47864342D01*
X150809523Y-47864342D02*
X150809523Y-47673866D01*
X150809523Y-47673866D02*
X150761904Y-47578628D01*
X150761904Y-47578628D02*
X150714285Y-47531009D01*
X150714285Y-47531009D02*
X150619047Y-47483390D01*
X151761904Y-48054819D02*
X151190476Y-48054819D01*
X151476190Y-48054819D02*
X151476190Y-47054819D01*
X151476190Y-47054819D02*
X151380952Y-47197676D01*
X151380952Y-47197676D02*
X151285714Y-47292914D01*
X151285714Y-47292914D02*
X151190476Y-47340533D01*
X152238095Y-48054819D02*
X152428571Y-48054819D01*
X152428571Y-48054819D02*
X152523809Y-48007200D01*
X152523809Y-48007200D02*
X152571428Y-47959580D01*
X152571428Y-47959580D02*
X152666666Y-47816723D01*
X152666666Y-47816723D02*
X152714285Y-47626247D01*
X152714285Y-47626247D02*
X152714285Y-47245295D01*
X152714285Y-47245295D02*
X152666666Y-47150057D01*
X152666666Y-47150057D02*
X152619047Y-47102438D01*
X152619047Y-47102438D02*
X152523809Y-47054819D01*
X152523809Y-47054819D02*
X152333333Y-47054819D01*
X152333333Y-47054819D02*
X152238095Y-47102438D01*
X152238095Y-47102438D02*
X152190476Y-47150057D01*
X152190476Y-47150057D02*
X152142857Y-47245295D01*
X152142857Y-47245295D02*
X152142857Y-47483390D01*
X152142857Y-47483390D02*
X152190476Y-47578628D01*
X152190476Y-47578628D02*
X152238095Y-47626247D01*
X152238095Y-47626247D02*
X152333333Y-47673866D01*
X152333333Y-47673866D02*
X152523809Y-47673866D01*
X152523809Y-47673866D02*
X152619047Y-47626247D01*
X152619047Y-47626247D02*
X152666666Y-47578628D01*
X152666666Y-47578628D02*
X152714285Y-47483390D01*
X149261905Y-42954819D02*
X149261905Y-41954819D01*
X149261905Y-41954819D02*
X149500000Y-41954819D01*
X149500000Y-41954819D02*
X149642857Y-42002438D01*
X149642857Y-42002438D02*
X149738095Y-42097676D01*
X149738095Y-42097676D02*
X149785714Y-42192914D01*
X149785714Y-42192914D02*
X149833333Y-42383390D01*
X149833333Y-42383390D02*
X149833333Y-42526247D01*
X149833333Y-42526247D02*
X149785714Y-42716723D01*
X149785714Y-42716723D02*
X149738095Y-42811961D01*
X149738095Y-42811961D02*
X149642857Y-42907200D01*
X149642857Y-42907200D02*
X149500000Y-42954819D01*
X149500000Y-42954819D02*
X149261905Y-42954819D01*
X150166667Y-41954819D02*
X150785714Y-41954819D01*
X150785714Y-41954819D02*
X150452381Y-42335771D01*
X150452381Y-42335771D02*
X150595238Y-42335771D01*
X150595238Y-42335771D02*
X150690476Y-42383390D01*
X150690476Y-42383390D02*
X150738095Y-42431009D01*
X150738095Y-42431009D02*
X150785714Y-42526247D01*
X150785714Y-42526247D02*
X150785714Y-42764342D01*
X150785714Y-42764342D02*
X150738095Y-42859580D01*
X150738095Y-42859580D02*
X150690476Y-42907200D01*
X150690476Y-42907200D02*
X150595238Y-42954819D01*
X150595238Y-42954819D02*
X150309524Y-42954819D01*
X150309524Y-42954819D02*
X150214286Y-42907200D01*
X150214286Y-42907200D02*
X150166667Y-42859580D01*
X71880953Y-74531009D02*
X72214286Y-74531009D01*
X72357143Y-75054819D02*
X71880953Y-75054819D01*
X71880953Y-75054819D02*
X71880953Y-74054819D01*
X71880953Y-74054819D02*
X72357143Y-74054819D01*
X72738096Y-75007200D02*
X72880953Y-75054819D01*
X72880953Y-75054819D02*
X73119048Y-75054819D01*
X73119048Y-75054819D02*
X73214286Y-75007200D01*
X73214286Y-75007200D02*
X73261905Y-74959580D01*
X73261905Y-74959580D02*
X73309524Y-74864342D01*
X73309524Y-74864342D02*
X73309524Y-74769104D01*
X73309524Y-74769104D02*
X73261905Y-74673866D01*
X73261905Y-74673866D02*
X73214286Y-74626247D01*
X73214286Y-74626247D02*
X73119048Y-74578628D01*
X73119048Y-74578628D02*
X72928572Y-74531009D01*
X72928572Y-74531009D02*
X72833334Y-74483390D01*
X72833334Y-74483390D02*
X72785715Y-74435771D01*
X72785715Y-74435771D02*
X72738096Y-74340533D01*
X72738096Y-74340533D02*
X72738096Y-74245295D01*
X72738096Y-74245295D02*
X72785715Y-74150057D01*
X72785715Y-74150057D02*
X72833334Y-74102438D01*
X72833334Y-74102438D02*
X72928572Y-74054819D01*
X72928572Y-74054819D02*
X73166667Y-74054819D01*
X73166667Y-74054819D02*
X73309524Y-74102438D01*
X73738096Y-75054819D02*
X73738096Y-74054819D01*
X73738096Y-74054819D02*
X74119048Y-74054819D01*
X74119048Y-74054819D02*
X74214286Y-74102438D01*
X74214286Y-74102438D02*
X74261905Y-74150057D01*
X74261905Y-74150057D02*
X74309524Y-74245295D01*
X74309524Y-74245295D02*
X74309524Y-74388152D01*
X74309524Y-74388152D02*
X74261905Y-74483390D01*
X74261905Y-74483390D02*
X74214286Y-74531009D01*
X74214286Y-74531009D02*
X74119048Y-74578628D01*
X74119048Y-74578628D02*
X73738096Y-74578628D01*
X74642858Y-74054819D02*
X75261905Y-74054819D01*
X75261905Y-74054819D02*
X74928572Y-74435771D01*
X74928572Y-74435771D02*
X75071429Y-74435771D01*
X75071429Y-74435771D02*
X75166667Y-74483390D01*
X75166667Y-74483390D02*
X75214286Y-74531009D01*
X75214286Y-74531009D02*
X75261905Y-74626247D01*
X75261905Y-74626247D02*
X75261905Y-74864342D01*
X75261905Y-74864342D02*
X75214286Y-74959580D01*
X75214286Y-74959580D02*
X75166667Y-75007200D01*
X75166667Y-75007200D02*
X75071429Y-75054819D01*
X75071429Y-75054819D02*
X74785715Y-75054819D01*
X74785715Y-75054819D02*
X74690477Y-75007200D01*
X74690477Y-75007200D02*
X74642858Y-74959580D01*
X75642858Y-74150057D02*
X75690477Y-74102438D01*
X75690477Y-74102438D02*
X75785715Y-74054819D01*
X75785715Y-74054819D02*
X76023810Y-74054819D01*
X76023810Y-74054819D02*
X76119048Y-74102438D01*
X76119048Y-74102438D02*
X76166667Y-74150057D01*
X76166667Y-74150057D02*
X76214286Y-74245295D01*
X76214286Y-74245295D02*
X76214286Y-74340533D01*
X76214286Y-74340533D02*
X76166667Y-74483390D01*
X76166667Y-74483390D02*
X75595239Y-75054819D01*
X75595239Y-75054819D02*
X76214286Y-75054819D01*
X76642858Y-74673866D02*
X77404763Y-74673866D01*
X77833334Y-75007200D02*
X77976191Y-75054819D01*
X77976191Y-75054819D02*
X78214286Y-75054819D01*
X78214286Y-75054819D02*
X78309524Y-75007200D01*
X78309524Y-75007200D02*
X78357143Y-74959580D01*
X78357143Y-74959580D02*
X78404762Y-74864342D01*
X78404762Y-74864342D02*
X78404762Y-74769104D01*
X78404762Y-74769104D02*
X78357143Y-74673866D01*
X78357143Y-74673866D02*
X78309524Y-74626247D01*
X78309524Y-74626247D02*
X78214286Y-74578628D01*
X78214286Y-74578628D02*
X78023810Y-74531009D01*
X78023810Y-74531009D02*
X77928572Y-74483390D01*
X77928572Y-74483390D02*
X77880953Y-74435771D01*
X77880953Y-74435771D02*
X77833334Y-74340533D01*
X77833334Y-74340533D02*
X77833334Y-74245295D01*
X77833334Y-74245295D02*
X77880953Y-74150057D01*
X77880953Y-74150057D02*
X77928572Y-74102438D01*
X77928572Y-74102438D02*
X78023810Y-74054819D01*
X78023810Y-74054819D02*
X78261905Y-74054819D01*
X78261905Y-74054819D02*
X78404762Y-74102438D01*
X78738096Y-74054819D02*
X79357143Y-74054819D01*
X79357143Y-74054819D02*
X79023810Y-74435771D01*
X79023810Y-74435771D02*
X79166667Y-74435771D01*
X79166667Y-74435771D02*
X79261905Y-74483390D01*
X79261905Y-74483390D02*
X79309524Y-74531009D01*
X79309524Y-74531009D02*
X79357143Y-74626247D01*
X79357143Y-74626247D02*
X79357143Y-74864342D01*
X79357143Y-74864342D02*
X79309524Y-74959580D01*
X79309524Y-74959580D02*
X79261905Y-75007200D01*
X79261905Y-75007200D02*
X79166667Y-75054819D01*
X79166667Y-75054819D02*
X78880953Y-75054819D01*
X78880953Y-75054819D02*
X78785715Y-75007200D01*
X78785715Y-75007200D02*
X78738096Y-74959580D01*
X79785715Y-74673866D02*
X80547620Y-74673866D01*
X80928572Y-74054819D02*
X81166667Y-75054819D01*
X81166667Y-75054819D02*
X81357143Y-74340533D01*
X81357143Y-74340533D02*
X81547619Y-75054819D01*
X81547619Y-75054819D02*
X81785715Y-74054819D01*
X82738095Y-75054819D02*
X82404762Y-74578628D01*
X82166667Y-75054819D02*
X82166667Y-74054819D01*
X82166667Y-74054819D02*
X82547619Y-74054819D01*
X82547619Y-74054819D02*
X82642857Y-74102438D01*
X82642857Y-74102438D02*
X82690476Y-74150057D01*
X82690476Y-74150057D02*
X82738095Y-74245295D01*
X82738095Y-74245295D02*
X82738095Y-74388152D01*
X82738095Y-74388152D02*
X82690476Y-74483390D01*
X82690476Y-74483390D02*
X82642857Y-74531009D01*
X82642857Y-74531009D02*
X82547619Y-74578628D01*
X82547619Y-74578628D02*
X82166667Y-74578628D01*
X83357143Y-74054819D02*
X83547619Y-74054819D01*
X83547619Y-74054819D02*
X83642857Y-74102438D01*
X83642857Y-74102438D02*
X83738095Y-74197676D01*
X83738095Y-74197676D02*
X83785714Y-74388152D01*
X83785714Y-74388152D02*
X83785714Y-74721485D01*
X83785714Y-74721485D02*
X83738095Y-74911961D01*
X83738095Y-74911961D02*
X83642857Y-75007200D01*
X83642857Y-75007200D02*
X83547619Y-75054819D01*
X83547619Y-75054819D02*
X83357143Y-75054819D01*
X83357143Y-75054819D02*
X83261905Y-75007200D01*
X83261905Y-75007200D02*
X83166667Y-74911961D01*
X83166667Y-74911961D02*
X83119048Y-74721485D01*
X83119048Y-74721485D02*
X83119048Y-74388152D01*
X83119048Y-74388152D02*
X83166667Y-74197676D01*
X83166667Y-74197676D02*
X83261905Y-74102438D01*
X83261905Y-74102438D02*
X83357143Y-74054819D01*
X84404762Y-74054819D02*
X84595238Y-74054819D01*
X84595238Y-74054819D02*
X84690476Y-74102438D01*
X84690476Y-74102438D02*
X84785714Y-74197676D01*
X84785714Y-74197676D02*
X84833333Y-74388152D01*
X84833333Y-74388152D02*
X84833333Y-74721485D01*
X84833333Y-74721485D02*
X84785714Y-74911961D01*
X84785714Y-74911961D02*
X84690476Y-75007200D01*
X84690476Y-75007200D02*
X84595238Y-75054819D01*
X84595238Y-75054819D02*
X84404762Y-75054819D01*
X84404762Y-75054819D02*
X84309524Y-75007200D01*
X84309524Y-75007200D02*
X84214286Y-74911961D01*
X84214286Y-74911961D02*
X84166667Y-74721485D01*
X84166667Y-74721485D02*
X84166667Y-74388152D01*
X84166667Y-74388152D02*
X84214286Y-74197676D01*
X84214286Y-74197676D02*
X84309524Y-74102438D01*
X84309524Y-74102438D02*
X84404762Y-74054819D01*
X85261905Y-75054819D02*
X85261905Y-74054819D01*
X85261905Y-74054819D02*
X85595238Y-74769104D01*
X85595238Y-74769104D02*
X85928571Y-74054819D01*
X85928571Y-74054819D02*
X85928571Y-75054819D01*
X86404762Y-74673866D02*
X87166667Y-74673866D01*
X88166666Y-75054819D02*
X87595238Y-75054819D01*
X87880952Y-75054819D02*
X87880952Y-74054819D01*
X87880952Y-74054819D02*
X87785714Y-74197676D01*
X87785714Y-74197676D02*
X87690476Y-74292914D01*
X87690476Y-74292914D02*
X87595238Y-74340533D01*
X79238095Y-58854819D02*
X79238095Y-59664342D01*
X79238095Y-59664342D02*
X79285714Y-59759580D01*
X79285714Y-59759580D02*
X79333333Y-59807200D01*
X79333333Y-59807200D02*
X79428571Y-59854819D01*
X79428571Y-59854819D02*
X79619047Y-59854819D01*
X79619047Y-59854819D02*
X79714285Y-59807200D01*
X79714285Y-59807200D02*
X79761904Y-59759580D01*
X79761904Y-59759580D02*
X79809523Y-59664342D01*
X79809523Y-59664342D02*
X79809523Y-58854819D01*
X80809523Y-59854819D02*
X80238095Y-59854819D01*
X80523809Y-59854819D02*
X80523809Y-58854819D01*
X80523809Y-58854819D02*
X80428571Y-58997676D01*
X80428571Y-58997676D02*
X80333333Y-59092914D01*
X80333333Y-59092914D02*
X80238095Y-59140533D01*
X39047619Y-47569104D02*
X39523809Y-47569104D01*
X38952381Y-47854819D02*
X39285714Y-46854819D01*
X39285714Y-46854819D02*
X39619047Y-47854819D01*
X39952381Y-47854819D02*
X39952381Y-46854819D01*
X39952381Y-46854819D02*
X40333333Y-46854819D01*
X40333333Y-46854819D02*
X40428571Y-46902438D01*
X40428571Y-46902438D02*
X40476190Y-46950057D01*
X40476190Y-46950057D02*
X40523809Y-47045295D01*
X40523809Y-47045295D02*
X40523809Y-47188152D01*
X40523809Y-47188152D02*
X40476190Y-47283390D01*
X40476190Y-47283390D02*
X40428571Y-47331009D01*
X40428571Y-47331009D02*
X40333333Y-47378628D01*
X40333333Y-47378628D02*
X39952381Y-47378628D01*
X40904762Y-46950057D02*
X40952381Y-46902438D01*
X40952381Y-46902438D02*
X41047619Y-46854819D01*
X41047619Y-46854819D02*
X41285714Y-46854819D01*
X41285714Y-46854819D02*
X41380952Y-46902438D01*
X41380952Y-46902438D02*
X41428571Y-46950057D01*
X41428571Y-46950057D02*
X41476190Y-47045295D01*
X41476190Y-47045295D02*
X41476190Y-47140533D01*
X41476190Y-47140533D02*
X41428571Y-47283390D01*
X41428571Y-47283390D02*
X40857143Y-47854819D01*
X40857143Y-47854819D02*
X41476190Y-47854819D01*
X42428571Y-47854819D02*
X41857143Y-47854819D01*
X42142857Y-47854819D02*
X42142857Y-46854819D01*
X42142857Y-46854819D02*
X42047619Y-46997676D01*
X42047619Y-46997676D02*
X41952381Y-47092914D01*
X41952381Y-47092914D02*
X41857143Y-47140533D01*
X43380952Y-47854819D02*
X42809524Y-47854819D01*
X43095238Y-47854819D02*
X43095238Y-46854819D01*
X43095238Y-46854819D02*
X43000000Y-46997676D01*
X43000000Y-46997676D02*
X42904762Y-47092914D01*
X42904762Y-47092914D02*
X42809524Y-47140533D01*
X43761905Y-46950057D02*
X43809524Y-46902438D01*
X43809524Y-46902438D02*
X43904762Y-46854819D01*
X43904762Y-46854819D02*
X44142857Y-46854819D01*
X44142857Y-46854819D02*
X44238095Y-46902438D01*
X44238095Y-46902438D02*
X44285714Y-46950057D01*
X44285714Y-46950057D02*
X44333333Y-47045295D01*
X44333333Y-47045295D02*
X44333333Y-47140533D01*
X44333333Y-47140533D02*
X44285714Y-47283390D01*
X44285714Y-47283390D02*
X43714286Y-47854819D01*
X43714286Y-47854819D02*
X44333333Y-47854819D01*
X44761905Y-47854819D02*
X44761905Y-46854819D01*
X45333333Y-47854819D02*
X44904762Y-47283390D01*
X45333333Y-46854819D02*
X44761905Y-47426247D01*
X45761905Y-47473866D02*
X46523810Y-47473866D01*
X46904762Y-46854819D02*
X47523809Y-46854819D01*
X47523809Y-46854819D02*
X47190476Y-47235771D01*
X47190476Y-47235771D02*
X47333333Y-47235771D01*
X47333333Y-47235771D02*
X47428571Y-47283390D01*
X47428571Y-47283390D02*
X47476190Y-47331009D01*
X47476190Y-47331009D02*
X47523809Y-47426247D01*
X47523809Y-47426247D02*
X47523809Y-47664342D01*
X47523809Y-47664342D02*
X47476190Y-47759580D01*
X47476190Y-47759580D02*
X47428571Y-47807200D01*
X47428571Y-47807200D02*
X47333333Y-47854819D01*
X47333333Y-47854819D02*
X47047619Y-47854819D01*
X47047619Y-47854819D02*
X46952381Y-47807200D01*
X46952381Y-47807200D02*
X46904762Y-47759580D01*
X47952381Y-47759580D02*
X48000000Y-47807200D01*
X48000000Y-47807200D02*
X47952381Y-47854819D01*
X47952381Y-47854819D02*
X47904762Y-47807200D01*
X47904762Y-47807200D02*
X47952381Y-47759580D01*
X47952381Y-47759580D02*
X47952381Y-47854819D01*
X48333333Y-46854819D02*
X48952380Y-46854819D01*
X48952380Y-46854819D02*
X48619047Y-47235771D01*
X48619047Y-47235771D02*
X48761904Y-47235771D01*
X48761904Y-47235771D02*
X48857142Y-47283390D01*
X48857142Y-47283390D02*
X48904761Y-47331009D01*
X48904761Y-47331009D02*
X48952380Y-47426247D01*
X48952380Y-47426247D02*
X48952380Y-47664342D01*
X48952380Y-47664342D02*
X48904761Y-47759580D01*
X48904761Y-47759580D02*
X48857142Y-47807200D01*
X48857142Y-47807200D02*
X48761904Y-47854819D01*
X48761904Y-47854819D02*
X48476190Y-47854819D01*
X48476190Y-47854819D02*
X48380952Y-47807200D01*
X48380952Y-47807200D02*
X48333333Y-47759580D01*
D12*
X43607365Y-45548571D02*
X44190222Y-45548571D01*
X44190222Y-45548571D02*
X44258794Y-45514285D01*
X44258794Y-45514285D02*
X44293080Y-45480000D01*
X44293080Y-45480000D02*
X44327365Y-45411428D01*
X44327365Y-45411428D02*
X44327365Y-45274285D01*
X44327365Y-45274285D02*
X44293080Y-45205714D01*
X44293080Y-45205714D02*
X44258794Y-45171428D01*
X44258794Y-45171428D02*
X44190222Y-45137142D01*
X44190222Y-45137142D02*
X43607365Y-45137142D01*
X43847365Y-44485714D02*
X44327365Y-44485714D01*
X43573080Y-44657142D02*
X44087365Y-44828571D01*
X44087365Y-44828571D02*
X44087365Y-44382856D01*
D10*
X158785714Y-46789580D02*
X158738095Y-46837200D01*
X158738095Y-46837200D02*
X158595238Y-46884819D01*
X158595238Y-46884819D02*
X158500000Y-46884819D01*
X158500000Y-46884819D02*
X158357143Y-46837200D01*
X158357143Y-46837200D02*
X158261905Y-46741961D01*
X158261905Y-46741961D02*
X158214286Y-46646723D01*
X158214286Y-46646723D02*
X158166667Y-46456247D01*
X158166667Y-46456247D02*
X158166667Y-46313390D01*
X158166667Y-46313390D02*
X158214286Y-46122914D01*
X158214286Y-46122914D02*
X158261905Y-46027676D01*
X158261905Y-46027676D02*
X158357143Y-45932438D01*
X158357143Y-45932438D02*
X158500000Y-45884819D01*
X158500000Y-45884819D02*
X158595238Y-45884819D01*
X158595238Y-45884819D02*
X158738095Y-45932438D01*
X158738095Y-45932438D02*
X158785714Y-45980057D01*
X159214286Y-46884819D02*
X159214286Y-45884819D01*
X159214286Y-46361009D02*
X159785714Y-46361009D01*
X159785714Y-46884819D02*
X159785714Y-45884819D01*
X160833333Y-46884819D02*
X160500000Y-46408628D01*
X160261905Y-46884819D02*
X160261905Y-45884819D01*
X160261905Y-45884819D02*
X160642857Y-45884819D01*
X160642857Y-45884819D02*
X160738095Y-45932438D01*
X160738095Y-45932438D02*
X160785714Y-45980057D01*
X160785714Y-45980057D02*
X160833333Y-46075295D01*
X160833333Y-46075295D02*
X160833333Y-46218152D01*
X160833333Y-46218152D02*
X160785714Y-46313390D01*
X160785714Y-46313390D02*
X160738095Y-46361009D01*
X160738095Y-46361009D02*
X160642857Y-46408628D01*
X160642857Y-46408628D02*
X160261905Y-46408628D01*
X161785714Y-45932438D02*
X161690476Y-45884819D01*
X161690476Y-45884819D02*
X161547619Y-45884819D01*
X161547619Y-45884819D02*
X161404762Y-45932438D01*
X161404762Y-45932438D02*
X161309524Y-46027676D01*
X161309524Y-46027676D02*
X161261905Y-46122914D01*
X161261905Y-46122914D02*
X161214286Y-46313390D01*
X161214286Y-46313390D02*
X161214286Y-46456247D01*
X161214286Y-46456247D02*
X161261905Y-46646723D01*
X161261905Y-46646723D02*
X161309524Y-46741961D01*
X161309524Y-46741961D02*
X161404762Y-46837200D01*
X161404762Y-46837200D02*
X161547619Y-46884819D01*
X161547619Y-46884819D02*
X161642857Y-46884819D01*
X161642857Y-46884819D02*
X161785714Y-46837200D01*
X161785714Y-46837200D02*
X161833333Y-46789580D01*
X161833333Y-46789580D02*
X161833333Y-46456247D01*
X161833333Y-46456247D02*
X161642857Y-46456247D01*
D11*
X159704762Y-45181927D02*
X159704762Y-44781927D01*
X159704762Y-44781927D02*
X159800000Y-44781927D01*
X159800000Y-44781927D02*
X159857143Y-44800975D01*
X159857143Y-44800975D02*
X159895238Y-44839070D01*
X159895238Y-44839070D02*
X159914285Y-44877165D01*
X159914285Y-44877165D02*
X159933333Y-44953356D01*
X159933333Y-44953356D02*
X159933333Y-45010499D01*
X159933333Y-45010499D02*
X159914285Y-45086689D01*
X159914285Y-45086689D02*
X159895238Y-45124784D01*
X159895238Y-45124784D02*
X159857143Y-45162880D01*
X159857143Y-45162880D02*
X159800000Y-45181927D01*
X159800000Y-45181927D02*
X159704762Y-45181927D01*
X160276190Y-44915260D02*
X160276190Y-45181927D01*
X160180952Y-44762880D02*
X160085714Y-45048594D01*
X160085714Y-45048594D02*
X160333333Y-45048594D01*
%TO.C,R4*%
D13*
X24200000Y-14587500D02*
X25800000Y-14587500D01*
X25800000Y-15412500D01*
X24200000Y-15412500D01*
X24200000Y-14587500D01*
%TO.C,SW1*%
X31750000Y-12000000D02*
X38250000Y-12000000D01*
X31750000Y-18000000D02*
X31750000Y-12000000D01*
X38250000Y-12000000D02*
X38250000Y-18000000D01*
X38250000Y-18000000D02*
X31750000Y-18000000D01*
X36700000Y-15000000D02*
G75*
G02*
X33300000Y-15000000I-1700000J0D01*
G01*
X33300000Y-15000000D02*
G75*
G02*
X36700000Y-15000000I1700000J0D01*
G01*
%TO.C,SW3*%
X41750000Y-12000000D02*
X48250000Y-12000000D01*
X41750000Y-18000000D02*
X41750000Y-12000000D01*
X48250000Y-12000000D02*
X48250000Y-18000000D01*
X48250000Y-18000000D02*
X41750000Y-18000000D01*
X46700000Y-15000000D02*
G75*
G02*
X43300000Y-15000000I-1700000J0D01*
G01*
X43300000Y-15000000D02*
G75*
G02*
X46700000Y-15000000I1700000J0D01*
G01*
%TO.C,C6*%
X54200000Y-14600000D02*
X55800000Y-14600000D01*
X55800000Y-15400000D01*
X54200000Y-15400000D01*
X54200000Y-14600000D01*
%TO.C,C10*%
X61700000Y-12700000D02*
X61700000Y-17300000D01*
X61700000Y-12700000D02*
X62700000Y-11700000D01*
X61700000Y-17300000D02*
X62700000Y-18300000D01*
X62295162Y-13670000D02*
X62925162Y-13670000D01*
X62610162Y-13355000D02*
X62610162Y-13985000D01*
X62700000Y-11700000D02*
X68300000Y-11700000D01*
X62700000Y-18300000D02*
X68300000Y-18300000D01*
X68300000Y-11700000D02*
X68300000Y-18300000D01*
X68150000Y-15000000D02*
G75*
G02*
X61850000Y-15000000I-3150000J0D01*
G01*
X61850000Y-15000000D02*
G75*
G02*
X68150000Y-15000000I3150000J0D01*
G01*
%TO.C,SW2*%
X71750000Y-12000000D02*
X78250000Y-12000000D01*
X71750000Y-18000000D02*
X71750000Y-12000000D01*
X78250000Y-12000000D02*
X78250000Y-18000000D01*
X78250000Y-18000000D02*
X71750000Y-18000000D01*
X76700000Y-15000000D02*
G75*
G02*
X73300000Y-15000000I-1700000J0D01*
G01*
X73300000Y-15000000D02*
G75*
G02*
X76700000Y-15000000I1700000J0D01*
G01*
%TO.C,R11*%
X84200000Y-14587500D02*
X85800000Y-14587500D01*
X85800000Y-15412500D01*
X84200000Y-15412500D01*
X84200000Y-14587500D01*
%TO.C,D5*%
X94200000Y-14900000D02*
X94200000Y-15400000D01*
X94200000Y-15400000D02*
X95800000Y-15400000D01*
X94500000Y-14600000D02*
X94200000Y-14900000D01*
X95800000Y-14600000D02*
X94500000Y-14600000D01*
X95800000Y-15400000D02*
X95800000Y-14600000D01*
%TO.C,R8*%
X104200000Y-14587500D02*
X105800000Y-14587500D01*
X105800000Y-15412500D01*
X104200000Y-15412500D01*
X104200000Y-14587500D01*
%TO.C,BZ1*%
X22400000Y-80000000D02*
G75*
G02*
X20800000Y-80000000I-800000J0D01*
G01*
X20800000Y-80000000D02*
G75*
G02*
X22400000Y-80000000I800000J0D01*
G01*
X24900000Y-80000000D02*
G75*
G02*
X18300000Y-80000000I-3300000J0D01*
G01*
X18300000Y-80000000D02*
G75*
G02*
X24900000Y-80000000I3300000J0D01*
G01*
%TO.C,R16*%
X24200000Y-24587500D02*
X25800000Y-24587500D01*
X25800000Y-25412500D01*
X24200000Y-25412500D01*
X24200000Y-24587500D01*
%TO.C,R6*%
X34200000Y-24587500D02*
X35800000Y-24587500D01*
X35800000Y-25412500D01*
X34200000Y-25412500D01*
X34200000Y-24587500D01*
%TO.C,U3*%
X29950000Y-47450000D02*
X26050000Y-47450000D01*
X26050000Y-43525000D01*
X27025000Y-42550000D01*
X29950000Y-42550000D01*
X29950000Y-47450000D01*
%TO.C,C11*%
X44200000Y-24600000D02*
X45800000Y-24600000D01*
X45800000Y-25400000D01*
X44200000Y-25400000D01*
X44200000Y-24600000D01*
%TO.C,R13*%
X54200000Y-24587500D02*
X55800000Y-24587500D01*
X55800000Y-25412500D01*
X54200000Y-25412500D01*
X54200000Y-24587500D01*
%TO.C,R9*%
X64200000Y-24587500D02*
X65800000Y-24587500D01*
X65800000Y-25412500D01*
X64200000Y-25412500D01*
X64200000Y-24587500D01*
%TO.C,R5*%
X74200000Y-24587500D02*
X75800000Y-24587500D01*
X75800000Y-25412500D01*
X74200000Y-25412500D01*
X74200000Y-24587500D01*
%TO.C,R15*%
X84200000Y-24587500D02*
X85800000Y-24587500D01*
X85800000Y-25412500D01*
X84200000Y-25412500D01*
X84200000Y-24587500D01*
%TO.C,R12*%
X94200000Y-24587500D02*
X95800000Y-24587500D01*
X95800000Y-25412500D01*
X94200000Y-25412500D01*
X94200000Y-24587500D01*
%TO.C,R17*%
X104200000Y-24587500D02*
X105800000Y-24587500D01*
X105800000Y-25412500D01*
X104200000Y-25412500D01*
X104200000Y-24587500D01*
%TO.C,C9*%
X24200000Y-34600000D02*
X25800000Y-34600000D01*
X25800000Y-35400000D01*
X24200000Y-35400000D01*
X24200000Y-34600000D01*
%TO.C,R7*%
X34200000Y-34587500D02*
X35800000Y-34587500D01*
X35800000Y-35412500D01*
X34200000Y-35412500D01*
X34200000Y-34587500D01*
%TO.C,J1*%
X7530000Y-56547500D02*
X16470000Y-56547500D01*
X16470000Y-63452500D01*
X7530000Y-63452500D01*
X7530000Y-56547500D01*
%TO.C,J2*%
X108730000Y-19365000D02*
X109365000Y-18730000D01*
X108730000Y-26350000D02*
X108730000Y-19365000D01*
X109365000Y-18730000D02*
X111270000Y-18730000D01*
X111270000Y-18730000D02*
X111270000Y-26350000D01*
X111270000Y-26350000D02*
X108730000Y-26350000D01*
%TO.C,C5*%
X44200000Y-34600000D02*
X45800000Y-34600000D01*
X45800000Y-35400000D01*
X44200000Y-35400000D01*
X44200000Y-34600000D01*
%TO.C,R2*%
X109200000Y-34587500D02*
X110800000Y-34587500D01*
X110800000Y-35412500D01*
X109200000Y-35412500D01*
X109200000Y-34587500D01*
%TO.C,C7*%
X114200000Y-34600000D02*
X115800000Y-34600000D01*
X115800000Y-35400000D01*
X114200000Y-35400000D01*
X114200000Y-34600000D01*
%TO.C,D1*%
X124200000Y-34900000D02*
X124200000Y-35400000D01*
X124200000Y-35400000D02*
X125800000Y-35400000D01*
X124500000Y-34600000D02*
X124200000Y-34900000D01*
X125800000Y-34600000D02*
X124500000Y-34600000D01*
X125800000Y-35400000D02*
X125800000Y-34600000D01*
%TO.C,R1*%
X129200000Y-34587500D02*
X130800000Y-34587500D01*
X130800000Y-35412500D01*
X129200000Y-35412500D01*
X129200000Y-34587500D01*
%TO.C,R10*%
X134200000Y-34587500D02*
X135800000Y-34587500D01*
X135800000Y-35412500D01*
X134200000Y-35412500D01*
X134200000Y-34587500D01*
%TO.C,R3*%
X139200000Y-34587500D02*
X140800000Y-34587500D01*
X140800000Y-35412500D01*
X139200000Y-35412500D01*
X139200000Y-34587500D01*
%TO.C,C8*%
X114200000Y-44600000D02*
X115800000Y-44600000D01*
X115800000Y-45400000D01*
X114200000Y-45400000D01*
X114200000Y-44600000D01*
%TO.C,C2*%
X119200000Y-44600000D02*
X120800000Y-44600000D01*
X120800000Y-45400000D01*
X119200000Y-45400000D01*
X119200000Y-44600000D01*
%TO.C,Q1*%
X130650000Y-46450000D02*
X129350000Y-46450000D01*
X129350000Y-43875000D01*
X129675000Y-43550000D01*
X130650000Y-43550000D01*
X130650000Y-46450000D01*
%TO.C,J4*%
X107640000Y-72890000D02*
X107640000Y-74140000D01*
X108890000Y-72890000D02*
X107640000Y-72890000D01*
X108050000Y-73300000D02*
X113950000Y-73300000D01*
X113950000Y-77800000D01*
X108050000Y-77800000D01*
X108050000Y-73300000D01*
%TO.C,J3*%
X108730000Y-49365000D02*
X109365000Y-48730000D01*
X108730000Y-58890000D02*
X108730000Y-49365000D01*
X109365000Y-48730000D02*
X111270000Y-48730000D01*
X111270000Y-48730000D02*
X111270000Y-58890000D01*
X111270000Y-58890000D02*
X108730000Y-58890000D01*
%TO.C,C1*%
X139200000Y-44600000D02*
X140800000Y-44600000D01*
X140800000Y-45400000D01*
X139200000Y-45400000D01*
X139200000Y-44600000D01*
%TO.C,D3*%
X147700000Y-46500000D02*
X147700000Y-43500000D01*
X149350560Y-44200920D02*
X149350560Y-45801120D01*
X149350560Y-45001020D02*
X148448860Y-45001020D01*
X149350560Y-45001020D02*
X150501180Y-44200920D01*
X149350560Y-45001020D02*
X150501180Y-45750320D01*
X150501180Y-45001020D02*
X151499400Y-45001020D01*
X150501180Y-45750320D02*
X150501180Y-44200920D01*
X152300000Y-43500000D02*
X147700000Y-43500000D01*
X152300000Y-43500000D02*
X152300000Y-46500000D01*
X152300000Y-46500000D02*
X147700000Y-46500000D01*
%TO.C,U1*%
X71000000Y-47250000D02*
X89000000Y-47250000D01*
X71000000Y-53250000D02*
X89000000Y-53250000D01*
X71000000Y-72750000D02*
X71000000Y-47250000D01*
X71000000Y-72750000D02*
X89000000Y-72750000D01*
X89000000Y-72750000D02*
X89000000Y-47250000D01*
%TO.C,U4*%
X44800000Y-46450000D02*
X43200000Y-46450000D01*
X43200000Y-43950000D01*
X43600000Y-43550000D01*
X44800000Y-43550000D01*
X44800000Y-46450000D01*
%TO.C,D4*%
X159200000Y-44900000D02*
X159200000Y-45400000D01*
X159200000Y-45400000D02*
X160800000Y-45400000D01*
X159500000Y-44600000D02*
X159200000Y-44900000D01*
X160800000Y-44600000D02*
X159500000Y-44600000D01*
X160800000Y-45400000D02*
X160800000Y-44600000D01*
%TD*%
M02*
