%TF.GenerationSoftware,KiCad,Pcbnew,9.0.7*%
%TF.CreationDate,2026-03-23T16:43:12+05:30*%
%TF.ProjectId,Pill_Dispenser_V4,50696c6c-5f44-4697-9370-656e7365725f,rev?*%
%TF.SameCoordinates,Original*%
%TF.FileFunction,Copper,L1,Top*%
%TF.FilePolarity,Positive*%
%FSLAX46Y46*%
G04 Gerber Fmt 4.6, Leading zero omitted, Abs format (unit mm)*
G04 Created by KiCad (PCBNEW 9.0.7) date 2026-03-23 16:43:12*
%MOMM*%
%LPD*%
G01*
G04 APERTURE LIST*
G04 Aperture macros list*
%AMRoundRect*
0 Rectangle with rounded corners*
0 $1 Rounding radius*
0 $2 $3 $4 $5 $6 $7 $8 $9 X,Y pos of 4 corners*
0 Add a 4 corners polygon primitive as box body*
4,1,4,$2,$3,$4,$5,$6,$7,$8,$9,$2,$3,0*
0 Add four circle primitives for the rounded corners*
1,1,$1+$1,$2,$3*
1,1,$1+$1,$4,$5*
1,1,$1+$1,$6,$7*
1,1,$1+$1,$8,$9*
0 Add four rect primitives between the rounded corners*
20,1,$1+$1,$2,$3,$4,$5,0*
20,1,$1+$1,$4,$5,$6,$7,0*
20,1,$1+$1,$6,$7,$8,$9,0*
20,1,$1+$1,$8,$9,$2,$3,0*%
G04 Aperture macros list end*
%TA.AperFunction,SMDPad,CuDef*%
%ADD10RoundRect,0.200000X-0.200000X-0.275000X0.200000X-0.275000X0.200000X0.275000X-0.200000X0.275000X0*%
%TD*%
%TA.AperFunction,SMDPad,CuDef*%
%ADD11R,2.750000X1.000000*%
%TD*%
%TA.AperFunction,SMDPad,CuDef*%
%ADD12RoundRect,0.225000X-0.225000X-0.250000X0.225000X-0.250000X0.225000X0.250000X-0.225000X0.250000X0*%
%TD*%
%TA.AperFunction,SMDPad,CuDef*%
%ADD13RoundRect,0.250000X-1.500000X-0.550000X1.500000X-0.550000X1.500000X0.550000X-1.500000X0.550000X0*%
%TD*%
%TA.AperFunction,SMDPad,CuDef*%
%ADD14RoundRect,0.218750X-0.218750X-0.256250X0.218750X-0.256250X0.218750X0.256250X-0.218750X0.256250X0*%
%TD*%
%TA.AperFunction,ComponentPad*%
%ADD15R,1.600000X1.600000*%
%TD*%
%TA.AperFunction,ComponentPad*%
%ADD16C,1.600000*%
%TD*%
%TA.AperFunction,SMDPad,CuDef*%
%ADD17RoundRect,0.150000X-0.825000X-0.150000X0.825000X-0.150000X0.825000X0.150000X-0.825000X0.150000X0*%
%TD*%
%TA.AperFunction,HeatsinkPad*%
%ADD18C,0.500000*%
%TD*%
%TA.AperFunction,HeatsinkPad*%
%ADD19R,2.410000X3.300000*%
%TD*%
%TA.AperFunction,SMDPad,CuDef*%
%ADD20RoundRect,0.175000X-0.175000X-0.425000X0.175000X-0.425000X0.175000X0.425000X-0.175000X0.425000X0*%
%TD*%
%TA.AperFunction,SMDPad,CuDef*%
%ADD21RoundRect,0.190000X0.190000X0.410000X-0.190000X0.410000X-0.190000X-0.410000X0.190000X-0.410000X0*%
%TD*%
%TA.AperFunction,SMDPad,CuDef*%
%ADD22RoundRect,0.200000X0.200000X0.400000X-0.200000X0.400000X-0.200000X-0.400000X0.200000X-0.400000X0*%
%TD*%
%TA.AperFunction,SMDPad,CuDef*%
%ADD23RoundRect,0.175000X0.175000X0.425000X-0.175000X0.425000X-0.175000X-0.425000X0.175000X-0.425000X0*%
%TD*%
%TA.AperFunction,SMDPad,CuDef*%
%ADD24RoundRect,0.190000X-0.190000X-0.410000X0.190000X-0.410000X0.190000X0.410000X-0.190000X0.410000X0*%
%TD*%
%TA.AperFunction,SMDPad,CuDef*%
%ADD25RoundRect,0.200000X-0.200000X-0.400000X0.200000X-0.400000X0.200000X0.400000X-0.200000X0.400000X0*%
%TD*%
%TA.AperFunction,SMDPad,CuDef*%
%ADD26RoundRect,0.250000X-0.650000X-0.425000X0.650000X-0.425000X0.650000X0.425000X-0.650000X0.425000X0*%
%TD*%
%TA.AperFunction,SMDPad,CuDef*%
%ADD27RoundRect,0.250000X-0.650000X-0.500000X0.650000X-0.500000X0.650000X0.500000X-0.650000X0.500000X0*%
%TD*%
%TA.AperFunction,ComponentPad*%
%ADD28R,1.700000X1.700000*%
%TD*%
%TA.AperFunction,ComponentPad*%
%ADD29C,1.700000*%
%TD*%
%TA.AperFunction,SMDPad,CuDef*%
%ADD30RoundRect,0.150000X-0.587500X-0.150000X0.587500X-0.150000X0.587500X0.150000X-0.587500X0.150000X0*%
%TD*%
%TA.AperFunction,ComponentPad*%
%ADD31RoundRect,0.250000X-0.350000X-0.625000X0.350000X-0.625000X0.350000X0.625000X-0.350000X0.625000X0*%
%TD*%
%TA.AperFunction,ComponentPad*%
%ADD32O,1.200000X1.750000*%
%TD*%
%TA.AperFunction,SMDPad,CuDef*%
%ADD33RoundRect,0.250000X-1.000000X-0.650000X1.000000X-0.650000X1.000000X0.650000X-1.000000X0.650000X0*%
%TD*%
%TA.AperFunction,SMDPad,CuDef*%
%ADD34R,1.500000X0.900000*%
%TD*%
%TA.AperFunction,SMDPad,CuDef*%
%ADD35R,0.900000X1.500000*%
%TD*%
%TA.AperFunction,HeatsinkPad*%
%ADD36C,0.600000*%
%TD*%
%TA.AperFunction,HeatsinkPad*%
%ADD37R,3.900000X3.900000*%
%TD*%
%TA.AperFunction,SMDPad,CuDef*%
%ADD38RoundRect,0.150000X-0.512500X-0.150000X0.512500X-0.150000X0.512500X0.150000X-0.512500X0.150000X0*%
%TD*%
%TA.AperFunction,ViaPad*%
%ADD39C,0.600000*%
%TD*%
%TA.AperFunction,Conductor*%
%ADD40C,0.200000*%
%TD*%
G04 APERTURE END LIST*
D10*
%TO.P,R4,1*%
%TO.N,unconnected-(R4-Pad1)*%
X24175000Y-15000000D03*
%TO.P,R4,2*%
%TO.N,/Q1_BASE*%
X25825000Y-15000000D03*
%TD*%
D11*
%TO.P,SW1,1,1*%
%TO.N,/3V3*%
X32120000Y-13000000D03*
X37880000Y-13000000D03*
%TO.P,SW1,2,2*%
X32120000Y-17000000D03*
X37880000Y-17000000D03*
%TD*%
%TO.P,SW3,1,1*%
%TO.N,/3V3*%
X42120000Y-13000000D03*
X47880000Y-13000000D03*
%TO.P,SW3,2,2*%
X42120000Y-17000000D03*
X47880000Y-17000000D03*
%TD*%
D12*
%TO.P,C6,1*%
%TO.N,/3V3*%
X54225000Y-15000000D03*
%TO.P,C6,2*%
X55775000Y-15000000D03*
%TD*%
D13*
%TO.P,C10,1*%
%TO.N,unconnected-(C10-Pad1)*%
X62200000Y-15000000D03*
%TO.P,C10,2*%
%TO.N,/3V3*%
X67800000Y-15000000D03*
%TD*%
D11*
%TO.P,SW2,1,1*%
%TO.N,/3V3*%
X72120000Y-13000000D03*
X77880000Y-13000000D03*
%TO.P,SW2,2,2*%
X72120000Y-17000000D03*
X77880000Y-17000000D03*
%TD*%
D10*
%TO.P,R11,1*%
%TO.N,unconnected-(R11-Pad1)*%
X84175000Y-15000000D03*
%TO.P,R11,2*%
%TO.N,unconnected-(R11-Pad2)*%
X85825000Y-15000000D03*
%TD*%
D14*
%TO.P,D5,1,K*%
%TO.N,/3V3*%
X94212500Y-15000000D03*
%TO.P,D5,2,A*%
%TO.N,unconnected-(D5-A-Pad2)*%
X95787500Y-15000000D03*
%TD*%
D10*
%TO.P,R8,1*%
%TO.N,Net-(R17-Pad1)*%
X104175000Y-15000000D03*
%TO.P,R8,2*%
%TO.N,Net-(R17-Pad2)*%
X105825000Y-15000000D03*
%TD*%
D15*
%TO.P,BZ1,1,+*%
%TO.N,unconnected-(BZ1-+-Pad1)*%
X20000000Y-80000000D03*
D16*
%TO.P,BZ1,2,-*%
%TO.N,/3V3*%
X23200000Y-80000000D03*
%TD*%
D10*
%TO.P,R16,1*%
%TO.N,/3V3*%
X24175000Y-25000000D03*
%TO.P,R16,2*%
%TO.N,Net-(R15-Pad2)*%
X25825000Y-25000000D03*
%TD*%
%TO.P,R6,1*%
%TO.N,/3V3*%
X34175000Y-25000000D03*
%TO.P,R6,2*%
X35825000Y-25000000D03*
%TD*%
D17*
%TO.P,U3,1,TEMP*%
%TO.N,/3V3*%
X25525000Y-43095000D03*
%TO.P,U3,2,PROG*%
%TO.N,unconnected-(U3-PROG-Pad2)*%
X25525000Y-44365000D03*
%TO.P,U3,3,GND*%
%TO.N,/3V3*%
X25525000Y-45635000D03*
%TO.P,U3,4,V_{CC}*%
X25525000Y-46905000D03*
%TO.P,U3,5,BAT*%
X30475000Y-46905000D03*
%TO.P,U3,6,~{STDBY}*%
%TO.N,unconnected-(U3-~{STDBY}-Pad6)*%
X30475000Y-45635000D03*
%TO.P,U3,7,~{CHRG}*%
%TO.N,/3V3*%
X30475000Y-44365000D03*
%TO.P,U3,8,CE*%
X30475000Y-43095000D03*
D18*
%TO.P,U3,9,EPAD*%
X27300000Y-43800000D03*
X27300000Y-45000000D03*
X27300000Y-46200000D03*
D19*
X28000000Y-45000000D03*
D18*
X28700000Y-43800000D03*
X28700000Y-45000000D03*
X28700000Y-46200000D03*
%TD*%
D12*
%TO.P,C11,1*%
%TO.N,/3V3*%
X44225000Y-25000000D03*
%TO.P,C11,2*%
%TO.N,Net-(C11-Pad2)*%
X45775000Y-25000000D03*
%TD*%
D10*
%TO.P,R13,1*%
%TO.N,unconnected-(R13-Pad1)*%
X54175000Y-25000000D03*
%TO.P,R13,2*%
%TO.N,/3V3*%
X55825000Y-25000000D03*
%TD*%
%TO.P,R9,1*%
%TO.N,/3V3*%
X64175000Y-25000000D03*
%TO.P,R9,2*%
%TO.N,unconnected-(R9-Pad2)*%
X65825000Y-25000000D03*
%TD*%
%TO.P,R5,1*%
%TO.N,/3V3*%
X74175000Y-25000000D03*
%TO.P,R5,2*%
%TO.N,unconnected-(R5-Pad2)*%
X75825000Y-25000000D03*
%TD*%
%TO.P,R15,1*%
%TO.N,/3V3*%
X84175000Y-25000000D03*
%TO.P,R15,2*%
%TO.N,Net-(R15-Pad2)*%
X85825000Y-25000000D03*
%TD*%
%TO.P,R12,1*%
%TO.N,/3V3*%
X94175000Y-25000000D03*
%TO.P,R12,2*%
X95825000Y-25000000D03*
%TD*%
%TO.P,R17,1*%
%TO.N,Net-(R17-Pad1)*%
X104175000Y-25000000D03*
%TO.P,R17,2*%
%TO.N,Net-(R17-Pad2)*%
X105825000Y-25000000D03*
%TD*%
D12*
%TO.P,C9,1*%
%TO.N,/3V3*%
X24225000Y-35000000D03*
%TO.P,C9,2*%
%TO.N,unconnected-(C9-Pad2)*%
X25775000Y-35000000D03*
%TD*%
D10*
%TO.P,R7,1*%
%TO.N,/3V3*%
X34175000Y-35000000D03*
%TO.P,R7,2*%
X35825000Y-35000000D03*
%TD*%
D20*
%TO.P,J1,A5*%
%TO.N,N/C*%
X11500000Y-56967500D03*
D21*
%TO.P,J1,A9*%
X13520000Y-56967500D03*
D22*
%TO.P,J1,A12*%
X14750000Y-56967500D03*
D23*
%TO.P,J1,B5*%
X12500000Y-56967500D03*
D24*
%TO.P,J1,B9*%
X10480000Y-56967500D03*
D25*
%TO.P,J1,B12*%
X9250000Y-56967500D03*
D26*
%TO.P,J1,S1*%
X6875000Y-57022500D03*
D27*
X6875000Y-60602500D03*
D26*
X17125000Y-57022500D03*
D27*
X17125000Y-60602500D03*
%TD*%
D28*
%TO.P,J2,1,Pin_1*%
%TO.N,unconnected-(J2-Pin_1-Pad1)*%
X110000000Y-20000000D03*
D29*
%TO.P,J2,2,Pin_2*%
%TO.N,/3V3*%
X110000000Y-22540000D03*
%TO.P,J2,3,Pin_3*%
X110000000Y-25080000D03*
%TD*%
D12*
%TO.P,C5,1*%
%TO.N,/3V3*%
X44225000Y-35000000D03*
%TO.P,C5,2*%
%TO.N,Net-(C11-Pad2)*%
X45775000Y-35000000D03*
%TD*%
D10*
%TO.P,R2,1*%
%TO.N,/3V3*%
X109175000Y-35000000D03*
%TO.P,R2,2*%
%TO.N,unconnected-(R2-Pad2)*%
X110825000Y-35000000D03*
%TD*%
D12*
%TO.P,C7,1*%
%TO.N,/3V3*%
X114225000Y-35000000D03*
%TO.P,C7,2*%
X115775000Y-35000000D03*
%TD*%
D14*
%TO.P,D1,1,K*%
%TO.N,/3V3*%
X124212500Y-35000000D03*
%TO.P,D1,2,A*%
%TO.N,unconnected-(D1-A-Pad2)*%
X125787500Y-35000000D03*
%TD*%
D10*
%TO.P,R1,1*%
%TO.N,/3V3*%
X129175000Y-35000000D03*
%TO.P,R1,2*%
%TO.N,unconnected-(R1-Pad2)*%
X130825000Y-35000000D03*
%TD*%
%TO.P,R10,1*%
%TO.N,unconnected-(R10-Pad1)*%
X134175000Y-35000000D03*
%TO.P,R10,2*%
%TO.N,unconnected-(R10-Pad2)*%
X135825000Y-35000000D03*
%TD*%
%TO.P,R3,1*%
%TO.N,unconnected-(R3-Pad1)*%
X139175000Y-35000000D03*
%TO.P,R3,2*%
%TO.N,unconnected-(R3-Pad2)*%
X140825000Y-35000000D03*
%TD*%
D12*
%TO.P,C8,1*%
%TO.N,/3V3*%
X114225000Y-45000000D03*
%TO.P,C8,2*%
X115775000Y-45000000D03*
%TD*%
%TO.P,C2,1*%
%TO.N,/3V3*%
X119225000Y-45000000D03*
%TO.P,C2,2*%
X120775000Y-45000000D03*
%TD*%
D30*
%TO.P,Q1,1,B*%
%TO.N,/3V3*%
X129062500Y-44050000D03*
%TO.P,Q1,2,C*%
%TO.N,unconnected-(Q1-C-Pad2)*%
X129062500Y-45950000D03*
%TO.P,Q1,3,E*%
%TO.N,/3V3*%
X130937500Y-45000000D03*
%TD*%
D31*
%TO.P,J4,1,Pin_1*%
%TO.N,unconnected-(J4-Pin_1-Pad1)*%
X110000000Y-75000000D03*
D32*
%TO.P,J4,2,Pin_2*%
%TO.N,/3V3*%
X112000000Y-75000000D03*
%TD*%
D28*
%TO.P,J3,1,Pin_1*%
%TO.N,unconnected-(J3-Pin_1-Pad1)*%
X110000000Y-50000000D03*
D29*
%TO.P,J3,2,Pin_2*%
%TO.N,unconnected-(J3-Pin_2-Pad2)*%
X110000000Y-52540000D03*
%TO.P,J3,3,Pin_3*%
%TO.N,unconnected-(J3-Pin_3-Pad3)*%
X110000000Y-55080000D03*
%TO.P,J3,4,Pin_4*%
%TO.N,unconnected-(J3-Pin_4-Pad4)*%
X110000000Y-57620000D03*
%TD*%
D12*
%TO.P,C1,1*%
%TO.N,/3V3*%
X139225000Y-45000000D03*
%TO.P,C1,2*%
%TO.N,unconnected-(C1-Pad2)*%
X140775000Y-45000000D03*
%TD*%
D33*
%TO.P,D3,1,K*%
%TO.N,/3V3*%
X148000000Y-45000000D03*
%TO.P,D3,2,A*%
%TO.N,unconnected-(D3-A-Pad2)*%
X152000000Y-45000000D03*
%TD*%
D34*
%TO.P,U1,1,GND*%
%TO.N,Net-(U1-GND-Pad1)*%
X71250000Y-54740000D03*
%TO.P,U1,2,3V3*%
%TO.N,unconnected-(U1-3V3-Pad2)*%
X71250000Y-56010000D03*
%TO.P,U1,3,EN*%
%TO.N,/3V3*%
X71250000Y-57280000D03*
%TO.P,U1,4,IO4*%
%TO.N,unconnected-(U1-IO4-Pad4)*%
X71250000Y-58550000D03*
%TO.P,U1,5,IO5*%
%TO.N,unconnected-(U1-IO5-Pad5)*%
X71250000Y-59820000D03*
%TO.P,U1,6,IO6*%
%TO.N,unconnected-(U1-IO6-Pad6)*%
X71250000Y-61090000D03*
%TO.P,U1,7,IO7*%
%TO.N,unconnected-(U1-IO7-Pad7)*%
X71250000Y-62360000D03*
%TO.P,U1,8,IO15*%
%TO.N,/3V3*%
X71250000Y-63630000D03*
%TO.P,U1,9,IO16*%
%TO.N,unconnected-(U1-IO16-Pad9)*%
X71250000Y-64900000D03*
%TO.P,U1,10,IO17*%
%TO.N,unconnected-(U1-IO17-Pad10)*%
X71250000Y-66170000D03*
%TO.P,U1,11,IO18*%
%TO.N,unconnected-(U1-IO18-Pad11)*%
X71250000Y-67440000D03*
%TO.P,U1,12,IO8*%
%TO.N,/3V3*%
X71250000Y-68710000D03*
%TO.P,U1,13,USB_D-*%
%TO.N,unconnected-(U1-USB_D--Pad13)*%
X71250000Y-69980000D03*
%TO.P,U1,14,USB_D+*%
%TO.N,unconnected-(U1-USB_D+-Pad14)*%
X71250000Y-71250000D03*
D35*
%TO.P,U1,15,IO3*%
%TO.N,unconnected-(U1-IO3-Pad15)*%
X73015000Y-72500000D03*
%TO.P,U1,16,IO46*%
%TO.N,unconnected-(U1-IO46-Pad16)*%
X74285000Y-72500000D03*
%TO.P,U1,17,IO9*%
%TO.N,/3V3*%
X75555000Y-72500000D03*
%TO.P,U1,18,IO10*%
X76825000Y-72500000D03*
%TO.P,U1,19,IO11*%
X78095000Y-72500000D03*
%TO.P,U1,20,IO12*%
X79365000Y-72500000D03*
%TO.P,U1,21,IO13*%
X80635000Y-72500000D03*
%TO.P,U1,22,IO14*%
X81905000Y-72500000D03*
%TO.P,U1,23,IO21*%
%TO.N,unconnected-(U1-IO21-Pad23)*%
X83175000Y-72500000D03*
%TO.P,U1,24,IO47*%
%TO.N,unconnected-(U1-IO47-Pad24)*%
X84445000Y-72500000D03*
%TO.P,U1,25,IO48*%
%TO.N,unconnected-(U1-IO48-Pad25)*%
X85715000Y-72500000D03*
%TO.P,U1,26,IO45*%
%TO.N,unconnected-(U1-IO45-Pad26)*%
X86985000Y-72500000D03*
D34*
%TO.P,U1,27,IO0*%
%TO.N,unconnected-(U1-IO0-Pad27)*%
X88750000Y-71250000D03*
%TO.P,U1,28,IO35*%
%TO.N,unconnected-(U1-IO35-Pad28)*%
X88750000Y-69980000D03*
%TO.P,U1,29,IO36*%
%TO.N,unconnected-(U1-IO36-Pad29)*%
X88750000Y-68710000D03*
%TO.P,U1,30,IO37*%
%TO.N,unconnected-(U1-IO37-Pad30)*%
X88750000Y-67440000D03*
%TO.P,U1,31,IO38*%
%TO.N,unconnected-(U1-IO38-Pad31)*%
X88750000Y-66170000D03*
%TO.P,U1,32,IO39*%
%TO.N,unconnected-(U1-IO39-Pad32)*%
X88750000Y-64900000D03*
%TO.P,U1,33,IO40*%
%TO.N,unconnected-(U1-IO40-Pad33)*%
X88750000Y-63630000D03*
%TO.P,U1,34,IO41*%
%TO.N,unconnected-(U1-IO41-Pad34)*%
X88750000Y-62360000D03*
%TO.P,U1,35,IO42*%
%TO.N,unconnected-(U1-IO42-Pad35)*%
X88750000Y-61090000D03*
%TO.P,U1,36,RXD0*%
%TO.N,unconnected-(U1-RXD0-Pad36)*%
X88750000Y-59820000D03*
%TO.P,U1,37,TXD0*%
%TO.N,unconnected-(U1-TXD0-Pad37)*%
X88750000Y-58550000D03*
%TO.P,U1,38,IO2*%
%TO.N,unconnected-(U1-IO2-Pad38)*%
X88750000Y-57280000D03*
%TO.P,U1,39,IO1*%
%TO.N,unconnected-(U1-IO1-Pad39)*%
X88750000Y-56010000D03*
%TO.P,U1,40,GND*%
%TO.N,Net-(U1-GND-Pad1)*%
X88750000Y-54740000D03*
D36*
%TO.P,U1,41,GND*%
X77100000Y-61760000D03*
X77100000Y-63160000D03*
X77800000Y-61060000D03*
X77800000Y-62460000D03*
X77800000Y-63860000D03*
X78500000Y-61760000D03*
D37*
X78500000Y-62460000D03*
D36*
X78500000Y-63160000D03*
X79200000Y-61060000D03*
X79200000Y-62460000D03*
X79200000Y-63860000D03*
X79900000Y-61760000D03*
X79900000Y-63160000D03*
%TD*%
D38*
%TO.P,U4,1,VIN*%
%TO.N,/3V3*%
X42862500Y-44050000D03*
%TO.P,U4,2,GND*%
X42862500Y-45000000D03*
%TO.P,U4,3,EN*%
X42862500Y-45950000D03*
%TO.P,U4,4,NC*%
%TO.N,unconnected-(U4-NC-Pad4)*%
X45137500Y-45950000D03*
%TO.P,U4,5,VOUT*%
%TO.N,unconnected-(U4-VOUT-Pad5)*%
X45137500Y-44050000D03*
%TD*%
D14*
%TO.P,D4,1,K*%
%TO.N,/3V3*%
X159212500Y-45000000D03*
%TO.P,D4,2,A*%
%TO.N,unconnected-(D4-A-Pad2)*%
X160787500Y-45000000D03*
%TD*%
D39*
%TO.N,/3V3*%
X110449000Y-33734200D03*
X112000000Y-44555600D03*
%TO.N,Net-(R15-Pad2)*%
X68786400Y-17245000D03*
X68976800Y-26307500D03*
%TD*%
D40*
%TO.N,/3V3*%
X75040000Y-71448300D02*
X75555000Y-71448300D01*
X25525000Y-36300000D02*
X25525000Y-43095000D01*
X67800000Y-15000000D02*
X68443300Y-15000000D01*
X110000000Y-25080000D02*
X109290800Y-25789200D01*
X112000000Y-44555600D02*
X113780600Y-44555600D01*
X26735000Y-45635000D02*
X27300000Y-46200000D01*
X24175000Y-25000000D02*
X24985000Y-24190000D01*
X115775000Y-45000000D02*
X114225000Y-45000000D01*
X71250000Y-63630000D02*
X72300200Y-63630000D01*
X30854600Y-46905000D02*
X31752300Y-46007300D01*
X71250000Y-57280000D02*
X72301700Y-57280000D01*
X42862500Y-45000000D02*
X42862500Y-44050000D01*
X67800000Y-15000000D02*
X66662500Y-13862500D01*
X80635000Y-73551700D02*
X81905000Y-73551700D01*
X124212500Y-35000000D02*
X115775000Y-35000000D01*
X44225000Y-25000000D02*
X35825000Y-25000000D01*
X31752300Y-46007300D02*
X31752300Y-45687100D01*
X84995000Y-24180000D02*
X84175000Y-25000000D01*
X51556700Y-15000000D02*
X49556700Y-13000000D01*
X79365000Y-73025800D02*
X79365000Y-73551700D01*
X115775000Y-45000000D02*
X119225000Y-45000000D01*
X113447500Y-35777500D02*
X109952500Y-35777500D01*
X64978100Y-25803100D02*
X66207600Y-25803100D01*
X111098300Y-75000000D02*
X111098300Y-74323700D01*
X35825000Y-25000000D02*
X34175000Y-25000000D01*
X109175000Y-35000000D02*
X110440800Y-33734200D01*
X37880000Y-13000000D02*
X32120000Y-13000000D01*
X25525000Y-46905000D02*
X26595000Y-46905000D01*
X113780600Y-44555600D02*
X114225000Y-45000000D01*
X72300200Y-63630000D02*
X72301700Y-63630000D01*
X109952500Y-35777500D02*
X109175000Y-35000000D01*
X25045600Y-34179400D02*
X24225000Y-35000000D01*
X80635000Y-72500000D02*
X80635000Y-73551700D01*
X124990000Y-34222500D02*
X124212500Y-35000000D01*
X33354400Y-34179400D02*
X34175000Y-33358800D01*
X56912500Y-13862500D02*
X55775000Y-15000000D01*
X47880000Y-13000000D02*
X49556700Y-13000000D01*
X42862500Y-45950000D02*
X42862500Y-45687100D01*
X148467600Y-46246800D02*
X148000000Y-45779200D01*
X66207600Y-25803100D02*
X66607700Y-25403000D01*
X51556700Y-15000000D02*
X49556700Y-17000000D01*
X159212500Y-45000000D02*
X157965700Y-46246800D01*
X110440800Y-33734200D02*
X110449000Y-33734200D01*
X42120000Y-17000000D02*
X37880000Y-17000000D01*
X68443300Y-15000000D02*
X70443300Y-13000000D01*
X44225000Y-35000000D02*
X35825000Y-35000000D01*
X33365000Y-24190000D02*
X34175000Y-25000000D01*
X93355000Y-24180000D02*
X84995000Y-24180000D01*
X31473700Y-45000000D02*
X28700000Y-45000000D01*
X115775000Y-35000000D02*
X114225000Y-35000000D01*
X130937500Y-45000000D02*
X129987500Y-44050000D01*
X74952500Y-24222500D02*
X74175000Y-25000000D01*
X95825000Y-25000000D02*
X94175000Y-25000000D01*
X77350900Y-73551700D02*
X78095000Y-73551700D01*
X140004200Y-45779200D02*
X139225000Y-45000000D01*
X54225000Y-15000000D02*
X51556700Y-15000000D01*
X72120000Y-13000000D02*
X70443300Y-13000000D01*
X30475000Y-43095000D02*
X30475000Y-43800000D01*
X121725000Y-44050000D02*
X120775000Y-45000000D01*
X128397500Y-34222500D02*
X124990000Y-34222500D01*
X96614200Y-25789200D02*
X95825000Y-25000000D01*
X109290800Y-25789200D02*
X96614200Y-25789200D01*
X30475000Y-46905000D02*
X30854600Y-46905000D01*
X47880000Y-17000000D02*
X49556700Y-17000000D01*
X47880000Y-17000000D02*
X42120000Y-17000000D01*
X76825000Y-73025800D02*
X76825000Y-73551700D01*
X34175000Y-35000000D02*
X33764700Y-34589700D01*
X45032500Y-24192500D02*
X44225000Y-25000000D01*
X74952500Y-17000000D02*
X72120000Y-17000000D01*
X111098300Y-74323700D02*
X110326300Y-73551700D01*
X114225000Y-35000000D02*
X113447500Y-35777500D01*
X31752300Y-45687100D02*
X31752300Y-45278600D01*
X74952500Y-17000000D02*
X74952500Y-24222500D01*
X157965700Y-46246800D02*
X148467600Y-46246800D01*
X71250000Y-68710000D02*
X72301700Y-68710000D01*
X55017500Y-24192500D02*
X45032500Y-24192500D01*
X24225000Y-35000000D02*
X25525000Y-36300000D01*
X129062500Y-44050000D02*
X121725000Y-44050000D01*
X34175000Y-33358800D02*
X34175000Y-25000000D01*
X79365000Y-73551700D02*
X80635000Y-73551700D01*
X73772100Y-25402900D02*
X74175000Y-25000000D01*
X55775000Y-15000000D02*
X54225000Y-15000000D01*
X72301700Y-63628500D02*
X72300200Y-63630000D01*
X55825000Y-25000000D02*
X64175000Y-25000000D01*
X78839100Y-73551700D02*
X78095000Y-73551700D01*
X92212500Y-13000000D02*
X77880000Y-13000000D01*
X75555000Y-73551700D02*
X76825000Y-73551700D01*
X26595000Y-43095000D02*
X27300000Y-43800000D01*
X30475000Y-43800000D02*
X28700000Y-43800000D01*
X76825000Y-73025800D02*
X77350900Y-73551700D01*
X42120000Y-13000000D02*
X37880000Y-13000000D01*
X77880000Y-17000000D02*
X74952500Y-17000000D01*
X139225000Y-45000000D02*
X130937500Y-45000000D01*
X148000000Y-45779200D02*
X140004200Y-45779200D01*
X112000000Y-75000000D02*
X111098300Y-75000000D01*
X77880000Y-13000000D02*
X72120000Y-13000000D01*
X76825000Y-72500000D02*
X76825000Y-73025800D01*
X25525000Y-43095000D02*
X26595000Y-43095000D01*
X47880000Y-13000000D02*
X42120000Y-13000000D01*
X55825000Y-25000000D02*
X55017500Y-24192500D01*
X110326300Y-73551700D02*
X81905000Y-73551700D01*
X31752300Y-45278600D02*
X31473700Y-45000000D01*
X119225000Y-45000000D02*
X120775000Y-45000000D01*
X27300000Y-45000000D02*
X28000000Y-45000000D01*
X79365000Y-72500000D02*
X79365000Y-73025800D01*
X129987500Y-44050000D02*
X129062500Y-44050000D01*
X26595000Y-46905000D02*
X27300000Y-46200000D01*
X30475000Y-43800000D02*
X30475000Y-44365000D01*
X72301700Y-68710000D02*
X75040000Y-71448300D01*
X81905000Y-72500000D02*
X81905000Y-73551700D01*
X32120000Y-17000000D02*
X37880000Y-17000000D01*
X129175000Y-35000000D02*
X128397500Y-34222500D01*
X25525000Y-45635000D02*
X26735000Y-45635000D01*
X94212500Y-15000000D02*
X92212500Y-13000000D01*
X75555000Y-72500000D02*
X75555000Y-71448300D01*
X94175000Y-25000000D02*
X93355000Y-24180000D01*
X72301700Y-57280000D02*
X72301700Y-63628500D01*
X66607700Y-25402900D02*
X73772100Y-25402900D01*
X68443300Y-15000000D02*
X70443300Y-17000000D01*
X42862500Y-45687100D02*
X42862500Y-45000000D01*
X84175000Y-25000000D02*
X83397500Y-24222500D01*
X148000000Y-45779200D02*
X148000000Y-45000000D01*
X24985000Y-24190000D02*
X33365000Y-24190000D01*
X83397500Y-24222500D02*
X74952500Y-24222500D01*
X64175000Y-25000000D02*
X64978100Y-25803100D01*
X35825000Y-35000000D02*
X34175000Y-35000000D01*
X27300000Y-46200000D02*
X28700000Y-46200000D01*
X33764700Y-34589700D02*
X33354400Y-34179400D01*
X75555000Y-72500000D02*
X75555000Y-73551700D01*
X79365000Y-73025800D02*
X78839100Y-73551700D01*
X66662500Y-13862500D02*
X56912500Y-13862500D01*
X72120000Y-17000000D02*
X70443300Y-17000000D01*
X42862500Y-45687100D02*
X31752300Y-45687100D01*
X78095000Y-72500000D02*
X78095000Y-73551700D01*
X72301700Y-63630000D02*
X72301700Y-68710000D01*
X66607700Y-25403000D02*
X66607700Y-25402900D01*
X33354400Y-34179400D02*
X25045600Y-34179400D01*
%TO.N,Net-(C11-Pad2)*%
X45775000Y-35000000D02*
X45775000Y-25000000D01*
%TO.N,Net-(R17-Pad1)*%
X104175000Y-25000000D02*
X104175000Y-15000000D01*
%TO.N,Net-(R17-Pad2)*%
X105825000Y-15000000D02*
X105825000Y-25000000D01*
%TO.N,Net-(R15-Pad2)*%
X84517500Y-26307500D02*
X68976800Y-26307500D01*
X24992800Y-25832200D02*
X25825000Y-25000000D01*
X23763500Y-25832200D02*
X24992800Y-25832200D01*
X23432500Y-25501200D02*
X23763500Y-25832200D01*
X25219900Y-22768600D02*
X23432500Y-24556000D01*
X68786400Y-17245000D02*
X63262800Y-22768600D01*
X85825000Y-25000000D02*
X84517500Y-26307500D01*
X68786400Y-17245000D02*
X63262800Y-22768600D01*
X63262800Y-22768600D02*
X25219900Y-22768600D01*
X23432500Y-24556000D02*
X23432500Y-25501200D01*
X63262800Y-22768600D02*
X68786400Y-17245000D01*
%TO.N,Net-(U1-GND-Pad1)*%
X79200000Y-63860000D02*
X77800000Y-63860000D01*
X77800000Y-62460000D02*
X78500000Y-62460000D01*
X78500000Y-62460000D02*
X79200000Y-62460000D01*
X78500000Y-63160000D02*
X77100000Y-63160000D01*
X79200000Y-61060000D02*
X77800000Y-61060000D01*
X77100000Y-61760000D02*
X78500000Y-61760000D01*
X79200000Y-54740000D02*
X71250000Y-54740000D01*
X79200000Y-54740000D02*
X79200000Y-61060000D01*
X88750000Y-54740000D02*
X79200000Y-54740000D01*
X79900000Y-61760000D02*
X78500000Y-61760000D01*
%TD*%
%TA.AperFunction,Conductor*%
%TO.N,Net-(U1-GND-Pad1)*%
G36*
X79758691Y-219407D02*
G01*
X79794655Y-268907D01*
X79799500Y-299500D01*
X79799500Y-12094747D01*
X79780593Y-12152938D01*
X79731093Y-12188902D01*
X79669907Y-12188902D01*
X79621248Y-12154078D01*
X79612548Y-12142457D01*
X79612546Y-12142454D01*
X79548818Y-12094747D01*
X79497329Y-12056202D01*
X79362488Y-12005910D01*
X79362483Y-12005909D01*
X79362481Y-12005908D01*
X79362477Y-12005908D01*
X79331249Y-12002550D01*
X79302873Y-11999500D01*
X79302870Y-11999500D01*
X76457133Y-11999500D01*
X76457129Y-11999500D01*
X76457128Y-11999501D01*
X76449949Y-12000272D01*
X76397519Y-12005908D01*
X76397514Y-12005909D01*
X76262670Y-12056202D01*
X76147458Y-12142450D01*
X76147450Y-12142458D01*
X76061202Y-12257670D01*
X76032325Y-12335096D01*
X75994275Y-12383011D01*
X75939567Y-12399500D01*
X74060433Y-12399500D01*
X74002242Y-12380593D01*
X73967675Y-12335096D01*
X73938797Y-12257670D01*
X73852549Y-12142458D01*
X73852548Y-12142457D01*
X73852546Y-12142454D01*
X73788818Y-12094747D01*
X73737329Y-12056202D01*
X73602488Y-12005910D01*
X73602483Y-12005909D01*
X73602481Y-12005908D01*
X73602477Y-12005908D01*
X73571249Y-12002550D01*
X73542873Y-11999500D01*
X73542870Y-11999500D01*
X70697133Y-11999500D01*
X70697129Y-11999500D01*
X70697128Y-11999501D01*
X70689949Y-12000272D01*
X70637519Y-12005908D01*
X70637514Y-12005909D01*
X70502670Y-12056202D01*
X70387458Y-12142450D01*
X70387450Y-12142458D01*
X70301203Y-12257669D01*
X70251385Y-12391239D01*
X70249402Y-12393735D01*
X70249069Y-12396907D01*
X70230542Y-12417483D01*
X70213334Y-12439153D01*
X70208129Y-12442378D01*
X70191244Y-12452127D01*
X70191240Y-12452127D01*
X70074584Y-12519479D01*
X69962779Y-12631283D01*
X69962780Y-12631284D01*
X68923560Y-13670504D01*
X68869043Y-13698281D01*
X68853556Y-13699500D01*
X67389743Y-13699500D01*
X67331552Y-13680593D01*
X67319739Y-13670504D01*
X67143021Y-13493786D01*
X67143020Y-13493784D01*
X67031216Y-13381980D01*
X66944404Y-13331860D01*
X66944403Y-13331859D01*
X66894288Y-13302925D01*
X66894285Y-13302923D01*
X66741557Y-13261999D01*
X66583443Y-13261999D01*
X66577380Y-13261999D01*
X66577364Y-13262000D01*
X56997636Y-13262000D01*
X56997620Y-13261999D01*
X56991557Y-13261999D01*
X56833443Y-13261999D01*
X56680715Y-13302923D01*
X56680713Y-13302923D01*
X56680709Y-13302925D01*
X56630595Y-13331859D01*
X56543784Y-13381979D01*
X56431979Y-13493783D01*
X56431980Y-13493784D01*
X56431978Y-13493786D01*
X55930259Y-13995504D01*
X55875742Y-14023281D01*
X55860255Y-14024500D01*
X55501647Y-14024500D01*
X55402300Y-14034649D01*
X55402288Y-14034652D01*
X55241299Y-14087998D01*
X55116784Y-14164801D01*
X55109124Y-14169527D01*
X55096958Y-14177031D01*
X55096952Y-14177035D01*
X55070002Y-14203985D01*
X55015485Y-14231761D01*
X54955054Y-14222189D01*
X54929998Y-14203985D01*
X54903047Y-14177035D01*
X54903044Y-14177032D01*
X54830870Y-14132514D01*
X54758700Y-14087998D01*
X54597705Y-14034650D01*
X54498352Y-14024500D01*
X53951647Y-14024500D01*
X53852300Y-14034649D01*
X53852288Y-14034652D01*
X53691299Y-14087998D01*
X53566784Y-14164801D01*
X53559124Y-14169527D01*
X53546958Y-14177031D01*
X53546957Y-14177031D01*
X53427031Y-14296957D01*
X53392789Y-14352473D01*
X53346148Y-14392074D01*
X53308528Y-14399500D01*
X51846443Y-14399500D01*
X51788252Y-14380593D01*
X51776439Y-14370504D01*
X50037221Y-12631286D01*
X50037220Y-12631284D01*
X49925416Y-12519480D01*
X49925413Y-12519478D01*
X49808760Y-12452128D01*
X49808756Y-12452127D01*
X49791868Y-12442376D01*
X49750930Y-12396907D01*
X49748614Y-12391238D01*
X49698797Y-12257670D01*
X49612549Y-12142458D01*
X49612548Y-12142457D01*
X49612546Y-12142454D01*
X49548818Y-12094747D01*
X49497329Y-12056202D01*
X49362488Y-12005910D01*
X49362483Y-12005909D01*
X49362481Y-12005908D01*
X49362477Y-12005908D01*
X49331249Y-12002550D01*
X49302873Y-11999500D01*
X49302870Y-11999500D01*
X46457133Y-11999500D01*
X46457129Y-11999500D01*
X46457128Y-11999501D01*
X46449949Y-12000272D01*
X46397519Y-12005908D01*
X46397514Y-12005909D01*
X46262670Y-12056202D01*
X46147458Y-12142450D01*
X46147450Y-12142458D01*
X46061202Y-12257670D01*
X46032325Y-12335096D01*
X45994275Y-12383011D01*
X45939567Y-12399500D01*
X44060433Y-12399500D01*
X44002242Y-12380593D01*
X43967675Y-12335096D01*
X43938797Y-12257670D01*
X43852549Y-12142458D01*
X43852548Y-12142457D01*
X43852546Y-12142454D01*
X43788818Y-12094747D01*
X43737329Y-12056202D01*
X43602488Y-12005910D01*
X43602483Y-12005909D01*
X43602481Y-12005908D01*
X43602477Y-12005908D01*
X43571249Y-12002550D01*
X43542873Y-11999500D01*
X43542870Y-11999500D01*
X40697133Y-11999500D01*
X40697129Y-11999500D01*
X40697128Y-11999501D01*
X40689949Y-12000272D01*
X40637519Y-12005908D01*
X40637514Y-12005909D01*
X40502670Y-12056202D01*
X40387458Y-12142450D01*
X40387450Y-12142458D01*
X40301202Y-12257670D01*
X40272325Y-12335096D01*
X40234275Y-12383011D01*
X40179567Y-12399500D01*
X39820433Y-12399500D01*
X39762242Y-12380593D01*
X39727675Y-12335096D01*
X39698797Y-12257670D01*
X39612549Y-12142458D01*
X39612548Y-12142457D01*
X39612546Y-12142454D01*
X39548818Y-12094747D01*
X39497329Y-12056202D01*
X39362488Y-12005910D01*
X39362483Y-12005909D01*
X39362481Y-12005908D01*
X39362477Y-12005908D01*
X39331249Y-12002550D01*
X39302873Y-11999500D01*
X39302870Y-11999500D01*
X36457133Y-11999500D01*
X36457129Y-11999500D01*
X36457128Y-11999501D01*
X36449949Y-12000272D01*
X36397519Y-12005908D01*
X36397514Y-12005909D01*
X36262670Y-12056202D01*
X36147458Y-12142450D01*
X36147450Y-12142458D01*
X36061202Y-12257670D01*
X36032325Y-12335096D01*
X35994275Y-12383011D01*
X35939567Y-12399500D01*
X34060433Y-12399500D01*
X34002242Y-12380593D01*
X33967675Y-12335096D01*
X33938797Y-12257670D01*
X33852549Y-12142458D01*
X33852548Y-12142457D01*
X33852546Y-12142454D01*
X33788818Y-12094747D01*
X33737329Y-12056202D01*
X33602488Y-12005910D01*
X33602483Y-12005909D01*
X33602481Y-12005908D01*
X33602477Y-12005908D01*
X33571249Y-12002550D01*
X33542873Y-11999500D01*
X33542870Y-11999500D01*
X30697133Y-11999500D01*
X30697129Y-11999500D01*
X30697128Y-11999501D01*
X30689949Y-12000272D01*
X30637519Y-12005908D01*
X30637514Y-12005909D01*
X30502670Y-12056202D01*
X30387458Y-12142450D01*
X30387450Y-12142458D01*
X30301202Y-12257670D01*
X30250910Y-12392511D01*
X30250908Y-12392522D01*
X30244500Y-12452127D01*
X30244500Y-13547866D01*
X30244501Y-13547870D01*
X30250908Y-13607480D01*
X30250909Y-13607485D01*
X30301202Y-13742329D01*
X30353017Y-13811544D01*
X30387454Y-13857546D01*
X30387457Y-13857548D01*
X30387458Y-13857549D01*
X30502670Y-13943797D01*
X30637511Y-13994089D01*
X30637512Y-13994089D01*
X30637517Y-13994091D01*
X30697127Y-14000500D01*
X33542872Y-14000499D01*
X33602483Y-13994091D01*
X33737326Y-13943798D01*
X33737329Y-13943797D01*
X33737329Y-13943796D01*
X33737331Y-13943796D01*
X33852546Y-13857546D01*
X33938796Y-13742331D01*
X33965586Y-13670504D01*
X33967675Y-13664904D01*
X34005725Y-13616989D01*
X34060433Y-13600500D01*
X35939567Y-13600500D01*
X35997758Y-13619407D01*
X36032325Y-13664904D01*
X36061202Y-13742329D01*
X36113017Y-13811544D01*
X36147454Y-13857546D01*
X36147457Y-13857548D01*
X36147458Y-13857549D01*
X36262670Y-13943797D01*
X36397511Y-13994089D01*
X36397512Y-13994089D01*
X36397517Y-13994091D01*
X36457127Y-14000500D01*
X39302872Y-14000499D01*
X39362483Y-13994091D01*
X39497326Y-13943798D01*
X39497329Y-13943797D01*
X39497329Y-13943796D01*
X39497331Y-13943796D01*
X39612546Y-13857546D01*
X39698796Y-13742331D01*
X39725586Y-13670504D01*
X39727675Y-13664904D01*
X39765725Y-13616989D01*
X39820433Y-13600500D01*
X40179567Y-13600500D01*
X40237758Y-13619407D01*
X40272325Y-13664904D01*
X40301202Y-13742329D01*
X40353017Y-13811544D01*
X40387454Y-13857546D01*
X40387457Y-13857548D01*
X40387458Y-13857549D01*
X40502670Y-13943797D01*
X40637511Y-13994089D01*
X40637512Y-13994089D01*
X40637517Y-13994091D01*
X40697127Y-14000500D01*
X43542872Y-14000499D01*
X43602483Y-13994091D01*
X43737326Y-13943798D01*
X43737329Y-13943797D01*
X43737329Y-13943796D01*
X43737331Y-13943796D01*
X43852546Y-13857546D01*
X43938796Y-13742331D01*
X43965586Y-13670504D01*
X43967675Y-13664904D01*
X44005725Y-13616989D01*
X44060433Y-13600500D01*
X45939567Y-13600500D01*
X45997758Y-13619407D01*
X46032325Y-13664904D01*
X46061202Y-13742329D01*
X46113017Y-13811544D01*
X46147454Y-13857546D01*
X46147457Y-13857548D01*
X46147458Y-13857549D01*
X46262670Y-13943797D01*
X46397511Y-13994089D01*
X46397512Y-13994089D01*
X46397517Y-13994091D01*
X46457127Y-14000500D01*
X49302872Y-14000499D01*
X49362483Y-13994091D01*
X49497331Y-13943796D01*
X49516688Y-13929304D01*
X49574596Y-13909568D01*
X49633052Y-13927640D01*
X49646019Y-13938554D01*
X50637460Y-14929995D01*
X50665237Y-14984512D01*
X50655666Y-15044944D01*
X50637460Y-15070003D01*
X49646019Y-16061444D01*
X49591502Y-16089221D01*
X49531070Y-16079650D01*
X49516686Y-16070693D01*
X49497329Y-16056202D01*
X49362488Y-16005910D01*
X49362483Y-16005909D01*
X49362481Y-16005908D01*
X49362477Y-16005908D01*
X49331249Y-16002550D01*
X49302873Y-15999500D01*
X49302870Y-15999500D01*
X46457133Y-15999500D01*
X46457129Y-15999500D01*
X46457128Y-15999501D01*
X46449949Y-16000272D01*
X46397519Y-16005908D01*
X46397514Y-16005909D01*
X46262670Y-16056202D01*
X46147458Y-16142450D01*
X46147450Y-16142458D01*
X46061202Y-16257670D01*
X46032325Y-16335096D01*
X45994275Y-16383011D01*
X45939567Y-16399500D01*
X44060433Y-16399500D01*
X44002242Y-16380593D01*
X43967675Y-16335096D01*
X43938797Y-16257670D01*
X43852549Y-16142458D01*
X43852548Y-16142457D01*
X43852546Y-16142454D01*
X43788818Y-16094747D01*
X43737329Y-16056202D01*
X43602488Y-16005910D01*
X43602483Y-16005909D01*
X43602481Y-16005908D01*
X43602477Y-16005908D01*
X43571249Y-16002550D01*
X43542873Y-15999500D01*
X43542870Y-15999500D01*
X40697133Y-15999500D01*
X40697129Y-15999500D01*
X40697128Y-15999501D01*
X40689949Y-16000272D01*
X40637519Y-16005908D01*
X40637514Y-16005909D01*
X40502670Y-16056202D01*
X40387458Y-16142450D01*
X40387450Y-16142458D01*
X40301202Y-16257670D01*
X40272325Y-16335096D01*
X40234275Y-16383011D01*
X40179567Y-16399500D01*
X39820433Y-16399500D01*
X39762242Y-16380593D01*
X39727675Y-16335096D01*
X39698797Y-16257670D01*
X39612549Y-16142458D01*
X39612548Y-16142457D01*
X39612546Y-16142454D01*
X39548818Y-16094747D01*
X39497329Y-16056202D01*
X39362488Y-16005910D01*
X39362483Y-16005909D01*
X39362481Y-16005908D01*
X39362477Y-16005908D01*
X39331249Y-16002550D01*
X39302873Y-15999500D01*
X39302870Y-15999500D01*
X36457133Y-15999500D01*
X36457129Y-15999500D01*
X36457128Y-15999501D01*
X36449949Y-16000272D01*
X36397519Y-16005908D01*
X36397514Y-16005909D01*
X36262670Y-16056202D01*
X36147458Y-16142450D01*
X36147450Y-16142458D01*
X36061202Y-16257670D01*
X36032325Y-16335096D01*
X35994275Y-16383011D01*
X35939567Y-16399500D01*
X34060433Y-16399500D01*
X34002242Y-16380593D01*
X33967675Y-16335096D01*
X33938797Y-16257670D01*
X33852549Y-16142458D01*
X33852548Y-16142457D01*
X33852546Y-16142454D01*
X33788818Y-16094747D01*
X33737329Y-16056202D01*
X33602488Y-16005910D01*
X33602483Y-16005909D01*
X33602481Y-16005908D01*
X33602477Y-16005908D01*
X33571249Y-16002550D01*
X33542873Y-15999500D01*
X33542870Y-15999500D01*
X30697133Y-15999500D01*
X30697129Y-15999500D01*
X30697128Y-15999501D01*
X30689949Y-16000272D01*
X30637519Y-16005908D01*
X30637514Y-16005909D01*
X30502670Y-16056202D01*
X30387458Y-16142450D01*
X30387450Y-16142458D01*
X30301202Y-16257670D01*
X30250910Y-16392511D01*
X30250908Y-16392522D01*
X30244500Y-16452129D01*
X30244500Y-17547866D01*
X30244501Y-17547870D01*
X30250908Y-17607480D01*
X30250909Y-17607485D01*
X30301202Y-17742329D01*
X30353017Y-17811544D01*
X30387454Y-17857546D01*
X30387457Y-17857548D01*
X30387458Y-17857549D01*
X30502670Y-17943797D01*
X30637511Y-17994089D01*
X30637512Y-17994089D01*
X30637517Y-17994091D01*
X30697127Y-18000500D01*
X33542872Y-18000499D01*
X33602483Y-17994091D01*
X33708911Y-17954396D01*
X33737329Y-17943797D01*
X33737329Y-17943796D01*
X33737331Y-17943796D01*
X33852546Y-17857546D01*
X33938796Y-17742331D01*
X33954771Y-17699500D01*
X33967675Y-17664904D01*
X34005725Y-17616989D01*
X34060433Y-17600500D01*
X35939567Y-17600500D01*
X35997758Y-17619407D01*
X36032325Y-17664904D01*
X36061202Y-17742329D01*
X36113017Y-17811544D01*
X36147454Y-17857546D01*
X36147457Y-17857548D01*
X36147458Y-17857549D01*
X36262670Y-17943797D01*
X36397511Y-17994089D01*
X36397512Y-17994089D01*
X36397517Y-17994091D01*
X36457127Y-18000500D01*
X39302872Y-18000499D01*
X39362483Y-17994091D01*
X39468911Y-17954396D01*
X39497329Y-17943797D01*
X39497329Y-17943796D01*
X39497331Y-17943796D01*
X39612546Y-17857546D01*
X39698796Y-17742331D01*
X39714771Y-17699500D01*
X39727675Y-17664904D01*
X39765725Y-17616989D01*
X39820433Y-17600500D01*
X40179567Y-17600500D01*
X40237758Y-17619407D01*
X40272325Y-17664904D01*
X40301202Y-17742329D01*
X40353017Y-17811544D01*
X40387454Y-17857546D01*
X40387457Y-17857548D01*
X40387458Y-17857549D01*
X40502670Y-17943797D01*
X40637511Y-17994089D01*
X40637512Y-17994089D01*
X40637517Y-17994091D01*
X40697127Y-18000500D01*
X43542872Y-18000499D01*
X43602483Y-17994091D01*
X43708911Y-17954396D01*
X43737329Y-17943797D01*
X43737329Y-17943796D01*
X43737331Y-17943796D01*
X43852546Y-17857546D01*
X43938796Y-17742331D01*
X43954771Y-17699500D01*
X43967675Y-17664904D01*
X44005725Y-17616989D01*
X44060433Y-17600500D01*
X45939567Y-17600500D01*
X45997758Y-17619407D01*
X46032325Y-17664904D01*
X46061202Y-17742329D01*
X46113017Y-17811544D01*
X46147454Y-17857546D01*
X46147457Y-17857548D01*
X46147458Y-17857549D01*
X46262670Y-17943797D01*
X46397511Y-17994089D01*
X46397512Y-17994089D01*
X46397517Y-17994091D01*
X46457127Y-18000500D01*
X49302872Y-18000499D01*
X49362483Y-17994091D01*
X49468911Y-17954396D01*
X49497329Y-17943797D01*
X49497329Y-17943796D01*
X49497331Y-17943796D01*
X49612546Y-17857546D01*
X49698796Y-17742331D01*
X49714771Y-17699500D01*
X49748615Y-17608760D01*
X49750598Y-17606262D01*
X49750932Y-17603090D01*
X49769451Y-17582521D01*
X49786665Y-17560845D01*
X49791838Y-17557640D01*
X49838604Y-17530639D01*
X49925416Y-17480520D01*
X50037220Y-17368716D01*
X50037221Y-17368713D01*
X51776439Y-15629496D01*
X51830956Y-15601719D01*
X51846443Y-15600500D01*
X53308528Y-15600500D01*
X53366719Y-15619407D01*
X53392787Y-15647525D01*
X53427032Y-15703044D01*
X53546956Y-15822968D01*
X53622126Y-15869334D01*
X53691299Y-15912001D01*
X53691300Y-15912001D01*
X53691303Y-15912003D01*
X53852292Y-15965349D01*
X53951655Y-15975500D01*
X54498344Y-15975499D01*
X54498352Y-15975499D01*
X54597699Y-15965350D01*
X54597699Y-15965349D01*
X54597708Y-15965349D01*
X54758697Y-15912003D01*
X54903044Y-15822968D01*
X54929998Y-15796013D01*
X54984513Y-15768238D01*
X55044945Y-15777809D01*
X55070000Y-15796012D01*
X55096956Y-15822968D01*
X55172126Y-15869334D01*
X55241299Y-15912001D01*
X55241300Y-15912001D01*
X55241303Y-15912003D01*
X55402292Y-15965349D01*
X55501655Y-15975500D01*
X56048344Y-15975499D01*
X56048352Y-15975499D01*
X56147699Y-15965350D01*
X56147699Y-15965349D01*
X56147708Y-15965349D01*
X56308697Y-15912003D01*
X56453044Y-15822968D01*
X56572968Y-15703044D01*
X56662003Y-15558697D01*
X56715349Y-15397708D01*
X56725500Y-15298345D01*
X56725499Y-14939740D01*
X56744406Y-14881550D01*
X56754489Y-14869744D01*
X57132239Y-14491996D01*
X57186755Y-14464219D01*
X57202242Y-14463000D01*
X59850500Y-14463000D01*
X59908691Y-14481907D01*
X59944655Y-14531407D01*
X59949500Y-14562000D01*
X59949500Y-15600016D01*
X59959999Y-15702788D01*
X59960000Y-15702795D01*
X59960001Y-15702797D01*
X60002308Y-15830472D01*
X60015187Y-15869336D01*
X60107285Y-16018652D01*
X60107286Y-16018653D01*
X60107288Y-16018656D01*
X60231344Y-16142712D01*
X60380666Y-16234814D01*
X60547203Y-16289999D01*
X60649991Y-16300500D01*
X63750008Y-16300499D01*
X63750016Y-16300499D01*
X63852788Y-16290000D01*
X63852788Y-16289999D01*
X63852797Y-16289999D01*
X64019334Y-16234814D01*
X64168656Y-16142712D01*
X64292712Y-16018656D01*
X64384814Y-15869334D01*
X64439999Y-15702797D01*
X64450500Y-15600009D01*
X64450499Y-14561999D01*
X64469406Y-14503809D01*
X64518906Y-14467845D01*
X64549499Y-14463000D01*
X65450500Y-14463000D01*
X65508691Y-14481907D01*
X65544655Y-14531407D01*
X65549500Y-14562000D01*
X65549500Y-15600016D01*
X65559999Y-15702788D01*
X65560000Y-15702795D01*
X65560001Y-15702797D01*
X65602308Y-15830472D01*
X65615187Y-15869336D01*
X65707285Y-16018652D01*
X65707286Y-16018653D01*
X65707288Y-16018656D01*
X65831344Y-16142712D01*
X65980666Y-16234814D01*
X66147203Y-16289999D01*
X66249991Y-16300500D01*
X68477113Y-16300499D01*
X68535304Y-16319406D01*
X68571268Y-16368906D01*
X68571268Y-16430092D01*
X68535304Y-16479592D01*
X68514999Y-16490963D01*
X68407222Y-16535605D01*
X68407214Y-16535609D01*
X68276111Y-16623211D01*
X68276107Y-16623214D01*
X68164614Y-16734707D01*
X68164611Y-16734711D01*
X68077009Y-16865814D01*
X68077003Y-16865825D01*
X68016663Y-17011501D01*
X68016663Y-17011503D01*
X67984951Y-17170928D01*
X67983326Y-17170604D01*
X67961558Y-17220363D01*
X67957563Y-17224601D01*
X63043061Y-22139104D01*
X62988544Y-22166881D01*
X62973057Y-22168100D01*
X25298957Y-22168100D01*
X25140842Y-22168100D01*
X25047369Y-22193145D01*
X24988110Y-22209024D01*
X24937995Y-22237959D01*
X24851184Y-22288079D01*
X24739379Y-22399883D01*
X24739380Y-22399884D01*
X24739378Y-22399886D01*
X23063786Y-24075478D01*
X23063784Y-24075480D01*
X23063783Y-24075479D01*
X22951982Y-24187281D01*
X22904770Y-24269056D01*
X22904769Y-24269057D01*
X22872924Y-24324211D01*
X22872923Y-24324215D01*
X22831999Y-24476943D01*
X22831999Y-24476945D01*
X22831999Y-24643031D01*
X22832000Y-24643044D01*
X22832000Y-25416063D01*
X22831999Y-25416081D01*
X22831999Y-25422143D01*
X22831999Y-25580257D01*
X22872923Y-25732985D01*
X22894192Y-25769824D01*
X22895226Y-25771614D01*
X22895227Y-25771617D01*
X22951979Y-25869915D01*
X23063783Y-25981720D01*
X23063784Y-25981720D01*
X23063785Y-25981721D01*
X23063784Y-25981721D01*
X23245723Y-26163659D01*
X23394784Y-26312720D01*
X23531716Y-26391777D01*
X23531718Y-26391777D01*
X23531719Y-26391778D01*
X23608079Y-26412239D01*
X23684440Y-26432700D01*
X23684442Y-26432701D01*
X23684443Y-26432701D01*
X23848621Y-26432701D01*
X23848637Y-26432700D01*
X24907664Y-26432700D01*
X24907680Y-26432701D01*
X24913743Y-26432701D01*
X25071855Y-26432701D01*
X25071857Y-26432701D01*
X25224585Y-26391777D01*
X25224587Y-26391775D01*
X25224589Y-26391775D01*
X25239561Y-26383130D01*
X25274987Y-26362677D01*
X25361516Y-26312720D01*
X25473320Y-26200916D01*
X25473320Y-26200914D01*
X25481470Y-26192765D01*
X25481471Y-26192762D01*
X25669739Y-26004496D01*
X25724256Y-25976719D01*
X25739742Y-25975500D01*
X26081611Y-25975500D01*
X26081616Y-25975500D01*
X26152196Y-25969086D01*
X26314606Y-25918478D01*
X26460185Y-25830472D01*
X26580472Y-25710185D01*
X26668478Y-25564606D01*
X26719086Y-25402196D01*
X26725500Y-25331616D01*
X26725500Y-24889500D01*
X26744407Y-24831309D01*
X26793907Y-24795345D01*
X26824500Y-24790500D01*
X33075257Y-24790500D01*
X33082854Y-24792968D01*
X33090744Y-24791719D01*
X33111399Y-24802243D01*
X33133448Y-24809407D01*
X33145261Y-24819496D01*
X33245504Y-24919739D01*
X33273281Y-24974256D01*
X33274500Y-24989743D01*
X33274500Y-25331620D01*
X33280913Y-25402194D01*
X33331521Y-25564605D01*
X33331522Y-25564607D01*
X33376249Y-25638593D01*
X33419528Y-25710185D01*
X33539815Y-25830472D01*
X33539817Y-25830473D01*
X33544050Y-25834706D01*
X33542297Y-25836458D01*
X33570700Y-25878683D01*
X33574500Y-25905849D01*
X33574500Y-33069057D01*
X33555593Y-33127248D01*
X33545504Y-33139060D01*
X33134662Y-33549903D01*
X33080145Y-33577681D01*
X33064658Y-33578900D01*
X25130737Y-33578900D01*
X25130721Y-33578899D01*
X25124658Y-33578899D01*
X24966543Y-33578899D01*
X24966540Y-33578899D01*
X24813819Y-33619821D01*
X24813818Y-33619821D01*
X24676881Y-33698882D01*
X24380258Y-33995504D01*
X24325742Y-34023281D01*
X24310255Y-34024500D01*
X23951647Y-34024500D01*
X23852300Y-34034649D01*
X23852288Y-34034652D01*
X23691299Y-34087998D01*
X23577477Y-34158206D01*
X23559124Y-34169527D01*
X23546958Y-34177031D01*
X23546957Y-34177031D01*
X23427031Y-34296957D01*
X23427031Y-34296958D01*
X23337998Y-34441299D01*
X23284650Y-34602294D01*
X23274500Y-34701647D01*
X23274500Y-35298352D01*
X23284649Y-35397699D01*
X23284652Y-35397711D01*
X23337998Y-35558700D01*
X23368572Y-35608266D01*
X23427032Y-35703044D01*
X23546956Y-35822968D01*
X23629085Y-35873626D01*
X23691299Y-35912001D01*
X23691300Y-35912001D01*
X23691303Y-35912003D01*
X23852292Y-35965349D01*
X23951655Y-35975500D01*
X24310255Y-35975499D01*
X24368446Y-35994406D01*
X24380259Y-36004495D01*
X24895504Y-36519739D01*
X24923281Y-36574256D01*
X24924500Y-36589743D01*
X24924500Y-42195500D01*
X24905593Y-42253691D01*
X24856093Y-42289655D01*
X24825500Y-42294500D01*
X24634306Y-42294500D01*
X24621773Y-42295486D01*
X24597434Y-42297401D01*
X24597427Y-42297403D01*
X24439602Y-42343256D01*
X24298136Y-42426918D01*
X24181918Y-42543136D01*
X24098256Y-42684602D01*
X24052403Y-42842427D01*
X24052401Y-42842434D01*
X24049500Y-42879311D01*
X24049500Y-43310688D01*
X24052401Y-43347565D01*
X24052401Y-43347568D01*
X24052402Y-43347569D01*
X24098256Y-43505398D01*
X24181919Y-43646865D01*
X24195050Y-43659996D01*
X24195052Y-43659998D01*
X24222828Y-43714516D01*
X24213254Y-43774948D01*
X24195052Y-43800002D01*
X24181919Y-43813135D01*
X24098256Y-43954602D01*
X24052403Y-44112427D01*
X24052401Y-44112434D01*
X24049500Y-44149311D01*
X24049500Y-44580688D01*
X24052401Y-44617565D01*
X24052401Y-44617568D01*
X24052402Y-44617569D01*
X24098256Y-44775398D01*
X24181919Y-44916865D01*
X24195052Y-44929998D01*
X24222828Y-44984516D01*
X24213254Y-45044948D01*
X24195052Y-45070002D01*
X24181919Y-45083135D01*
X24098256Y-45224602D01*
X24052403Y-45382427D01*
X24052401Y-45382434D01*
X24049500Y-45419311D01*
X24049500Y-45850688D01*
X24052401Y-45887565D01*
X24052401Y-45887568D01*
X24052402Y-45887569D01*
X24098256Y-46045398D01*
X24181919Y-46186865D01*
X24195052Y-46199998D01*
X24222828Y-46254516D01*
X24213254Y-46314948D01*
X24195052Y-46340002D01*
X24181919Y-46353135D01*
X24098256Y-46494602D01*
X24052403Y-46652427D01*
X24052401Y-46652434D01*
X24049500Y-46689311D01*
X24049500Y-47120688D01*
X24052401Y-47157565D01*
X24052401Y-47157568D01*
X24052402Y-47157569D01*
X24098256Y-47315398D01*
X24181919Y-47456865D01*
X24298135Y-47573081D01*
X24439602Y-47656744D01*
X24597431Y-47702598D01*
X24634306Y-47705500D01*
X24634311Y-47705500D01*
X26415689Y-47705500D01*
X26415694Y-47705500D01*
X26452569Y-47702598D01*
X26610398Y-47656744D01*
X26751865Y-47573081D01*
X26868081Y-47456865D01*
X26869341Y-47454733D01*
X26871030Y-47453061D01*
X26871900Y-47451941D01*
X26872047Y-47452055D01*
X26905056Y-47419386D01*
X26963716Y-47385520D01*
X27075520Y-47273716D01*
X27075520Y-47273714D01*
X27083670Y-47265565D01*
X27083672Y-47265562D01*
X27169740Y-47179495D01*
X27224257Y-47151718D01*
X27239743Y-47150499D01*
X28926017Y-47150499D01*
X28984208Y-47169406D01*
X29020172Y-47218906D01*
X29021080Y-47221858D01*
X29048256Y-47315398D01*
X29131919Y-47456865D01*
X29248135Y-47573081D01*
X29389602Y-47656744D01*
X29547431Y-47702598D01*
X29584306Y-47705500D01*
X29584311Y-47705500D01*
X31365689Y-47705500D01*
X31365694Y-47705500D01*
X31402569Y-47702598D01*
X31560398Y-47656744D01*
X31701865Y-47573081D01*
X31818081Y-47456865D01*
X31901744Y-47315398D01*
X31947598Y-47157569D01*
X31950500Y-47120694D01*
X31950500Y-46699342D01*
X31969407Y-46641151D01*
X31979497Y-46629338D01*
X31990754Y-46618081D01*
X32232820Y-46376016D01*
X32241838Y-46360397D01*
X32255289Y-46337100D01*
X32300758Y-46296159D01*
X32341025Y-46287600D01*
X41652775Y-46287600D01*
X41710966Y-46306507D01*
X41746930Y-46356007D01*
X41747839Y-46358963D01*
X41748256Y-46360398D01*
X41831919Y-46501865D01*
X41948135Y-46618081D01*
X42089602Y-46701744D01*
X42247431Y-46747598D01*
X42284306Y-46750500D01*
X42284311Y-46750500D01*
X43440689Y-46750500D01*
X43440694Y-46750500D01*
X43477569Y-46747598D01*
X43635398Y-46701744D01*
X43776865Y-46618081D01*
X43893081Y-46501865D01*
X43914786Y-46465162D01*
X43960681Y-46424700D01*
X44021595Y-46418941D01*
X44074260Y-46450086D01*
X44085211Y-46465159D01*
X44106919Y-46501865D01*
X44223135Y-46618081D01*
X44364602Y-46701744D01*
X44522431Y-46747598D01*
X44559306Y-46750500D01*
X44559311Y-46750500D01*
X45715689Y-46750500D01*
X45715694Y-46750500D01*
X45752569Y-46747598D01*
X45910398Y-46701744D01*
X46051865Y-46618081D01*
X46168081Y-46501865D01*
X46251744Y-46360398D01*
X46297598Y-46202569D01*
X46300500Y-46165694D01*
X46300500Y-45734306D01*
X46297598Y-45697431D01*
X46251744Y-45539602D01*
X46168081Y-45398135D01*
X46051865Y-45281919D01*
X45910398Y-45198256D01*
X45752569Y-45152402D01*
X45752568Y-45152401D01*
X45752565Y-45152401D01*
X45729140Y-45150558D01*
X45715694Y-45149500D01*
X44559306Y-45149500D01*
X44546773Y-45150486D01*
X44522434Y-45152401D01*
X44522427Y-45152403D01*
X44364602Y-45198256D01*
X44223135Y-45281919D01*
X44192712Y-45312342D01*
X44138195Y-45340118D01*
X44077763Y-45330546D01*
X44034499Y-45287281D01*
X44024014Y-45234570D01*
X44025500Y-45215694D01*
X44025500Y-44784306D01*
X44024014Y-44765427D01*
X44038298Y-44705934D01*
X44084824Y-44666198D01*
X44145821Y-44661398D01*
X44192710Y-44687656D01*
X44223135Y-44718081D01*
X44364602Y-44801744D01*
X44522431Y-44847598D01*
X44559306Y-44850500D01*
X44559311Y-44850500D01*
X45715689Y-44850500D01*
X45715694Y-44850500D01*
X45752569Y-44847598D01*
X45910398Y-44801744D01*
X46051865Y-44718081D01*
X46168081Y-44601865D01*
X46251744Y-44460398D01*
X46297598Y-44302569D01*
X46300500Y-44265694D01*
X46300500Y-43834306D01*
X46297598Y-43797431D01*
X46251744Y-43639602D01*
X46168081Y-43498135D01*
X46051865Y-43381919D01*
X45910398Y-43298256D01*
X45752569Y-43252402D01*
X45752568Y-43252401D01*
X45752565Y-43252401D01*
X45729140Y-43250558D01*
X45715694Y-43249500D01*
X44559306Y-43249500D01*
X44546773Y-43250486D01*
X44522434Y-43252401D01*
X44522427Y-43252403D01*
X44364602Y-43298256D01*
X44223136Y-43381918D01*
X44106916Y-43498138D01*
X44085213Y-43534837D01*
X44039318Y-43575300D01*
X43978404Y-43581058D01*
X43925739Y-43549912D01*
X43914787Y-43534837D01*
X43893083Y-43498138D01*
X43893082Y-43498137D01*
X43893081Y-43498135D01*
X43776865Y-43381919D01*
X43635398Y-43298256D01*
X43477569Y-43252402D01*
X43477568Y-43252401D01*
X43477565Y-43252401D01*
X43454140Y-43250558D01*
X43440694Y-43249500D01*
X42284306Y-43249500D01*
X42271773Y-43250486D01*
X42247434Y-43252401D01*
X42247427Y-43252403D01*
X42089602Y-43298256D01*
X41948136Y-43381918D01*
X41831918Y-43498136D01*
X41748256Y-43639602D01*
X41702403Y-43797427D01*
X41702401Y-43797434D01*
X41699500Y-43834311D01*
X41699500Y-44265688D01*
X41702401Y-44302565D01*
X41702403Y-44302572D01*
X41748256Y-44460399D01*
X41756658Y-44474606D01*
X41770004Y-44534319D01*
X41756658Y-44575394D01*
X41748256Y-44589600D01*
X41702403Y-44747427D01*
X41702401Y-44747434D01*
X41699500Y-44784311D01*
X41699500Y-44987600D01*
X41680593Y-45045791D01*
X41631093Y-45081755D01*
X41600500Y-45086600D01*
X32392005Y-45086600D01*
X32333814Y-45067693D01*
X32306268Y-45037100D01*
X32265749Y-44966919D01*
X32265749Y-44966918D01*
X32236850Y-44916865D01*
X32232820Y-44909884D01*
X32121016Y-44798080D01*
X32121013Y-44798078D01*
X31979347Y-44656412D01*
X31951570Y-44601895D01*
X31950428Y-44582498D01*
X31950498Y-44580712D01*
X31950500Y-44580694D01*
X31950500Y-44149306D01*
X31947598Y-44112431D01*
X31901744Y-43954602D01*
X31818081Y-43813135D01*
X31804947Y-43800001D01*
X31777172Y-43745487D01*
X31786743Y-43685055D01*
X31804948Y-43659998D01*
X31818081Y-43646865D01*
X31901744Y-43505398D01*
X31947598Y-43347569D01*
X31950500Y-43310694D01*
X31950500Y-42879306D01*
X31947598Y-42842431D01*
X31901744Y-42684602D01*
X31818081Y-42543135D01*
X31701865Y-42426919D01*
X31560398Y-42343256D01*
X31402569Y-42297402D01*
X31402568Y-42297401D01*
X31402565Y-42297401D01*
X31379140Y-42295558D01*
X31365694Y-42294500D01*
X29584306Y-42294500D01*
X29571773Y-42295486D01*
X29547434Y-42297401D01*
X29547427Y-42297403D01*
X29389602Y-42343256D01*
X29248136Y-42426918D01*
X29131918Y-42543136D01*
X29048256Y-42684601D01*
X29021086Y-42778121D01*
X28986694Y-42828726D01*
X28929126Y-42849451D01*
X28926017Y-42849500D01*
X27239743Y-42849500D01*
X27232145Y-42847031D01*
X27224257Y-42848281D01*
X27203603Y-42837757D01*
X27181552Y-42830593D01*
X27169740Y-42820504D01*
X27081166Y-42731931D01*
X27081164Y-42731928D01*
X27081163Y-42731927D01*
X27081163Y-42731928D01*
X27075521Y-42726286D01*
X27075520Y-42726284D01*
X26963716Y-42614480D01*
X26905057Y-42580613D01*
X26872044Y-42547943D01*
X26871899Y-42548057D01*
X26871039Y-42546948D01*
X26869344Y-42545271D01*
X26868081Y-42543135D01*
X26751865Y-42426919D01*
X26610398Y-42343256D01*
X26452569Y-42297402D01*
X26452568Y-42297401D01*
X26452565Y-42297401D01*
X26429140Y-42295558D01*
X26415694Y-42294500D01*
X26415689Y-42294500D01*
X26224500Y-42294500D01*
X26166309Y-42275593D01*
X26130345Y-42226093D01*
X26125500Y-42195500D01*
X26125500Y-36387045D01*
X26125501Y-36387032D01*
X26125501Y-36220942D01*
X26125500Y-36220940D01*
X26088584Y-36083170D01*
X26091785Y-36022068D01*
X26130290Y-35974518D01*
X26153061Y-35963574D01*
X26308697Y-35912003D01*
X26453044Y-35822968D01*
X26572968Y-35703044D01*
X26662003Y-35558697D01*
X26715349Y-35397708D01*
X26725500Y-35298345D01*
X26725499Y-34878899D01*
X26744406Y-34820709D01*
X26793906Y-34784745D01*
X26824499Y-34779900D01*
X33064657Y-34779900D01*
X33072254Y-34782368D01*
X33080144Y-34781119D01*
X33100799Y-34791643D01*
X33122848Y-34798807D01*
X33134661Y-34808896D01*
X33245504Y-34919739D01*
X33273281Y-34974256D01*
X33274500Y-34989743D01*
X33274500Y-35331620D01*
X33280913Y-35402194D01*
X33331521Y-35564605D01*
X33331522Y-35564607D01*
X33381650Y-35647527D01*
X33419528Y-35710185D01*
X33539815Y-35830472D01*
X33685394Y-35918478D01*
X33847804Y-35969086D01*
X33918384Y-35975500D01*
X33918389Y-35975500D01*
X34431611Y-35975500D01*
X34431616Y-35975500D01*
X34502196Y-35969086D01*
X34664606Y-35918478D01*
X34810185Y-35830472D01*
X34929998Y-35710658D01*
X34984513Y-35682883D01*
X35044945Y-35692454D01*
X35070000Y-35710657D01*
X35189815Y-35830472D01*
X35335394Y-35918478D01*
X35497804Y-35969086D01*
X35568384Y-35975500D01*
X35568389Y-35975500D01*
X36081611Y-35975500D01*
X36081616Y-35975500D01*
X36152196Y-35969086D01*
X36314606Y-35918478D01*
X36460185Y-35830472D01*
X36580472Y-35710185D01*
X36617893Y-35648282D01*
X36664178Y-35608266D01*
X36702615Y-35600500D01*
X43308528Y-35600500D01*
X43366719Y-35619407D01*
X43392787Y-35647525D01*
X43427032Y-35703044D01*
X43546956Y-35822968D01*
X43629085Y-35873626D01*
X43691299Y-35912001D01*
X43691300Y-35912001D01*
X43691303Y-35912003D01*
X43852292Y-35965349D01*
X43951655Y-35975500D01*
X44498344Y-35975499D01*
X44498352Y-35975499D01*
X44597699Y-35965350D01*
X44597699Y-35965349D01*
X44597708Y-35965349D01*
X44758697Y-35912003D01*
X44903044Y-35822968D01*
X44929998Y-35796013D01*
X44984513Y-35768238D01*
X45044945Y-35777809D01*
X45070000Y-35796012D01*
X45096956Y-35822968D01*
X45179085Y-35873626D01*
X45241299Y-35912001D01*
X45241300Y-35912001D01*
X45241303Y-35912003D01*
X45402292Y-35965349D01*
X45501655Y-35975500D01*
X46048344Y-35975499D01*
X46048352Y-35975499D01*
X46147699Y-35965350D01*
X46147699Y-35965349D01*
X46147708Y-35965349D01*
X46308697Y-35912003D01*
X46453044Y-35822968D01*
X46572968Y-35703044D01*
X46662003Y-35558697D01*
X46715349Y-35397708D01*
X46725500Y-35298345D01*
X46725499Y-34701656D01*
X46725499Y-34701655D01*
X46725499Y-34701647D01*
X46715350Y-34602300D01*
X46715349Y-34602298D01*
X46715349Y-34602292D01*
X46662003Y-34441303D01*
X46572968Y-34296956D01*
X46550000Y-34273988D01*
X46453047Y-34177034D01*
X46453043Y-34177031D01*
X46422525Y-34158206D01*
X46382925Y-34111564D01*
X46375500Y-34073947D01*
X46375500Y-25926051D01*
X46394407Y-25867860D01*
X46422527Y-25841791D01*
X46431173Y-25836458D01*
X46453044Y-25822968D01*
X46572968Y-25703044D01*
X46662003Y-25558697D01*
X46715349Y-25397708D01*
X46725500Y-25298345D01*
X46725499Y-24891999D01*
X46744406Y-24833809D01*
X46793906Y-24797845D01*
X46824499Y-24793000D01*
X53175500Y-24793000D01*
X53233691Y-24811907D01*
X53269655Y-24861407D01*
X53274500Y-24892000D01*
X53274500Y-25331620D01*
X53280913Y-25402194D01*
X53331521Y-25564605D01*
X53331522Y-25564607D01*
X53376249Y-25638593D01*
X53419528Y-25710185D01*
X53539815Y-25830472D01*
X53635692Y-25888432D01*
X53665252Y-25906302D01*
X53685394Y-25918478D01*
X53847804Y-25969086D01*
X53918384Y-25975500D01*
X53918389Y-25975500D01*
X54431611Y-25975500D01*
X54431616Y-25975500D01*
X54502196Y-25969086D01*
X54664606Y-25918478D01*
X54810185Y-25830472D01*
X54929998Y-25710658D01*
X54984513Y-25682883D01*
X55044945Y-25692454D01*
X55070000Y-25710657D01*
X55189815Y-25830472D01*
X55285692Y-25888432D01*
X55315252Y-25906302D01*
X55335394Y-25918478D01*
X55497804Y-25969086D01*
X55568384Y-25975500D01*
X55568389Y-25975500D01*
X56081611Y-25975500D01*
X56081616Y-25975500D01*
X56152196Y-25969086D01*
X56314606Y-25918478D01*
X56460185Y-25830472D01*
X56580472Y-25710185D01*
X56617893Y-25648282D01*
X56664178Y-25608266D01*
X56702615Y-25600500D01*
X63297385Y-25600500D01*
X63355576Y-25619407D01*
X63382106Y-25648282D01*
X63419528Y-25710185D01*
X63539815Y-25830472D01*
X63635692Y-25888432D01*
X63665252Y-25906302D01*
X63685394Y-25918478D01*
X63847804Y-25969086D01*
X63918384Y-25975500D01*
X64260257Y-25975500D01*
X64318448Y-25994407D01*
X64330261Y-26004496D01*
X64497578Y-26171813D01*
X64497580Y-26171816D01*
X64609384Y-26283620D01*
X64609386Y-26283621D01*
X64609389Y-26283624D01*
X64609388Y-26283624D01*
X64696191Y-26333737D01*
X64696193Y-26333739D01*
X64696194Y-26333739D01*
X64725132Y-26350446D01*
X64746315Y-26362677D01*
X64899043Y-26403601D01*
X64899044Y-26403601D01*
X65063220Y-26403601D01*
X65063236Y-26403600D01*
X66122464Y-26403600D01*
X66122480Y-26403601D01*
X66128543Y-26403601D01*
X66286656Y-26403601D01*
X66286657Y-26403601D01*
X66439385Y-26362677D01*
X66489504Y-26333739D01*
X66576316Y-26283620D01*
X66688120Y-26171816D01*
X66688120Y-26171814D01*
X66696270Y-26163665D01*
X66696271Y-26163662D01*
X66827539Y-26032396D01*
X66882056Y-26004619D01*
X66897542Y-26003400D01*
X68100475Y-26003400D01*
X68158666Y-26022307D01*
X68194630Y-26071807D01*
X68197572Y-26121712D01*
X68189229Y-26163659D01*
X68176300Y-26228657D01*
X68176300Y-26386344D01*
X68207063Y-26540996D01*
X68207063Y-26540998D01*
X68267403Y-26686674D01*
X68267409Y-26686685D01*
X68320112Y-26765559D01*
X68355011Y-26817789D01*
X68466511Y-26929289D01*
X68537028Y-26976407D01*
X68597614Y-27016890D01*
X68597625Y-27016896D01*
X68651438Y-27039185D01*
X68743303Y-27077237D01*
X68897958Y-27108000D01*
X68897959Y-27108000D01*
X69055641Y-27108000D01*
X69055642Y-27108000D01*
X69210297Y-27077237D01*
X69355979Y-27016894D01*
X69487089Y-26929289D01*
X69487090Y-26929287D01*
X69491132Y-26926587D01*
X69492051Y-26927963D01*
X69542632Y-26908171D01*
X69548452Y-26908000D01*
X79700500Y-26908000D01*
X79758691Y-26926907D01*
X79794655Y-26976407D01*
X79799500Y-27007000D01*
X79799500Y-32151000D01*
X79780593Y-32209191D01*
X79731093Y-32245155D01*
X79700500Y-32250000D01*
X56000000Y-32250000D01*
X56000000Y-53250000D01*
X79700500Y-53250000D01*
X79758691Y-53268907D01*
X79794655Y-53318407D01*
X79799500Y-53349000D01*
X79799500Y-67700500D01*
X79780593Y-67758691D01*
X79731093Y-67794655D01*
X79700500Y-67799500D01*
X73001200Y-67799500D01*
X72943009Y-67780593D01*
X72907045Y-67731093D01*
X72902200Y-67700500D01*
X72902200Y-57200944D01*
X72902200Y-57200943D01*
X72861277Y-57048216D01*
X72782220Y-56911284D01*
X72670416Y-56799480D01*
X72533484Y-56720423D01*
X72533481Y-56720422D01*
X72527864Y-56717179D01*
X72529266Y-56714750D01*
X72491663Y-56682612D01*
X72477401Y-56623112D01*
X72483334Y-56596322D01*
X72494091Y-56567483D01*
X72500500Y-56507873D01*
X72500499Y-55512128D01*
X72494091Y-55452517D01*
X72477816Y-55408881D01*
X72475196Y-55347752D01*
X72477816Y-55339687D01*
X72493598Y-55297374D01*
X72500000Y-55237824D01*
X72500000Y-54990001D01*
X72499999Y-54990000D01*
X70000001Y-54990000D01*
X70000000Y-54990001D01*
X70000000Y-55237824D01*
X69999999Y-55237824D01*
X70006401Y-55297370D01*
X70006402Y-55297377D01*
X70022184Y-55339690D01*
X70024803Y-55400819D01*
X70022184Y-55408880D01*
X70005910Y-55452515D01*
X70005908Y-55452522D01*
X69999500Y-55512129D01*
X69999500Y-56507866D01*
X69999501Y-56507870D01*
X70005909Y-56567483D01*
X70021917Y-56610405D01*
X70024536Y-56671534D01*
X70021917Y-56679595D01*
X70005908Y-56722516D01*
X69999500Y-56782129D01*
X69999500Y-57777866D01*
X69999501Y-57777870D01*
X70005909Y-57837483D01*
X70021917Y-57880405D01*
X70024536Y-57941534D01*
X70021917Y-57949595D01*
X70005908Y-57992516D01*
X69999500Y-58052129D01*
X69999500Y-59047866D01*
X69999501Y-59047870D01*
X70005909Y-59107483D01*
X70021917Y-59150405D01*
X70024536Y-59211534D01*
X70021917Y-59219595D01*
X70005908Y-59262516D01*
X69999500Y-59322129D01*
X69999500Y-60317866D01*
X69999501Y-60317870D01*
X70005909Y-60377483D01*
X70021917Y-60420405D01*
X70024536Y-60481534D01*
X70021917Y-60489595D01*
X70005908Y-60532516D01*
X69999500Y-60592129D01*
X69999500Y-61587866D01*
X69999501Y-61587870D01*
X70005909Y-61647483D01*
X70021917Y-61690405D01*
X70024536Y-61751534D01*
X70021917Y-61759595D01*
X70005908Y-61802516D01*
X69999500Y-61862129D01*
X69999500Y-62857866D01*
X69999501Y-62857870D01*
X70005909Y-62917483D01*
X70021917Y-62960405D01*
X70024536Y-63021534D01*
X70021917Y-63029595D01*
X70005908Y-63072516D01*
X69999500Y-63132129D01*
X69999500Y-64127866D01*
X69999501Y-64127870D01*
X70005909Y-64187483D01*
X70021917Y-64230405D01*
X70024536Y-64291534D01*
X70021917Y-64299595D01*
X70005908Y-64342516D01*
X69999500Y-64402129D01*
X69999500Y-65397866D01*
X69999501Y-65397870D01*
X70005909Y-65457483D01*
X70021917Y-65500405D01*
X70024536Y-65561534D01*
X70021917Y-65569595D01*
X70005908Y-65612516D01*
X69999500Y-65672129D01*
X69999500Y-66667866D01*
X69999501Y-66667870D01*
X70005909Y-66727483D01*
X70021917Y-66770405D01*
X70024536Y-66831534D01*
X70021917Y-66839595D01*
X70005908Y-66882516D01*
X69999500Y-66942129D01*
X69999501Y-67700500D01*
X69980594Y-67758691D01*
X69931094Y-67794655D01*
X69900501Y-67799500D01*
X299500Y-67799500D01*
X241309Y-67780593D01*
X205345Y-67731093D01*
X200500Y-67700500D01*
X200500Y-60052483D01*
X5474500Y-60052483D01*
X5474500Y-61152516D01*
X5484999Y-61255288D01*
X5485002Y-61255300D01*
X5540187Y-61421836D01*
X5632285Y-61571152D01*
X5632286Y-61571153D01*
X5632288Y-61571156D01*
X5756344Y-61695212D01*
X5905666Y-61787314D01*
X6072203Y-61842499D01*
X6174991Y-61853000D01*
X7575008Y-61852999D01*
X7575016Y-61852999D01*
X7677788Y-61842500D01*
X7677788Y-61842499D01*
X7677797Y-61842499D01*
X7844334Y-61787314D01*
X7993656Y-61695212D01*
X8117712Y-61571156D01*
X8209814Y-61421834D01*
X8264999Y-61255297D01*
X8275500Y-61152509D01*
X8275499Y-60052492D01*
X8275499Y-60052491D01*
X8275499Y-60052483D01*
X15724500Y-60052483D01*
X15724500Y-61152516D01*
X15734999Y-61255288D01*
X15735002Y-61255300D01*
X15790187Y-61421836D01*
X15882285Y-61571152D01*
X15882286Y-61571153D01*
X15882288Y-61571156D01*
X16006344Y-61695212D01*
X16155666Y-61787314D01*
X16322203Y-61842499D01*
X16424991Y-61853000D01*
X17825008Y-61852999D01*
X17825016Y-61852999D01*
X17927788Y-61842500D01*
X17927788Y-61842499D01*
X17927797Y-61842499D01*
X18094334Y-61787314D01*
X18243656Y-61695212D01*
X18367712Y-61571156D01*
X18459814Y-61421834D01*
X18514999Y-61255297D01*
X18525500Y-61152509D01*
X18525499Y-60052492D01*
X18525499Y-60052491D01*
X18525499Y-60052483D01*
X18515000Y-59949711D01*
X18514999Y-59949709D01*
X18514999Y-59949703D01*
X18459814Y-59783166D01*
X18367712Y-59633844D01*
X18243656Y-59509788D01*
X18243653Y-59509786D01*
X18243652Y-59509785D01*
X18094336Y-59417687D01*
X18094335Y-59417686D01*
X18094334Y-59417686D01*
X17927797Y-59362501D01*
X17927794Y-59362500D01*
X17825016Y-59352000D01*
X16424983Y-59352000D01*
X16322211Y-59362499D01*
X16322199Y-59362502D01*
X16155663Y-59417687D01*
X16006347Y-59509785D01*
X15882285Y-59633847D01*
X15790187Y-59783163D01*
X15735000Y-59949705D01*
X15724500Y-60052483D01*
X8275499Y-60052483D01*
X8265000Y-59949711D01*
X8264999Y-59949709D01*
X8264999Y-59949703D01*
X8209814Y-59783166D01*
X8117712Y-59633844D01*
X7993656Y-59509788D01*
X7993653Y-59509786D01*
X7993652Y-59509785D01*
X7844336Y-59417687D01*
X7844335Y-59417686D01*
X7844334Y-59417686D01*
X7677797Y-59362501D01*
X7677794Y-59362500D01*
X7575016Y-59352000D01*
X6174983Y-59352000D01*
X6072211Y-59362499D01*
X6072199Y-59362502D01*
X5905663Y-59417687D01*
X5756347Y-59509785D01*
X5632285Y-59633847D01*
X5540187Y-59783163D01*
X5485000Y-59949705D01*
X5474500Y-60052483D01*
X200500Y-60052483D01*
X200500Y-56547483D01*
X5474500Y-56547483D01*
X5474500Y-57497516D01*
X5484999Y-57600288D01*
X5485002Y-57600300D01*
X5540187Y-57766836D01*
X5632285Y-57916152D01*
X5632286Y-57916153D01*
X5632288Y-57916156D01*
X5756344Y-58040212D01*
X5756346Y-58040213D01*
X5756347Y-58040214D01*
X5801394Y-58067999D01*
X5905666Y-58132314D01*
X6072203Y-58187499D01*
X6174991Y-58198000D01*
X7575008Y-58197999D01*
X7575016Y-58197999D01*
X7677788Y-58187500D01*
X7677788Y-58187499D01*
X7677797Y-58187499D01*
X7844334Y-58132314D01*
X7993656Y-58040212D01*
X8117712Y-57916156D01*
X8209814Y-57766834D01*
X8235380Y-57689678D01*
X8271630Y-57640391D01*
X8329929Y-57621822D01*
X8388009Y-57641067D01*
X8414076Y-57669603D01*
X8426214Y-57689681D01*
X8494528Y-57802685D01*
X8614815Y-57922972D01*
X8656787Y-57948345D01*
X8760390Y-58010976D01*
X8760394Y-58010978D01*
X8922804Y-58061586D01*
X8993384Y-58068000D01*
X8993389Y-58068000D01*
X9506611Y-58068000D01*
X9506616Y-58068000D01*
X9577196Y-58061586D01*
X9739606Y-58010978D01*
X9820178Y-57962269D01*
X9879756Y-57948345D01*
X9922608Y-57962268D01*
X10004529Y-58011791D01*
X10004533Y-58011792D01*
X10004535Y-58011793D01*
X10084574Y-58036734D01*
X10164620Y-58061677D01*
X10234199Y-58068000D01*
X10725800Y-58067999D01*
X10795380Y-58061677D01*
X10955471Y-58011791D01*
X10955478Y-58011786D01*
X10958662Y-58010354D01*
X10960852Y-58010114D01*
X10961188Y-58010010D01*
X10961208Y-58010075D01*
X11019486Y-58003707D01*
X11039757Y-58011697D01*
X11040272Y-58010555D01*
X11045725Y-58013009D01*
X11045730Y-58013012D01*
X11202343Y-58061815D01*
X11270406Y-58068000D01*
X11270412Y-58068000D01*
X11729588Y-58068000D01*
X11729594Y-58068000D01*
X11797657Y-58061815D01*
X11954270Y-58013012D01*
X11954280Y-58013005D01*
X11959360Y-58010720D01*
X12020183Y-58004073D01*
X12040640Y-58010720D01*
X12045722Y-58013007D01*
X12045730Y-58013012D01*
X12202343Y-58061815D01*
X12270406Y-58068000D01*
X12270412Y-58068000D01*
X12729588Y-58068000D01*
X12729594Y-58068000D01*
X12797657Y-58061815D01*
X12954270Y-58013012D01*
X12954274Y-58013009D01*
X12959729Y-58010555D01*
X12960941Y-58013248D01*
X13008957Y-58001974D01*
X13041329Y-58010351D01*
X13044531Y-58011792D01*
X13135736Y-58040212D01*
X13204620Y-58061677D01*
X13274199Y-58068000D01*
X13765800Y-58067999D01*
X13835380Y-58061677D01*
X13971859Y-58019148D01*
X13995465Y-58011793D01*
X13995465Y-58011792D01*
X13995471Y-58011791D01*
X14077392Y-57962267D01*
X14136966Y-57948345D01*
X14179819Y-57962268D01*
X14260394Y-58010978D01*
X14422804Y-58061586D01*
X14493384Y-58068000D01*
X14493389Y-58068000D01*
X15006611Y-58068000D01*
X15006616Y-58068000D01*
X15077196Y-58061586D01*
X15239606Y-58010978D01*
X15385185Y-57922972D01*
X15505472Y-57802685D01*
X15585923Y-57669602D01*
X15632208Y-57629586D01*
X15693174Y-57624418D01*
X15745536Y-57656071D01*
X15764620Y-57689680D01*
X15790187Y-57766836D01*
X15882285Y-57916152D01*
X15882286Y-57916153D01*
X15882288Y-57916156D01*
X16006344Y-58040212D01*
X16006346Y-58040213D01*
X16006347Y-58040214D01*
X16051394Y-58067999D01*
X16155666Y-58132314D01*
X16322203Y-58187499D01*
X16424991Y-58198000D01*
X17825008Y-58197999D01*
X17825016Y-58197999D01*
X17927788Y-58187500D01*
X17927788Y-58187499D01*
X17927797Y-58187499D01*
X18094334Y-58132314D01*
X18243656Y-58040212D01*
X18367712Y-57916156D01*
X18459814Y-57766834D01*
X18514999Y-57600297D01*
X18525500Y-57497509D01*
X18525499Y-56547492D01*
X18525499Y-56547491D01*
X18525499Y-56547483D01*
X18515000Y-56444711D01*
X18514999Y-56444709D01*
X18514999Y-56444703D01*
X18459814Y-56278166D01*
X18367712Y-56128844D01*
X18243656Y-56004788D01*
X18243653Y-56004786D01*
X18243652Y-56004785D01*
X18094336Y-55912687D01*
X18094335Y-55912686D01*
X18094334Y-55912686D01*
X17927797Y-55857501D01*
X17927794Y-55857500D01*
X17825016Y-55847000D01*
X16424983Y-55847000D01*
X16322211Y-55857499D01*
X16322199Y-55857502D01*
X16155663Y-55912687D01*
X16006347Y-56004785D01*
X15882285Y-56128847D01*
X15790186Y-56278164D01*
X15785722Y-56291635D01*
X15749468Y-56340922D01*
X15691167Y-56359487D01*
X15633088Y-56340238D01*
X15597416Y-56290528D01*
X15597315Y-56290208D01*
X15593478Y-56277894D01*
X15505472Y-56132315D01*
X15385185Y-56012028D01*
X15343210Y-55986653D01*
X15239607Y-55924022D01*
X15239605Y-55924021D01*
X15077194Y-55873413D01*
X15006620Y-55867000D01*
X15006616Y-55867000D01*
X14493384Y-55867000D01*
X14493379Y-55867000D01*
X14422805Y-55873413D01*
X14260396Y-55924021D01*
X14260394Y-55924021D01*
X14260394Y-55924022D01*
X14218030Y-55949632D01*
X14179821Y-55972730D01*
X14120240Y-55986653D01*
X14077389Y-55972730D01*
X14039180Y-55949632D01*
X13995471Y-55923209D01*
X13995470Y-55923208D01*
X13995469Y-55923208D01*
X13995464Y-55923206D01*
X13835385Y-55873324D01*
X13835380Y-55873323D01*
X13833850Y-55873184D01*
X13765801Y-55867000D01*
X13765799Y-55867000D01*
X13274207Y-55867000D01*
X13274192Y-55867001D01*
X13204621Y-55873322D01*
X13204615Y-55873324D01*
X13044525Y-55923209D01*
X13041315Y-55924654D01*
X13039123Y-55924892D01*
X13038812Y-55924990D01*
X13038792Y-55924928D01*
X12980490Y-55931286D01*
X12960228Y-55923332D01*
X12959728Y-55924445D01*
X12954263Y-55921985D01*
X12797662Y-55873186D01*
X12797656Y-55873184D01*
X12729599Y-55867000D01*
X12729594Y-55867000D01*
X12270406Y-55867000D01*
X12270400Y-55867000D01*
X12202343Y-55873184D01*
X12202337Y-55873186D01*
X12045727Y-55921988D01*
X12040626Y-55924284D01*
X11979802Y-55930922D01*
X11959374Y-55924284D01*
X11954272Y-55921988D01*
X11797662Y-55873186D01*
X11797656Y-55873184D01*
X11729599Y-55867000D01*
X11729594Y-55867000D01*
X11270406Y-55867000D01*
X11270400Y-55867000D01*
X11202343Y-55873184D01*
X11202337Y-55873186D01*
X11045735Y-55921985D01*
X11040269Y-55924446D01*
X11039070Y-55921782D01*
X10990867Y-55933011D01*
X10958666Y-55924647D01*
X10955468Y-55923207D01*
X10795385Y-55873324D01*
X10795380Y-55873323D01*
X10793850Y-55873184D01*
X10725801Y-55867000D01*
X10725799Y-55867000D01*
X10234207Y-55867000D01*
X10234192Y-55867001D01*
X10164621Y-55873322D01*
X10164615Y-55873324D01*
X10004534Y-55923206D01*
X10004527Y-55923209D01*
X9922610Y-55972730D01*
X9863030Y-55986653D01*
X9820178Y-55972729D01*
X9739611Y-55924024D01*
X9739605Y-55924021D01*
X9577194Y-55873413D01*
X9506620Y-55867000D01*
X9506616Y-55867000D01*
X8993384Y-55867000D01*
X8993379Y-55867000D01*
X8922805Y-55873413D01*
X8760394Y-55924021D01*
X8760392Y-55924022D01*
X8614816Y-56012027D01*
X8494527Y-56132316D01*
X8406522Y-56277892D01*
X8406520Y-56277898D01*
X8402767Y-56289943D01*
X8367403Y-56339873D01*
X8309445Y-56359482D01*
X8251030Y-56341278D01*
X8214472Y-56292216D01*
X8214277Y-56291635D01*
X8209814Y-56278166D01*
X8209646Y-56277894D01*
X8117714Y-56128847D01*
X8117713Y-56128846D01*
X8117712Y-56128844D01*
X7993656Y-56004788D01*
X7993653Y-56004786D01*
X7993652Y-56004785D01*
X7844336Y-55912687D01*
X7844335Y-55912686D01*
X7844334Y-55912686D01*
X7677797Y-55857501D01*
X7677794Y-55857500D01*
X7575016Y-55847000D01*
X6174983Y-55847000D01*
X6072211Y-55857499D01*
X6072199Y-55857502D01*
X5905663Y-55912687D01*
X5756347Y-56004785D01*
X5632285Y-56128847D01*
X5540187Y-56278163D01*
X5485000Y-56444705D01*
X5474500Y-56547483D01*
X200500Y-56547483D01*
X200500Y-54242175D01*
X70000000Y-54242175D01*
X70000000Y-54489999D01*
X70000001Y-54490000D01*
X70999999Y-54490000D01*
X71000000Y-54489999D01*
X71000000Y-53790001D01*
X71500000Y-53790001D01*
X71500000Y-54489999D01*
X71500001Y-54490000D01*
X72499999Y-54490000D01*
X72500000Y-54489999D01*
X72500000Y-54242175D01*
X72493598Y-54182629D01*
X72493596Y-54182618D01*
X72443353Y-54047911D01*
X72443352Y-54047909D01*
X72357192Y-53932815D01*
X72357184Y-53932807D01*
X72242090Y-53846647D01*
X72242088Y-53846646D01*
X72107381Y-53796403D01*
X72107370Y-53796401D01*
X72047824Y-53790000D01*
X71500001Y-53790000D01*
X71500000Y-53790001D01*
X71000000Y-53790001D01*
X70999999Y-53790000D01*
X70452176Y-53790000D01*
X70392629Y-53796401D01*
X70392618Y-53796403D01*
X70257911Y-53846646D01*
X70257909Y-53846647D01*
X70142815Y-53932807D01*
X70142807Y-53932815D01*
X70056647Y-54047909D01*
X70056646Y-54047911D01*
X70006403Y-54182618D01*
X70006401Y-54182629D01*
X70000000Y-54242175D01*
X200500Y-54242175D01*
X200500Y-14668379D01*
X23274500Y-14668379D01*
X23274500Y-15331620D01*
X23280913Y-15402194D01*
X23331521Y-15564605D01*
X23331522Y-15564607D01*
X23381650Y-15647527D01*
X23419528Y-15710185D01*
X23539815Y-15830472D01*
X23685394Y-15918478D01*
X23847804Y-15969086D01*
X23918384Y-15975500D01*
X23918389Y-15975500D01*
X24431611Y-15975500D01*
X24431616Y-15975500D01*
X24502196Y-15969086D01*
X24664606Y-15918478D01*
X24810185Y-15830472D01*
X24929998Y-15710658D01*
X24984513Y-15682883D01*
X25044945Y-15692454D01*
X25070000Y-15710657D01*
X25189815Y-15830472D01*
X25335394Y-15918478D01*
X25497804Y-15969086D01*
X25568384Y-15975500D01*
X25568389Y-15975500D01*
X26081611Y-15975500D01*
X26081616Y-15975500D01*
X26152196Y-15969086D01*
X26314606Y-15918478D01*
X26460185Y-15830472D01*
X26580472Y-15710185D01*
X26668478Y-15564606D01*
X26719086Y-15402196D01*
X26725500Y-15331616D01*
X26725500Y-14668384D01*
X26719086Y-14597804D01*
X26668478Y-14435394D01*
X26580472Y-14289815D01*
X26460185Y-14169528D01*
X26325319Y-14087998D01*
X26314607Y-14081522D01*
X26314605Y-14081521D01*
X26152194Y-14030913D01*
X26081620Y-14024500D01*
X26081616Y-14024500D01*
X25568384Y-14024500D01*
X25568379Y-14024500D01*
X25497805Y-14030913D01*
X25335394Y-14081521D01*
X25335392Y-14081522D01*
X25189816Y-14169527D01*
X25189815Y-14169527D01*
X25189815Y-14169528D01*
X25070001Y-14289341D01*
X25015487Y-14317117D01*
X24955055Y-14307546D01*
X24929999Y-14289342D01*
X24810185Y-14169528D01*
X24675319Y-14087998D01*
X24664607Y-14081522D01*
X24664605Y-14081521D01*
X24502194Y-14030913D01*
X24431620Y-14024500D01*
X24431616Y-14024500D01*
X23918384Y-14024500D01*
X23918379Y-14024500D01*
X23847805Y-14030913D01*
X23685394Y-14081521D01*
X23685392Y-14081522D01*
X23539816Y-14169527D01*
X23419527Y-14289816D01*
X23331522Y-14435392D01*
X23331521Y-14435394D01*
X23280913Y-14597805D01*
X23274500Y-14668379D01*
X200500Y-14668379D01*
X200500Y-299500D01*
X219407Y-241309D01*
X268907Y-205345D01*
X299500Y-200500D01*
X79700500Y-200500D01*
X79758691Y-219407D01*
G37*
%TD.AperFunction*%
%TD*%
M02*
